<?xml version="1.0" encoding="UTF-8"?> <svg xmlns="http://www.w3.org/2000/svg" width="159" height="166" viewBox="0 0 159 166" fill="none"><path d="M48.3829 78.891C48.3829 78.891 -11.2358 120.655 2.38449 153.821C10.4989 173.59 41.1211 159.327 49.1488 145.757L32.0457 137.78C32.0457 137.78 29.5601 142.722 23.5122 145.15C19.2058 146.877 17.1176 142.238 18.3387 136.595C21.2723 123.025 50.8829 106.847 50.8829 106.847L48.3829 78.891Z" fill="white" stroke="#602B7A" stroke-width="0.722563" stroke-linecap="round" stroke-linejoin="round"></path><path d="M46.3019 82.0341C46.3019 82.0341 17.2549 104.014 8.548 121.132C-0.158893 138.25 0.49864 147.021 3.46837 152.845C6.43088 158.669 12.9123 166.032 29.0905 160.143C45.2614 154.254 46.0996 146.487 45.2831 145.8C44.4666 145.114 33.4403 138.416 32.7033 139.109C31.9663 139.803 19.5021 154.486 15.8314 140.742C12.71 129.059 49.2572 105.619 49.2572 105.619L46.3092 82.0413L46.3019 82.0341Z" fill="#E63417"></path><path d="M94.0127 160.736L43.5344 159.572C43.5344 159.572 28.6352 93.9925 47.6964 78.2045C53.5997 73.32 61.3456 70.5887 71.5265 71.8243C80.6453 72.9298 87.394 76.2753 92.3508 80.878C98.4637 86.5357 100.711 97.1862 100.978 108.913C101.535 132.635 94.0127 160.736 94.0127 160.736Z" fill="white" stroke="#602B7A" stroke-width="0.722563" stroke-linecap="round" stroke-linejoin="round"></path><path d="M71.1581 72.6625C86.7582 74.5989 97.3293 81.4777 98.7961 99.3684C100.263 117.259 98.3987 129.145 97.192 137.426C95.9926 145.706 95.0532 157.723 91.9823 158.655C88.9114 159.587 45.4637 159.139 44.6617 157C43.8596 154.861 36.5762 117.526 39.3797 98.6964C42.1833 79.8664 54.9943 70.6537 71.1508 72.6552L71.1581 72.6625Z" fill="#29235C"></path><path d="M92.3508 80.8708C89.0487 88.0097 83.1237 95.705 72.7405 96.666C72.0251 96.731 71.2809 96.7672 70.515 96.7672C68.3834 96.7672 66.4397 96.5432 64.6694 96.1241C53.8743 93.624 49.4595 84.3102 47.6964 78.1973C53.5998 73.3128 61.3456 70.5815 71.5265 71.8171C80.6453 72.9226 87.394 76.2681 92.3508 80.8708Z" fill="white" stroke="#602B7A" stroke-width="0.722563" stroke-linecap="round" stroke-linejoin="round"></path><path d="M49.0404 78.6597C48.7514 80.3867 55.0955 95.0402 68.7013 95.6833C84.222 96.4203 90.3421 82.9229 90.7395 81.3404C91.1369 79.758 83.0442 73.8475 71.476 72.3518C59.9077 70.8633 49.3872 76.5715 49.0404 78.6597Z" fill="#E63417"></path><path d="M59.6837 87.7279L70.3199 75.1626L76.7001 89.2742L89.3666 71.6798L54.2717 68.002L59.6837 87.7279Z" fill="white" stroke="#602B7A" stroke-width="0.722563" stroke-linecap="round" stroke-linejoin="round"></path><path d="M66.1651 78.6381L73.1306 78.8332C73.1306 78.8332 72.6465 87.2438 68.8747 86.6657C65.1029 86.0877 66.1651 78.6381 66.1651 78.6381Z" fill="white" stroke="#602B7A" stroke-width="0.722563" stroke-linecap="round" stroke-linejoin="round"></path><path d="M72.7405 96.6732C72.0251 96.7383 71.2809 96.7744 70.515 96.7744C68.3834 96.7744 66.4397 96.5504 64.6694 96.1313C65.8689 88.3276 66.736 85.0255 66.736 85.0255H71.3748C71.3748 85.0255 72.2853 90.3002 72.7332 96.6732H72.7405Z" fill="white" stroke="#602B7A" stroke-width="0.722563" stroke-linecap="round" stroke-linejoin="round"></path><path d="M70.3994 88.3927L66.5481 90.8711" stroke="#E63417" stroke-width="0.722563" stroke-linecap="round" stroke-linejoin="round"></path><path d="M70.6522 91.6514L66.8082 94.1298" stroke="#E63417" stroke-width="0.722563" stroke-linecap="round" stroke-linejoin="round"></path><path d="M38.462 141.349C41.663 138.387 42.5806 134.738 43.5922 130.915C44.4304 127.772 44.7989 124.687 45.059 121.139C45.0879 120.749 44.8639 120.352 44.4882 120.243C44.2931 120.185 44.1341 120.243 44.098 120.511C42.6023 124.232 39.6687 131.349 37.8767 134.355C36.3088 136.978 34.2567 141.711 31.8 143.9C29.271 146.154 35.4417 144.16 38.4692 141.357L38.462 141.349Z" fill="white" stroke="#602B7A" stroke-width="0.722563" stroke-linecap="round" stroke-linejoin="round"></path><path d="M43.9246 147.433C50.6878 141.291 57.7328 135.02 60.5869 132.888C66.353 128.596 61.4902 127.902 52.5665 135.764C52.5665 135.764 68.8892 123.755 67.9137 122.678C66.9383 121.602 51.0274 133.632 51.0274 133.632C51.0274 133.632 67.8632 119.6 66.7938 118.415C65.7244 117.23 49.3944 131.392 49.3944 131.392C49.3944 131.392 64.3154 118.697 63.4628 117.317C62.6101 115.937 47.7687 129.152 47.7687 129.152L33.2596 142.816C29.3216 146.523 33.4836 152.968 38.4621 150.851C40.413 150.027 42.2844 148.915 43.9174 147.426L43.9246 147.433Z" fill="white" stroke="#602B7A" stroke-width="0.722563" stroke-linecap="round" stroke-linejoin="round"></path><path d="M33.4475 159.24C40.2396 155.786 46.2152 150.721 49.1488 145.757L32.0457 137.78C32.0457 137.78 29.5601 142.722 23.5123 145.15" fill="white"></path><path d="M33.4475 159.24C40.2396 155.786 46.2152 150.721 49.1488 145.757L32.0457 137.78C32.0457 137.78 29.5601 142.722 23.5123 145.15" stroke="#602B7A" stroke-width="0.722563" stroke-linecap="round" stroke-linejoin="round"></path><path d="M23.8229 146.053C24.3793 145.728 27.9198 143.922 29.8997 142.072C31.8072 140.294 31.5977 139.955 32.4286 139.594C33.2018 139.254 46.2946 145.858 46.4247 146.545C46.5331 147.137 47.205 147.448 45.0301 149.615C42.8624 151.776 37.9996 156.111 32.8405 158.619C27.6814 161.126 20.593 147.939 23.8157 146.053H23.8229Z" fill="#E63417"></path><path d="M64.9655 66.1811C56.9162 66.2606 49.0619 58.3629 44.3291 51.8454C38.144 43.3336 35.7523 36.0719 43.491 27.5528C53.3828 16.6566 70.6738 16.8806 77.5092 44.7426C81.1654 59.6563 72.3935 66.1088 64.9655 66.1811Z" fill="#374C92"></path><path d="M75.8979 45.9348C77.4297 44.403 77.4369 41.9246 75.8979 40.3928C74.366 38.861 71.8876 38.8537 70.3558 40.3856C68.824 41.9174 68.8168 44.3958 70.3558 45.9276C71.8876 47.4595 74.366 47.4667 75.8979 45.9348Z" fill="white" stroke="#602B7A" stroke-width="0.722563" stroke-linecap="round" stroke-linejoin="round"></path><path d="M54.9942 58.3052C56.526 56.7733 56.5332 54.2949 54.9942 52.7631C53.4623 51.2313 50.984 51.224 49.4521 52.7559C47.9203 54.2877 47.9131 56.7661 49.4521 58.2979C50.984 59.8298 53.4623 59.837 54.9942 58.3052Z" fill="white" stroke="#602B7A" stroke-width="0.722563" stroke-linecap="round" stroke-linejoin="round"></path><path d="M67.9651 34.1264C64.7312 28.2947 57.3835 26.188 51.5536 29.4209C45.7237 32.6538 43.6192 40.0021 46.8531 45.8338L59.3419 68.3549C62.5758 74.1866 69.9234 76.2933 75.7534 73.0604C81.5833 69.8275 83.6878 62.4792 80.4539 56.6475L67.9651 34.1264Z" fill="white" stroke="#602B7A" stroke-width="0.722563" stroke-linecap="round" stroke-linejoin="round"></path><path d="M62.4438 38.796C62.4438 38.796 63.347 38.2902 64.308 38.3118C65.269 38.3335 66.2156 38.8827 66.2156 38.8827" stroke="#602B7A" stroke-width="0.722563" stroke-linecap="round" stroke-linejoin="round"></path><path d="M53.6863 44.3669C53.6863 44.3669 52.812 44.9233 52.3712 45.7831C51.9377 46.6357 51.9666 47.734 51.9666 47.734" stroke="#602B7A" stroke-width="0.722563" stroke-linecap="round" stroke-linejoin="round"></path><path d="M61.4684 47.0476L63.3976 56.7733L67.0393 54.3455" stroke="#602B7A" stroke-width="0.722563" stroke-linecap="round" stroke-linejoin="round"></path><path d="M73.3183 67.1409C74.6026 66.4287 74.9111 64.5302 74.0073 62.9004C73.1035 61.2706 71.3297 60.5267 70.0454 61.2389C68.7612 61.9511 68.4527 63.8497 69.3565 65.4794C70.2603 67.1092 72.034 67.8531 73.3183 67.1409Z" stroke="#602B7A" stroke-width="0.722563" stroke-linecap="round" stroke-linejoin="round"></path><path d="M54.5029 68.8835C54.5029 68.8835 58.5637 71.8532 65.074 68.3632C71.5843 64.8732 69.4816 59.4323 67.8414 58.6953C66.2012 57.9583 63.1519 58.3485 61.6924 61.535C60.2328 64.7215 62.0898 66.8458 54.5029 68.8907V68.8835Z" fill="#2F2535"></path><path d="M82.5889 49.6416C82.5889 49.6416 83.8895 54.4972 78.2824 59.3095C72.6753 64.1218 68.3616 60.191 68.2677 58.3991C68.1738 56.5999 69.6406 53.8975 73.1378 53.688C76.635 53.4784 77.9428 55.9785 82.5889 49.6416Z" fill="#2F2535"></path><path d="M62.834 43.9478C62.834 43.9478 65.8399 39.7641 69.0987 42.2714" stroke="#602B7A" stroke-width="0.722563" stroke-linecap="round" stroke-linejoin="round"></path><path d="M53.6358 51.094C53.6358 51.094 53.8309 46.3612 58.2674 46.5852" stroke="#602B7A" stroke-width="0.722563" stroke-linecap="round" stroke-linejoin="round"></path><path d="M52.6098 10.0162L63.8673 22.8923C59.2863 32.9937 50.4349 40.7324 39.806 43.9189L28.4979 30.985C26.677 28.8968 27.2912 25.6669 29.7407 24.388C33.3029 22.5382 37.8117 20.0671 39.582 18.5136C41.1644 17.1262 43.809 13.4628 45.8755 10.4209C47.4507 8.11588 50.7745 7.92079 52.6098 10.0162Z" fill="#2F2535"></path><path d="M70.6305 18.4991L68.629 23.3692C66.0783 29.5905 62.0898 35.0675 57.1185 39.4173C52.169 43.7455 46.2512 46.9464 39.7915 48.6589L34.5601 50.039C33.3462 50.3642 32.0962 49.6344 31.771 48.4205C31.4458 47.2066 32.1756 45.9493 33.3895 45.6314L38.6209 44.2513C39.0183 44.1429 39.4157 44.0345 39.8059 43.9117C50.4348 40.7324 59.2862 32.9937 63.8673 22.8851C64.0551 22.4732 64.2358 22.0541 64.4092 21.6278L66.4107 16.7577C66.8876 15.5872 68.2243 15.038 69.3876 15.5077C70.551 15.9918 71.1073 17.3213 70.6305 18.4847V18.4991Z" fill="#2F2535"></path><path d="M118.327 14.6102L125.148 0.513" stroke="#602B7A" stroke-width="1.02604" stroke-miterlimit="10" stroke-linecap="round" stroke-dasharray="0.22 5.78"></path><path d="M133.523 31.2018L149.643 28.9257" stroke="#602B7A" stroke-width="1.02604" stroke-miterlimit="10" stroke-linecap="round" stroke-dasharray="0.22 5.78"></path><path d="M143.371 38.6008L140.734 39.5257L139.715 42.257L138.761 39.5835L136.066 38.6008L138.79 37.5892L139.715 34.9446L140.698 37.647L143.371 38.6008Z" fill="#602B7A"></path><path d="M157.642 27.1048L156.29 27.5745L155.77 28.9763L155.286 27.6034L153.899 27.1048L155.301 26.5846L155.77 25.2334L156.276 26.6135L157.642 27.1048Z" fill="#602B7A"></path><path d="M128.479 12.5524L125.834 13.4773L124.823 16.2086L123.869 13.5424L121.167 12.5524L123.898 11.5409L124.823 8.9035L125.805 11.5987L128.479 12.5524Z" fill="#602B7A"></path><path d="M100.429 77.6481C100.429 77.6481 104.931 62.7922 102.669 60.9641C100.407 59.1361 96.2599 58.0233 94.5836 60.0104C92.9072 61.9974 90.7829 67.6045 90.6167 69.9312C90.4505 72.2578 89.6485 83.3853 93.4058 84.2379C97.1631 85.0905 100.429 77.6626 100.429 77.6626V77.6481Z" fill="white" stroke="#602B7A" stroke-width="0.722563" stroke-linecap="round" stroke-linejoin="round"></path><path d="M90.7901 38.3117C90.7901 38.3117 70.8907 51.1372 76.4327 59.584C81.9748 68.0308 101.238 52.0043 101.238 52.0043L90.7901 38.3045V38.3117Z" fill="#E63417"></path><path d="M90.7901 38.3118L107.705 13.3616C108.435 12.285 110.018 12.2922 110.747 13.3616L128.631 39.9881C129.303 40.9852 128.848 42.3437 127.713 42.7411L101.238 51.9971L90.7901 38.2973V38.3118Z" fill="#374C92"></path><path d="M85.8333 61.2098C85.8333 61.2098 101.209 83.8983 104.049 82.3303C106.889 80.7624 92.3725 58.1389 92.3725 58.1389L85.8333 61.2098Z" fill="#374C92"></path><path d="M79.9227 51.8671L89.3738 42.8567L90.8262 44.6848L80.3346 52.3801C79.995 52.5968 79.6337 52.1416 79.9227 51.8598V51.8671Z" fill="#602B7A"></path><path d="M79.9588 56.7516L91.8739 46.3467L93.3263 48.1748L80.3707 57.2718C80.0311 57.4886 79.6698 57.0334 79.9588 56.7516Z" fill="#602B7A"></path><path d="M84.6121 58.3773L95.017 50.4869L96.2526 52.4668L84.959 58.9337C84.5977 59.1143 84.287 58.6158 84.6121 58.3773Z" fill="#602B7A"></path><path d="M128.953 42.1828C130.5 41.1291 127.157 33.5265 121.487 25.2019C115.817 16.8772 109.966 10.9829 108.419 12.0365C106.872 13.0901 110.215 20.6927 115.885 29.0174C121.555 37.342 127.406 43.2364 128.953 42.1828Z" fill="white" stroke="#602B7A" stroke-width="0.722563" stroke-linecap="round" stroke-linejoin="round"></path><path d="M92.9651 77.7204C92.6688 79.2233 91.9535 80.8925 91.202 82.222L89.0777 83.566C89.7352 80.3433 88.6514 75.4082 88.384 72.3951C88.0733 68.9051 86.2741 61.4266 85.3059 57.532C85.1758 57.2935 85.277 57.1563 85.4721 57.084C85.8334 56.9539 86.2452 57.149 86.4548 57.4814C88.3262 60.509 89.8364 63.2186 90.9997 66.2606C92.4231 69.9529 93.8177 73.4428 92.9651 77.7204Z" fill="white" stroke="#602B7A" stroke-width="0.722563" stroke-linecap="round" stroke-linejoin="round"></path><path d="M90.9924 68.71C90.0892 68.262 91.0936 65.3068 91.4476 64.6059L95.429 56.6215C95.783 55.9134 96.6356 55.6316 97.3437 55.9785C98.0519 56.3325 98.3337 57.1851 97.9868 57.8933L94.0055 65.8776C93.6514 66.5857 91.8884 69.1508 90.9996 68.71H90.9924Z" fill="white" stroke="#602B7A" stroke-width="0.722563" stroke-linecap="round" stroke-linejoin="round"></path><path d="M93.6369 70.0468C92.7337 69.606 93.702 66.6435 94.0488 65.9354L97.9579 57.9077C98.3047 57.1996 99.1573 56.9033 99.8654 57.2502C100.574 57.597 100.87 58.4496 100.523 59.1577L96.6139 67.1854C96.2671 67.8935 94.5257 70.4803 93.6297 70.0468H93.6369Z" fill="white" stroke="#602B7A" stroke-width="0.722563" stroke-linecap="round" stroke-linejoin="round"></path><path d="M96.5633 71.0584C95.6601 70.6176 96.6283 67.6551 96.9751 66.947L100.884 58.9193C101.231 58.2112 102.084 57.9149 102.792 58.2618C103.5 58.6086 103.796 59.4612 103.449 60.1693L99.5402 68.197C99.1934 68.9051 97.452 71.4919 96.556 71.0584H96.5633Z" fill="white" stroke="#602B7A" stroke-width="0.722563" stroke-linecap="round" stroke-linejoin="round"></path><path d="M99.3885 71.8893C98.4853 71.4486 99.2512 68.9196 99.5403 68.3199L102.85 61.535C103.139 60.9353 103.955 60.7257 104.663 61.0725C105.371 61.4194 105.711 62.1853 105.415 62.785L102.105 69.5699C101.816 70.1696 100.277 72.3301 99.3885 71.8893Z" fill="white" stroke="#602B7A" stroke-width="0.722563" stroke-linecap="round" stroke-linejoin="round"></path><path d="M83.8173 80.4083L99.8293 82.287C99.8293 82.287 128.652 137.816 116.542 146.219C95.2483 161.01 83.8173 80.4083 83.8173 80.4083Z" fill="white" stroke="#602B7A" stroke-width="0.722563" stroke-linecap="round" stroke-linejoin="round"></path><path d="M84.9879 82.3087C86.2957 81.9329 98.0157 82.9445 98.9767 83.6599C99.9377 84.3752 113.385 113.986 115.343 121.566C117.402 129.543 122.554 145.092 112.756 147C105.176 148.77 96.52 126.616 94.056 119.73C91.5921 112.844 84.9879 82.3087 84.9879 82.3087Z" fill="#E63417"></path><path d="M120.372 26.7146L129.642 20.674" stroke="#602B7A" stroke-width="1.02604" stroke-miterlimit="10" stroke-linecap="round" stroke-dasharray="0.22 5.78"></path><path d="M134 18.0406L143.27 12" stroke="#602B7A" stroke-width="1.02604" stroke-miterlimit="10" stroke-linecap="round" stroke-dasharray="0.22 5.78"></path></svg> 