<svg width="24" height="24" viewBox="0 0 24 24" fill="none" xmlns="http://www.w3.org/2000/svg">
<path d="M8.59873 9.88001L13.1887 5.29001C13.3761 5.10376 13.6295 4.99922 13.8937 4.99922C14.1579 4.99922 14.4114 5.10376 14.5987 5.29001C14.6925 5.38298 14.7669 5.49358 14.8176 5.61544C14.8684 5.7373 14.8945 5.868 14.8945 6.00001C14.8945 6.13203 14.8684 6.26273 14.8176 6.38459C14.7669 6.50645 14.6925 6.61705 14.5987 6.71001L9.99873 11.29C9.905 11.383 9.83061 11.4936 9.77984 11.6154C9.72907 11.7373 9.70293 11.868 9.70293 12C9.70293 12.132 9.72907 12.2627 9.77984 12.3846C9.83061 12.5065 9.905 12.6171 9.99873 12.71L14.5987 17.29C14.787 17.477 14.8934 17.7311 14.8943 17.9965C14.8952 18.2618 14.7907 18.5167 14.6037 18.705C14.4168 18.8933 14.1626 18.9996 13.8973 19.0006C13.6319 19.0015 13.377 18.897 13.1887 18.71L8.59873 14.12C8.03693 13.5575 7.72137 12.795 7.72137 12C7.72137 11.205 8.03693 10.4425 8.59873 9.88001Z"/>
</svg>
