<svg width="24" height="24" viewBox="0 0 24 24" fill="none" xmlns="http://www.w3.org/2000/svg">
<path d="M15.4013 9.88L10.8113 5.29C10.6239 5.10375 10.3705 4.99921 10.1063 4.99921C9.84208 4.99921 9.58863 5.10375 9.40127 5.29C9.30754 5.38296 9.23314 5.49356 9.18238 5.61542C9.13161 5.73728 9.10547 5.86799 9.10547 6C9.10547 6.13201 9.13161 6.26272 9.18238 6.38458C9.23314 6.50644 9.30754 6.61704 9.40127 6.71L14.0013 11.29C14.095 11.383 14.1694 11.4936 14.2202 11.6154C14.2709 11.7373 14.2971 11.868 14.2971 12C14.2971 12.132 14.2709 12.2627 14.2202 12.3846C14.1694 12.5064 14.095 12.617 14.0013 12.71L9.40127 17.29C9.21296 17.477 9.10665 17.7311 9.10571 17.9965C9.10477 18.2618 9.20929 18.5167 9.39627 18.705C9.58325 18.8933 9.83737 18.9996 10.1027 19.0006C10.3681 19.0015 10.623 18.897 10.8113 18.71L15.4013 14.12C15.9631 13.5575 16.2786 12.795 16.2786 12C16.2786 11.205 15.9631 10.4425 15.4013 9.88Z"/>
</svg>
