<svg width="17" height="16" viewBox="0 0 17 16" fill="none" xmlns="http://www.w3.org/2000/svg">
<path d="M15.892 2.718C15.7045 2.49296 15.4697 2.31197 15.2044 2.18788C14.939 2.06379 14.6496 1.99964 14.3567 2H3.578L3.55 1.766C3.4927 1.27961 3.25892 0.831155 2.89299 0.505652C2.52706 0.180149 2.05442 0.000227862 1.56467 0L1.41667 0C1.23986 0 1.07029 0.0702379 0.945262 0.195262C0.820238 0.320286 0.75 0.489856 0.75 0.666667C0.75 0.843478 0.820238 1.01305 0.945262 1.13807C1.07029 1.2631 1.23986 1.33333 1.41667 1.33333H1.56467C1.72796 1.33335 1.88556 1.3933 2.00758 1.50181C2.1296 1.61032 2.20756 1.75983 2.22667 1.922L3.144 9.722C3.23923 10.5332 3.62899 11.2812 4.23927 11.824C4.84956 12.3668 5.6379 12.6667 6.45467 12.6667H13.4167C13.5935 12.6667 13.763 12.5964 13.8881 12.4714C14.0131 12.3464 14.0833 12.1768 14.0833 12C14.0833 11.8232 14.0131 11.6536 13.8881 11.5286C13.763 11.4036 13.5935 11.3333 13.4167 11.3333H6.45467C6.04204 11.3322 5.63987 11.2034 5.30329 10.9647C4.96671 10.726 4.71221 10.389 4.57467 10H12.5213C13.3029 10 14.0596 9.72549 14.6592 9.22429C15.2589 8.7231 15.6634 8.02713 15.802 7.258L16.3253 4.35533C16.3776 4.06734 16.3658 3.77138 16.2909 3.48843C16.2161 3.20547 16.0799 2.94245 15.892 2.718ZM15.0167 4.11867L14.4927 7.02133C14.4094 7.48333 14.1663 7.90133 13.8059 8.20213C13.4455 8.50294 12.9908 8.66738 12.5213 8.66667H4.36267L3.73533 3.33333H14.3567C14.4546 3.33275 14.5515 3.35375 14.6404 3.39484C14.7293 3.43593 14.808 3.4961 14.871 3.57107C14.934 3.64605 14.9797 3.73398 15.0049 3.82862C15.0301 3.92327 15.0341 4.0223 15.0167 4.11867Z"/>
<path d="M5.41536 16.0004C6.15174 16.0004 6.74869 15.4035 6.74869 14.6671C6.74869 13.9307 6.15174 13.3338 5.41536 13.3338C4.67898 13.3338 4.08203 13.9307 4.08203 14.6671C4.08203 15.4035 4.67898 16.0004 5.41536 16.0004Z"/>
<path d="M12.0833 16.0004C12.8197 16.0004 13.4167 15.4035 13.4167 14.6671C13.4167 13.9307 12.8197 13.3338 12.0833 13.3338C11.347 13.3338 10.75 13.9307 10.75 14.6671C10.75 15.4035 11.347 16.0004 12.0833 16.0004Z"/>
</svg>
