<svg width="25" height="24" viewBox="0 0 25 24" fill="none" xmlns="http://www.w3.org/2000/svg">
<mask id="mask0_143_575" style="mask-type:alpha" maskUnits="userSpaceOnUse" x="0" y="0" width="25" height="24">
<rect x="0.5" width="24" height="24" fill="#D9D9D9"/>
</mask>
<g mask="url(#mask0_143_575)">
<path d="M6.5 3H17.5V16L10.5 23L9.25 21.75C9.13333 21.6333 9.0375 21.475 8.9625 21.275C8.8875 21.075 8.85 20.8833 8.85 20.7V20.35L9.95 16H3.5C2.96667 16 2.5 15.8 2.1 15.4C1.7 15 1.5 14.5333 1.5 14V12C1.5 11.8833 1.51667 11.7583 1.55 11.625C1.58333 11.4917 1.61667 11.3667 1.65 11.25L4.65 4.2C4.8 3.86667 5.05 3.58333 5.4 3.35C5.75 3.11667 6.11667 3 6.5 3ZM15.5 5H6.5L3.5 12V14H12.5L11.15 19.5L15.5 15.15V5ZM17.5 16V14H20.5V5H17.5V3H22.5V16H17.5Z" fill="#1C1B1F"/>
</g>
</svg>
