<svg width="66" height="16" viewBox="0 0 66 16" fill="none" xmlns="http://www.w3.org/2000/svg">
<g clip-path="url(#clip0_242_1756)">
<path d="M65.8871 1.74886C65.6523 0.947615 64.9963 0.312904 64.1939 0.0913837L63.6703 0H43.5202L43.4786 0.0243515C42.2541 0.0646756 41.2644 1.10865 41.1914 2.31758V13.7073C41.2689 14.8945 42.1913 15.8738 43.3752 15.9997L63.8137 15.9982C65.012 15.8665 65.9153 14.8859 65.9993 13.6945V2.33042L65.8871 1.74886ZM50.8731 7.55369C49.9695 8.66417 48.3395 8.32011 47.0792 8.37902V11.1808H45.9277V3.84911C46.9085 3.8842 47.9218 3.8025 48.899 3.84807C49.606 3.88106 50.3817 4.04707 50.8608 4.6082C51.4996 5.35655 51.4913 6.79381 50.8731 7.55369ZM56.5262 11.1546C55.9423 11.2931 55.3716 11.2978 55.1193 10.6639C55.0806 10.5665 55.079 10.4327 55.0086 10.369C54.4905 11.7364 51.9058 11.6754 51.6614 10.1439C51.379 8.373 53.7635 8.27978 54.956 8.19573V7.76369C54.956 7.72074 54.8681 7.51074 54.8367 7.46414C54.7074 7.27378 54.4308 7.14966 54.2073 7.12505C53.5824 7.0554 52.8829 7.23528 52.8887 7.98625H51.8158C51.8218 7.35102 52.0649 6.77915 52.6265 6.45394C53.3636 6.02713 54.6815 6.0363 55.3938 6.5139C56.5259 7.27299 55.9005 8.99619 56.0876 10.114C56.1253 10.3392 56.3265 10.401 56.5262 10.3429V11.1546ZM61.9442 6.42959C61.2662 8.06612 60.7331 9.79141 60.0524 11.423C59.7711 12.0975 59.4558 12.6201 58.738 12.8833C58.1897 13.0841 57.6007 13.0715 57.0234 13.066V12.0972H57.6907C57.7692 12.0972 57.9835 12.0535 58.0704 12.032C58.4412 11.9398 58.7484 11.6199 58.8811 11.2745L56.8002 6.38979L56.7879 6.28427H57.9262L59.4574 9.89772L60.8571 6.28427H61.9693L61.9442 6.42959Z" fill="white"/>
<path d="M17.6658 12.6353L17.6252 12.7256H15.2962L15.2556 12.6353C15.1768 10.8296 15.365 8.92863 15.258 7.13421C15.1057 4.57835 11.6035 4.72865 11.4352 7.00329L11.4232 12.6733L11.3198 12.7269C10.6229 12.673 9.83 12.794 9.1449 12.7272C9.09204 12.722 9.04624 12.728 9.01562 12.6733V0.0782915L9.10722 0H11.3577L11.425 0.0761967L11.4606 4.20444C11.497 4.22643 11.5307 4.21936 11.5668 4.2026C11.6064 4.18427 11.8113 3.97139 11.8835 3.91693C14.2253 2.14686 17.5831 3.83838 17.6655 6.74145V12.6353H17.6658Z" fill="white"/>
<path d="M34.1478 3.20205C33.2287 3.24735 32.4149 3.55973 31.7073 4.13788C31.6379 4.19418 31.5288 4.35521 31.4453 4.3484C31.3987 4.34605 31.3872 4.32301 31.3794 4.28111C31.3336 4.03131 31.4254 3.64142 31.3786 3.39163C31.3705 3.34868 31.3516 3.31883 31.3087 3.30443L29.0501 3.31202L29.0098 3.37644L29.0174 15.94L29.0676 15.9945L31.3153 16L31.4186 15.9463L31.456 11.7418L31.5623 11.7437C33.7168 13.7004 37.1017 12.8337 38.3764 10.3135C39.9793 7.14438 37.8687 3.01902 34.1478 3.20205ZM34.1661 10.7091C30.6103 10.9741 30.3687 5.58457 33.6244 5.27062C37.2101 4.92499 37.4715 10.4627 34.1661 10.7091Z" fill="white"/>
<path d="M27.7861 9.19621C27.2104 12.4279 23.3903 14.0388 20.5967 12.4512C18.3663 11.1836 17.8916 7.73931 20.2657 6.38452C20.357 6.33242 20.7192 6.14022 20.798 6.13315C20.832 6.13001 20.8584 6.14834 20.8841 6.16719L21.8541 7.79167C21.8599 7.82414 21.8476 7.84535 21.829 7.87023C21.7869 7.92679 21.5016 8.0742 21.4082 8.15616C20.5797 8.88199 20.9024 10.192 21.8434 10.6539C23.4185 11.4271 25.3535 10.2823 25.4903 8.54867C25.7282 5.5385 22.4675 4.1866 20.1063 5.62491C20.0843 5.63329 20.0623 5.63303 20.0398 5.62648C19.9284 5.59375 19.1765 4.13528 19.0213 3.94675C18.9949 3.8881 18.9808 3.80824 19.0268 3.75718C19.8998 3.20861 20.8948 2.91089 21.9264 2.86167L22.3385 2.85303C25.8132 2.94336 28.4184 5.64717 27.7861 9.19621Z" fill="white"/>
<path d="M0.320761 11.1103C0.25874 11.021 0.0436313 10.6961 0.0315936 10.6115C0.021126 10.5379 0.0875952 10.5041 0.140718 10.4688C0.618825 10.1499 1.31623 9.94404 1.81449 9.63009C1.87075 9.60129 1.94664 9.59239 1.99217 9.64764C2.30882 10.27 2.81126 10.7325 3.50814 10.8799C4.09773 11.0045 5.49306 11.0022 5.59983 10.1965C5.68619 9.54473 5.11989 9.39574 4.61326 9.25042C2.87852 8.7537 0.0504352 8.67201 0.000714187 6.24628C-0.0393244 4.27878 1.61037 3.33457 3.37206 3.22826C4.91394 3.13557 6.56154 3.57154 7.46568 4.9038C7.52822 4.99597 7.68183 5.18581 7.63028 5.2895C7.04462 5.64377 6.41107 5.92735 5.79557 6.23162C5.76417 6.23685 5.73486 6.23607 5.7066 6.21879C5.68095 6.20307 5.47631 5.88991 5.41952 5.82523C5.14841 5.51704 4.7933 5.27929 4.39239 5.17717C3.83525 5.03525 2.58726 5.03656 2.39518 5.73333C2.20022 6.43952 2.89998 6.62857 3.42414 6.77442C4.99009 7.20987 7.76819 7.40494 7.95373 9.52143C8.29916 13.4593 2.16986 13.7908 0.320761 11.1103Z" fill="white"/>
<path d="M49.9055 6.82032C49.3505 7.48619 47.8521 7.18192 47.0801 7.25314V4.9751H48.9512C49.1862 4.9751 49.6658 5.17672 49.8417 5.34089C50.2198 5.69465 50.2319 6.42912 49.9055 6.82032Z" fill="white"/>
<path d="M54.9311 9.03369C54.889 9.84489 54.2879 10.5592 53.4269 10.4736C52.8088 10.412 52.4649 9.73046 53.0548 9.39478C53.5633 9.1057 54.363 9.13686 54.9311 9.03369Z" fill="white"/>
</g>
<defs>
<clipPath id="clip0_242_1756">
<rect width="66" height="16" fill="white"/>
</clipPath>
</defs>
</svg>
