<svg width="33" height="32" viewBox="0 0 33 32" fill="none" xmlns="http://www.w3.org/2000/svg">
<path d="M27.1653 10.6668C27.1691 8.93993 26.7536 7.23797 25.9544 5.70716C25.1553 4.17634 23.9964 2.86244 22.5774 1.87834C21.1584 0.894249 19.5216 0.269387 17.8078 0.0574487C16.094 -0.15449 14.3544 0.0528323 12.7384 0.661601C11.1224 1.27037 9.67835 2.26238 8.53036 3.5524C7.38236 4.84242 6.56473 6.39188 6.14772 8.06763C5.73071 9.74338 5.72678 11.4953 6.13628 13.1729C6.54578 14.8505 7.35647 16.4036 8.49867 17.6988V28.6668C8.49866 29.2947 8.67602 29.9099 9.01032 30.4414C9.34461 30.973 9.82225 31.3993 10.3882 31.6713C10.9542 31.9432 11.5855 32.0498 12.2094 31.9787C12.8333 31.9076 13.4244 31.6618 13.9147 31.2695L16.0827 29.5361C16.2008 29.4418 16.3475 29.3904 16.4987 29.3904C16.6498 29.3904 16.7965 29.4418 16.9147 29.5361L19.0827 31.2695C19.573 31.6618 20.1641 31.9076 20.788 31.9787C21.4119 32.0498 22.0432 31.9432 22.6091 31.6713C23.1751 31.3993 23.6527 30.973 23.987 30.4414C24.3213 29.9099 24.4987 29.2947 24.4987 28.6668V17.6988C26.2164 15.759 27.1649 13.2578 27.1653 10.6668ZM16.4987 2.66678C18.0809 2.66678 19.6276 3.13598 20.9432 4.01503C22.2588 4.89408 23.2842 6.14351 23.8897 7.60532C24.4952 9.06713 24.6536 10.6757 24.345 12.2275C24.0363 13.7794 23.2743 15.2048 22.1555 16.3236C21.0367 17.4425 19.6112 18.2044 18.0594 18.5131C16.5075 18.8217 14.899 18.6633 13.4372 18.0578C11.9754 17.4523 10.726 16.4269 9.84692 15.1113C8.96786 13.7958 8.49867 12.249 8.49867 10.6668C8.50079 8.5457 9.34433 6.5121 10.8442 5.01227C12.344 3.51244 14.3776 2.6689 16.4987 2.66678ZM21.4547 29.2641C21.3419 29.32 21.2153 29.3422 21.0902 29.328C20.9651 29.3138 20.8468 29.2639 20.7493 29.1841L18.5813 27.4508C17.9913 26.9755 17.2564 26.7163 16.4987 26.7163C15.741 26.7163 15.0061 26.9755 14.416 27.4508L12.2493 29.1841C12.1515 29.2627 12.0335 29.312 11.9089 29.3265C11.7843 29.3409 11.6581 29.3199 11.5449 29.2659C11.4316 29.2119 11.336 29.127 11.2688 29.021C11.2017 28.915 11.1658 28.7922 11.1653 28.6668V19.8908C12.784 20.8355 14.6245 21.3334 16.4987 21.3334C18.3728 21.3334 20.2134 20.8355 21.832 19.8908V28.6668C21.8335 28.7922 21.7987 28.9153 21.7317 29.0213C21.6647 29.1273 21.5685 29.2116 21.4547 29.2641Z"/>
</svg>
