<svg width="25" height="24" viewBox="0 0 25 24" fill="none" xmlns="http://www.w3.org/2000/svg">
<mask id="mask0_143_572" style="mask-type:alpha" maskUnits="userSpaceOnUse" x="0" y="0" width="25" height="24">
<rect x="0.5" width="24" height="24" fill="#D9D9D9"/>
</mask>
<g mask="url(#mask0_143_572)">
<path d="M18.5 21H8.5V8L15.5 1L16.75 2.25C16.8667 2.36667 16.9625 2.525 17.0375 2.725C17.1125 2.925 17.15 3.11667 17.15 3.3V3.65L16.05 8H21.5C22.0333 8 22.5 8.2 22.9 8.6C23.3 9 23.5 9.46667 23.5 10V12C23.5 12.1167 23.4875 12.2417 23.4625 12.375C23.4375 12.5083 23.4 12.6333 23.35 12.75L20.35 19.8C20.2 20.1333 19.95 20.4167 19.6 20.65C19.25 20.8833 18.8833 21 18.5 21ZM6.5 8V21H2.5V8H6.5Z" fill="#43B94B"/>
</g>
</svg>
