<svg width="16" height="16" viewBox="0 0 16 16" fill="none" xmlns="http://www.w3.org/2000/svg">
<path d="M7.9987 4C7.47128 4 6.95571 4.1564 6.51718 4.44941C6.07865 4.74243 5.73685 5.15891 5.53502 5.64618C5.33319 6.13345 5.28038 6.66962 5.38327 7.18691C5.48617 7.70419 5.74014 8.17935 6.11308 8.55229C6.48602 8.92523 6.96118 9.1792 7.47846 9.28209C7.99574 9.38499 8.53192 9.33218 9.01919 9.13035C9.50646 8.92851 9.92293 8.58672 10.216 8.14819C10.509 7.70966 10.6654 7.19408 10.6654 6.66667C10.6654 5.95942 10.3844 5.28115 9.88432 4.78105C9.38422 4.28095 8.70594 4 7.9987 4ZM7.9987 8C7.73499 8 7.4772 7.9218 7.25794 7.77529C7.03867 7.62878 6.86778 7.42055 6.76686 7.17691C6.66594 6.93328 6.63954 6.66519 6.69099 6.40655C6.74243 6.14791 6.86942 5.91033 7.05589 5.72386C7.24236 5.53739 7.47994 5.4104 7.73858 5.35895C7.99722 5.30751 8.26531 5.33391 8.50894 5.43483C8.75258 5.53574 8.96082 5.70664 9.10733 5.92591C9.25383 6.14517 9.33203 6.40296 9.33203 6.66667C9.33203 7.02029 9.19156 7.35943 8.94151 7.60948C8.69146 7.85952 8.35232 8 7.9987 8Z"/>
<path d="M8.00021 16.0004C7.43884 16.0032 6.88495 15.8716 6.38492 15.6164C5.88489 15.3612 5.45327 14.99 5.12621 14.5337C2.58554 11.029 1.29688 8.39436 1.29688 6.70236C1.29688 4.92452 2.00312 3.2195 3.26024 1.96238C4.51735 0.705266 6.22237 -0.000976562 8.00021 -0.000976562C9.77804 -0.000976562 11.4831 0.705266 12.7402 1.96238C13.9973 3.2195 14.7035 4.92452 14.7035 6.70236C14.7035 8.39436 13.4149 11.029 10.8742 14.5337C10.5471 14.99 10.1155 15.3612 9.6155 15.6164C9.11547 15.8716 8.56158 16.0032 8.00021 16.0004ZM8.00021 1.45436C6.60849 1.45595 5.27422 2.00951 4.29012 2.9936C3.30603 3.9777 2.75246 5.31197 2.75087 6.70369C2.75087 8.04369 4.01287 10.5217 6.30354 13.681C6.498 13.9489 6.75312 14.1669 7.04802 14.3172C7.34291 14.4675 7.66921 14.5459 8.00021 14.5459C8.33121 14.5459 8.6575 14.4675 8.9524 14.3172C9.24729 14.1669 9.50241 13.9489 9.69687 13.681C11.9875 10.5217 13.2495 8.04369 13.2495 6.70369C13.248 5.31197 12.6944 3.9777 11.7103 2.9936C10.7262 2.00951 9.39193 1.45595 8.00021 1.45436Z"/>
</svg>
