<svg width="24" height="24" viewBox="0 0 24 24" fill="none" xmlns="http://www.w3.org/2000/svg">
<g clip-path="url(#clip0_10_1110)">
<path d="M23.7078 22.2937L17.7388 16.3247C19.3654 14.3353 20.1651 11.7968 19.9726 9.23427C19.7801 6.67174 18.61 4.28124 16.7043 2.55723C14.7987 0.833223 12.3034 -0.092395 9.7344 -0.0281632C7.16545 0.0360686 4.71946 1.08524 2.90237 2.90233C1.08528 4.71942 0.0361144 7.1654 -0.0281174 9.73435C-0.0923492 12.3033 0.833269 14.7987 2.55728 16.7043C4.28129 18.6099 6.67179 19.78 9.23432 19.9726C11.7969 20.1651 14.3354 19.3653 16.3248 17.7387L22.2938 23.7077C22.4824 23.8899 22.735 23.9907 22.9972 23.9884C23.2594 23.9861 23.5102 23.8809 23.6956 23.6955C23.881 23.5101 23.9862 23.2593 23.9884 22.9971C23.9907 22.7349 23.8899 22.4823 23.7078 22.2937ZM10.0008 18.0007C8.41851 18.0007 6.87179 17.5315 5.5562 16.6525C4.2406 15.7734 3.21522 14.524 2.60972 13.0622C2.00422 11.6004 1.84579 9.99184 2.15448 8.43999C2.46316 6.88814 3.22508 5.46268 4.3439 4.34386C5.46272 3.22504 6.88819 2.46311 8.44004 2.15443C9.99189 1.84575 11.6004 2.00418 13.0622 2.60968C14.524 3.21518 15.7735 4.24056 16.6525 5.55615C17.5316 6.87174 18.0008 8.41846 18.0008 10.0007C17.9984 12.1217 17.1548 14.1552 15.655 15.6549C14.1552 17.1547 12.1218 17.9983 10.0008 18.0007Z" fill="#FDFDFD"/>
</g>
<defs>
<clipPath id="clip0_10_1110">
<rect width="24" height="24" fill="white"/>
</clipPath>
</defs>
</svg>
