<svg width="16" height="16" viewBox="0 0 16 16" fill="none" xmlns="http://www.w3.org/2000/svg">
<path d="M12.8888 9.77836C12.3847 9.77877 11.8883 9.90183 11.4425 10.1369C10.9966 10.372 10.6146 10.712 10.3295 11.1277L5.99012 9.16836C6.29833 8.42412 6.29952 7.58816 5.99345 6.84303L10.3268 4.8737C10.7494 5.48487 11.377 5.92434 12.0958 6.11239C12.8147 6.30045 13.5771 6.22463 14.2449 5.8987C14.9126 5.57276 15.4414 5.0183 15.7353 4.33587C16.0293 3.65345 16.0689 2.88828 15.847 2.17915C15.6251 1.47001 15.1564 0.863894 14.5259 0.470733C13.8954 0.0775727 13.1449 -0.0765883 12.4105 0.0362141C11.6761 0.149016 11.0064 0.521311 10.5229 1.08557C10.0395 1.64982 9.7743 2.36866 9.77545 3.1117C9.77828 3.28756 9.79612 3.46287 9.82878 3.6357L5.22212 5.72903C4.77968 5.31451 4.22579 5.03825 3.6285 4.9342C3.03121 4.83015 2.41654 4.90284 1.85999 5.14333C1.30344 5.38383 0.829268 5.78165 0.495715 6.28794C0.162163 6.79422 -0.0162385 7.38691 -0.0175706 7.9932C-0.0189027 8.59948 0.156892 9.19295 0.488217 9.70069C0.819542 10.2084 1.29197 10.6083 1.84745 10.8513C2.40293 11.0942 3.01728 11.1696 3.61502 11.0682C4.21276 10.9668 4.76786 10.6929 5.21212 10.2804L9.83078 12.3657C9.7987 12.5384 9.78109 12.7134 9.77812 12.889C9.77799 13.5045 9.96037 14.1061 10.3022 14.6178C10.644 15.1296 11.1299 15.5285 11.6985 15.7641C12.267 15.9996 12.8927 16.0613 13.4963 15.9413C14.0999 15.8212 14.6543 15.5249 15.0895 15.0897C15.5247 14.6546 15.821 14.1001 15.941 13.4965C16.0611 12.8929 15.9994 12.2673 15.7638 11.6987C15.5282 11.1302 15.1294 10.6443 14.6176 10.3024C14.1058 9.96061 13.5042 9.77823 12.8888 9.77836V9.77836ZM12.8888 1.3337C13.2405 1.33356 13.5843 1.43773 13.8768 1.63302C14.1692 1.82831 14.3972 2.10595 14.5319 2.43082C14.6666 2.7557 14.7019 3.11322 14.6334 3.45816C14.5648 3.8031 14.3956 4.11997 14.1469 4.3687C13.8983 4.61742 13.5815 4.78683 13.2366 4.85548C12.8917 4.92414 12.5341 4.88897 12.2092 4.75442C11.8843 4.61987 11.6065 4.39198 11.4111 4.09957C11.2157 3.80717 11.1115 3.46338 11.1115 3.1117C11.1118 2.64037 11.2992 2.18843 11.6324 1.85509C11.9656 1.52174 12.4175 1.33423 12.8888 1.3337V1.3337ZM3.11145 9.77836C2.75977 9.7785 2.41594 9.67433 2.12347 9.47904C1.83099 9.28375 1.60299 9.00611 1.46832 8.68124C1.33364 8.35636 1.29834 7.99884 1.36687 7.6539C1.4354 7.30896 1.60468 6.99209 1.85331 6.74336C2.10194 6.49464 2.41875 6.32523 2.76367 6.25658C3.10859 6.18792 3.46612 6.22309 3.79104 6.35764C4.11597 6.4922 4.39369 6.72009 4.58909 7.01249C4.78449 7.3049 4.88878 7.64868 4.88878 8.00036C4.88826 8.47164 4.70085 8.92347 4.36767 9.25678C4.03449 9.59009 3.58273 9.77766 3.11145 9.77836ZM12.8888 14.667C12.5371 14.667 12.1934 14.5628 11.901 14.3674C11.6086 14.172 11.3807 13.8943 11.2461 13.5694C11.1116 13.2446 11.0763 12.8871 11.1449 12.5422C11.2136 12.1973 11.3829 11.8805 11.6315 11.6318C11.8802 11.3831 12.197 11.2138 12.5419 11.1452C12.8868 11.0766 13.2443 11.1118 13.5692 11.2464C13.8941 11.3809 14.1718 11.6088 14.3671 11.9012C14.5625 12.1936 14.6668 12.5374 14.6668 12.889C14.6664 13.3605 14.479 13.8125 14.1456 14.1459C13.8123 14.4792 13.3602 14.6667 12.8888 14.667V14.667Z" fill="#8ED593"/>
</svg>
