<svg width="16" height="16" viewBox="0 0 16 16" fill="none" xmlns="http://www.w3.org/2000/svg">
<path d="M11.666 1.27769C10.9153 1.28936 10.181 1.49892 9.53716 1.8852C8.89336 2.27148 8.3629 2.8208 7.99932 3.47769C7.63575 2.8208 7.10528 2.27148 6.46148 1.8852C5.81768 1.49892 5.08335 1.28936 4.33265 1.27769C3.13595 1.32968 2.00846 1.85319 1.19651 2.73384C0.384561 3.61449 -0.0458459 4.7807 -0.000678848 5.97769C-0.000678848 9.00902 3.18999 12.3197 5.86599 14.5644C6.46347 15.0664 7.21889 15.3417 7.99932 15.3417C8.77975 15.3417 9.53518 15.0664 10.1327 14.5644C12.8087 12.3197 15.9993 9.00902 15.9993 5.97769C16.0445 4.7807 15.6141 3.61449 14.8021 2.73384C13.9902 1.85319 12.8627 1.32968 11.666 1.27769ZM9.27599 13.5444C8.91864 13.8453 8.46649 14.0103 7.99932 14.0103C7.53215 14.0103 7.08 13.8453 6.72265 13.5444C3.29732 10.6704 1.33265 7.91302 1.33265 5.97769C1.28708 5.13416 1.5769 4.30684 2.1389 3.67615C2.70089 3.04547 3.48948 2.66259 4.33265 2.61102C5.17583 2.66259 5.96441 3.04547 6.52641 3.67615C7.08841 4.30684 7.37823 5.13416 7.33265 5.97769C7.33265 6.1545 7.40289 6.32407 7.52792 6.44909C7.65294 6.57412 7.82251 6.64435 7.99932 6.64435C8.17613 6.64435 8.3457 6.57412 8.47073 6.44909C8.59575 6.32407 8.66599 6.1545 8.66599 5.97769C8.62041 5.13416 8.91023 4.30684 9.47223 3.67615C10.0342 3.04547 10.8228 2.66259 11.666 2.61102C12.5092 2.66259 13.2977 3.04547 13.8597 3.67615C14.4217 4.30684 14.7116 5.13416 14.666 5.97769C14.666 7.91302 12.7013 10.6704 9.27599 13.5417V13.5444Z" fill="#8ED593"/>
</svg>
