<?xml version="1.0" encoding="UTF-8"?> <svg xmlns="http://www.w3.org/2000/svg" width="123" height="157" viewBox="0 0 123 157" fill="none"><g clip-path="url(#clip0_3334_16071)"><path d="M63.5829 27.9536L59.9653 17.8033L49.7725 14.0794L60.0505 10.2704L63.6041 0.162598L67.3493 10.4406L77.5848 14.1007L67.4344 17.6543L63.6041 27.9536H63.5829ZM55.9222 14.0794L61.6251 16.1648L63.6254 21.74L65.7746 15.9733L71.1796 14.0794L65.6682 12.1217L63.6254 6.50389L61.7103 11.9514L55.9222 14.1007V14.0794Z" fill="#613182"></path><path d="M24.6323 70.6951L24.0445 125.019C23.9888 130.166 28.1163 134.384 33.2635 134.439L87.5869 135.027C92.7341 135.083 96.9519 130.955 97.0076 125.808L97.5954 71.4847C97.6511 66.3375 93.5236 62.1197 88.3764 62.064L34.053 61.4761C28.9058 61.4204 24.688 65.5479 24.6323 70.6951Z" fill="#613182"></path><path d="M86.7352 129.436H86.6501L45.4742 128.989C43.3037 128.968 41.2609 128.095 39.75 126.542C38.2392 124.988 37.4093 122.945 37.4306 120.754L37.8774 79.5778C37.92 75.0879 41.5375 71.5555 46.1126 71.5342L87.2884 71.981C91.7784 72.0236 95.3959 75.7262 95.3321 80.2162L94.8852 121.392C94.8427 125.839 91.2039 129.436 86.7565 129.436H86.7352ZM86.6713 127.308H86.7352C90.0122 127.308 92.7147 124.648 92.736 121.371L93.1829 80.1949C93.2254 76.8753 90.5442 74.1516 87.2459 74.1303L46.0701 73.6834C42.7292 73.5983 40.0267 76.3221 40.0054 79.6204L39.5585 120.796C39.516 124.116 42.1972 126.84 45.4955 126.861L86.6713 127.308Z" fill="#6553A3"></path><path d="M60.8172 45.9139C60.9023 69.0659 24.5569 68.6616 25.1528 45.5308C25.0676 22.3787 61.413 22.783 60.8172 45.9139Z" fill="white"></path><path d="M43.0273 64.1499C39.3034 64.1499 35.5582 63.1923 32.3876 61.2984C26.8549 57.9788 23.8971 52.3823 24.0886 45.4878C24.0673 38.6358 27.1316 33.0818 32.7281 29.8899C39.0055 26.3149 47.3684 26.4001 53.582 30.124C59.1146 33.4223 62.0512 39.0401 61.881 45.9134C61.881 52.7866 58.838 58.3193 53.2415 61.5112C50.1772 63.2562 46.6023 64.1286 43.0273 64.1286V64.1499ZM42.9422 29.4218C39.729 29.4218 36.5371 30.2091 33.7708 31.7625C28.8552 34.5501 26.174 39.4444 26.1953 45.5303C26.0463 51.6375 28.6211 56.5957 33.4728 59.4897C39.0268 62.8093 46.5385 62.8944 52.1775 59.7025C57.0931 56.9149 59.7743 52.0206 59.753 45.9346C59.902 39.8274 57.3272 34.8906 52.4754 31.9753C49.6453 30.2729 46.2831 29.4218 42.9422 29.4218Z" fill="#6553A3"></path><path d="M97.6307 46.3184C97.7158 69.4705 61.3704 69.0662 61.9662 45.9354C61.8811 22.7833 98.2265 23.1876 97.6307 46.3184Z" fill="white"></path><path d="M79.8196 64.5544C76.0957 64.5544 72.3505 63.5968 69.1798 61.7029C63.6472 58.3833 60.6893 52.7868 60.8808 45.8923C60.8595 39.0403 63.9238 33.4863 69.5203 30.3157C75.7977 26.7407 84.1819 26.8258 90.3742 30.5498C95.9069 33.8694 98.8434 39.4659 98.6732 46.3391C98.6732 53.2124 95.6302 58.7451 90.0337 61.937C86.9695 63.6819 83.3945 64.5544 79.8196 64.5544ZM79.7557 29.8263C76.5425 29.8263 73.3506 30.6136 70.5843 32.167C65.6687 34.9546 62.9875 39.8489 63.0088 45.9348C62.8598 52.0421 65.4346 57.0002 70.2864 59.8942C75.8403 63.2138 83.352 63.2989 88.991 60.107C93.9066 57.3194 96.5878 52.4251 96.5665 46.3391C96.7155 40.2319 94.1407 35.2951 89.2889 32.3798C86.4588 30.6774 83.0966 29.8263 79.7557 29.8263Z" fill="#6553A3"></path><path d="M55.3696 82.4502L61.7534 82.514L61.4555 111.518L79.458 111.71L79.3941 117.115L55.0078 116.859L55.3696 82.4502Z" fill="white"></path><path d="M48.8789 70.47C48.8789 70.47 57.6248 81.7055 75.4357 71.0871L48.8789 70.47Z" fill="#FFD441"></path><path d="M51.8582 48.9353C51.5603 48.9353 51.2624 48.8076 51.0496 48.5735C43.9209 40.4448 34.1111 48.3607 33.7068 48.7012C33.2599 49.0842 32.579 49.0204 32.2172 48.5523C31.8342 48.1054 31.898 47.4244 32.3662 47.0627C32.4939 46.9563 44.1763 37.4869 52.6668 47.1904C53.0498 47.6372 53.0073 48.2969 52.5604 48.7012C52.3689 48.8714 52.1136 48.9566 51.8582 48.9566V48.9353Z" fill="#613182"></path><path d="M89.5015 48.9353C89.2036 48.9353 88.9057 48.8076 88.6929 48.5735C81.5643 40.4235 71.7544 48.3607 71.3501 48.7012C70.9032 49.0842 70.2223 49.0204 69.8605 48.5523C69.4775 48.1054 69.5413 47.4244 70.0095 47.0627C70.1372 46.9563 81.8196 37.4869 90.3101 47.1904C90.6932 47.6372 90.6506 48.2969 90.2037 48.7012C90.0122 48.8714 89.7569 48.9566 89.5015 48.9566V48.9353Z" fill="#613182"></path><path d="M4.25628 83.7698C3.87325 83.7698 3.49022 83.7485 3.12846 83.6847C2.04321 83.5357 1.19203 82.9186 0.660043 81.9397C-2.59572 75.9389 7.17157 53.8082 9.49103 48.7224L1.5325 42.828C1.06435 42.4875 0.957956 41.8066 1.31971 41.3385C1.66018 40.8703 2.34112 40.7639 2.80927 41.1257L12.1723 48.0415L11.8105 48.8288C6.8311 59.4473 0.277012 76.7688 2.53264 80.9183C2.74543 81.3226 3.02207 81.5141 3.44766 81.578C9.55487 82.4504 22.5992 73.3428 27.1105 69.7466C27.5786 69.3848 28.2383 69.4487 28.6 69.9168C28.9618 70.385 28.8979 71.0446 28.4298 71.4064C27.7701 71.9384 12.8106 83.7485 4.27756 83.7485L4.25628 83.7698Z" fill="#613182"></path><path d="M117.931 83.7697C109.398 83.7697 94.4384 71.9595 93.7787 71.4276C93.3106 71.0658 93.2467 70.3849 93.6085 69.938C93.9703 69.4698 94.6512 69.406 95.0981 69.7678C99.6093 73.3427 112.632 82.4503 118.761 81.5992C119.186 81.5353 119.463 81.3438 119.676 80.9395C121.932 76.79 115.377 59.4685 110.419 48.8287L110.058 48.0414L119.421 41.1255C119.889 40.7851 120.57 40.8702 120.91 41.3383C121.251 41.8065 121.165 42.4874 120.697 42.8279L112.739 48.7223C115.058 53.8081 124.826 75.9388 121.57 81.9396C121.038 82.9185 120.187 83.5356 119.08 83.6846C118.718 83.7271 118.335 83.7697 117.952 83.7697H117.931Z" fill="#613182"></path><path d="M21.4923 156.163C20.7901 156.163 20.2368 156.078 19.8325 155.886C19.109 155.546 18.8324 154.992 18.726 154.588C18.3642 153.162 19.5346 147.247 49.5813 131.159C50.092 130.883 50.7516 131.074 51.0283 131.606C51.3049 132.117 51.1134 132.777 50.5814 133.053C31.4724 143.267 20.2368 151.928 20.7688 154.077C23.1096 155.716 46.7511 146.332 67.2645 136.649L67.7752 136.394L82.373 145.31C82.8837 145.608 83.0326 146.268 82.7347 146.778C82.4368 147.289 81.7771 147.438 81.2664 147.14L67.6476 138.82C60.0933 142.374 30.1531 156.184 21.4498 156.184L21.4923 156.163Z" fill="#613182"></path><path d="M97.6091 156.163C88.8632 156.163 58.7952 142.331 51.241 138.799L36.7071 147.14C36.1964 147.438 35.5368 147.247 35.2601 146.736C34.9622 146.225 35.1537 145.587 35.6644 145.289L51.1559 136.394L51.6666 136.628C72.2652 146.31 95.9918 155.695 98.4177 153.928C99.0135 151.375 82.9262 141.012 67.4773 133.032C66.9453 132.755 66.7538 132.117 67.0304 131.606C67.307 131.074 67.9454 130.883 68.4561 131.159C99.5242 147.225 100.78 153.162 100.418 154.588C100.312 154.992 100.035 155.546 99.3114 155.886C98.9071 156.078 98.3326 156.163 97.6303 156.163H97.6091Z" fill="#613182"></path></g><defs><clipPath id="clip0_3334_16071"><rect width="122.187" height="156" fill="white" transform="translate(0 0.162598)"></rect></clipPath></defs></svg> 