<svg width="840" height="517" viewBox="0 0 840 517" fill="none" xmlns="http://www.w3.org/2000/svg">
<g opacity="0.05">
<path d="M340.739 496.352L317.063 500.852L340.739 505.352V509.853L307.283 503.235V498.47L340.739 491.852V496.352Z" fill="#2F2535"/>
<path d="M365.441 517L342.279 482.851H352.059L375.22 517H365.441Z" fill="#2F2535"/>
<path d="M410.737 498.47V503.235L377.281 509.853V505.352L400.957 500.852L377.281 496.352V491.852L410.737 498.47Z" fill="#2F2535"/>
<path d="M410.736 411.376L391.693 414.553L384.487 424.613L377.796 414.818L358.752 411.376L378.31 407.67L384.487 397.876L391.693 407.67L410.736 411.376Z" fill="#2F2535"/>
<path d="M261.986 502.441L245.001 505.353L238.31 514.353L232.648 505.617L215.148 502.441L232.648 498.999L238.31 490.263L245.001 499.264L261.986 502.441Z" fill="#2F2535"/>
<path d="M231.105 434.407H249.12V466.438H287.722V473.85H231.105V434.407Z" fill="#2F2535"/>
<path d="M333.529 452.673H315.515L311.912 456.908H305.221L321.176 438.378H327.867L343.823 456.908H337.132L333.529 452.673ZM330.956 450.025L324.265 442.084L317.573 450.025H330.956Z" fill="#2F2535"/>
<path d="M378.822 448.967C379.852 449.761 380.366 450.82 380.366 451.878C380.366 453.467 379.337 454.79 376.763 455.585C374.19 456.379 371.102 456.908 366.47 456.908H348.455V438.378H365.44C369.558 438.378 373.161 438.907 375.219 439.701C377.278 440.495 378.822 441.819 378.822 443.143C378.822 443.937 378.308 444.996 377.793 445.525C377.278 446.055 375.734 446.849 374.19 447.113C375.734 447.643 377.278 448.172 378.822 448.967ZM355.146 441.29V446.319H364.411C366.984 446.319 368.528 446.055 369.558 445.79C370.587 445.26 371.616 444.731 371.616 443.937C371.616 443.143 371.102 442.348 369.558 442.084C368.528 441.554 366.47 441.554 364.411 441.554H355.146V441.29ZM373.675 451.614C373.675 449.761 371.102 448.967 365.955 448.967H355.146V454.261H365.955C371.102 454.261 373.675 453.467 373.675 451.614Z" fill="#2F2535"/>
<path d="M394.263 456.114C391.174 455.32 389.116 454.261 387.572 452.673C386.027 451.349 384.998 449.496 384.998 447.908C384.998 446.055 386.027 444.466 387.572 443.143C389.116 441.819 391.689 440.495 394.263 439.701C397.351 438.907 400.439 438.378 404.042 438.378C407.13 438.378 409.704 438.642 412.277 439.172C414.851 439.701 416.909 440.495 418.453 441.554L414.336 443.672C411.762 442.349 408.674 441.554 404.557 441.554C401.983 441.554 399.924 441.819 397.865 442.349C395.807 442.878 394.263 443.672 393.233 444.731C392.204 445.79 391.689 446.849 391.689 448.172C391.689 449.496 392.204 450.555 393.233 451.614C394.263 452.673 395.807 453.467 397.865 453.996C399.924 454.526 401.983 454.79 404.557 454.79C408.159 454.79 411.762 453.996 414.336 452.673L418.453 454.79C416.909 455.849 414.851 456.643 412.277 457.173C409.704 457.702 407.13 457.967 404.042 457.967C400.439 457.173 397.351 456.908 394.263 456.114Z" fill="#2F2535"/>
<path d="M287.208 437.319C283.606 437.319 280.517 436.79 277.944 435.996C274.856 434.937 269.709 432.025 273.312 424.877C277.944 416.936 273.826 410.053 262.503 406.612C252.209 403.435 236.253 403.435 221.842 410.582C220.812 411.112 219.268 411.112 218.239 410.582C217.209 410.053 217.209 409.259 218.239 408.729C232.136 401.847 250.665 400.258 265.076 404.494C278.459 408.465 283.091 416.406 277.944 425.672C276.4 428.583 275.37 432.29 280.517 433.878C285.664 435.731 295.958 434.407 303.679 431.231C312.429 427.789 316.032 422.76 312.429 417.995C311.914 417.2 312.429 416.671 313.973 416.406C315.517 416.142 316.546 416.406 317.061 417.2C321.179 423.024 317.061 429.113 306.767 433.348C300.591 435.996 293.385 437.319 287.208 437.319Z" fill="#2F2535"/>
<path d="M406.617 483.381C399.411 483.381 393.234 480.469 393.234 476.498C393.234 472.527 398.896 469.615 406.617 469.615C414.337 469.615 419.999 472.527 419.999 476.498C419.999 480.469 413.822 483.381 406.617 483.381ZM406.617 472.527C401.984 472.527 398.381 474.38 398.381 476.763C398.381 479.145 401.984 480.998 406.617 480.998C411.249 480.998 414.852 479.145 414.852 476.763C414.852 474.38 411.249 472.527 406.617 472.527Z" fill="#2F2535"/>
<path d="M325.81 401.582C320.663 401.582 316.545 399.464 316.545 396.817C316.545 394.17 320.663 392.052 325.81 392.052C330.956 392.052 335.074 394.17 335.074 396.817C335.074 399.464 330.956 401.582 325.81 401.582ZM325.81 393.905C322.721 393.905 320.148 395.229 320.148 396.817C320.148 398.405 322.721 399.729 325.81 399.729C328.898 399.729 331.471 398.405 331.471 396.817C331.471 395.229 328.898 393.905 325.81 393.905Z" fill="#2F2535"/>
<path d="M340.739 365.844L317.063 370.344L340.739 374.845V379.345L307.283 372.727V367.962L340.739 361.344V365.844Z" fill="#2F2535"/>
<path d="M365.441 386.492L342.279 352.344H352.059L375.22 386.492H365.441Z" fill="#2F2535"/>
<path d="M410.737 367.697V372.462L377.281 379.08V374.58L400.957 370.08L377.281 365.579V361.079L410.737 367.697Z" fill="#2F2535"/>
<path d="M410.736 280.604L391.693 284.046L384.487 294.105L377.796 284.31L358.752 280.604L378.31 276.898L384.487 267.368L391.693 277.163L410.736 280.604Z" fill="#2F2535"/>
<path d="M261.986 371.668L245.001 374.845L238.31 383.845L232.648 375.11L215.148 371.668L232.648 368.492L238.31 359.756L245.001 368.492L261.986 371.668Z" fill="#2F2535"/>
<path d="M231.105 303.9H249.12V335.931H287.722V343.343H231.105V303.9Z" fill="#2F2535"/>
<path d="M333.531 322.166H315.517L311.914 326.401H305.223L321.178 307.871H327.869L343.825 326.401H337.134L333.531 322.166ZM330.958 319.254L324.266 311.312L317.575 319.254H330.958Z" fill="#2F2535"/>
<path d="M378.822 318.459C379.852 319.254 380.366 320.312 380.366 321.371C380.366 322.96 379.337 324.283 376.763 325.077C374.19 325.872 371.102 326.401 366.47 326.401H348.455V307.871H365.44C369.558 307.871 373.161 308.4 375.219 309.194C377.278 309.988 378.822 311.312 378.822 312.636C378.822 313.43 378.308 314.489 377.793 315.018C377.278 315.548 375.734 316.342 374.19 316.606C375.734 317.136 377.278 317.665 378.822 318.459ZM355.146 310.518V315.547H364.411C366.984 315.547 368.528 315.283 369.558 315.018C370.587 314.489 371.616 313.959 371.616 313.165C371.616 312.371 371.102 311.577 369.558 311.312C368.528 310.783 366.47 310.783 364.411 310.783H355.146V310.518ZM373.675 321.107C373.675 319.254 371.102 318.459 365.955 318.459H355.146V323.754H365.955C371.102 323.754 373.675 322.695 373.675 321.107Z" fill="#2F2535"/>
<path d="M394.265 325.342C391.176 324.548 389.118 323.489 387.573 321.901C386.029 320.577 385 318.724 385 317.136C385 315.283 386.029 313.695 387.573 312.371C389.118 311.047 391.691 309.724 394.265 308.93C397.353 308.135 400.441 307.606 404.044 307.606C407.132 307.606 409.706 307.871 412.279 308.4C414.852 308.93 416.911 309.724 418.455 310.783L414.338 312.9C411.764 311.577 408.676 310.783 404.559 310.783C401.985 310.783 399.926 311.047 397.867 311.577C395.809 312.106 394.265 312.9 393.235 313.959C392.206 315.018 391.691 316.077 391.691 317.401C391.691 318.724 392.206 319.783 393.235 320.842C394.265 321.901 395.809 322.695 397.867 323.225C399.926 323.754 401.985 324.019 404.559 324.019C408.161 324.019 411.764 323.225 414.338 321.901L418.455 324.019C416.911 325.078 414.852 325.872 412.279 326.401C409.706 326.931 407.132 327.195 404.044 327.195C400.441 326.666 397.353 326.136 394.265 325.342Z" fill="#2F2535"/>
<path d="M287.208 306.812C283.606 306.812 280.517 306.282 277.944 305.488C274.856 304.429 269.709 301.517 273.312 294.37C277.944 286.428 273.826 279.545 262.503 276.104C252.209 272.927 236.253 272.927 221.842 280.075C220.812 280.604 219.268 280.604 218.239 280.075C217.209 279.545 217.209 278.751 218.239 278.222C232.136 271.339 250.665 269.751 265.076 273.986C278.459 277.957 283.091 285.899 277.944 295.164C276.4 298.076 275.37 301.782 280.517 303.37C285.664 305.223 295.958 303.9 303.679 300.723C312.429 297.282 316.032 292.252 312.429 287.487C311.914 286.693 312.429 286.163 313.973 285.899C315.517 285.634 316.546 285.899 317.061 286.693C321.179 292.517 317.061 298.605 306.767 302.841C300.591 305.488 293.385 306.812 287.208 306.812Z" fill="#2F2535"/>
<path d="M406.617 352.608C399.411 352.608 393.234 349.696 393.234 345.726C393.234 341.755 398.896 338.843 406.617 338.843C414.337 338.843 419.999 341.755 419.999 345.726C419.999 349.696 413.822 352.608 406.617 352.608ZM406.617 341.755C401.984 341.755 398.381 343.608 398.381 345.99C398.381 348.373 401.984 350.226 406.617 350.226C411.249 350.226 414.852 348.373 414.852 345.99C414.852 343.608 411.249 341.755 406.617 341.755Z" fill="#2F2535"/>
<path d="M325.81 271.074C320.663 271.074 316.545 268.957 316.545 266.309C316.545 263.662 320.663 261.544 325.81 261.544C330.956 261.544 335.074 263.662 335.074 266.309C335.074 268.692 330.956 271.074 325.81 271.074ZM325.81 263.133C322.721 263.133 320.148 264.456 320.148 266.045C320.148 267.633 322.721 268.957 325.81 268.957C328.898 268.957 331.471 267.633 331.471 266.045C331.471 264.456 328.898 263.133 325.81 263.133Z" fill="#2F2535"/>
<path d="M340.739 235.073L317.063 239.573L340.739 244.073V248.573L307.283 241.955V237.19L340.739 230.572V235.073Z" fill="#2F2535"/>
<path d="M365.441 255.721L342.279 221.572H352.059L375.22 255.721H365.441Z" fill="#2F2535"/>
<path d="M410.737 237.19V241.955L377.281 248.573V244.073L400.957 239.573L377.281 235.073V230.572L410.737 237.19Z" fill="#2F2535"/>
<path d="M410.736 150.097L391.693 153.538L384.487 163.333L377.796 153.538L358.752 150.097L378.31 146.391L384.487 136.596L391.693 146.655L410.736 150.097Z" fill="#2F2535"/>
<path d="M261.986 241.161L245.001 244.073L238.31 253.073L232.648 244.337L215.148 241.161L232.648 237.719L238.31 228.984L245.001 237.984L261.986 241.161Z" fill="#2F2535"/>
<path d="M231.105 173.127H249.12V205.159H287.722V212.571H231.105V173.127Z" fill="#2F2535"/>
<path d="M333.529 191.393H315.515L311.912 195.629H305.221L321.176 177.098H327.867L343.823 195.629H337.132L333.529 191.393ZM330.956 188.746L324.265 180.804L317.573 188.746H330.956Z" fill="#2F2535"/>
<path d="M378.822 187.687C379.852 188.481 380.366 189.54 380.366 190.599C380.366 192.187 379.337 193.511 376.763 194.305C374.19 195.099 371.102 195.629 366.47 195.629H348.455V177.098H365.44C369.558 177.098 373.161 177.628 375.219 178.422C377.278 179.216 378.822 180.54 378.822 181.863C378.822 182.658 378.308 183.716 377.793 184.246C377.278 184.775 375.734 185.569 374.19 185.834C375.734 186.364 377.278 186.893 378.822 187.687ZM355.146 180.01V185.04H364.411C366.984 185.04 368.528 184.775 369.558 184.511C370.587 183.981 371.616 183.452 371.616 182.658C371.616 181.863 371.102 181.069 369.558 180.804C368.528 180.275 366.47 180.275 364.411 180.275H355.146V180.01ZM373.675 190.334C373.675 188.481 371.102 187.687 365.955 187.687H355.146V192.982H365.955C371.102 192.982 373.675 192.187 373.675 190.334Z" fill="#2F2535"/>
<path d="M394.263 194.835C391.174 194.041 389.116 192.982 387.572 191.393C386.027 190.07 384.998 188.217 384.998 186.628C384.998 184.775 386.027 183.187 387.572 181.863C389.116 180.54 391.689 179.216 394.263 178.422C397.351 177.628 400.439 177.098 404.042 177.098C407.13 177.098 409.704 177.363 412.277 177.893C414.851 178.422 416.909 179.216 418.453 180.275L414.336 182.393C411.762 181.069 408.674 180.275 404.557 180.275C401.983 180.275 399.924 180.54 397.865 181.069C395.807 181.599 394.263 182.393 393.233 183.452C392.204 184.511 391.689 185.569 391.689 186.893C391.689 188.217 392.204 189.276 393.233 190.334C394.263 191.393 395.807 192.187 397.865 192.717C399.924 193.246 401.983 193.511 404.557 193.511C408.159 193.511 411.762 192.717 414.336 191.393L418.453 193.511C416.909 194.57 414.851 195.364 412.277 195.894C409.704 196.423 407.13 196.688 404.042 196.688C400.439 195.894 397.351 195.629 394.263 194.835Z" fill="#2F2535"/>
<path d="M287.208 176.039C283.606 176.039 280.517 175.51 277.944 174.716C274.856 173.657 269.709 170.745 273.312 163.598C277.944 155.656 273.826 148.773 262.503 145.332C252.209 142.155 236.253 142.155 221.842 149.303C220.812 149.832 219.268 149.832 218.239 149.303C217.209 148.773 217.209 147.979 218.239 147.45C232.136 140.567 250.665 138.979 265.076 143.214C278.459 147.185 283.091 155.127 277.944 164.392C276.4 167.304 275.37 171.01 280.517 172.598C285.664 174.451 295.958 173.128 303.679 169.951C312.429 166.51 316.032 161.48 312.429 156.715C311.914 155.921 312.429 155.391 313.973 155.127C315.517 154.862 316.546 155.127 317.061 155.921C321.179 161.745 317.061 167.833 306.767 172.069C300.591 174.716 293.385 176.039 287.208 176.039Z" fill="#2F2535"/>
<path d="M406.617 222.101C399.411 222.101 393.234 219.189 393.234 215.218C393.234 211.247 398.896 208.335 406.617 208.335C414.337 208.335 419.999 211.247 419.999 215.218C419.999 219.189 413.822 222.101 406.617 222.101ZM406.617 211.247C401.984 211.247 398.381 213.1 398.381 215.483C398.381 217.865 401.984 219.718 406.617 219.718C411.249 219.718 414.852 217.865 414.852 215.483C414.852 213.1 411.249 211.247 406.617 211.247Z" fill="#2F2535"/>
<path d="M325.81 140.302C320.663 140.302 316.545 138.184 316.545 135.537C316.545 132.89 320.663 130.772 325.81 130.772C330.956 130.772 335.074 132.89 335.074 135.537C335.074 138.184 330.956 140.302 325.81 140.302ZM325.81 132.625C322.721 132.625 320.148 133.949 320.148 135.537C320.148 137.126 322.721 138.449 325.81 138.449C328.898 138.449 331.471 137.126 331.471 135.537C331.471 133.949 328.898 132.625 325.81 132.625Z" fill="#2F2535"/>
<path d="M340.739 104.565L317.063 109.065L340.739 113.565V118.066L307.283 111.448V106.683L340.739 100.065V104.565Z" fill="#2F2535"/>
<path d="M365.441 125.213L342.279 91.0642H352.059L375.22 125.213H365.441Z" fill="#2F2535"/>
<path d="M410.737 106.418V111.183L377.281 117.801V113.301L400.957 108.801L377.281 104.3V99.8L410.737 106.418Z" fill="#2F2535"/>
<path d="M410.736 19.3247L391.693 22.766L384.487 32.8254L377.796 23.0308L358.752 19.3247L378.31 15.6186L384.487 6.08862L391.693 15.8833L410.736 19.3247Z" fill="#2F2535"/>
<path d="M261.986 110.389L245.001 113.565L238.31 122.566L232.648 113.83L215.148 110.389L232.648 107.212L238.31 98.4761L245.001 107.212L261.986 110.389Z" fill="#2F2535"/>
<path d="M231.105 42.6201H249.12V74.6514H287.722V82.0635H231.105V42.6201Z" fill="#2F2535"/>
<path d="M333.531 60.8855H315.517L311.914 65.121H305.223L321.178 46.5906H327.869L343.825 65.121H337.134L333.531 60.8855ZM330.958 58.2383L324.266 50.2967L317.575 58.2383H330.958Z" fill="#2F2535"/>
<path d="M378.822 57.1794C379.852 57.9736 380.366 59.0325 380.366 60.0913C380.366 61.6797 379.337 63.0033 376.763 63.7974C374.19 64.5916 371.102 65.121 366.47 65.121H348.455V46.5906H365.44C369.558 46.5906 373.161 47.12 375.219 47.9142C377.278 48.7083 378.822 50.0319 378.822 51.3556C378.822 52.1497 378.308 53.2086 377.793 53.738C377.278 54.2675 375.734 55.0616 374.19 55.3264C375.734 55.8558 377.278 56.3853 378.822 57.1794ZM355.146 49.2378V54.2675H364.411C366.984 54.2675 368.528 54.0028 369.558 53.738C370.587 53.2086 371.616 52.6792 371.616 51.885C371.616 51.0908 371.102 50.2967 369.558 50.0319C368.528 49.5025 366.47 49.5025 364.411 49.5025H355.146V49.2378ZM373.675 59.8266C373.675 57.9736 371.102 57.1794 365.955 57.1794H355.146V62.4738H365.955C371.102 62.4738 373.675 61.415 373.675 59.8266Z" fill="#2F2535"/>
<path d="M394.265 64.0622C391.176 63.2681 389.118 62.2092 387.573 60.6209C386.029 59.2973 385 57.4442 385 55.8559C385 54.0028 386.029 52.4145 387.573 51.0909C389.118 49.7673 391.691 48.4437 394.265 47.6495C397.353 46.8554 400.441 46.3259 404.044 46.3259C407.132 46.3259 409.706 46.5906 412.279 47.1201C414.852 47.6495 416.911 48.4437 418.455 49.5026L414.338 51.6203C411.764 50.2967 408.676 49.5026 404.559 49.5026C401.985 49.5026 399.926 49.7673 397.867 50.2967C395.809 50.8262 394.265 51.6203 393.235 52.6792C392.206 53.7381 391.691 54.797 391.691 56.1206C391.691 57.4442 392.206 58.5031 393.235 59.562C394.265 60.6209 395.809 61.415 397.867 61.9445C399.926 62.4739 401.985 62.7386 404.559 62.7386C408.161 62.7386 411.764 61.9445 414.338 60.6209L418.455 62.7386C416.911 63.7975 414.852 64.5917 412.279 65.1211C409.706 65.6506 407.132 65.9153 404.044 65.9153C400.441 65.3858 397.353 64.8564 394.265 64.0622Z" fill="#2F2535"/>
<path d="M287.208 45.5319C283.606 45.5319 280.517 45.0025 277.944 44.2083C274.856 43.1494 269.709 40.2375 273.312 33.09C277.944 25.1484 273.826 18.2657 262.503 14.8243C252.209 11.6476 236.253 11.6476 221.842 18.7951C220.812 19.3245 219.268 19.3245 218.239 18.7951C217.209 18.2657 217.209 17.4715 218.239 16.9421C232.136 10.0593 250.665 8.47098 265.076 12.7065C278.459 16.6773 283.091 24.619 277.944 33.8842C276.4 36.7961 275.37 40.5022 280.517 42.0905C285.664 43.9436 295.958 42.62 303.679 39.4433C312.429 36.002 316.032 30.9723 312.429 26.2073C311.914 25.4131 312.429 24.8837 313.973 24.619C315.517 24.3542 316.546 24.619 317.061 25.4131C321.179 31.237 317.061 37.3256 306.767 41.5611C300.591 44.2083 293.385 45.5319 287.208 45.5319Z" fill="#2F2535"/>
<path d="M406.617 91.3287C399.411 91.3287 393.234 88.4168 393.234 84.446C393.234 80.4752 398.896 77.5632 406.617 77.5632C414.337 77.5632 419.999 80.4752 419.999 84.446C419.999 88.4168 413.822 91.3287 406.617 91.3287ZM406.617 80.4752C401.984 80.4752 398.381 82.3282 398.381 84.7107C398.381 87.0932 401.984 88.9462 406.617 88.9462C411.249 88.9462 414.852 87.0932 414.852 84.7107C414.852 82.3282 411.249 80.4752 406.617 80.4752Z" fill="#2F2535"/>
<path d="M325.81 9.7946C320.663 9.7946 316.545 7.67684 316.545 5.02963C316.545 2.38242 320.663 0.264648 325.81 0.264648C330.956 0.264648 335.074 2.38242 335.074 5.02963C335.074 7.67684 330.956 9.7946 325.81 9.7946ZM325.81 1.85297C322.721 1.85297 320.148 3.17658 320.148 4.7649C320.148 6.35323 322.721 7.67684 325.81 7.67684C328.898 7.67684 331.471 6.35323 331.471 4.7649C331.471 3.17658 328.898 1.85297 325.81 1.85297Z" fill="#2F2535"/>
<path d="M124.049 496.352L100.373 500.852L124.049 505.352V509.853L90.5938 503.235V498.47L124.049 491.852V496.352Z" fill="#2F2535"/>
<path d="M148.24 517L125.078 482.851H134.857L158.019 517H148.24Z" fill="#2F2535"/>
<path d="M193.533 498.47V503.235L160.078 509.853V505.352L183.754 500.852L160.078 496.352V491.852L193.533 498.47Z" fill="#2F2535"/>
<path d="M194.048 411.376L175.004 414.553L167.798 424.613L161.107 414.818L141.549 411.376L161.107 407.67L167.798 397.876L175.004 407.67L194.048 411.376Z" fill="#2F2535"/>
<path d="M44.7857 502.441L28.3154 505.353L21.6243 514.353L15.4479 505.617L-1.53711 502.441L15.9626 498.999L21.6243 490.263L27.8007 499.264L44.7857 502.441Z" fill="#2F2535"/>
<path d="M14.418 434.407H32.4324V466.438H71.0348V473.85H14.418V434.407Z" fill="#2F2535"/>
<path d="M116.328 452.673H98.3135L94.7106 456.908H88.0195L103.975 438.378H110.666L126.622 456.908H119.416L116.328 452.673ZM114.269 450.025L107.578 442.084L100.887 450.025H114.269Z" fill="#2F2535"/>
<path d="M161.621 448.967C162.65 449.761 163.165 450.82 163.165 451.878C163.165 453.467 162.136 454.79 159.562 455.585C156.989 456.379 153.901 456.908 149.268 456.908H131.254V438.378H148.239C152.357 438.378 155.959 438.907 158.018 439.701C160.077 440.495 161.621 441.819 161.621 443.143C161.621 443.937 161.106 444.996 160.592 445.525C160.077 446.055 158.533 446.849 156.989 447.113C159.048 447.643 160.592 448.172 161.621 448.967ZM138.46 441.29V446.319H147.724C150.298 446.319 151.842 446.055 152.871 445.79C153.901 445.26 154.93 444.731 154.93 443.937C154.93 443.143 154.415 442.348 152.871 442.084C151.842 441.554 149.783 441.554 147.724 441.554H138.46V441.29ZM156.989 451.614C156.989 449.761 154.415 448.967 149.268 448.967H138.46V454.261H149.268C154.415 454.261 156.989 453.467 156.989 451.614Z" fill="#2F2535"/>
<path d="M177.577 456.114C174.489 455.32 172.43 454.261 170.886 452.673C169.342 451.349 168.312 449.496 168.312 447.908C168.312 446.055 169.342 444.466 170.886 443.143C172.43 441.819 175.004 440.495 177.577 439.701C180.665 438.907 183.753 438.378 187.356 438.378C190.444 438.378 193.018 438.642 195.592 439.172C198.165 439.701 200.224 440.495 201.768 441.554L197.65 443.672C195.077 442.349 191.989 441.554 187.871 441.554C185.298 441.554 183.239 441.819 181.18 442.349C179.121 442.878 177.577 443.672 176.548 444.731C175.518 445.79 175.004 446.849 175.004 448.172C175.004 449.496 175.518 450.555 176.548 451.614C177.577 452.673 179.121 453.467 181.18 453.996C183.239 454.526 185.298 454.79 187.871 454.79C191.474 454.79 195.077 453.996 197.65 452.673L201.768 454.79C200.224 455.849 198.165 456.643 195.592 457.173C193.018 457.702 190.444 457.967 187.356 457.967C183.753 457.173 180.151 456.908 177.577 456.114Z" fill="#2F2535"/>
<path d="M70.0033 437.319C66.4004 437.319 63.3123 436.79 60.7388 435.996C57.6506 434.937 52.5036 432.025 56.1065 424.877C60.7388 416.936 56.6212 410.053 45.2978 406.612C35.0039 403.435 19.0482 403.435 4.63668 410.582C3.60728 411.112 2.06316 411.112 1.03377 410.582C0.00436965 410.053 0.00436965 409.259 1.03377 408.729C14.9306 401.847 33.4598 400.258 47.8713 404.494C61.2535 408.465 65.8858 416.406 60.7388 425.672C59.1947 428.583 58.1653 432.29 63.3123 433.878C68.4593 435.731 78.7532 434.407 86.4737 431.231C95.2236 427.789 98.8264 422.76 95.2236 417.995C94.7089 417.2 95.2236 416.671 96.7677 416.406C98.3118 416.142 99.3411 416.406 99.8558 417.2C103.973 423.024 99.8558 429.113 89.5619 433.348C83.9002 435.996 76.6944 437.319 70.0033 437.319Z" fill="#2F2535"/>
<path d="M189.927 483.381C182.721 483.381 176.545 480.469 176.545 476.498C176.545 472.527 182.207 469.615 189.927 469.615C197.647 469.615 203.309 472.527 203.309 476.498C203.309 480.469 197.133 483.381 189.927 483.381ZM189.927 472.527C185.295 472.527 181.692 474.38 181.692 476.763C181.692 479.145 185.295 480.998 189.927 480.998C194.559 480.998 198.162 479.145 198.162 476.763C198.162 474.38 194.045 472.527 189.927 472.527Z" fill="#2F2535"/>
<path d="M108.606 401.582C103.459 401.582 99.3418 399.464 99.3418 396.817C99.3418 394.17 103.459 392.052 108.606 392.052C113.753 392.052 117.871 394.17 117.871 396.817C117.871 399.464 114.268 401.582 108.606 401.582ZM108.606 393.905C105.518 393.905 102.945 395.229 102.945 396.817C102.945 398.405 105.518 399.729 108.606 399.729C111.695 399.729 114.268 398.405 114.268 396.817C114.268 395.229 112.209 393.905 108.606 393.905Z" fill="#2F2535"/>
<path d="M124.049 365.844L100.373 370.344L124.049 374.845V379.345L90.5938 372.727V367.962L124.049 361.344V365.844Z" fill="#2F2535"/>
<path d="M148.24 386.492L125.078 352.344H134.857L158.019 386.492H148.24Z" fill="#2F2535"/>
<path d="M193.533 367.697V372.462L160.078 379.08V374.58L183.754 370.08L160.078 365.579V361.079L193.533 367.697Z" fill="#2F2535"/>
<path d="M194.048 280.604L175.004 284.046L167.798 294.105L161.107 284.31L141.549 280.604L161.107 276.898L167.798 267.368L175.004 277.163L194.048 280.604Z" fill="#2F2535"/>
<path d="M44.7857 371.668L28.3154 374.845L21.6243 383.845L15.4479 375.11L-1.53711 371.668L15.9626 368.492L21.6243 359.756L27.8007 368.492L44.7857 371.668Z" fill="#2F2535"/>
<path d="M14.418 303.9H32.4324V335.931H71.0348V343.343H14.418V303.9Z" fill="#2F2535"/>
<path d="M116.328 322.166H98.3135L94.7106 326.401H88.0195L103.975 307.871H110.666L126.622 326.401H119.416L116.328 322.166ZM114.269 319.254L107.578 311.312L100.887 319.254H114.269Z" fill="#2F2535"/>
<path d="M161.621 318.459C162.65 319.254 163.165 320.312 163.165 321.371C163.165 322.96 162.136 324.283 159.562 325.077C156.989 325.872 153.901 326.401 149.268 326.401H131.254V307.871H148.239C152.357 307.871 155.959 308.4 158.018 309.194C160.077 309.988 161.621 311.312 161.621 312.636C161.621 313.43 161.106 314.489 160.592 315.018C160.077 315.548 158.533 316.342 156.989 316.606C159.048 317.136 160.592 317.665 161.621 318.459ZM138.46 310.518V315.547H147.724C150.298 315.547 151.842 315.283 152.871 315.018C153.901 314.489 154.93 313.959 154.93 313.165C154.93 312.371 154.415 311.577 152.871 311.312C151.842 310.783 149.783 310.783 147.724 310.783H138.46V310.518ZM156.989 321.107C156.989 319.254 154.415 318.459 149.268 318.459H138.46V323.754H149.268C154.415 323.754 156.989 322.695 156.989 321.107Z" fill="#2F2535"/>
<path d="M177.577 325.342C174.489 324.548 172.43 323.489 170.886 321.901C169.342 320.577 168.312 318.724 168.312 317.136C168.312 315.283 169.342 313.695 170.886 312.371C172.43 311.047 175.004 309.724 177.577 308.93C180.665 308.135 183.753 307.606 187.356 307.606C190.444 307.606 193.018 307.871 195.592 308.4C198.165 308.93 200.224 309.724 201.768 310.783L197.65 312.9C195.077 311.577 191.989 310.783 187.871 310.783C185.298 310.783 183.239 311.047 181.18 311.577C179.121 312.106 177.577 312.9 176.548 313.959C175.518 315.018 175.004 316.077 175.004 317.401C175.004 318.724 175.518 319.783 176.548 320.842C177.577 321.901 179.121 322.695 181.18 323.225C183.239 323.754 185.298 324.019 187.871 324.019C191.474 324.019 195.077 323.225 197.65 321.901L201.768 324.019C200.224 325.078 198.165 325.872 195.592 326.401C193.018 326.931 190.444 327.195 187.356 327.195C183.753 326.666 180.151 326.136 177.577 325.342Z" fill="#2F2535"/>
<path d="M70.0033 306.812C66.4004 306.812 63.3123 306.282 60.7388 305.488C57.6506 304.429 52.5036 301.517 56.1065 294.37C60.7388 286.428 56.6212 279.545 45.2978 276.104C35.0039 272.927 19.0482 272.927 4.63668 280.075C3.60728 280.604 2.06316 280.604 1.03377 280.075C0.00436965 279.545 0.00436965 278.751 1.03377 278.222C14.9306 271.339 33.4598 269.751 47.8713 273.986C61.2535 277.957 65.8858 285.899 60.7388 295.164C59.1947 298.076 58.1653 301.782 63.3123 303.37C68.4593 305.223 78.7532 303.9 86.4737 300.723C95.2236 297.282 98.8264 292.252 95.2236 287.487C94.7089 286.693 95.2236 286.163 96.7677 285.899C98.3118 285.634 99.3411 285.899 99.8558 286.693C103.973 292.517 99.8558 298.605 89.5619 302.841C83.9002 305.488 76.6944 306.812 70.0033 306.812Z" fill="#2F2535"/>
<path d="M189.927 352.608C182.721 352.608 176.545 349.696 176.545 345.726C176.545 341.755 182.207 338.843 189.927 338.843C197.647 338.843 203.309 341.755 203.309 345.726C203.309 349.696 197.133 352.608 189.927 352.608ZM189.927 341.755C185.295 341.755 181.692 343.608 181.692 345.99C181.692 348.373 185.295 350.226 189.927 350.226C194.559 350.226 198.162 348.373 198.162 345.99C198.162 343.608 194.045 341.755 189.927 341.755Z" fill="#2F2535"/>
<path d="M108.606 271.074C103.459 271.074 99.3418 268.957 99.3418 266.309C99.3418 263.662 103.459 261.544 108.606 261.544C113.753 261.544 117.871 263.662 117.871 266.309C118.386 268.692 114.268 271.074 108.606 271.074ZM108.606 263.133C105.518 263.133 102.945 264.456 102.945 266.045C102.945 267.633 105.518 268.957 108.606 268.957C111.695 268.957 114.268 267.633 114.268 266.045C114.783 264.456 112.209 263.133 108.606 263.133Z" fill="#2F2535"/>
<path d="M124.049 235.073L100.373 239.573L124.049 244.073V248.573L90.5938 241.955V237.19L124.049 230.572V235.073Z" fill="#2F2535"/>
<path d="M148.24 255.721L125.078 221.572H134.857L158.019 255.721H148.24Z" fill="#2F2535"/>
<path d="M193.533 237.19V241.955L160.078 248.573V244.073L183.754 239.573L160.078 235.073V230.572L193.533 237.19Z" fill="#2F2535"/>
<path d="M194.048 150.097L175.004 153.538L167.798 163.333L161.107 153.538L141.549 150.097L161.107 146.391L167.798 136.596L175.004 146.655L194.048 150.097Z" fill="#2F2535"/>
<path d="M44.7857 241.161L28.3154 244.073L21.6243 253.073L15.4479 244.337L-1.53711 241.161L15.9626 237.719L21.6243 228.984L27.8007 237.984L44.7857 241.161Z" fill="#2F2535"/>
<path d="M14.418 173.127H32.4324V205.158H71.0348V212.571H14.418V173.127Z" fill="#2F2535"/>
<path d="M116.328 191.393H98.3135L94.7106 195.629H88.0195L103.975 177.098H110.666L126.622 195.629H119.416L116.328 191.393ZM114.269 188.746L107.578 180.804L100.887 188.746H114.269Z" fill="#2F2535"/>
<path d="M161.621 187.687C162.65 188.481 163.165 189.54 163.165 190.599C163.165 192.187 162.136 193.511 159.562 194.305C156.989 195.099 153.901 195.629 149.268 195.629H131.254V177.098H148.239C152.357 177.098 155.959 177.628 158.018 178.422C160.077 179.216 161.621 180.54 161.621 181.863C161.621 182.658 161.106 183.716 160.592 184.246C160.077 184.775 158.533 185.569 156.989 185.834C159.048 186.364 160.592 186.893 161.621 187.687ZM138.46 180.01V185.04H147.724C150.298 185.04 151.842 184.775 152.871 184.511C153.901 183.981 154.93 183.452 154.93 182.658C154.93 181.863 154.415 181.069 152.871 180.804C151.842 180.275 149.783 180.275 147.724 180.275H138.46V180.01ZM156.989 190.334C156.989 188.481 154.415 187.687 149.268 187.687H138.46V192.982H149.268C154.415 192.982 156.989 192.187 156.989 190.334Z" fill="#2F2535"/>
<path d="M177.577 194.835C174.489 194.041 172.43 192.982 170.886 191.393C169.342 190.07 168.312 188.217 168.312 186.628C168.312 184.775 169.342 183.187 170.886 181.863C172.43 180.54 175.004 179.216 177.577 178.422C180.665 177.628 183.753 177.098 187.356 177.098C190.444 177.098 193.018 177.363 195.592 177.893C198.165 178.422 200.224 179.216 201.768 180.275L197.65 182.393C195.077 181.069 191.989 180.275 187.871 180.275C185.298 180.275 183.239 180.54 181.18 181.069C179.121 181.599 177.577 182.393 176.548 183.452C175.518 184.511 175.004 185.569 175.004 186.893C175.004 188.217 175.518 189.276 176.548 190.334C177.577 191.393 179.121 192.187 181.18 192.717C183.239 193.246 185.298 193.511 187.871 193.511C191.474 193.511 195.077 192.717 197.65 191.393L201.768 193.511C200.224 194.57 198.165 195.364 195.592 195.894C193.018 196.423 190.444 196.688 187.356 196.688C183.753 195.894 180.151 195.629 177.577 194.835Z" fill="#2F2535"/>
<path d="M70.0033 176.039C66.4004 176.039 63.3123 175.51 60.7388 174.716C57.6506 173.657 52.5036 170.745 56.1065 163.598C60.7388 155.656 56.6212 148.773 45.2978 145.332C35.0039 142.155 19.0482 142.155 4.63668 149.303C3.60728 149.832 2.06316 149.832 1.03377 149.303C0.00436965 148.773 0.00436965 147.979 1.03377 147.45C14.9306 140.567 33.4598 138.979 47.8713 143.214C61.2535 147.185 65.8858 155.127 60.7388 164.392C59.1947 167.304 58.1653 171.01 63.3123 172.598C68.4593 174.451 78.7532 173.128 86.4737 169.951C95.2236 166.51 98.8264 161.48 95.2236 156.715C94.7089 155.921 95.2236 155.391 96.7677 155.127C98.3118 154.862 99.3411 155.127 99.8558 155.921C103.973 161.745 99.8558 167.833 89.5619 172.069C83.9002 174.716 76.6944 176.039 70.0033 176.039Z" fill="#2F2535"/>
<path d="M189.927 222.101C182.721 222.101 176.545 219.189 176.545 215.218C176.545 211.247 182.207 208.335 189.927 208.335C197.647 208.335 203.309 211.247 203.309 215.218C203.309 219.189 197.133 222.101 189.927 222.101ZM189.927 211.247C185.295 211.247 181.692 213.1 181.692 215.483C181.692 217.865 185.295 219.718 189.927 219.718C194.559 219.718 198.162 217.865 198.162 215.483C198.162 213.1 194.045 211.247 189.927 211.247Z" fill="#2F2535"/>
<path d="M108.606 140.302C103.459 140.302 99.3418 138.184 99.3418 135.537C99.3418 132.89 103.459 130.772 108.606 130.772C113.753 130.772 117.871 132.89 117.871 135.537C118.386 138.184 114.268 140.302 108.606 140.302ZM108.606 132.625C105.518 132.625 102.945 133.949 102.945 135.537C102.945 137.126 105.518 138.449 108.606 138.449C111.695 138.449 114.268 137.126 114.268 135.537C114.783 133.949 112.209 132.625 108.606 132.625Z" fill="#2F2535"/>
<path d="M124.05 104.565L100.374 109.065L124.05 113.566V118.066L90.0801 111.183V106.418L123.535 99.8V104.565H124.05Z" fill="#2F2535"/>
<path d="M148.24 125.213L125.078 91.0642H134.857L158.019 125.213H148.24Z" fill="#2F2535"/>
<path d="M193.533 106.418V111.183L160.078 117.801V113.301L183.754 108.801L160.078 104.3V99.8L193.533 106.418Z" fill="#2F2535"/>
<path d="M194.048 19.3247L175.004 22.766L167.798 32.8254L161.107 23.0308L141.549 19.3247L161.107 15.6186L167.798 6.08862L175.004 15.8833L194.048 19.3247Z" fill="#2F2535"/>
<path d="M44.7857 110.389L28.3154 113.565L21.6243 122.566L15.4479 113.83L-1.53711 110.389L15.9626 107.212L21.6243 98.4761L27.8007 107.212L44.7857 110.389Z" fill="#2F2535"/>
<path d="M14.418 42.6201H32.4324V74.6514H71.0348V82.0635H14.418V42.6201Z" fill="#2F2535"/>
<path d="M116.328 60.8855H98.3135L94.7106 65.121H88.0195L103.975 46.5906H110.666L126.622 65.121H119.416L116.328 60.8855ZM114.269 58.2383L107.578 50.2967L100.887 58.2383H114.269Z" fill="#2F2535"/>
<path d="M161.621 57.1794C162.65 57.9736 163.165 59.0325 163.165 60.0913C163.165 61.6797 162.136 63.0033 159.562 63.7974C156.989 64.5916 153.901 65.121 149.268 65.121H131.254V46.5906H148.239C152.357 46.5906 155.959 47.12 158.018 47.9142C160.077 48.7083 161.621 50.0319 161.621 51.3556C161.621 52.1497 161.106 53.2086 160.592 53.738C160.077 54.2675 158.533 55.0616 156.989 55.3264C159.048 55.8558 160.592 56.3853 161.621 57.1794ZM138.46 49.2378V54.2675H147.724C150.298 54.2675 151.842 54.0028 152.871 53.738C153.901 53.2086 154.93 52.6792 154.93 51.885C154.93 51.0908 154.415 50.2967 152.871 50.0319C151.842 49.5025 149.783 49.5025 147.724 49.5025H138.46V49.2378ZM156.989 59.8266C156.989 57.9736 154.415 57.1794 149.268 57.1794H138.46V62.4738H149.268C154.415 62.4738 156.989 61.415 156.989 59.8266Z" fill="#2F2535"/>
<path d="M177.577 64.0622C174.489 63.2681 172.43 62.2092 170.886 60.6209C169.342 59.2973 168.312 57.4442 168.312 55.8559C168.312 54.0028 169.342 52.4145 170.886 51.0909C172.43 49.7673 175.004 48.4437 177.577 47.6495C180.665 46.8554 183.753 46.3259 187.356 46.3259C190.444 46.3259 193.018 46.5906 195.592 47.1201C198.165 47.6495 200.224 48.4437 201.768 49.5026L197.65 51.6203C195.077 50.2967 191.989 49.5026 187.871 49.5026C185.298 49.5026 183.239 49.7673 181.18 50.2967C179.121 50.8262 177.577 51.6203 176.548 52.6792C175.518 53.7381 175.004 54.797 175.004 56.1206C175.004 57.4442 175.518 58.5031 176.548 59.562C177.577 60.6209 179.121 61.415 181.18 61.9445C183.239 62.4739 185.298 62.7386 187.871 62.7386C191.474 62.7386 195.077 61.9445 197.65 60.6209L201.768 62.7386C200.224 63.7975 198.165 64.5917 195.592 65.1211C193.018 65.6506 190.444 65.9153 187.356 65.9153C183.753 65.3858 180.151 64.8564 177.577 64.0622Z" fill="#2F2535"/>
<path d="M70.0033 45.5319C66.4004 45.5319 63.3123 45.0025 60.7388 44.2083C57.6506 43.1494 52.5036 40.2375 56.1065 33.09C60.7388 25.1484 56.6212 18.2657 45.2978 14.8243C35.0039 11.6476 19.0482 11.6476 4.63668 18.7951C3.60728 19.3245 2.06316 19.3245 1.03377 18.7951C0.00436965 18.2657 0.00436965 17.4715 1.03377 16.9421C14.9306 10.0593 33.4598 8.47098 47.8713 12.7065C61.2535 16.6773 65.8858 24.619 60.7388 33.8842C59.1947 36.7961 58.1653 40.5022 63.3123 42.0905C68.4593 43.9436 78.7532 42.62 86.4737 39.4433C95.2236 36.002 98.8264 30.9723 95.2236 26.2073C94.7089 25.4131 95.2236 24.8837 96.7677 24.619C98.3118 24.3542 99.3411 24.619 99.8558 25.4131C103.973 31.237 99.8558 37.3256 89.5619 41.5611C83.9002 44.2083 76.6944 45.5319 70.0033 45.5319Z" fill="#2F2535"/>
<path d="M189.927 91.3287C182.721 91.3287 176.545 88.4168 176.545 84.446C176.545 80.4752 182.207 77.5632 189.927 77.5632C197.647 77.5632 203.309 80.4752 203.309 84.446C203.309 88.4168 197.133 91.3287 189.927 91.3287ZM189.927 80.4752C185.295 80.4752 181.692 82.3282 181.692 84.7107C181.692 87.0932 185.295 88.9462 189.927 88.9462C194.559 88.9462 198.162 87.0932 198.162 84.7107C198.162 82.3282 194.045 80.4752 189.927 80.4752Z" fill="#2F2535"/>
<path d="M108.606 9.7946C103.459 9.7946 99.3418 7.67684 99.3418 5.02963C99.3418 2.38242 103.459 0.264648 108.606 0.264648C113.753 0.264648 117.871 2.38242 117.871 5.02963C117.871 7.67684 114.268 9.7946 108.606 9.7946ZM108.606 1.85297C105.518 1.85297 102.945 3.17658 102.945 4.7649C102.945 6.35323 105.518 7.67684 108.606 7.67684C111.695 7.67684 114.268 6.35323 114.268 4.7649C114.268 3.17658 112.209 1.85297 108.606 1.85297Z" fill="#2F2535"/>
</g>
<g opacity="0.05">
<path d="M577.498 496.352L553.822 500.852L577.498 505.352V509.853L544.043 503.235V498.47L577.498 491.852V496.352Z" fill="#2F2535"/>
<path d="M602.204 517L579.043 482.851H588.822L611.984 517H602.204Z" fill="#2F2535"/>
<path d="M647.496 498.47V503.235L614.041 509.853V505.352L637.717 500.852L614.041 496.352V491.852L647.496 498.47Z" fill="#2F2535"/>
<path d="M647.496 411.376L628.967 414.553L621.761 424.613L614.556 414.818L595.512 411.376L615.07 407.67L621.761 397.876L628.452 407.67L647.496 411.376Z" fill="#2F2535"/>
<path d="M498.75 502.441L481.765 505.353L475.588 514.353L469.412 505.617L451.912 502.441L469.412 498.999L475.588 490.263L481.765 499.264L498.75 502.441Z" fill="#2F2535"/>
<path d="M447.794 476.762L438.014 478.351L433.897 483.91L430.294 478.615L420 476.762L430.294 474.644L433.897 469.615L437.5 474.909L447.794 476.762Z" fill="#2F2535"/>
<path d="M467.867 434.407H485.882V466.438H524.484V473.85H467.867V434.407Z" fill="#2F2535"/>
<path d="M570.291 452.673H552.276L548.673 456.908H541.982L557.938 438.378H564.629L580.585 456.908H573.379L570.291 452.673ZM568.232 450.025L561.541 442.084L554.85 450.025H568.232Z" fill="#2F2535"/>
<path d="M615.584 448.967C616.613 449.761 617.128 450.82 617.128 451.878C617.128 453.467 616.099 454.79 613.525 455.585C610.952 456.379 607.864 456.908 603.231 456.908H585.217V438.378H602.202C606.319 438.378 609.922 438.907 611.981 439.701C614.04 440.495 615.584 441.819 615.584 443.143C615.584 443.937 615.069 444.996 614.555 445.525C614.04 446.055 612.496 446.849 610.952 447.113C613.01 447.643 614.555 448.172 615.584 448.967ZM591.908 441.29V446.319H601.172C603.746 446.319 605.29 446.055 606.319 445.79C607.349 445.26 608.378 444.731 608.378 443.937C608.378 443.143 607.864 442.348 606.319 442.084C605.29 441.554 603.231 441.554 601.172 441.554H591.908V441.29ZM610.437 451.614C610.437 449.761 607.864 448.967 602.717 448.967H591.908V454.261H602.717C607.864 454.261 610.437 453.467 610.437 451.614Z" fill="#2F2535"/>
<path d="M631.024 456.114C627.936 455.32 625.877 454.261 624.333 452.673C622.789 451.349 621.76 449.496 621.76 447.908C621.76 446.055 622.789 444.466 624.333 443.143C625.877 441.819 628.451 440.495 631.024 439.701C634.113 438.907 637.201 438.378 640.804 438.378C643.892 438.378 646.465 438.642 649.039 439.172C651.612 439.701 653.671 440.495 655.215 441.554L651.098 443.672C648.524 442.349 645.436 441.554 641.318 441.554C638.745 441.554 636.686 441.819 634.627 442.349C632.568 442.878 631.024 443.672 629.995 444.731C628.966 445.79 628.451 446.849 628.451 448.172C628.451 449.496 628.966 450.555 629.995 451.614C631.024 452.673 632.568 453.467 634.627 453.996C636.686 454.526 638.745 454.79 641.318 454.79C644.921 454.79 648.524 453.996 651.098 452.673L655.215 454.79C653.671 455.849 651.612 456.643 649.039 457.173C646.465 457.702 643.892 457.967 640.804 457.967C637.201 457.173 634.113 456.908 631.024 456.114Z" fill="#2F2535"/>
<path d="M523.968 437.319C520.365 437.319 517.277 436.79 514.704 435.996C511.615 434.937 506.468 432.025 510.071 424.877C514.704 416.936 510.586 410.053 499.263 406.612C488.969 403.435 473.013 403.435 458.601 410.582C457.572 411.112 456.028 411.112 454.999 410.582C453.969 410.053 453.969 409.259 454.999 408.729C468.895 401.847 487.425 400.258 501.836 404.494C515.218 408.465 519.851 416.406 514.704 425.672C513.16 428.583 512.13 432.29 517.277 433.878C522.424 435.731 532.718 434.407 540.439 431.231C549.188 427.789 552.791 422.76 549.188 417.995C548.674 417.2 549.188 416.671 550.732 416.406C552.277 416.142 553.306 416.406 553.821 417.2C557.938 423.024 553.821 429.113 543.527 433.348C537.865 435.996 530.145 437.319 523.968 437.319Z" fill="#2F2535"/>
<path d="M643.38 483.38C636.174 483.38 629.998 480.468 629.998 476.498C629.998 472.527 635.66 469.615 643.38 469.615C651.101 469.615 656.762 472.527 656.762 476.498C656.762 480.468 650.586 483.38 643.38 483.38ZM643.38 472.527C638.748 472.527 635.145 474.38 635.145 476.762C635.145 479.145 638.748 480.998 643.38 480.998C648.012 480.998 651.615 479.145 651.615 476.762C651.615 474.38 648.012 472.527 643.38 472.527Z" fill="#2F2535"/>
<path d="M432.352 443.672C427.205 443.672 423.088 441.555 423.088 438.907C423.088 436.26 427.205 434.142 432.352 434.142C437.499 434.142 441.617 436.26 441.617 438.907C441.617 441.555 437.499 443.672 432.352 443.672ZM432.352 435.995C429.264 435.995 426.691 437.319 426.691 438.907C426.691 440.496 429.264 441.819 432.352 441.819C435.441 441.819 438.014 440.496 438.014 438.907C438.014 437.319 435.441 435.995 432.352 435.995Z" fill="#2F2535"/>
<path d="M562.571 401.582C557.424 401.582 553.307 399.464 553.307 396.817C553.307 394.17 557.424 392.052 562.571 392.052C567.718 392.052 571.836 394.17 571.836 396.817C571.836 399.464 567.718 401.582 562.571 401.582ZM562.571 393.905C559.483 393.905 556.91 395.229 556.91 396.817C556.91 398.405 559.483 399.729 562.571 399.729C565.659 399.729 568.233 398.405 568.233 396.817C568.233 395.229 565.659 393.905 562.571 393.905Z" fill="#2F2535"/>
<path d="M832.276 496.352L808.6 500.852L832.276 505.352V509.853L798.82 503.235V498.47L832.276 491.852V496.352Z" fill="#2F2535"/>
<path d="M856.98 517L833.818 482.851H843.598L866.759 517H856.98Z" fill="#2F2535"/>
<path d="M753.523 502.441L736.538 505.353L729.847 514.353L724.185 505.617L706.686 502.441L724.185 498.999L729.847 490.263L736.538 499.264L753.523 502.441Z" fill="#2F2535"/>
<path d="M702.569 476.762L692.275 478.351L688.672 483.91L685.069 478.615L674.775 476.762L685.069 474.644L688.672 469.615L692.275 474.909L702.569 476.762Z" fill="#2F2535"/>
<path d="M722.643 434.407H740.657V466.438H779.259V473.85H722.643V434.407Z" fill="#2F2535"/>
<path d="M825.066 452.673H807.052L803.449 456.908H796.758L812.713 438.378H819.405L835.36 456.908H828.154L825.066 452.673ZM822.493 450.025L815.802 442.084L809.111 450.025H822.493Z" fill="#2F2535"/>
<path d="M870.359 448.967C871.389 449.761 871.904 450.82 871.904 451.878C871.904 453.467 870.874 454.79 868.301 455.585C865.727 456.379 862.639 456.908 858.007 456.908H839.992V438.378H856.977C861.095 438.378 864.698 438.907 866.757 439.701C868.815 440.495 870.359 441.819 870.359 443.143C870.359 443.937 869.845 444.996 869.33 445.525C868.815 446.055 867.271 446.849 865.727 447.113C867.271 447.643 868.815 448.172 870.359 448.967ZM846.683 441.29V446.319H855.948C858.521 446.319 860.065 446.055 861.095 445.79C862.124 445.26 863.154 444.731 863.154 443.937C863.154 443.143 862.639 442.348 861.095 442.084C860.065 441.554 858.007 441.554 855.948 441.554H846.683V441.29ZM865.212 451.614C865.212 449.761 862.639 448.967 857.492 448.967H846.683V454.261H857.492C862.639 454.261 865.212 453.467 865.212 451.614Z" fill="#2F2535"/>
<path d="M778.744 437.319C775.141 437.319 772.052 436.79 769.479 435.996C766.391 434.937 761.244 432.025 764.847 424.877C769.479 416.936 765.361 410.053 754.038 406.612C743.744 403.435 727.788 403.435 713.377 410.582C712.347 411.112 710.803 411.112 709.774 410.582C708.745 410.053 708.745 409.259 709.774 408.729C723.671 401.847 742.2 400.258 756.612 404.494C769.994 408.465 774.626 416.406 769.479 425.672C767.935 428.583 766.906 432.29 772.052 433.878C777.199 435.731 787.493 434.407 795.214 431.231C803.964 427.789 807.567 422.76 803.964 417.995C803.449 417.2 803.964 416.671 805.508 416.406C807.052 416.142 808.081 416.406 808.596 417.2C812.714 423.024 808.596 429.113 798.302 433.348C792.126 435.996 784.92 437.319 778.744 437.319Z" fill="#2F2535"/>
<path d="M687.128 443.672C681.981 443.672 677.863 441.555 677.863 438.907C677.863 436.26 681.981 434.142 687.128 434.142C692.275 434.142 696.392 436.26 696.392 438.907C696.392 441.555 692.275 443.672 687.128 443.672ZM687.128 435.995C684.04 435.995 681.466 437.319 681.466 438.907C681.466 440.496 684.04 441.819 687.128 441.819C690.216 441.819 692.79 440.496 692.79 438.907C692.79 437.319 690.216 435.995 687.128 435.995Z" fill="#2F2535"/>
<path d="M817.347 401.582C812.2 401.582 808.082 399.464 808.082 396.817C808.082 394.17 812.2 392.052 817.347 392.052C822.494 392.052 826.611 394.17 826.611 396.817C826.611 399.464 822.494 401.582 817.347 401.582ZM817.347 393.905C814.258 393.905 811.685 395.229 811.685 396.817C811.685 398.405 814.258 399.729 817.347 399.729C820.435 399.729 823.008 398.405 823.008 396.817C823.008 395.229 820.435 393.905 817.347 393.905Z" fill="#2F2535"/>
<path d="M577.498 365.844L553.822 370.344L577.498 374.845V379.345L544.043 372.727V367.962L577.498 361.344V365.844Z" fill="#2F2535"/>
<path d="M602.204 386.492L579.043 352.344H588.822L611.984 386.492H602.204Z" fill="#2F2535"/>
<path d="M647.496 367.697V372.462L614.041 379.08V374.58L637.717 370.08L614.041 365.579V361.079L647.496 367.697Z" fill="#2F2535"/>
<path d="M647.496 280.604L628.967 284.046L621.761 294.105L614.556 284.31L595.512 280.604L615.07 276.898L621.761 267.368L628.452 277.163L647.496 280.604Z" fill="#2F2535"/>
<path d="M498.75 371.668L481.765 374.845L475.588 383.845L469.412 375.11L451.912 371.668L469.412 368.492L475.588 359.756L481.765 368.492L498.75 371.668Z" fill="#2F2535"/>
<path d="M447.794 345.99L438.014 347.843L433.897 353.138L430.294 347.843L420 345.99L430.294 344.137L433.897 338.843L437.5 344.137L447.794 345.99Z" fill="#2F2535"/>
<path d="M467.867 303.9H485.882V335.931H524.484V343.343H467.867V303.9Z" fill="#2F2535"/>
<path d="M570.291 322.166H552.276L548.673 326.401H541.982L557.938 307.871H564.629L580.585 326.401H573.379L570.291 322.166ZM568.232 319.254L561.541 311.312L554.85 319.254H568.232Z" fill="#2F2535"/>
<path d="M615.584 318.459C616.613 319.254 617.128 320.312 617.128 321.371C617.128 322.96 616.099 324.283 613.525 325.077C610.952 325.872 607.864 326.401 603.231 326.401H585.217V307.871H602.202C606.319 307.871 609.922 308.4 611.981 309.194C614.04 309.988 615.584 311.312 615.584 312.636C615.584 313.43 615.069 314.489 614.555 315.018C614.04 315.548 612.496 316.342 610.952 316.606C613.01 317.136 614.555 317.665 615.584 318.459ZM591.908 310.518V315.547H601.172C603.746 315.547 605.29 315.283 606.319 315.018C607.349 314.489 608.378 313.959 608.378 313.165C608.378 312.371 607.864 311.577 606.319 311.312C605.29 310.783 603.231 310.783 601.172 310.783H591.908V310.518ZM610.437 321.107C610.437 319.254 607.864 318.459 602.717 318.459H591.908V323.754H602.717C607.864 323.754 610.437 322.695 610.437 321.107Z" fill="#2F2535"/>
<path d="M631.024 325.342C627.936 324.548 625.877 323.489 624.333 321.901C622.789 320.577 621.76 318.724 621.76 317.136C621.76 315.283 622.789 313.695 624.333 312.371C625.877 311.047 628.451 309.724 631.024 308.93C634.113 308.135 637.201 307.606 640.804 307.606C643.892 307.606 646.465 307.871 649.039 308.4C651.612 308.93 653.671 309.724 655.215 310.783L651.098 312.9C648.524 311.577 645.436 310.783 641.318 310.783C638.745 310.783 636.686 311.047 634.627 311.577C632.568 312.106 631.024 312.9 629.995 313.959C628.966 315.018 628.451 316.077 628.451 317.401C628.451 318.724 628.966 319.783 629.995 320.842C631.024 321.901 632.568 322.695 634.627 323.225C636.686 323.754 638.745 324.019 641.318 324.019C644.921 324.019 648.524 323.225 651.098 321.901L655.215 324.019C653.671 325.078 651.612 325.872 649.039 326.401C646.465 326.931 643.892 327.195 640.804 327.195C637.201 326.666 634.113 326.136 631.024 325.342Z" fill="#2F2535"/>
<path d="M523.968 306.812C520.365 306.812 517.277 306.282 514.704 305.488C511.615 304.429 506.468 301.517 510.071 294.37C514.704 286.428 510.586 279.545 499.263 276.104C488.969 272.927 473.013 272.927 458.601 280.075C457.572 280.604 456.028 280.604 454.999 280.075C453.969 279.545 453.969 278.751 454.999 278.222C468.895 271.339 487.425 269.751 501.836 273.986C515.218 277.957 519.851 285.899 514.704 295.164C513.16 298.076 512.13 301.782 517.277 303.37C522.424 305.223 532.718 303.9 540.439 300.723C549.188 297.282 552.791 292.252 549.188 287.487C548.674 286.693 549.188 286.163 550.732 285.899C552.277 285.634 553.306 285.899 553.821 286.693C557.938 292.517 553.821 298.605 543.527 302.841C537.865 305.488 530.145 306.812 523.968 306.812Z" fill="#2F2535"/>
<path d="M643.38 352.608C636.174 352.608 629.998 349.696 629.998 345.726C629.998 341.755 635.66 338.843 643.38 338.843C651.101 338.843 656.762 341.755 656.762 345.726C656.762 349.696 650.586 352.608 643.38 352.608ZM643.38 341.755C638.748 341.755 635.145 343.608 635.145 345.99C635.145 348.373 638.748 350.226 643.38 350.226C648.012 350.226 651.615 348.373 651.615 345.99C651.615 343.608 648.012 341.755 643.38 341.755Z" fill="#2F2535"/>
<path d="M432.352 313.165C427.205 313.165 423.088 311.047 423.088 308.4C423.088 305.753 427.205 303.635 432.352 303.635C437.499 303.635 441.617 305.753 441.617 308.4C442.132 311.047 437.499 313.165 432.352 313.165ZM432.352 305.223C429.264 305.223 426.691 306.547 426.691 308.135C426.691 309.724 429.264 311.047 432.352 311.047C435.441 311.047 438.014 309.724 438.014 308.135C438.014 306.547 435.441 305.223 432.352 305.223Z" fill="#2F2535"/>
<path d="M562.571 271.074C557.424 271.074 553.307 268.957 553.307 266.309C553.307 263.662 557.424 261.544 562.571 261.544C567.718 261.544 571.836 263.662 571.836 266.309C571.836 268.692 567.718 271.074 562.571 271.074ZM562.571 263.133C559.483 263.133 556.91 264.456 556.91 266.045C556.91 267.633 559.483 268.957 562.571 268.957C565.659 268.957 568.233 267.633 568.233 266.045C568.233 264.456 565.659 263.133 562.571 263.133Z" fill="#2F2535"/>
<path d="M832.276 365.844L808.6 370.344L832.276 374.845V379.345L798.82 372.727V367.962L832.276 361.344V365.844Z" fill="#2F2535"/>
<path d="M856.98 386.492L833.818 352.344H843.598L866.759 386.492H856.98Z" fill="#2F2535"/>
<path d="M753.523 371.668L736.538 374.845L729.847 383.845L724.185 375.11L706.686 371.668L724.185 368.492L729.847 359.756L736.538 368.492L753.523 371.668Z" fill="#2F2535"/>
<path d="M702.569 345.99L692.275 347.843L688.672 353.138L685.069 347.843L674.775 345.99L685.069 344.137L688.672 338.843L692.275 344.137L702.569 345.99Z" fill="#2F2535"/>
<path d="M722.643 303.9H740.657V335.931H779.259V343.343H722.643V303.9Z" fill="#2F2535"/>
<path d="M825.066 322.166H807.052L803.449 326.401H796.758L812.713 307.871H819.405L835.36 326.401H828.154L825.066 322.166ZM822.493 319.254L815.802 311.312L809.111 319.254H822.493Z" fill="#2F2535"/>
<path d="M870.359 318.459C871.389 319.254 871.904 320.312 871.904 321.371C871.904 322.96 870.874 324.283 868.301 325.077C865.727 325.872 862.639 326.401 858.007 326.401H839.992V307.871H856.977C861.095 307.871 864.698 308.4 866.757 309.194C868.815 309.988 870.359 311.312 870.359 312.636C870.359 313.43 869.845 314.489 869.33 315.018C868.815 315.548 867.271 316.342 865.727 316.606C867.271 317.136 868.815 317.665 870.359 318.459ZM846.683 310.518V315.547H855.948C858.521 315.547 860.065 315.283 861.095 315.018C862.124 314.489 863.154 313.959 863.154 313.165C863.154 312.371 862.639 311.577 861.095 311.312C860.065 310.783 858.007 310.783 855.948 310.783H846.683V310.518ZM865.212 321.107C865.212 319.254 862.639 318.459 857.492 318.459H846.683V323.754H857.492C862.639 323.754 865.212 322.695 865.212 321.107Z" fill="#2F2535"/>
<path d="M778.744 306.812C775.141 306.812 772.052 306.282 769.479 305.488C766.391 304.429 761.244 301.517 764.847 294.37C769.479 286.428 765.361 279.545 754.038 276.104C743.744 272.927 727.788 272.927 713.377 280.075C712.347 280.604 710.803 280.604 709.774 280.075C708.745 279.545 708.745 278.751 709.774 278.222C723.671 271.339 742.2 269.751 756.612 273.986C769.994 277.957 774.626 285.899 769.479 295.164C767.935 298.076 766.906 301.782 772.052 303.37C777.199 305.223 787.493 303.9 795.214 300.723C803.964 297.282 807.567 292.252 803.964 287.487C803.449 286.693 803.964 286.163 805.508 285.899C807.052 285.634 808.081 285.899 808.596 286.693C812.714 292.517 808.596 298.605 798.302 302.841C792.126 305.488 784.92 306.812 778.744 306.812Z" fill="#2F2535"/>
<path d="M687.128 313.165C681.981 313.165 677.863 311.047 677.863 308.4C677.863 305.753 681.981 303.635 687.128 303.635C692.275 303.635 696.392 305.753 696.392 308.4C696.392 311.047 692.275 313.165 687.128 313.165ZM687.128 305.223C684.04 305.223 681.466 306.547 681.466 308.135C681.466 309.724 684.04 311.047 687.128 311.047C690.216 311.047 692.79 309.724 692.79 308.135C692.79 306.547 690.216 305.223 687.128 305.223Z" fill="#2F2535"/>
<path d="M817.347 271.074C812.2 271.074 808.082 268.956 808.082 266.309C808.082 263.662 812.2 261.544 817.347 261.544C822.494 261.544 826.611 263.662 826.611 266.309C826.611 268.692 822.494 271.074 817.347 271.074ZM817.347 263.133C814.258 263.133 811.685 264.456 811.685 266.044C811.685 267.633 814.258 268.956 817.347 268.956C820.435 268.956 823.008 267.633 823.008 266.044C823.008 264.456 820.435 263.133 817.347 263.133Z" fill="#2F2535"/>
<path d="M577.498 235.073L553.822 239.573L577.498 244.073V248.573L544.043 241.955V237.19L577.498 230.572V235.073Z" fill="#2F2535"/>
<path d="M602.204 255.721L579.043 221.572H588.822L611.984 255.721H602.204Z" fill="#2F2535"/>
<path d="M647.496 237.19V241.955L614.041 248.573V244.073L637.717 239.573L614.041 235.073V230.572L647.496 237.19Z" fill="#2F2535"/>
<path d="M647.496 150.097L628.967 153.538L621.761 163.333L614.556 153.538L595.512 150.097L615.07 146.391L621.761 136.596L628.452 146.655L647.496 150.097Z" fill="#2F2535"/>
<path d="M498.75 241.161L481.765 244.073L475.588 253.073L469.412 244.337L451.912 241.161L469.412 237.719L475.588 228.984L481.765 237.984L498.75 241.161Z" fill="#2F2535"/>
<path d="M447.794 215.483L438.014 217.336L433.897 222.63L430.294 217.336L420 215.483L430.294 213.365L433.897 208.335L437.5 213.63L447.794 215.483Z" fill="#2F2535"/>
<path d="M467.867 173.127H485.882V205.158H524.484V212.571H467.867V173.127Z" fill="#2F2535"/>
<path d="M570.291 191.393H552.276L548.673 195.629H541.982L557.938 177.098H564.629L580.585 195.629H573.379L570.291 191.393ZM568.232 188.746L561.541 180.804L554.85 188.746H568.232Z" fill="#2F2535"/>
<path d="M615.584 187.687C616.613 188.481 617.128 189.54 617.128 190.599C617.128 192.187 616.099 193.511 613.525 194.305C610.952 195.099 607.864 195.629 603.231 195.629H585.217V177.098H602.202C606.319 177.098 609.922 177.628 611.981 178.422C614.04 179.216 615.584 180.54 615.584 181.863C615.584 182.658 615.069 183.716 614.555 184.246C614.04 184.775 612.496 185.569 610.952 185.834C613.01 186.364 614.555 186.893 615.584 187.687ZM591.908 180.01V185.04H601.172C603.746 185.04 605.29 184.775 606.319 184.511C607.349 183.981 608.378 183.452 608.378 182.658C608.378 181.863 607.864 181.069 606.319 180.804C605.29 180.275 603.231 180.275 601.172 180.275H591.908V180.01ZM610.437 190.334C610.437 188.481 607.864 187.687 602.717 187.687H591.908V192.982H602.717C607.864 192.982 610.437 192.187 610.437 190.334Z" fill="#2F2535"/>
<path d="M631.024 194.835C627.936 194.041 625.877 192.982 624.333 191.393C622.789 190.07 621.76 188.217 621.76 186.628C621.76 184.775 622.789 183.187 624.333 181.863C625.877 180.54 628.451 179.216 631.024 178.422C634.113 177.628 637.201 177.098 640.804 177.098C643.892 177.098 646.465 177.363 649.039 177.893C651.612 178.422 653.671 179.216 655.215 180.275L651.098 182.393C648.524 180.804 644.921 180.01 641.318 180.01C638.745 180.01 636.686 180.275 634.627 180.804C632.568 181.334 631.024 182.128 629.995 183.187C628.966 184.246 628.451 185.305 628.451 186.628C628.451 187.952 628.966 189.011 629.995 190.07C631.024 191.129 632.568 191.923 634.627 192.452C636.686 192.982 638.745 193.246 641.318 193.246C644.921 193.246 648.524 192.452 651.098 191.129L655.215 193.246C653.671 194.305 651.612 195.099 649.039 195.629C646.465 196.158 643.892 196.423 640.804 196.423C637.201 195.894 634.113 195.629 631.024 194.835Z" fill="#2F2535"/>
<path d="M523.968 176.039C520.365 176.039 517.277 175.51 514.704 174.716C511.615 173.657 506.468 170.745 510.071 163.598C514.704 155.656 510.586 148.773 499.263 145.332C488.969 142.155 473.013 142.155 458.601 149.303C457.572 149.832 456.028 149.832 454.999 149.303C453.969 148.773 453.969 147.979 454.999 147.45C468.895 140.567 487.425 138.979 501.836 143.214C515.218 147.185 519.851 155.127 514.704 164.392C513.16 167.304 512.13 171.01 517.277 172.598C522.424 174.451 532.718 173.128 540.439 169.951C549.188 166.51 552.791 161.48 549.188 156.715C548.674 155.921 549.188 155.391 550.732 155.127C552.277 154.862 553.306 155.127 553.821 155.921C557.938 161.745 553.821 167.833 543.527 172.069C537.865 174.716 530.145 176.039 523.968 176.039Z" fill="#2F2535"/>
<path d="M643.38 222.101C636.174 222.101 629.998 219.189 629.998 215.218C629.998 211.247 635.66 208.335 643.38 208.335C651.101 208.335 656.762 211.247 656.762 215.218C656.762 219.189 650.586 222.101 643.38 222.101ZM643.38 211.247C638.748 211.247 635.145 213.1 635.145 215.483C635.145 217.865 638.748 219.718 643.38 219.718C648.012 219.718 651.615 217.865 651.615 215.483C651.615 213.1 648.012 211.247 643.38 211.247Z" fill="#2F2535"/>
<path d="M432.352 182.393C427.205 182.393 423.088 180.275 423.088 177.628C423.088 174.981 427.205 172.863 432.352 172.863C437.499 172.863 441.617 174.981 441.617 177.628C442.132 180.275 437.499 182.393 432.352 182.393ZM432.352 174.716C429.264 174.716 426.691 176.039 426.691 177.628C426.691 179.216 429.264 180.54 432.352 180.54C435.441 180.54 438.014 179.216 438.014 177.628C438.014 176.039 435.441 174.716 432.352 174.716Z" fill="#2F2535"/>
<path d="M562.571 140.302C557.424 140.302 553.307 138.184 553.307 135.537C553.307 132.89 557.424 130.772 562.571 130.772C567.718 130.772 571.836 132.89 571.836 135.537C571.836 138.184 567.718 140.302 562.571 140.302ZM562.571 132.625C559.483 132.625 556.91 133.949 556.91 135.537C556.91 137.126 559.483 138.449 562.571 138.449C565.659 138.449 568.233 137.126 568.233 135.537C568.233 133.949 565.659 132.625 562.571 132.625Z" fill="#2F2535"/>
<path d="M832.276 235.073L808.6 239.573L832.276 244.073V248.573L798.82 241.955V237.19L832.276 230.572V235.073Z" fill="#2F2535"/>
<path d="M856.98 255.721L833.818 221.572H843.598L866.759 255.721H856.98Z" fill="#2F2535"/>
<path d="M753.523 241.161L736.538 244.073L729.847 253.073L724.185 244.337L706.686 241.161L724.185 237.719L729.847 228.984L736.538 237.984L753.523 241.161Z" fill="#2F2535"/>
<path d="M702.569 215.483L692.275 217.336L688.672 222.63L685.069 217.336L674.775 215.483L685.069 213.365L688.672 208.335L692.275 213.63L702.569 215.483Z" fill="#2F2535"/>
<path d="M722.643 173.127H740.657V205.158H779.259V212.571H722.643V173.127Z" fill="#2F2535"/>
<path d="M825.066 191.393H807.052L803.449 195.629H796.758L812.713 177.098H819.405L835.36 195.629H828.154L825.066 191.393ZM822.493 188.746L815.802 180.804L809.111 188.746H822.493Z" fill="#2F2535"/>
<path d="M870.359 187.687C871.389 188.481 871.904 189.54 871.904 190.599C871.904 192.187 870.874 193.511 868.301 194.305C865.727 195.099 862.639 195.629 858.007 195.629H839.992V177.098H856.977C861.095 177.098 864.698 177.628 866.757 178.422C868.815 179.216 870.359 180.54 870.359 181.863C870.359 182.658 869.845 183.716 869.33 184.246C868.815 184.775 867.271 185.569 865.727 185.834C867.271 186.364 868.815 186.893 870.359 187.687ZM846.683 180.01V185.04H855.948C858.521 185.04 860.065 184.775 861.095 184.511C862.124 183.981 863.154 183.452 863.154 182.658C863.154 181.863 862.639 181.069 861.095 180.804C860.065 180.275 858.007 180.275 855.948 180.275H846.683V180.01ZM865.212 190.334C865.212 188.481 862.639 187.687 857.492 187.687H846.683V192.982H857.492C862.639 192.982 865.212 192.187 865.212 190.334Z" fill="#2F2535"/>
<path d="M778.744 176.039C775.141 176.039 772.052 175.51 769.479 174.716C766.391 173.657 761.244 170.745 764.847 163.598C769.479 155.656 765.361 148.773 754.038 145.332C743.744 142.155 727.788 142.155 713.377 149.303C712.347 149.832 710.803 149.832 709.774 149.303C708.745 148.773 708.745 147.979 709.774 147.45C723.671 140.567 742.2 138.979 756.612 143.214C769.994 147.185 774.626 155.127 769.479 164.392C767.935 167.304 766.906 171.01 772.052 172.598C777.199 174.451 787.493 173.128 795.214 169.951C803.964 166.51 807.567 161.48 803.964 156.715C803.449 155.921 803.964 155.391 805.508 155.127C807.052 154.862 808.081 155.127 808.596 155.921C812.714 161.745 808.596 167.833 798.302 172.069C792.126 174.716 784.92 176.039 778.744 176.039Z" fill="#2F2535"/>
<path d="M687.128 182.393C681.981 182.393 677.863 180.275 677.863 177.628C677.863 174.981 681.981 172.863 687.128 172.863C692.275 172.863 696.392 174.981 696.392 177.628C696.392 180.275 692.275 182.393 687.128 182.393ZM687.128 174.716C684.04 174.716 681.466 176.039 681.466 177.628C681.466 179.216 684.04 180.54 687.128 180.54C690.216 180.54 692.79 179.216 692.79 177.628C692.79 176.039 690.216 174.716 687.128 174.716Z" fill="#2F2535"/>
<path d="M817.347 140.302C812.2 140.302 808.082 138.184 808.082 135.537C808.082 132.89 812.2 130.772 817.347 130.772C822.494 130.772 826.611 132.89 826.611 135.537C826.611 138.184 822.494 140.302 817.347 140.302ZM817.347 132.625C814.258 132.625 811.685 133.949 811.685 135.537C811.685 137.126 814.258 138.449 817.347 138.449C820.435 138.449 823.008 137.126 823.008 135.537C823.008 133.949 820.435 132.625 817.347 132.625Z" fill="#2F2535"/>
<path d="M577.498 104.565L553.822 109.065L577.498 113.566V118.066L544.043 111.183V106.418L577.498 99.8V104.565Z" fill="#2F2535"/>
<path d="M602.204 125.213L579.043 91.0642H588.822L611.984 125.213H602.204Z" fill="#2F2535"/>
<path d="M647.496 106.418V111.183L614.041 117.801V113.301L637.717 108.801L614.041 104.3V99.8L647.496 106.418Z" fill="#2F2535"/>
<path d="M647.496 19.3247L628.967 22.766L621.761 32.8254L614.556 23.0308L595.512 19.3247L615.07 15.6186L621.761 6.08862L628.452 15.8833L647.496 19.3247Z" fill="#2F2535"/>
<path d="M498.75 110.389L481.765 113.565L475.588 122.566L469.412 113.83L451.912 110.389L469.412 107.212L475.588 98.4761L481.765 107.212L498.75 110.389Z" fill="#2F2535"/>
<path d="M447.794 84.7107L438.014 86.5638L433.897 91.8582L430.294 86.8285L420 84.7107L430.294 82.8577L433.897 77.5632L437.5 82.8577L447.794 84.7107Z" fill="#2F2535"/>
<path d="M467.867 42.6201H485.882V74.6514H524.484V82.0635H467.867V42.6201Z" fill="#2F2535"/>
<path d="M570.291 60.8855H552.276L548.673 65.121H541.982L557.938 46.5906H564.629L580.585 65.121H573.379L570.291 60.8855ZM568.232 58.2383L561.541 50.2967L554.85 58.2383H568.232Z" fill="#2F2535"/>
<path d="M615.584 57.1794C616.613 57.9736 617.128 59.0325 617.128 60.0913C617.128 61.6797 616.099 63.0033 613.525 63.7974C610.952 64.5916 607.864 65.121 603.231 65.121H585.217V46.5906H602.202C606.319 46.5906 609.922 47.12 611.981 47.9142C614.04 48.7083 615.584 50.0319 615.584 51.3556C615.584 52.1497 615.069 53.2086 614.555 53.738C614.04 54.2675 612.496 55.0616 610.952 55.3264C613.01 55.8558 614.555 56.3853 615.584 57.1794ZM591.908 49.2378V54.2675H601.172C603.746 54.2675 605.29 54.0028 606.319 53.738C607.349 53.2086 608.378 52.6792 608.378 51.885C608.378 51.0908 607.864 50.2967 606.319 50.0319C605.29 49.5025 603.231 49.5025 601.172 49.5025H591.908V49.2378ZM610.437 59.8266C610.437 57.9736 607.864 57.1794 602.717 57.1794H591.908V62.4738H602.717C607.864 62.4738 610.437 61.415 610.437 59.8266Z" fill="#2F2535"/>
<path d="M631.024 64.0622C627.936 63.2681 625.877 62.2092 624.333 60.6209C622.789 59.2973 621.76 57.4442 621.76 55.8559C621.76 54.0028 622.789 52.4145 624.333 51.0909C625.877 49.7673 628.451 48.4437 631.024 47.6495C634.113 46.8554 637.201 46.3259 640.804 46.3259C643.892 46.3259 646.465 46.5906 649.039 47.1201C651.612 47.6495 653.671 48.4437 655.215 49.5026L651.098 51.6203C648.524 50.2967 645.436 49.5026 641.318 49.5026C638.745 49.5026 636.686 49.7673 634.627 50.2967C632.568 50.8262 631.024 51.6203 629.995 52.6792C628.966 53.7381 628.451 54.797 628.451 56.1206C628.451 57.4442 628.966 58.5031 629.995 59.562C631.024 60.6209 632.568 61.415 634.627 61.9445C636.686 62.4739 638.745 62.7386 641.318 62.7386C644.921 62.7386 648.524 61.9445 651.098 60.6209L655.215 62.7386C653.671 63.7975 651.612 64.5917 649.039 65.1211C646.465 65.6506 643.892 65.9153 640.804 65.9153C637.201 65.3858 634.113 64.8564 631.024 64.0622Z" fill="#2F2535"/>
<path d="M523.968 45.5319C520.365 45.5319 517.277 45.0025 514.704 44.2083C511.615 43.1494 506.468 40.2375 510.071 33.09C514.704 25.1484 510.586 18.2657 499.263 14.8243C488.969 11.6476 473.013 11.6476 458.601 18.7951C457.572 19.3245 456.028 19.3245 454.999 18.7951C453.969 18.2657 453.969 17.4715 454.999 16.9421C468.895 10.0593 487.425 8.47098 501.836 12.7065C515.218 16.6773 519.851 24.619 514.704 33.8842C513.16 36.7961 512.13 40.5022 517.277 42.0905C522.424 43.9436 532.718 42.62 540.439 39.4433C549.188 36.002 552.791 30.9723 549.188 26.2073C548.674 25.4131 549.188 24.8837 550.732 24.619C552.277 24.3542 553.306 24.619 553.821 25.4131C557.938 31.237 553.821 37.3256 543.527 41.5611C537.865 44.2083 530.145 45.5319 523.968 45.5319Z" fill="#2F2535"/>
<path d="M643.38 91.3287C636.174 91.3287 629.998 88.4168 629.998 84.446C629.998 80.4752 635.66 77.5632 643.38 77.5632C651.101 77.5632 656.762 81.0046 656.762 84.7107C656.762 88.4168 650.586 91.3287 643.38 91.3287ZM643.38 80.4752C638.748 80.4752 635.145 82.3282 635.145 84.7107C635.145 87.0932 638.748 88.9462 643.38 88.9462C648.012 88.9462 651.615 87.0932 651.615 84.7107C651.615 82.3282 648.012 80.4752 643.38 80.4752Z" fill="#2F2535"/>
<path d="M432.352 51.8854C427.205 51.8854 423.088 49.7677 423.088 47.1204C423.088 44.4732 427.205 42.3555 432.352 42.3555C437.499 42.3555 441.617 44.4732 441.617 47.1204C442.132 49.7677 437.499 51.8854 432.352 51.8854ZM432.352 44.2085C429.264 44.2085 426.691 45.5321 426.691 47.1204C426.691 48.7088 429.264 50.0324 432.352 50.0324C435.441 50.0324 438.014 48.7088 438.014 47.1204C438.014 45.5321 435.441 44.2085 432.352 44.2085Z" fill="#2F2535"/>
<path d="M562.571 9.79468C557.424 9.79468 553.307 7.67691 553.307 5.0297C553.307 2.38249 557.424 0 562.571 0C567.718 0 571.836 2.11777 571.836 4.76498C571.836 7.41219 567.718 9.79468 562.571 9.79468ZM562.571 1.85305C559.483 1.85305 556.91 3.17665 556.91 4.76498C556.91 6.3533 559.483 7.67691 562.571 7.67691C565.659 7.67691 568.233 6.3533 568.233 4.76498C568.233 3.17665 565.659 1.85305 562.571 1.85305Z" fill="#2F2535"/>
<path d="M832.276 104.565L808.6 109.065L832.276 113.566V118.066L798.82 111.183V106.418L832.276 99.8V104.565Z" fill="#2F2535"/>
<path d="M856.98 125.213L833.818 91.0642H843.598L866.759 125.213H856.98Z" fill="#2F2535"/>
<path d="M753.523 110.389L736.538 113.565L729.847 122.566L724.185 113.83L706.686 110.389L724.185 107.212L729.847 98.4761L736.538 107.212L753.523 110.389Z" fill="#2F2535"/>
<path d="M702.569 84.7107L692.275 86.5638L688.672 91.8582L685.069 86.8285L674.775 84.7107L685.069 82.8577L688.672 77.5632L692.275 82.8577L702.569 84.7107Z" fill="#2F2535"/>
<path d="M722.643 42.6201H740.657V74.6514H779.259V82.0635H722.643V42.6201Z" fill="#2F2535"/>
<path d="M825.066 60.8855H807.052L803.449 65.121H796.758L812.713 46.5906H819.405L835.36 65.121H828.154L825.066 60.8855ZM822.493 58.2383L815.802 50.2967L809.111 58.2383H822.493Z" fill="#2F2535"/>
<path d="M870.359 57.1794C871.389 57.9736 871.904 59.0325 871.904 60.0913C871.904 61.6797 870.874 63.0033 868.301 63.7974C865.727 64.5916 862.639 65.121 858.007 65.121H839.992V46.5906H856.977C861.095 46.5906 864.698 47.12 866.757 47.9142C868.815 48.7083 870.359 50.0319 870.359 51.3556C870.359 52.1497 869.845 53.2086 869.33 53.738C868.815 54.2675 867.271 55.0616 865.727 55.3264C867.271 55.8558 868.815 56.3853 870.359 57.1794ZM846.683 49.2378V54.2675H855.948C858.521 54.2675 860.065 54.0028 861.095 53.738C862.124 53.2086 863.154 52.6792 863.154 51.885C863.154 51.0908 862.639 50.2967 861.095 50.0319C860.065 49.5025 858.007 49.5025 855.948 49.5025H846.683V49.2378ZM865.212 59.8266C865.212 57.9736 862.639 57.1794 857.492 57.1794H846.683V62.4738H857.492C862.639 62.4738 865.212 61.415 865.212 59.8266Z" fill="#2F2535"/>
<path d="M778.744 45.5319C775.141 45.5319 772.052 45.0025 769.479 44.2083C766.391 43.1494 761.244 40.2375 764.847 33.09C769.479 25.1484 765.361 18.2657 754.038 14.8243C743.744 11.6476 727.788 11.6476 713.377 18.7951C712.347 19.3245 710.803 19.3245 709.774 18.7951C708.745 18.2657 708.745 17.4715 709.774 16.9421C723.671 10.0593 742.2 8.47098 756.612 12.7065C769.994 16.6773 774.626 24.619 769.479 33.8842C767.935 36.7961 766.906 40.5022 772.052 42.0905C777.199 43.9436 787.493 42.62 795.214 39.4433C803.964 36.002 807.567 30.9723 803.964 26.2073C803.449 25.4131 803.964 24.8837 805.508 24.619C807.052 24.3542 808.081 24.619 808.596 25.4131C812.714 31.237 808.596 37.3256 798.302 41.5611C792.126 44.2083 784.92 45.5319 778.744 45.5319Z" fill="#2F2535"/>
<path d="M687.128 51.8854C681.981 51.8854 677.863 49.7677 677.863 47.1204C677.863 44.4732 681.981 42.3555 687.128 42.3555C692.275 42.3555 696.392 44.4732 696.392 47.1204C696.392 49.7677 692.275 51.8854 687.128 51.8854ZM687.128 44.2085C684.04 44.2085 681.466 45.5321 681.466 47.1204C681.466 48.7088 684.04 50.0324 687.128 50.0324C690.216 50.0324 692.79 48.7088 692.79 47.1204C692.79 45.5321 690.216 44.2085 687.128 44.2085Z" fill="#2F2535"/>
<path d="M817.347 9.79468C812.2 9.79468 808.082 7.67691 808.082 5.0297C808.082 2.38249 812.2 0 817.347 0C822.494 0 826.611 2.11777 826.611 4.76498C826.611 7.41219 822.494 9.79468 817.347 9.79468ZM817.347 1.85305C814.258 1.85305 811.685 3.17665 811.685 4.76498C811.685 6.3533 814.258 7.67691 817.347 7.67691C820.435 7.67691 823.008 6.3533 823.008 4.76498C823.008 3.17665 820.435 1.85305 817.347 1.85305Z" fill="#2F2535"/>
</g>
<g clip-path="url(#clip0_2469_19859)">
<path d="M32.643 349C-52.8874 349 -158.586 451.498 -158.586 451.498V526.695H296.594C296.594 526.695 118.173 349 32.643 349Z" fill="#B9E5FF"/>
</g>
<g clip-path="url(#clip1_2469_19859)">
<path d="M298.643 409C213.113 409 107.414 511.498 107.414 511.498V586.695H562.594C562.594 586.695 384.173 409 298.643 409Z" fill="#B9E5FF"/>
</g>
<g clip-path="url(#clip2_2469_19859)">
<path d="M582.643 375C497.113 375 391.414 477.498 391.414 477.498V552.695H846.594C846.594 552.695 668.173 375 582.643 375Z" fill="#B9E5FF"/>
</g>
<g clip-path="url(#clip3_2469_19859)">
<path d="M860.643 349C775.113 349 669.414 451.498 669.414 451.498V526.695H1124.59C1124.59 526.695 946.173 349 860.643 349Z" fill="#B9E5FF"/>
</g>
<defs>
<clipPath id="clip0_2469_19859">
<rect width="450" height="178" fill="white" transform="translate(-153 349)"/>
</clipPath>
<clipPath id="clip1_2469_19859">
<rect width="450" height="178" fill="white" transform="translate(113 409)"/>
</clipPath>
<clipPath id="clip2_2469_19859">
<rect width="450" height="178" fill="white" transform="translate(397 375)"/>
</clipPath>
<clipPath id="clip3_2469_19859">
<rect width="450" height="178" fill="white" transform="translate(675 349)"/>
</clipPath>
</defs>
</svg>
