<svg width="1479" height="850" viewBox="0 0 1479 850" fill="none" xmlns="http://www.w3.org/2000/svg">
<path d="M2306.3 691.989C2631.48 484.504 2427.49 -115.263 1850.32 265.73C1480.68 509.72 1263.54 135.893 1403.38 93.1396C1543.22 50.3861 1651.77 272.059 1339.55 384.502C1027.33 496.946 893.76 371.272 707.464 339.88C521.167 308.487 224.249 548.786 224.249 548.786C224.249 548.786 144.132 606.387 174.63 653.887C205.129 701.387 291.129 677.887 283.129 621.887C275.129 565.887 238.129 509.387 146.629 503.387C55.129 497.387 8.12894 548.786 8.12894 548.786" stroke="#613182" stroke-width="2" stroke-miterlimit="10" stroke-linecap="round" stroke-dasharray="0.3 8"/>
<path d="M313.436 498.841C323.31 495.822 328.866 485.372 325.848 475.499C322.829 465.626 312.379 460.069 302.506 463.087C292.633 466.106 287.076 476.557 290.094 486.43C293.113 496.303 303.563 501.859 313.436 498.841Z" fill="#613182"/>
<path d="M1195.75 435.011C1204.01 432.484 1208.66 423.735 1206.14 415.47C1203.61 407.205 1194.86 402.553 1186.59 405.08C1178.33 407.607 1173.68 416.355 1176.2 424.621C1178.73 432.886 1187.48 437.538 1195.75 435.011Z" fill="#613182"/>
<path d="M1467.75 96.6758C1471.71 98.1781 1476.13 96.1882 1477.63 92.2312C1479.14 88.2743 1477.15 83.8487 1473.19 82.3464C1469.23 80.8442 1464.81 82.8341 1463.31 86.791C1461.8 90.748 1463.79 95.1735 1467.75 96.6758Z" fill="#613182"/>
<path d="M380.331 437L346.832 447.242L357.074 480.741L390.573 470.499L380.331 437Z" stroke="#613182" stroke-width="1.92" stroke-miterlimit="10"/>
<path d="M1245.71 400.508L1225.14 406.796L1231.43 427.361L1252 421.074L1245.71 400.508Z" stroke="#613182" stroke-width="1.92" stroke-miterlimit="10"/>
</svg>
