<svg width="423" height="444" viewBox="0 0 423 444" fill="none" xmlns="http://www.w3.org/2000/svg">
<g clip-path="url(#clip0_437_98717)">
<path d="M58.6925 201.676C56.0487 207.49 57.1062 212.776 58.1637 218.59C58.6925 223.347 60.2787 227.576 61.865 232.333C63.4512 237.09 62.3937 233.39 62.9225 233.39C63.4512 233.39 62.9225 233.39 62.9225 232.862C62.9225 227.047 62.9225 215.947 62.9225 211.19C63.4512 206.962 62.9225 199.562 65.5662 195.333C67.6812 191.104 60.8075 196.919 58.1637 202.733L58.6925 201.676Z" fill="white"/>
<path d="M58.1636 201.676C59.7498 197.448 64.5086 192.691 66.0948 192.691C66.0948 192.691 66.6236 192.691 67.1523 192.691C67.1523 192.691 67.1523 193.747 67.1523 194.804C65.5661 197.976 65.5661 202.733 65.0373 206.433C65.0373 208.019 65.0373 209.076 65.0373 210.662C64.5086 215.419 65.0373 224.934 65.0373 232.334C65.0373 232.334 65.0373 232.862 65.0373 233.391C65.0373 233.391 65.0373 233.391 64.5086 233.391C63.4511 233.391 62.9223 233.391 62.3936 232.334C60.8073 228.105 59.7498 223.348 58.6923 218.59C58.1636 214.362 57.6348 210.133 58.1636 206.433C58.6923 202.733 58.6923 203.262 59.7498 201.676H58.1636ZM62.9223 210.662C62.9223 209.604 62.9223 208.019 62.9223 206.433C62.9223 202.204 63.4511 197.448 65.0373 194.276C63.4511 195.334 60.2786 198.505 58.6923 202.205C56.5773 207.491 57.1061 212.776 58.1636 218.062C58.6923 223.348 60.2786 228.105 61.8648 231.804C61.8648 224.404 61.8648 214.362 61.8648 210.134L62.9223 210.662Z" fill="#612A7A"/>
<path d="M60.2767 169.433C60.2767 169.433 40.184 215.948 34.8965 225.991C29.609 236.034 36.4828 232.862 43.8853 217.534C43.8853 217.534 29.609 242.905 31.1953 243.433C32.7815 243.962 47.0578 219.119 47.0578 219.119C47.0578 219.119 33.3103 247.134 35.4253 248.191C37.5403 249.248 50.7591 221.233 50.7591 221.233C50.7591 221.233 38.5978 246.605 40.7128 247.662C42.8278 248.719 54.4604 222.819 54.4604 222.819L74.0242 176.834L61.3342 168.905L60.2767 169.433Z" fill="white"/>
<path d="M35.4276 230.747C34.8988 231.276 33.8413 231.804 33.3126 231.804H32.2551C31.7263 230.747 32.2551 228.104 33.8413 225.99C39.1288 216.476 59.2213 169.962 59.2213 169.962L71.9113 177.89C71.9113 177.89 71.9113 177.89 71.9113 178.419L52.3476 224.404C49.7038 230.219 41.2438 248.719 38.6001 249.247H38.0713C38.0713 249.247 37.0138 248.19 39.1288 242.376C34.3701 250.833 33.8413 250.304 33.3126 249.776C33.3126 249.776 33.3126 249.776 33.3126 249.247C32.7838 247.662 35.9563 240.262 39.1288 232.862C31.7263 245.547 30.6688 245.019 30.1401 244.49C30.1401 244.49 30.1401 244.49 30.1401 243.962C30.1401 243.962 30.1401 243.962 30.1401 242.904C30.1401 240.79 32.7838 236.033 35.4276 230.747ZM47.0601 219.119C41.2438 231.276 35.4276 244.49 34.8988 247.133C37.0138 245.547 42.8301 234.447 48.1176 223.347C48.6463 221.762 49.1751 220.704 49.1751 220.704C49.1751 220.704 49.1751 220.704 49.7038 220.704C49.7038 220.704 49.7038 220.704 49.7038 221.762C49.7038 221.762 49.7038 222.819 48.6463 224.404C43.8876 234.447 39.6576 245.019 39.6576 247.662C41.2438 246.076 47.5888 234.447 52.3476 223.347L71.3826 177.89L59.7501 170.49C57.1063 176.304 39.6576 217.533 34.3701 225.99C32.7838 228.633 32.7838 230.219 32.7838 230.219C33.3126 230.219 34.8988 228.633 37.0138 225.462C39.1288 221.762 40.7151 218.59 41.7726 216.476C41.7726 216.476 41.7726 216.476 42.3013 216.476C42.3013 216.476 42.3013 216.476 42.3013 217.004C40.7151 220.704 39.1288 223.347 37.5426 225.99C33.3126 233.39 30.1401 240.262 29.6113 241.847C31.7263 239.733 38.6001 228.633 44.4163 218.062C44.4163 218.062 44.4163 218.062 44.9451 218.062C44.9451 218.062 44.9451 218.062 44.9451 218.59L47.0601 219.119Z" fill="#612A7A"/>
<path d="M302.444 174.719C308.789 173.662 313.547 175.776 318.835 177.89C323.065 179.476 326.766 182.119 330.996 184.762C335.226 187.404 331.525 185.819 330.996 186.347C330.467 186.876 330.996 186.347 330.467 186.347C325.18 184.762 314.076 182.119 309.317 181.59C305.087 181.59 297.685 179.476 292.926 180.004C288.167 181.062 295.57 175.776 301.386 174.719H302.444Z" fill="white"/>
<path d="M307.731 174.191C311.961 174.191 315.662 175.776 319.364 177.362C324.122 179.476 328.352 182.119 332.054 184.233C332.582 184.233 333.111 185.819 332.582 186.348C332.582 186.348 332.582 186.876 332.054 186.876C332.054 186.876 332.054 186.876 330.996 186.876C324.122 184.762 314.605 182.648 309.846 182.119C308.789 182.119 307.202 182.119 305.616 181.59C301.915 181.062 297.156 180.005 293.455 180.534C292.397 180.534 291.869 180.534 291.34 180.534C291.34 180.534 291.34 180.005 291.34 179.476C291.869 177.891 297.685 174.719 301.915 174.191C303.501 174.191 305.087 174.191 306.674 174.191H307.731ZM331.525 185.819C331.525 185.819 331.525 185.819 331.525 185.29C327.824 182.647 323.594 180.534 319.364 178.419C314.076 176.305 309.317 174.191 303.501 175.248C299.8 175.776 295.57 178.419 293.984 179.476C297.685 178.948 302.444 179.476 306.145 180.534C307.731 180.534 308.789 180.534 309.846 181.062C314.605 181.591 324.122 184.234 330.996 185.819H331.525Z" fill="#612A7A"/>
<path d="M280.238 164.147C280.238 164.147 330.998 165.204 342.102 164.147C353.206 163.09 347.918 168.376 330.998 168.376C330.998 168.376 360.08 165.734 360.08 168.376C360.08 171.019 331.527 172.605 331.527 172.605C331.527 172.605 362.723 171.548 362.723 174.191C362.723 176.834 331.527 176.834 331.527 176.834C331.527 176.834 359.551 176.834 360.08 178.419C360.608 180.005 332.056 180.534 332.056 180.534L282.353 178.948L280.767 164.147H280.238Z" fill="white"/>
<path d="M359.02 167.319H359.549C359.549 167.319 359.549 167.319 359.549 167.848C359.549 168.376 359.549 169.433 344.744 171.019C352.675 171.019 360.607 171.019 361.664 172.605C361.664 172.605 361.664 172.605 361.664 173.134C361.664 173.662 361.664 174.719 352.147 175.248C359.02 175.248 359.02 176.833 359.02 177.362C359.02 177.362 359.02 177.362 359.02 177.891C357.434 180.005 336.813 180.004 330.468 180.004L280.765 178.419H280.237L278.65 163.619C278.65 163.619 329.41 164.676 340.514 163.619C342.629 163.619 345.802 163.619 346.33 164.676C346.33 164.676 346.33 165.204 346.33 165.733C346.33 165.733 345.273 166.79 344.744 166.79C350.56 166.79 355.848 166.79 357.963 166.79L359.02 167.319ZM330.997 173.134C330.997 173.134 330.997 173.134 330.997 172.605C330.997 172.605 330.997 172.076 331.525 172.076C343.687 171.019 356.377 169.433 359.02 168.376C356.905 168.376 349.503 168.376 341.043 168.376C338.399 168.376 334.698 168.905 330.997 168.905C330.997 168.905 330.468 168.904 330.468 168.376C330.468 168.376 330.468 167.848 330.997 167.848C333.112 167.848 336.813 167.848 341.043 167.319C344.744 166.791 346.859 165.734 346.859 165.205C346.859 165.205 345.273 164.676 342.1 165.205C332.054 166.262 287.11 165.205 280.765 165.205L282.352 178.947L331.525 180.534C343.687 180.534 356.377 180.533 359.02 178.947C356.905 177.89 345.802 177.362 334.169 177.891C332.583 177.891 331.525 177.891 331.525 177.891C331.525 177.891 330.997 177.89 330.997 177.362C330.997 177.362 330.997 176.834 331.525 176.834C331.525 176.834 332.583 176.834 334.169 176.834C346.859 176.834 359.02 175.776 361.664 174.719C359.02 173.662 344.744 173.662 330.997 173.662V173.134Z" fill="#612A7A"/>
<path d="M171.842 110.234C171.842 98.0764 188.233 90.6764 200.923 93.8479C214.142 97.0193 221.016 126.091 243.752 143.534C266.488 160.976 301.386 152.519 307.731 159.391C314.076 166.262 315.662 181.062 297.156 186.348C278.121 191.105 233.177 183.705 210.969 171.019C197.222 162.562 171.313 144.062 171.842 110.762V110.234Z" fill="white"/>
<path d="M281.822 187.934C259.615 187.934 227.361 180.534 210.441 171.019C191.935 160.448 170.256 140.891 170.785 110.234C170.785 105.476 173.429 101.248 177.659 98.0765C184.004 93.3193 192.992 91.205 200.924 93.3193C207.797 94.905 212.556 102.834 218.901 112.876C224.717 122.391 232.649 134.548 243.752 143.005C257.5 153.576 276.006 154.634 289.225 155.162C298.214 155.162 305.087 155.691 307.731 158.862C311.961 163.091 313.547 169.434 311.961 174.191C310.904 178.419 307.202 183.705 297.156 186.348C292.926 187.405 287.639 187.934 281.822 187.934ZM172.371 110.234C171.842 140.362 192.992 159.391 211.499 169.962C232.12 182.119 278.121 190.576 297.156 185.291C306.674 182.648 310.375 177.891 311.432 173.662C313.019 168.905 311.432 163.091 307.731 159.391C305.616 156.748 298.742 156.748 290.282 156.219C276.535 155.691 258.029 154.634 243.752 143.534C232.12 134.548 224.717 122.391 218.372 112.876C212.027 103.362 207.269 95.4336 201.452 93.8479C194.05 92.2622 185.061 93.8479 179.245 98.605C176.601 100.719 172.9 104.419 172.9 110.234H172.371Z" fill="#612A7A"/>
<path d="M191.407 94.3764C207.798 91.205 209.914 106.005 224.719 126.091C237.937 144.062 252.213 150.405 258.558 151.991C287.111 158.334 301.387 155.162 305.617 159.919C309.847 164.676 311.434 176.305 304.031 180.005C296.628 183.705 283.938 183.705 263.317 181.062C241.638 178.419 216.258 175.248 196.695 156.748C177.131 138.248 157.567 101.248 191.936 94.3764H191.407Z" fill="#8DC63F"/>
<path d="M161.268 170.491C147.52 170.491 128.485 176.834 122.669 188.462C116.853 200.091 116.853 209.076 115.795 223.348C112.094 296.291 99.9329 293.648 95.7029 296.291C95.7029 296.291 21.149 331.705 22.2065 335.934C23.264 340.162 29.0802 356.019 31.724 355.491C34.3677 354.962 119.497 333.291 131.129 328.005C144.348 322.191 151.222 308.448 155.98 295.762C160.739 283.076 213.085 171.019 160.739 170.491H161.268Z" fill="white"/>
<path d="M31.7244 356.547C31.7244 356.547 31.1956 356.547 30.6669 356.547C27.4944 354.433 22.2069 340.162 21.6781 336.462C21.6781 335.404 21.1494 333.291 58.6905 314.262C77.1967 304.748 95.703 295.762 95.703 295.762C95.703 295.762 96.7605 295.234 97.2892 294.705C102.048 292.591 112.094 287.833 115.267 222.819C115.795 208.547 116.324 199.033 122.14 187.933C127.957 176.304 146.992 169.433 161.268 169.962C169.728 169.962 176.073 173.133 179.774 178.947C193.522 200.09 175.544 252.419 158.624 292.59C158.095 294.176 157.567 295.762 157.038 296.29C152.279 308.976 145.405 323.248 132.187 329.062C120.025 334.348 33.3106 356.547 32.2531 356.547H31.7244ZM160.739 171.547C143.29 171.547 127.957 180.534 123.727 188.991C117.91 200.091 117.91 209.076 116.853 223.348C113.68 289.419 103.105 294.176 98.3467 296.819C97.818 296.819 97.2892 296.819 96.7605 297.348C68.7367 310.562 24.3219 333.29 23.2644 336.462C24.3219 342.276 30.6669 355.491 32.2531 355.491C32.7819 355.491 119.497 333.29 131.658 328.004C144.877 322.19 151.222 308.447 155.98 295.762C155.98 295.233 156.509 294.176 157.567 292.062C188.234 219.648 186.119 191.105 178.717 179.476C175.015 173.662 169.199 171.019 161.268 171.019C161.268 171.019 160.739 171.019 160.21 171.019L160.739 171.547Z" fill="#612A7A"/>
<path d="M160.212 172.605C142.763 167.848 132.717 178.948 127.958 184.762C123.199 190.576 120.027 205.376 120.027 213.305C120.027 225.991 115.797 270.919 111.038 286.776C106.279 302.634 65.0366 315.319 50.2316 321.662C35.4266 328.005 24.8516 336.462 24.3229 338.048C23.7941 339.634 29.6104 353.905 31.7254 353.905C33.8404 353.905 111.038 332.234 114.21 331.705C117.383 331.176 132.188 327.476 136.418 323.248C147.522 312.676 156.51 286.248 159.154 279.905C169.2 257.176 173.43 176.305 159.683 172.605H160.212Z" fill="#D1EDF8"/>
<path d="M105.75 303.162C104.693 301.576 101.52 299.462 99.4053 297.876C97.2903 296.29 96.7616 296.29 97.2903 295.233C97.2903 294.704 98.3478 295.233 98.8766 295.233C102.578 296.29 107.865 292.59 107.865 292.59C107.865 292.59 108.394 292.59 108.923 292.59C108.923 292.59 108.923 293.119 108.923 293.647C108.923 293.647 104.693 296.819 100.463 296.819C102.578 298.405 105.75 300.519 106.808 302.634C106.808 302.634 106.808 303.162 106.808 303.691L105.75 303.162Z" fill="#612A7A"/>
<path d="M130.072 329.062C121.084 329.062 113.681 323.247 113.152 322.719C113.152 322.719 113.152 322.19 113.152 321.662C113.152 321.662 113.681 321.662 114.21 321.662C114.21 321.662 122.67 328.005 131.659 327.476C131.659 327.476 132.187 327.476 132.187 328.004C132.187 328.004 132.187 328.534 131.659 328.534C131.659 328.534 130.601 328.534 130.072 328.534V329.062Z" fill="#612A7A"/>
<path d="M153.337 206.962C140.647 212.776 116.853 234.976 120.554 247.133C124.256 259.29 138.532 267.219 149.107 274.619C159.682 282.019 225.247 304.747 224.718 309.504C224.718 309.504 235.293 409.404 238.466 412.047C241.638 414.69 260.673 421.033 262.259 419.447C263.846 417.862 267.547 321.133 272.834 308.976C278.651 295.762 263.846 284.662 254.857 275.676C245.868 266.69 169.199 200.619 153.866 207.49L153.337 206.962Z" fill="white"/>
<path d="M260.673 419.447C255.914 419.447 241.109 414.162 237.936 412.047C234.764 409.405 225.775 325.89 224.189 309.505C224.189 307.39 202.51 298.405 186.648 292.062C170.785 285.719 154.923 279.376 149.106 275.147C148.049 274.619 146.991 273.562 145.405 273.033C135.359 266.162 123.726 258.762 120.554 247.662C116.853 234.447 141.704 212.247 153.336 206.433C160.21 203.262 178.188 212.776 206.74 234.447C229.476 251.362 250.626 270.39 254.856 274.619C255.914 275.676 257.5 277.262 259.086 278.319C267.546 286.247 278.121 296.29 273.363 308.447C270.19 316.376 267.018 359.719 265.431 388.79C263.845 410.99 263.316 417.862 262.788 418.919C262.788 418.919 262.259 418.919 261.73 419.447C261.73 419.447 261.73 419.447 261.201 419.447H260.673ZM225.246 308.976C229.476 348.619 236.35 408.347 238.994 410.99C242.695 413.633 260.144 419.447 261.73 418.39C261.73 417.333 263.316 403.59 263.845 389.319C265.96 358.662 268.604 316.376 272.305 308.447C277.064 297.347 267.018 287.833 258.557 279.905C256.971 278.319 255.914 277.262 254.327 276.205C245.339 267.219 169.199 201.147 153.865 208.019C141.175 213.833 117.91 236.033 121.611 247.662C124.784 258.233 135.888 265.633 145.934 272.505C146.991 273.033 148.578 274.09 149.635 274.619C155.451 278.319 171.314 285.19 187.176 291.005C213.614 301.576 225.775 306.862 225.246 309.505V308.976Z" fill="#612A7A"/>
<path d="M154.394 208.547C138.531 217.005 124.255 229.162 124.784 236.562C125.313 243.962 132.186 256.119 138.531 260.876C154.923 274.09 221.545 298.405 225.775 305.276C231.063 313.733 232.649 343.862 235.293 363.419C237.408 379.276 240.051 408.347 240.58 409.933C241.109 411.519 259.086 418.39 261.201 416.804C263.316 415.219 264.374 345.447 266.489 333.29C268.604 321.133 273.363 306.862 273.363 301.047C273.363 295.233 262.259 285.19 257.5 280.433C252.741 275.676 167.613 202.733 154.923 209.076L154.394 208.547Z" fill="#D1EDF8"/>
<path d="M237.408 408.347C237.408 408.347 226.305 435.833 234.765 438.476C243.753 441.647 277.593 447.99 291.87 440.59C306.146 433.19 297.157 430.019 280.237 426.319C263.317 422.619 261.731 422.09 263.317 410.462C264.903 398.833 256.972 415.219 237.408 407.29V408.347Z" fill="#612A7A"/>
<path d="M252.213 417.862C252.213 417.862 250.098 409.934 252.213 408.348C254.857 406.234 256.972 408.876 261.731 407.29C266.49 405.704 267.018 405.704 265.432 412.047C263.846 418.39 260.145 425.79 260.145 425.79C260.145 425.79 253.8 430.019 252.742 418.39L252.213 417.862Z" fill="#612A7A"/>
<path d="M274.949 431.605C274.949 431.605 274.949 431.076 274.949 430.548L279.708 427.376C279.708 427.376 280.237 427.376 280.765 427.376C280.765 427.376 280.765 427.904 280.765 428.433L276.007 431.605H274.949Z" fill="white"/>
<path d="M269.133 430.547C269.133 430.547 269.133 430.019 269.133 429.49L273.892 426.319C273.892 426.319 274.42 426.319 274.949 426.319C274.949 426.319 274.949 426.847 274.949 427.376L270.19 430.547H269.133Z" fill="white"/>
<path d="M263.846 428.962C263.846 428.962 263.846 428.434 263.846 427.905L268.604 424.733C268.604 424.733 269.133 424.733 269.662 424.733C269.662 424.733 269.662 425.262 269.662 425.79L264.903 428.962H263.846Z" fill="white"/>
<path d="M29.61 330.647C29.61 330.647 0 329.062 0 338.047C0 347.562 4.75875 381.919 16.3912 392.49C28.0237 403.062 28.0238 394.076 25.9088 377.162C23.7938 360.247 23.7937 358.133 34.8975 356.019C46.0012 353.904 28.0237 351.262 29.61 330.647Z" fill="#612A7A"/>
<path d="M25.9079 348.09C25.9079 348.09 32.7816 343.862 34.8966 344.919C38.0691 346.504 35.9541 349.676 39.1266 353.376C42.2991 357.076 42.2991 358.133 35.9541 358.133C29.6091 358.133 21.6779 358.133 21.6779 358.133C21.6779 358.133 15.8616 353.376 26.4366 348.619L25.9079 348.09Z" fill="#612A7A"/>
<path d="M25.3798 377.162L20.6211 373.99C20.6211 373.99 20.6211 373.462 20.6211 372.933C20.6211 372.933 21.1498 372.933 21.6786 372.933L26.4373 376.104C26.4373 376.104 26.4373 376.633 26.4373 377.162H25.3798Z" fill="white"/>
<path d="M24.3232 371.347L19.5645 368.176C19.5645 368.176 19.5645 367.647 19.5645 367.119C19.5645 367.119 20.0932 367.119 20.622 367.119L25.3807 370.29C25.3807 370.29 25.3807 370.819 25.3807 371.347H24.3232Z" fill="white"/>
<path d="M24.3232 366.59L19.5645 363.419C19.5645 363.419 19.5645 362.89 19.5645 362.362C19.5645 362.362 20.0932 362.362 20.622 362.362L25.3807 365.533C25.3807 365.533 25.3807 366.062 25.3807 366.59H24.3232Z" fill="white"/>
<path d="M225.248 307.919C224.719 307.919 224.19 307.919 224.19 307.39C224.19 306.862 224.19 306.333 225.248 306.333C228.949 304.747 230.007 298.404 230.007 298.404C230.007 298.404 230.007 297.876 230.535 298.404C230.535 298.404 231.064 298.404 230.535 298.933C230.535 298.933 229.477 304.219 226.305 306.862C228.949 306.862 232.65 306.333 234.765 306.862C234.765 306.862 235.294 306.862 234.765 307.39C234.765 307.39 234.765 307.919 234.236 307.39C232.121 307.39 228.42 307.39 225.777 307.39C224.719 307.39 223.662 307.39 223.133 307.39L225.248 307.919Z" fill="#612A7A"/>
<path d="M255.386 316.376C255.386 316.376 254.857 316.376 254.857 315.848C254.857 315.848 254.857 315.319 255.386 315.319C255.386 315.319 265.961 314.262 271.777 307.919C271.777 307.919 272.306 307.919 272.835 307.919C272.835 307.919 272.835 308.448 272.835 308.976C266.49 315.848 255.914 316.905 255.386 316.905V316.376Z" fill="#612A7A"/>
<path d="M118.439 242.376C126.37 243.434 192.464 244.491 201.453 230.219C210.442 215.948 213.085 156.219 212.557 145.648C212.028 135.076 215.729 112.348 206.212 97.0193C198.28 85.3907 160.739 39.9334 127.957 109.176C95.1741 178.419 102.577 239.734 118.439 242.376Z" fill="white"/>
<path d="M133.774 243.434C125.843 243.434 119.498 243.434 117.912 242.905C114.739 242.905 112.096 239.734 109.981 235.505C100.463 217.534 99.4057 166.791 126.901 108.648C138.533 84.3335 151.752 71.6478 166.028 70.5907C184.006 69.5335 199.868 86.4478 206.213 96.4907C213.616 108.119 213.087 124.505 213.087 136.662C213.087 139.834 213.087 143.005 213.087 145.119C213.087 155.162 210.972 215.948 201.983 230.219C195.109 241.319 156.511 243.434 133.774 243.434ZM118.441 241.848C126.901 243.434 192.466 243.434 200.926 229.691C209.914 215.419 212.558 155.691 212.029 145.648C212.029 143.534 212.029 140.362 212.029 137.191C212.029 125.562 213.087 109.176 205.684 97.5478C205.156 96.4907 188.236 71.1193 166.557 72.1764C152.281 73.2335 139.591 85.3907 128.487 109.176C101.521 166.791 102.049 217.534 111.567 234.976C113.682 238.676 115.797 241.319 118.441 241.319V241.848Z" fill="#612A7A"/>
<path d="M112.623 234.448C114.21 238.676 137.475 239.205 157.567 239.205C177.66 239.205 199.867 231.276 202.511 223.348C206.741 210.662 215.201 112.876 204.097 97.0193C192.993 81.1621 159.682 71.1193 148.05 82.2193C136.417 93.3193 94.1171 184.234 112.095 234.976L112.623 234.448Z" fill="#8DC63F"/>
<path d="M152.81 89.6188C164.443 93.8474 166.558 111.29 159.684 122.39C152.81 134.019 123.2 131.376 99.4065 147.233C75.6127 163.09 72.4402 205.904 63.9802 209.604C55.5202 213.304 40.715 210.662 41.7725 191.104C42.83 171.547 64.509 124.505 84.0727 107.59C103.636 90.6759 122.143 77.9902 153.339 89.0902L152.81 89.6188Z" fill="white"/>
<path d="M56.5772 212.247C53.4047 212.247 50.2322 211.19 47.5885 209.605C43.8872 207.49 40.186 202.205 40.7147 191.633C41.7722 171.548 63.9797 124.505 83.0147 107.59C98.8772 93.3188 124.257 79.0474 152.81 89.0902C157.04 90.6759 160.741 94.3765 162.327 99.1336C164.971 106.534 163.913 116.048 159.683 122.919C155.982 128.734 146.993 130.847 135.89 134.019C124.786 136.662 111.038 140.362 99.4059 148.29C85.1297 157.805 78.2559 177.89 72.9684 192.162C69.7959 201.676 67.1522 209.076 63.4509 210.662C61.3359 211.719 58.6922 212.247 56.0484 212.247H56.5772ZM133.775 86.9759C113.682 86.9759 96.2334 98.0759 84.0722 108.647C65.5659 125.033 43.3585 172.076 42.301 191.633C41.7722 201.676 45.4735 206.433 48.646 208.547C52.8759 211.19 58.6922 211.719 63.4509 209.605C66.6234 208.019 69.2672 200.619 71.9109 191.633C77.1984 176.834 84.0722 156.748 98.8772 146.705C111.038 138.776 124.786 135.076 135.89 132.433C146.993 129.79 155.982 127.676 159.155 121.862C163.385 114.99 164.442 106.534 161.798 99.1336C160.741 95.9622 158.097 91.2045 152.81 89.6188C146.465 87.5045 140.12 86.4474 133.775 86.4474V86.9759Z" fill="#612A7A"/>
<path d="M161.269 112.876C159.154 129.79 144.878 126.619 120.555 134.547C96.2327 142.476 88.8302 153.047 85.6577 158.862C70.3239 184.233 68.7377 204.847 62.9214 207.49C57.1052 210.133 45.4725 207.49 44.415 199.562C43.3575 191.633 47.5875 173.133 56.5764 154.104C65.5652 135.076 76.6689 110.762 100.463 98.0759C124.256 85.3902 165.499 77.9902 161.269 112.876Z" fill="#8DC63F"/>
<path d="M175.017 101.776C170.787 101.248 132.717 91.733 129.545 71.1193C126.372 50.5047 135.89 -4.46674 182.42 0.290406C215.202 3.99041 216.26 55.7907 214.673 70.0621C212.03 92.2621 187.707 99.6616 187.707 99.6616C187.707 99.6616 180.305 101.776 175.017 101.247V101.776Z" fill="white"/>
<path d="M177.659 102.834C176.602 102.834 176.073 102.834 175.015 102.834C169.728 102.305 132.187 92.2616 129.014 71.6473C127.428 62.133 131.129 29.8905 148.578 12.4476C157.567 2.9333 169.199 -0.766715 182.418 0.290427C190.349 1.34757 197.223 5.0476 202.51 11.3905C215.729 27.7762 216.787 58.433 215.2 70.5902C212.557 92.7902 188.234 100.719 188.234 100.719C188.234 100.719 182.418 102.304 177.659 102.304V102.834ZM175.544 101.248C180.303 101.776 187.705 99.6616 187.705 99.6616C187.705 99.6616 211.499 91.733 214.143 70.5902C215.729 58.433 214.143 28.3048 201.453 11.9191C196.165 5.57622 189.82 1.87621 182.418 1.34763C169.728 -0.238079 158.624 3.99048 149.635 12.9762C133.244 30.419 129.014 62.1336 130.6 71.1193C132.187 81.6907 143.29 89.0907 152.279 93.3193C162.325 98.0764 172.9 100.719 175.544 101.248Z" fill="#612A7A"/>
<path d="M197.752 91.733C203.569 86.9759 213.615 75.3473 213.086 63.1902C212.029 44.1618 209.385 2.93325 182.419 2.40468C148.579 1.34753 140.119 27.2475 135.889 42.0475C128.486 69.533 126.371 86.9759 172.372 99.6616C182.419 102.304 194.051 94.3759 197.224 91.733H197.752Z" fill="#8DC63F"/>
<path d="M204.626 30.9476C204.626 30.9476 204.098 30.9477 204.098 30.4191C204.098 27.2477 204.098 24.0762 204.098 24.0762V23.5477H204.626C204.626 23.5477 205.155 26.719 204.626 29.8905C204.626 29.8905 204.626 30.4191 204.098 30.4191L204.626 30.9476Z" fill="#612A7A"/>
<path d="M187.177 96.4907C187.177 96.4907 187.177 96.4907 186.648 96.4907C186.648 96.4907 186.648 95.9622 186.648 95.4336C215.73 82.7479 203.569 39.9334 203.04 39.4049C203.04 39.4049 203.04 38.8763 203.04 38.3477C203.04 38.3477 203.568 38.3477 204.097 38.3477C204.097 38.3477 217.316 82.2193 186.648 95.9622L187.177 96.4907Z" fill="#612A7A"/>
<path d="M171.135 83.5899L189.632 84.1713C195.177 84.3452 199.815 79.9924 199.989 74.4487L201.65 21.6177C201.824 16.0738 197.47 11.4384 191.924 11.2642L173.427 10.6832C167.881 10.5089 163.244 14.8618 163.07 20.4056L161.409 73.2367C161.235 78.7804 165.589 83.416 171.135 83.5899Z" fill="white"/>
<path d="M180.833 84.8622C180.833 84.8622 180.833 84.8622 180.305 84.8622C169.201 84.8622 160.741 75.3479 161.27 64.2479L162.327 29.8906C162.327 24.6048 164.971 19.8477 168.672 16.1477C172.373 12.4477 177.661 10.8619 182.948 10.8619C194.052 10.8619 202.512 20.3763 201.983 31.4763L200.926 65.8336C200.926 76.405 191.937 84.8622 180.833 84.8622ZM180.305 83.2764C190.351 83.2764 199.34 75.3479 199.34 65.305L200.397 30.9477C200.397 20.9048 192.466 11.9191 182.42 11.9191C177.661 11.9191 172.902 13.5048 169.201 17.2048C165.5 20.3763 163.385 25.1334 163.385 30.4191L162.327 64.7764C162.327 74.8193 170.258 83.805 180.305 83.805V83.2764Z" fill="#612A7A"/>
<path d="M191.938 61.0759H185.064C185.064 61.0759 184.535 61.0759 184.535 60.0188C184.535 60.0188 184.535 59.4907 185.064 59.4907H190.351L187.708 47.8619V47.3334H188.236L190.88 61.0759H191.938Z" fill="#612A7A"/>
<path d="M162.327 35.1761C162.327 35.1761 162.856 29.8905 166.557 30.419C172.373 30.9476 180.304 32.0047 186.121 32.5333C195.638 32.5333 200.926 30.9475 200.926 30.9475C200.926 30.9475 212.029 6.10475 180.833 5.04759C149.108 3.46188 162.327 35.1761 162.327 35.1761Z" fill="#612A7A"/>
<path d="M168.67 30.4189C168.67 30.4189 194.05 39.4047 212.556 38.3475C231.062 37.2904 201.452 30.9475 201.452 30.9475C201.452 30.9475 196.165 33.0618 187.176 32.5332C178.187 32.0047 173.957 31.4761 168.67 30.4189Z" fill="#FFD441"/>
<path d="M208.857 38.876C190.879 38.876 168.672 30.9475 168.672 30.9475L164.971 29.8904H168.672C173.431 30.419 181.362 31.476 187.178 32.0046C195.638 32.0046 200.926 30.419 200.926 30.419C208.857 32.0047 218.903 34.6475 218.374 36.7618C218.374 37.819 217.317 38.3475 211.501 38.876C210.443 38.876 209.385 38.876 207.799 38.876H208.857ZM176.074 32.0046C185.063 34.6475 200.397 38.3475 212.558 37.2903C216.788 37.2903 217.846 36.7618 217.846 36.2332C217.317 35.176 208.857 32.5332 201.454 30.9475C200.397 30.9475 195.109 33.0618 187.178 32.5332C184.006 32.5332 179.776 32.5332 176.074 31.4761V32.0046Z" fill="#612A7A"/>
<path d="M187.179 96.4907C187.179 96.4907 159.684 91.7336 155.454 64.7765C152.81 47.8619 160.741 14.5619 160.741 14.0333C160.741 14.0333 160.741 13.5048 161.27 14.0333C161.27 14.0333 161.799 14.0333 161.27 14.5619C161.27 14.5619 153.339 47.8619 155.982 64.7765C159.684 90.6765 186.121 94.9045 186.65 95.4331C186.65 95.4331 187.179 95.4331 187.179 95.9616C187.179 95.9616 187.179 96.4907 186.65 96.4907H187.179Z" fill="#612A7A"/>
<path d="M186.649 14.5618H195.638C196.167 14.5618 196.696 15.6189 196.696 16.1475V24.0761C196.696 24.6046 196.696 25.1333 196.167 25.1333H194.052L192.994 26.7189C192.994 26.7189 192.466 26.7189 191.937 26.7189L190.879 25.6618H188.236C187.707 25.6618 186.649 25.6618 186.649 24.6047L185.592 15.619C185.592 15.0904 186.121 14.0333 187.178 14.0333L186.649 14.5618Z" fill="white"/>
<path d="M177.131 44.6904C177.131 46.8047 178.188 48.3904 179.246 48.3904C180.303 48.3904 181.361 47.3333 181.361 45.7476C181.361 45.7476 181.361 45.219 181.361 44.6904C181.361 44.1619 181.361 44.1619 181.361 43.6333C181.361 42.0476 180.303 40.4619 179.246 40.4619C178.188 40.4619 177.131 42.0475 177.131 44.1618V44.6904Z" fill="#612A7A"/>
<path d="M179.246 45.219C179.246 45.219 180.304 46.2762 181.361 46.2762C181.361 46.2762 181.361 45.7476 181.361 45.219C181.361 44.6904 181.361 44.6904 181.361 44.1619C180.304 44.1619 179.246 44.1619 179.246 44.6905V45.219Z" fill="white"/>
<path d="M195.109 45.2191C195.109 47.3333 196.167 48.9191 197.224 48.9191C198.282 48.9191 199.339 47.862 199.339 46.2763C199.339 46.2763 199.339 45.7476 199.339 45.2191C199.339 44.6905 199.339 44.6905 199.339 44.162C199.339 42.5763 198.282 40.9905 197.224 40.9905C196.167 40.9905 195.109 42.5763 195.109 44.6905V45.2191Z" fill="#612A7A"/>
<path d="M197.225 45.7478C197.225 45.7478 198.283 46.8049 199.34 46.8049C199.34 46.8049 199.34 46.2763 199.34 45.7478C199.34 45.2192 199.34 45.2192 199.34 44.6907C198.283 44.6907 197.225 44.6906 197.225 45.2192V45.7478Z" fill="white"/>
<path d="M186.649 73.2336C185.063 73.2336 182.948 72.1764 181.361 70.5907C181.361 70.5907 181.361 70.0621 181.361 69.5336C181.361 69.5336 181.89 69.5336 182.419 69.5336C184.534 71.1193 186.12 72.1764 187.706 71.6479C189.821 71.6479 190.879 69.005 190.879 69.005C190.879 69.005 191.408 69.005 191.936 69.005C191.936 69.005 191.936 69.5336 191.936 70.0621C191.936 70.0621 190.35 72.705 187.706 73.2336C187.706 73.2336 187.706 73.2336 187.178 73.2336H186.649Z" fill="#612A7A"/>
<path d="M185.062 135.076C185.062 135.076 177.659 129.262 182.418 119.748C184.004 116.576 184.533 112.876 184.533 109.176C184.533 106.005 185.062 102.305 186.119 99.1335C186.119 98.605 186.648 97.0187 188.234 97.0187C191.407 97.0187 192.464 113.934 192.464 114.462C192.464 116.576 192.464 118.69 191.407 120.804C190.349 124.504 189.82 127.676 191.407 128.733C191.407 128.733 191.407 129.262 191.407 129.79C191.407 130.319 190.878 129.79 190.349 129.79C187.705 128.204 188.763 123.976 189.82 120.276C189.82 118.162 190.878 116.048 190.878 114.462C190.878 109.176 188.763 99.1336 187.705 98.605C187.705 98.605 187.705 98.6045 187.177 99.6616C186.119 102.833 185.59 106.534 185.59 109.705C185.59 113.934 185.062 117.634 183.475 120.804C179.245 129.262 185.59 134.548 185.59 134.548C185.59 134.548 185.59 135.076 185.59 135.605L185.062 135.076Z" fill="#612A7A"/>
<path d="M177.66 233.919C177.66 233.919 177.66 233.919 177.132 233.919L162.855 210.662H164.442C164.442 210.662 171.844 211.719 176.074 206.962C177.66 205.376 178.189 203.791 178.189 202.205C178.189 199.034 175.017 196.391 175.017 196.391L173.959 195.334L208.329 186.876H208.857V187.405L176.603 194.804C177.66 195.862 179.247 197.976 179.247 200.619C179.247 202.734 178.718 204.847 177.132 206.433C173.43 210.662 168.143 210.662 165.499 210.662L178.718 231.804C178.718 231.804 178.718 232.333 178.718 232.862L177.66 233.919Z" fill="#612A7A"/>
<path d="M380.701 438.476C403.186 438.476 421.414 420.254 421.414 397.776C421.414 375.298 403.186 357.076 380.701 357.076C358.215 357.076 339.986 375.298 339.986 397.776C339.986 420.254 358.215 438.476 380.701 438.476Z" fill="#8DC63F"/>
<path d="M380.7 439.534C357.963 439.534 339.457 421.034 339.457 398.305C339.457 375.576 357.963 357.076 380.7 357.076C403.436 357.076 421.941 375.576 421.941 398.305C421.941 421.034 403.436 439.534 380.7 439.534ZM380.7 357.605C358.492 357.605 340.515 375.576 340.515 397.776C340.515 419.976 358.492 437.948 380.7 437.948C402.907 437.948 420.885 419.976 420.885 397.776C420.885 375.576 402.907 357.605 380.7 357.605Z" fill="#612A7A"/>
<path d="M372.24 410.991L389.688 412.048L393.918 425.262L380.171 433.191L365.895 423.676L372.24 410.991Z" fill="#612A7A"/>
<path d="M391.803 382.448L399.734 397.776L412.424 396.719C412.424 396.719 414.01 383.505 413.481 381.391C412.953 379.276 401.32 372.405 400.263 372.405C399.205 372.405 392.331 381.391 392.331 381.919L391.803 382.448Z" fill="#612A7A"/>
<path d="M365.365 370.291C365.365 370.291 373.825 380.334 373.825 380.862C373.825 381.391 363.25 395.134 363.25 395.134C363.25 395.134 350.56 393.548 350.032 392.491C349.503 391.434 350.032 378.219 351.089 377.162C352.147 376.105 362.722 370.291 365.365 369.762V370.291Z" fill="#612A7A"/>
<path d="M406.607 428.962C406.607 428.962 413.481 423.148 415.596 418.919C417.711 414.691 420.355 408.348 420.355 408.348C420.355 408.348 417.711 409.934 416.125 410.462C416.125 410.462 416.125 413.634 412.424 418.391C408.722 423.148 407.136 424.205 407.136 424.205V428.962H406.607Z" fill="#612A7A"/>
<path d="M352.148 426.848C352.148 426.848 346.861 421.034 344.217 415.748C341.573 410.462 339.986 403.062 339.986 403.062C339.986 403.062 342.101 405.176 342.63 405.176C343.159 405.176 344.746 405.705 344.746 405.705C344.746 405.705 345.274 410.991 347.389 414.162C349.504 417.334 352.148 420.505 352.148 420.505C352.148 420.505 351.091 423.676 352.148 426.319V426.848Z" fill="#612A7A"/>
<path d="M371.182 358.662C371.182 358.662 378.055 357.605 383.343 358.134C388.63 358.662 394.975 360.776 394.975 360.776C394.975 360.776 392.86 360.776 392.86 361.305C392.86 361.834 391.803 362.362 391.803 362.362C391.803 362.362 388.102 360.248 384.4 360.248C380.699 360.248 375.412 360.776 375.412 360.776L371.182 358.134V358.662Z" fill="#612A7A"/>
<path d="M365.366 371.876H364.309C364.309 370.819 371.182 361.305 376.47 359.191V360.248C372.24 362.362 365.366 371.348 365.366 371.876Z" fill="#612A7A"/>
<path d="M400.264 375.048C400.264 375.048 398.149 370.291 395.505 366.591C392.861 363.419 389.689 361.305 389.689 361.305V360.248C390.218 360.248 393.919 362.362 396.563 366.062C399.207 369.762 401.322 374.519 401.322 374.519H400.264V375.048Z" fill="#612A7A"/>
<path d="M415.348 380.419L411.143 382.645L411.637 383.58L415.843 381.353L415.348 380.419Z" fill="#612A7A"/>
<path d="M416.126 411.519C416.126 411.519 416.126 406.234 414.54 402.534C413.483 398.834 409.781 394.605 409.781 394.605L410.839 393.548C410.839 393.548 414.54 397.776 416.126 402.005C417.184 406.234 417.712 411.519 417.712 411.519H416.655H416.126Z" fill="#612A7A"/>
<path d="M389.159 413.105L388.102 412.048C388.102 412.048 391.803 407.819 394.975 403.591C398.148 399.362 399.205 396.191 399.205 396.191H400.263C400.263 396.719 399.205 400.419 396.033 404.648C392.86 408.876 389.159 413.105 389.159 413.105Z" fill="#612A7A"/>
<path d="M362.76 392.324L361.828 392.824L371.573 410.991L372.505 410.491L362.76 392.324Z" fill="#612A7A"/>
<path d="M392.861 384.034C387.574 380.334 372.24 381.919 372.24 381.919V380.862C372.24 380.862 387.574 378.748 393.39 382.976V384.034H392.861Z" fill="#612A7A"/>
<path d="M344.215 408.876C344.215 400.419 351.089 391.434 351.089 390.905L352.146 391.962C352.146 391.962 345.272 400.948 345.272 408.876H344.215Z" fill="#612A7A"/>
<path d="M364.837 424.733C354.262 424.733 350.561 421.033 350.561 420.504L351.619 419.447C351.619 419.447 355.849 423.676 368.539 423.147V424.205C367.481 424.205 366.424 424.205 365.366 424.205L364.837 424.733Z" fill="#612A7A"/>
<path d="M399.734 426.848C395.504 426.848 392.331 425.79 391.803 425.79V424.733C392.331 424.733 399.734 427.376 407.665 424.733V425.79C405.021 427.376 401.849 427.376 399.734 427.376V426.848Z" fill="#612A7A"/>
<path d="M379.062 430.259L378.275 437.618L379.327 437.73L380.113 430.372L379.062 430.259Z" fill="#612A7A"/>
<path d="M346.999 374.577L346.518 375.518L352.637 378.648L353.118 377.707L346.999 374.577Z" fill="#612A7A"/>
</g>
<defs>
<clipPath id="clip0_437_98717">
<rect width="423" height="444" fill="white"/>
</clipPath>
</defs>
</svg>
