<svg width="32" height="32" viewBox="0 0 32 32" fill="none" xmlns="http://www.w3.org/2000/svg">
<path fill-rule="evenodd" clip-rule="evenodd" d="M13.2233 4.8425C12.0833 5.71184 10.7567 7.03584 8.89535 8.89584C7.03402 10.7558 5.71135 12.0825 4.84202 13.2238C3.98868 14.3412 3.66602 15.1625 3.66602 15.9998C3.66602 16.8372 3.98868 17.6585 4.84202 18.7758C5.71135 19.9158 7.03535 21.2425 8.89535 23.1038C10.7553 24.9652 12.082 26.2865 13.2233 27.1572C14.3407 28.0105 15.162 28.3332 15.9993 28.3332C16.8367 28.3332 17.658 28.0105 18.7753 27.1572C19.9153 26.2878 21.242 24.9638 23.1033 23.1038C24.9647 21.2438 26.286 19.9172 27.1567 18.7758C28.01 17.6585 28.3327 16.8372 28.3327 15.9998C28.3327 15.1625 28.01 14.3412 27.1567 13.2238C26.2873 12.0838 24.9633 10.7572 23.1033 8.89584C21.2433 7.0345 19.9167 5.71184 18.7753 4.8425C17.658 3.98917 16.8367 3.6665 15.9993 3.6665C15.162 3.6665 14.3407 3.98917 13.2233 4.8425ZM12.01 3.25184C13.306 2.26384 14.5487 1.6665 15.9993 1.6665C17.45 1.6665 18.6927 2.26384 19.9887 3.25317C21.2487 4.21317 22.6687 5.63317 24.4633 7.42917L24.57 7.53584C26.366 9.33184 27.786 10.7505 28.7473 12.0105C29.7353 13.3065 30.3327 14.5492 30.3327 15.9998C30.3327 17.4505 29.7353 18.6932 28.746 19.9892C27.786 21.2492 26.366 22.6692 24.57 24.4638L24.4633 24.5705C22.6673 26.3665 21.2487 27.7865 19.9887 28.7478C18.6927 29.7358 17.45 30.3332 15.9993 30.3332C14.5487 30.3332 13.306 29.7358 12.01 28.7465C10.75 27.7865 9.33002 26.3665 7.53535 24.5705L7.42868 24.4638C5.63268 22.6678 4.21268 21.2492 3.25135 19.9892C2.26335 18.6932 1.66602 17.4505 1.66602 15.9998C1.66602 14.5492 2.26335 13.3065 3.25268 12.0105C4.21268 10.7505 5.63268 9.3305 7.42868 7.53584L7.53535 7.42917C9.33135 5.63317 10.75 4.21317 12.01 3.25184Z" fill="#29235C"/>
<path fill-rule="evenodd" clip-rule="evenodd" d="M17.0473 11.3158C17.2288 11.1224 17.4796 11.009 17.7446 11.0005C18.0097 10.992 18.2672 11.0891 18.4607 11.2705L22.0167 14.6038C22.1164 14.6974 22.1958 14.8103 22.2502 14.9358C22.3045 15.0612 22.3325 15.1965 22.3325 15.3332C22.3325 15.4699 22.3045 15.6051 22.2502 15.7306C22.1958 15.856 22.1164 15.969 22.0167 16.0625L18.4607 19.3958C18.2665 19.5727 18.0105 19.666 17.748 19.6557C17.4855 19.6453 17.2377 19.5321 17.058 19.3405C16.8783 19.1489 16.7812 18.8943 16.7877 18.6317C16.7942 18.3692 16.9038 18.1197 17.0927 17.9372L18.8033 16.3332H14.222C13.7767 16.3332 13.0967 16.4665 12.5593 16.8292C12.0753 17.1558 11.666 17.6865 11.666 18.6665C11.666 18.9317 11.5607 19.1861 11.3731 19.3736C11.1856 19.5612 10.9312 19.6665 10.666 19.6665C10.4008 19.6665 10.1464 19.5612 9.95891 19.3736C9.77137 19.1861 9.66602 18.9317 9.66602 18.6665C9.66602 16.9798 10.442 15.8438 11.4393 15.1705C12.3847 14.5332 13.482 14.3332 14.222 14.3332H18.8033L17.0927 12.7292C16.8993 12.5478 16.7859 12.2969 16.7773 12.0319C16.7688 11.7669 16.866 11.5093 17.0473 11.3158Z" fill="#29235C"/>
</svg>
