<svg width="366" height="366" viewBox="0 0 366 366" fill="none" xmlns="http://www.w3.org/2000/svg">
<g opacity="0.1">
<path d="M21.0289 48.4131C20.7021 47.9828 20.5388 47.7677 20.443 47.1972C19.6937 45.7662 19.8007 44.1299 20.4655 42.7836L31.6424 18.4007C33.0395 15.3529 36.7633 14.0359 40.1774 15.4211L83.2134 32.9895C84.7232 33.6447 85.9345 34.7953 86.6838 36.2263C87.4331 37.6573 87.326 39.2936 86.6613 40.6399L75.4844 65.0228C74.8197 66.3691 73.5972 67.4252 72.0479 68.0512C70.4986 68.6771 68.6902 68.5174 67.1804 67.8623L24.1444 50.2938C22.7979 49.8538 21.6824 49.2736 21.0289 48.4131ZM83.7881 36.4122C83.4613 35.982 82.7402 35.4767 82.1824 35.1866L39.1464 17.6182C38.1943 17.2531 37.1746 17.2434 36.3183 17.4488C35.462 17.6542 34.7015 18.43 34.3353 19.2808L23.1584 43.6636C22.426 45.3652 23.2711 47.3667 25.1753 48.0968L68.2113 65.6652C69.1634 66.0302 70.1831 66.0399 71.0394 65.8345C71.8957 65.6292 72.6563 64.8534 73.0225 64.0026L84.1994 39.6197C84.5655 38.7689 84.5373 37.8432 84.2782 37.0576C83.8838 36.9826 83.9514 36.6274 83.7881 36.4122Z" fill="#602B7A"/>
<path d="M49.6861 40.9607L47.9939 36.953L46.1381 32.73L41.7159 34.4696L37.3614 35.8535L41.1067 37.6712L39.0423 42.0706L43.741 44.2539L45.873 39.4987L49.6861 40.9607Z" fill="#602B7A"/>
<path d="M357.44 233.234V240.658L349.485 241.681C348.632 245.265 347.212 248.849 344.939 251.665L349.769 257.553L343.802 262.928L337.267 258.577C333.858 260.625 330.164 262.16 326.186 262.672L325.05 269.84H316.81L315.674 262.672C311.696 261.904 307.718 260.625 304.593 258.577L298.058 262.928L292.091 257.553L296.921 251.665C294.648 248.593 292.944 245.265 292.375 241.681L284.42 240.658V233.234L292.375 232.21C293.228 228.626 294.648 225.042 296.921 222.226L292.091 216.339L298.058 210.963L304.593 215.315C308.002 213.267 311.696 211.731 315.674 211.219L316.81 204.051H325.05L326.186 211.219C330.164 211.987 334.142 213.267 337.267 215.315L343.802 210.963L349.769 216.339L344.939 222.226C347.212 225.298 348.916 228.626 349.485 232.21L357.44 233.234ZM321.072 218.899C309.991 218.899 300.899 227.09 300.899 237.074C300.899 247.057 309.991 255.249 321.072 255.249C332.153 255.249 341.245 247.057 341.245 237.074C341.245 227.09 332.153 218.899 321.072 218.899Z" fill="white"/>
<path d="M315.675 271.12H326.472L327.608 263.696C331.018 262.928 334.427 261.648 337.269 260.112L343.803 264.464L351.475 257.552L346.645 251.665C348.634 248.849 349.77 246.033 350.622 242.961L358.862 241.937V232.21L350.622 231.186C349.77 228.114 348.349 225.042 346.645 222.482L351.475 216.594L343.803 209.683L337.269 214.035C334.143 212.243 331.018 211.219 327.608 210.451L326.472 203.027H315.675L314.538 210.451C311.129 211.219 307.719 212.499 304.878 214.035L298.343 209.683L290.672 216.594L295.502 222.482C293.513 225.298 292.377 228.114 291.524 231.186L283.285 232.21V241.937L291.524 242.961C292.377 246.033 293.797 249.105 295.502 251.665L290.672 257.552L298.343 264.464L304.878 260.112C308.004 261.904 311.129 262.928 314.538 263.696L315.675 271.12ZM324.199 268.56H318.232L317.096 261.648L315.959 261.392C312.265 260.88 308.572 259.344 305.446 257.552L304.594 257.04L298.343 261.392L294.081 257.552L298.627 251.921L298.059 251.153C295.786 248.337 294.366 245.009 293.797 241.681L293.513 240.657L285.842 239.633V234.258L293.513 233.234L293.797 232.21C294.366 228.882 296.07 225.554 298.059 222.738L298.627 221.97L293.797 216.338L298.059 212.499L304.31 216.594L305.162 216.082C308.288 214.035 311.981 212.755 315.675 212.243L316.811 211.987L317.948 205.075H323.915L325.051 211.987L326.188 212.243C329.881 212.755 333.575 214.291 336.7 216.082L337.553 216.594L343.803 212.243L348.065 215.826L343.519 221.458L344.088 222.226C346.361 225.042 347.781 228.37 348.349 231.698L348.634 232.722L356.305 233.746V239.121L348.634 240.145L348.349 241.169C347.781 244.497 346.076 247.825 344.088 250.641L343.519 251.409L348.349 257.04L344.088 260.88L337.837 256.784L336.984 257.296C333.859 259.344 330.165 260.624 326.472 261.136L325.335 261.392L324.199 268.56ZM321.073 256.528C333.007 256.528 342.667 247.825 342.667 237.073C342.667 226.322 333.007 217.618 321.073 217.618C309.14 217.618 299.48 226.322 299.48 237.073C299.48 247.825 309.14 256.528 321.073 256.528ZM321.073 220.178C331.302 220.178 339.826 227.602 339.826 237.073C339.826 246.545 331.586 253.969 321.073 253.969C310.845 253.969 302.321 246.545 302.321 237.073C302.321 227.602 310.845 220.178 321.073 220.178Z" fill="#602B7A"/>
<path d="M266.143 287.246V302.596L249.694 304.713C247.931 312.123 244.994 319.533 240.294 325.355L250.281 337.529L237.944 348.644L224.432 339.646C217.383 343.881 209.745 347.056 201.521 348.115L199.171 362.935H182.134L179.784 348.115C171.559 346.527 163.335 343.881 156.872 339.646L143.36 348.644L131.023 337.529L141.01 325.355C136.31 319.004 132.786 312.123 131.611 304.713L115.161 302.596V287.246L131.611 285.129C133.373 277.719 136.31 270.308 141.01 264.486L131.023 252.312L143.36 241.197L156.872 250.195C163.922 245.961 171.559 242.785 179.784 241.726L182.134 226.906H199.171L201.521 241.726C209.745 243.314 217.97 245.961 224.432 250.195L237.944 241.197L250.281 252.312L240.294 264.486C244.994 270.838 248.519 277.719 249.694 285.129L266.143 287.246ZM190.946 257.605C168.034 257.605 149.235 274.543 149.235 295.185C149.235 315.828 168.034 332.765 190.946 332.765C213.858 332.765 232.657 315.828 232.657 295.185C232.657 274.543 213.858 257.605 190.946 257.605Z" fill="white"/>
<path d="M179.77 365.58H202.095L204.445 350.23C211.494 348.642 218.544 345.996 224.419 342.82L237.931 351.818L253.793 337.527L243.806 325.353C247.918 319.531 250.268 313.709 252.03 307.357L269.067 305.24V285.126L252.03 283.009C250.268 276.658 247.33 270.306 243.806 265.013L253.793 252.839L237.931 238.548L224.419 247.546C217.957 243.841 211.494 241.724 204.445 240.136L202.095 224.787H179.77L177.42 240.136C170.371 241.724 163.321 244.371 157.446 247.546L143.934 238.548L128.072 252.839L138.059 265.013C133.947 270.835 131.597 276.658 129.835 283.009L112.798 285.126V305.24L129.835 307.357C131.597 313.709 134.534 320.06 138.059 325.353L128.072 337.527L143.934 351.818L157.446 342.82C163.909 346.525 170.371 348.642 177.42 350.23L179.77 365.58ZM197.395 360.287H185.058L182.708 345.996L180.358 345.466C172.721 344.408 165.083 341.232 158.621 337.527L156.859 336.468L143.934 345.466L135.122 337.527L144.522 325.882L143.347 324.294C138.647 318.472 135.71 311.591 134.535 304.71L133.947 302.593L118.085 300.476V289.361L133.947 287.244L134.535 285.126C135.71 278.246 139.234 271.365 143.347 265.543L144.522 263.955L134.535 252.31L143.347 244.371L156.271 252.839L158.034 251.781C164.496 247.546 172.133 244.9 179.77 243.841L182.12 243.312L184.47 229.021H196.807L199.157 243.312L201.507 243.841C209.144 244.9 216.781 248.076 223.244 251.781L225.006 252.839L237.931 243.841L246.743 251.251L237.343 262.896L238.518 264.484C243.218 270.306 246.155 277.187 247.33 284.068L247.918 286.185L263.78 288.302V299.418L247.918 301.535L247.33 303.652C246.155 310.533 242.631 317.414 238.518 323.236L237.343 324.824L247.33 336.468L238.518 344.408L225.594 335.939L223.831 336.998C217.369 341.232 209.732 343.879 202.095 344.937L199.745 345.466L197.395 360.287ZM190.932 335.41C215.607 335.41 235.581 317.414 235.581 295.183C235.581 272.953 215.607 254.957 190.932 254.957C166.258 254.957 146.284 272.953 146.284 295.183C146.284 317.414 166.258 335.41 190.932 335.41ZM190.932 260.25C212.082 260.25 229.706 275.599 229.706 295.183C229.706 314.767 212.669 330.117 190.932 330.117C169.783 330.117 152.159 314.767 152.159 295.183C152.159 275.599 169.783 260.25 190.932 260.25Z" fill="#602B7A"/>
<path d="M171.34 174.61L148.61 166.163L159.123 186.13L163.953 181.522L169.92 186.13L172.193 183.826L166.51 179.218L171.34 174.61Z" fill="#602B7A"/>
<path d="M74.0122 224.786L84.5249 228.114L88.7867 238.098L92.7646 228.37L103.561 224.786L92.4804 221.203L88.7867 211.475L84.809 221.459L74.0122 224.786Z" fill="#FFD631"/>
<path d="M1.90735e-06 265.232L7.9555 267.536L10.7968 274.96L13.638 267.792L21.8777 265.232L13.638 262.416L10.7968 255.249L7.9555 262.672L1.90735e-06 265.232Z" fill="#602B7A"/>
<path d="M78.7022 154.768C81.376 159.149 82.6878 163.881 82.497 168.732C82.3061 173.584 80.5755 177.979 77.5864 182.378C74.3529 186.893 70.8671 189.445 67.3069 190.842C63.606 192.009 59.9343 191.674 56.6394 189.375C54.6773 188.226 53.5886 186.959 52.8478 185.229C52.2477 183.729 52.1361 181.997 52.6537 180.262C48.22 181.778 43.6375 180.984 39.0469 178.111C36.4184 176.387 34.5227 174.314 33.1154 172.008C31.9524 169.586 31.2779 166.932 31.6175 164.39C31.8165 161.617 32.7854 159.073 34.7684 156.641C36.5073 154.325 38.7718 152.354 41.2143 151.191C43.901 149.912 46.5214 149.557 49.4232 149.664C52.3251 149.77 55.1606 150.801 57.7891 152.525C59.8919 153.904 61.3655 155.286 62.5948 156.783C63.8242 158.281 64.3208 160.127 64.8174 161.974L67.2517 158.732L73.5602 162.87L61.0777 180.12C60.2787 181.393 59.9682 182.434 59.9018 183.358C60.0798 184.166 60.6427 185.088 61.5534 185.547C63.1305 186.582 65.0182 186.576 66.8314 185.415C68.7854 184.485 70.9091 182.284 72.9957 179.505C75.5336 175.916 77.0572 172.215 77.1817 168.287C77.3063 164.36 76.3131 160.667 74.0615 156.978C71.8099 153.289 68.5813 150.065 64.1314 147.422C59.9258 144.664 55.4096 142.945 50.7236 142.498C46.2819 141.935 41.9146 142.526 38.1102 144.04C34.0615 145.67 30.9607 148.336 28.1785 152.041C25.3964 155.746 24.0135 159.678 23.6447 163.722C23.276 167.766 24.4099 171.689 26.4173 175.495C28.6689 179.184 31.8975 182.408 36.1031 185.166C38.0652 186.315 40.0272 187.464 42.0928 188.266C44.1584 189.068 46.4683 189.754 48.8817 190.093L47.5732 195.179C45.1598 194.84 42.8498 194.154 40.3993 193.238C37.808 192.091 35.461 190.828 33.114 189.565C27.857 186.117 23.8212 182.087 21.0067 177.476C18.4364 172.748 17.1244 168.016 17.3153 163.165C17.5061 158.313 19.3404 153.571 22.5738 149.056C25.8072 144.541 29.885 141.409 34.6664 139.431C39.4478 137.452 44.6886 136.742 50.3887 137.302C55.8447 137.977 61.5158 140.038 66.7728 143.487C71.9926 146.358 76.0283 150.388 78.7022 154.768ZM51.3419 175.531C53.9623 175.176 56.1232 173.552 57.862 171.236C59.6009 168.921 60.3255 166.493 59.651 163.838C59.1172 161.414 57.6063 159.456 54.9778 157.731C52.4901 156.238 49.7953 155.438 47.3157 156.023C44.6953 156.378 42.5342 158.002 40.7953 160.318C39.0565 162.633 38.3319 165.061 39.0064 167.716C39.5402 170.14 41.051 172.098 43.6795 173.823C46.308 175.547 48.8622 176.116 51.3419 175.531Z" fill="#602B7A"/>
</g>
</svg>
