<svg width="160" height="80" viewBox="0 0 160 80" fill="none" xmlns="http://www.w3.org/2000/svg">
<g clip-path="url(#clip0_303_2207)">
<path d="M64.6823 66.5014C64.6823 66.5014 67.2523 66.7614 69.6423 65.3114C72.9823 63.2914 71.1123 57.5114 67.5123 59.1414C63.2623 61.0614 61.0323 64.9114 60.3223 65.5114C58.9323 66.7014 68.2323 59.4414 62.7523 56.5014C57.0823 53.4614 55.0923 65.1314 61.8623 67.7414C68.6323 70.3514 58.5023 61.9214 54.6623 61.1614C50.1023 60.2514 48.7523 66.0514 51.2123 67.9414C53.0623 69.3514 53.8223 69.7314 63.7823 65.2414C73.7423 60.7514 57.7823 63.3914 54.7323 71.6014C53.2323 75.6314 55.6723 78.5214 58.6023 77.1514C61.5323 75.7714 65.0923 68.7814 57.6523 65.0914C50.2123 61.4014 58.3623 65.2314 60.1923 68.2314C61.4623 70.3114 64.2023 73.6214 67.1023 74.3214C70.0423 75.0314 71.2823 72.2814 69.4323 68.7514C67.3023 64.7014 64.6723 66.5014 64.6723 66.5014H64.6823Z" fill="white"/>
<path d="M60.3436 65.1514C60.6736 64.7514 61.3036 64.7114 61.7436 65.0814C62.1836 65.4414 62.2736 66.0714 61.9336 66.4714C61.6036 66.8714 60.9736 66.9014 60.5336 66.5414C60.0936 66.1814 60.0036 65.5614 60.3436 65.1514Z" fill="white"/>
<path d="M54.2356 13.6646C54.2356 13.6646 46.8456 3.77462 45.4456 -0.505377C44.1756 -4.36538 47.5056 -6.42538 51.3656 -3.82538C55.2256 -1.22538 58.4556 4.33463 58.0056 9.98462C57.5556 15.6346 55.3156 -0.415376 59.3456 -4.00538C63.3756 -7.59538 66.6056 -5.97538 66.5256 -2.03538C66.4356 1.91462 65.8056 8.36462 63.2056 11.6846C60.6056 15.0046 65.0756 3.54462 70.6456 1.19462C76.3857 -1.22538 79.7057 3.97462 76.7457 7.29462C73.7857 10.6146 66.7057 14.9146 60.1556 15.2746C53.6056 15.6346 68.2257 11.1546 75.4057 14.2046C82.5757 17.2546 81.3456 21.6546 78.3657 22.4546C74.3256 23.5246 62.4956 20.4846 60.5156 17.8746C58.5457 15.2746 71.7257 20.1146 72.8956 27.5646C74.0556 35.0046 67.2456 34.2846 65.0956 32.4046C62.9456 30.5246 57.2057 24.6946 57.8356 19.9346C58.4656 15.1846 60.8856 28.7246 57.2956 33.2146C53.7056 37.6946 49.4056 39.2246 47.3456 35.0046C46.2656 32.7946 45.9056 25.9446 51.5556 21.0146C57.2056 16.0846 54.1556 21.0146 51.6456 22.7146C49.1356 24.4246 44.0256 30.0746 37.4756 27.4646C33.8256 26.0146 33.2656 19.3946 42.4056 16.7046C51.5556 14.0146 52.5356 14.3746 53.4356 15.4546C54.3356 16.5246 44.1956 16.1646 39.0856 12.2246C33.9756 8.27462 32.7156 1.91462 41.6856 3.70462C50.6556 5.49462 52.2656 9.98462 54.2456 13.6646H54.2356Z" fill="white"/>
<path d="M61.8856 14.5246C61.8856 16.6946 60.1256 18.4646 57.9556 18.4646C55.7856 18.4646 54.0156 16.6946 54.0156 14.5246C54.0156 12.3546 55.7756 10.5846 57.9556 10.5846C60.1356 10.5846 61.8856 12.3446 61.8856 14.5246Z" fill="#FF9D00"/>
<path d="M60.5154 14.2046C60.5154 15.7946 59.2254 17.0746 57.6454 17.0746C56.0654 17.0746 54.7754 15.7846 54.7754 14.2046C54.7754 12.6246 56.0654 11.3346 57.6454 11.3346C59.2254 11.3346 60.5154 12.6246 60.5154 14.2046Z" fill="#FFDD00"/>
<path d="M5.39836 36.6036C9.66829 31.6996 15.7972 28.7654 21.3723 28.0325C26.9885 27.3095 32.1239 28.6964 35.2459 31.6408C30.9495 32.0499 25.9009 33.4338 20.9696 35.7773C17.6512 37.3467 14.7504 39.2353 12.3971 41.1762C15.3527 41.4687 23.7915 37.4052 34.9471 34.8931C33.0746 36.4701 31.0765 37.9949 28.9864 39.3884C24.1563 42.6075 19.6223 44.6614 14.9488 45.7578C10.2852 46.8129 5.43566 47.1028 0.490272 46.1038C1.12462 42.998 2.71002 39.5693 5.39836 36.6036Z" fill="#43B94B"/>
<path d="M25.8982 65.2849C26.9957 57.0482 30.6233 49.7001 34.8714 44.9841C39.1411 40.2231 44.0137 37.8664 48.0884 38.1051C44.4849 41.3779 40.56 45.9135 37.0841 51.5233C34.6685 55.4276 32.7475 59.4793 31.346 63.3157C32.5661 62.2826 34.6908 58.8578 37.853 54.439C40.9797 50.0388 45.2937 44.521 50.344 39.3968C49.2809 42.9095 47.9845 46.6233 46.4941 50.2467C43.6936 57.0832 40.7312 62.639 37.5988 67.2227C34.4256 71.7714 31.0347 75.6666 26.9925 78.9206C25.7372 75.3339 25.2054 70.4548 25.9024 65.2714L25.8982 65.2849Z" fill="#43B94B"/>
<g clip-path="url(#clip1_303_2207)">
<path d="M119.87 40.06C119.87 40.06 147.35 31.85 155.82 34.63C160.78 36.25 159.5 40.53 152.74 44.28C140.11 51.29 123.17 52.11 118.15 44.58C113.13 37.06 163.45 60.32 153.06 72.89C148.7 78.17 138.27 71.44 134.28 68.67C130.86 66.3 120.03 57.69 121.02 50.12C122.02 42.56 132.31 78.54 124.13 87.97C122.89 89.4 114.51 91.94 109.69 80.02C107.06 73.5 107.78 58.88 112.52 54.13C117.25 49.37 119.82 50.53 89.9603 70.97C72.8803 82.66 78.6703 60.77 92.9903 53.06C102.6 47.89 111.53 47.47 113.77 48.56C116 49.65 90.9503 46.29 72.9903 43.85C61.6203 42.31 64.8303 34.4 77.5203 32.49C85.6903 31.26 101.97 36.13 108.3 40.63C122.39 50.65 105.67 44.21 92.5803 24.01C85.1003 12.48 87.1103 6.89003 94.6903 11.13C96.7203 12.27 114.64 29.23 113.83 40.74C113.02 52.25 109.05 18.56 111.87 6.99003C115.2 -6.61997 125.27 5.65003 125.4 16.99C125.51 27.17 121.89 39.78 116.87 42.2C111.84 44.61 124.06 28.52 129.41 22.5C134.52 16.74 142.05 12.5 147.24 16.14C149.28 17.57 148.31 29.9 126.04 40.94C107.09 50.33 118.7 40.2 119.87 40.05V40.06Z" fill="#FF9D00"/>
<path d="M126.06 47.72C123.44 51.9 117.93 53.15 113.75 50.53C109.58 47.91 108.32 42.39 110.95 38.22C113.57 34.05 119.09 32.79 123.26 35.41C127.44 38.04 128.69 43.55 126.06 47.72Z" fill="white"/>
<path d="M123.791 45.46C121.871 48.51 117.851 49.42 114.801 47.51C111.751 45.59 110.831 41.57 112.751 38.52C114.671 35.47 118.691 34.56 121.741 36.47C124.791 38.39 125.701 42.41 123.791 45.46Z" fill="#FF93B0"/>
</g>
</g>
<defs>
<clipPath id="clip0_303_2207">
<rect width="160" height="80" fill="white"/>
</clipPath>
<clipPath id="clip1_303_2207">
<rect width="92.82" height="88.24" fill="white" transform="translate(66 1)"/>
</clipPath>
</defs>
</svg>
