<svg width="353" height="258" viewBox="0 0 353 258" fill="none" xmlns="http://www.w3.org/2000/svg">
<g clip-path="url(#clip0_369_40741)">
<path d="M225.022 59.7358H139.36C128.875 59.7358 120.376 68.2352 120.376 78.7197V164.382C120.376 174.867 128.875 183.366 139.36 183.366H225.022C235.507 183.366 244.006 174.867 244.006 164.382V78.7197C244.006 68.2352 235.507 59.7358 225.022 59.7358Z" fill="#612A7A"/>
<path d="M218.586 66.5522H132.924C122.938 66.5522 114.844 74.6469 114.844 84.6321V170.295C114.844 180.28 122.938 188.375 132.924 188.375H218.586C228.571 188.375 236.666 180.28 236.666 170.295V84.6321C236.666 74.6469 228.571 66.5522 218.586 66.5522Z" fill="white"/>
<path d="M218.586 189.278H132.923C122.455 189.278 113.939 180.763 113.939 170.295V84.6321C113.939 74.1638 122.455 65.6482 132.923 65.6482H218.586C229.054 65.6482 237.57 74.1638 237.57 84.6321V170.295C237.57 180.763 229.054 189.278 218.586 189.278ZM132.923 67.4562C123.449 67.4562 115.747 75.1582 115.747 84.6321V170.295C115.747 179.768 123.449 187.47 132.923 187.47H218.586C228.06 187.47 235.762 179.768 235.762 170.295V84.6321C235.762 75.1582 228.06 67.4562 218.586 67.4562H132.923Z" fill="#612A7A"/>
<path d="M114.843 97.4869H92.6411V67.4562H15.0602C14.554 67.4562 14.1562 67.0584 14.1562 66.5522C14.1562 66.046 14.554 65.6482 15.0602 65.6482H94.449V95.6789H114.843C115.349 95.6789 115.747 96.0766 115.747 96.5829C115.747 97.0891 115.349 97.4869 114.843 97.4869Z" fill="#612A7A"/>
<path d="M259.537 168.071H237.335C236.828 168.071 236.431 167.673 236.431 167.167C236.431 166.66 236.828 166.263 237.335 166.263H257.729V136.232H337.099C337.606 136.232 338.003 136.63 338.003 137.136C338.003 137.642 337.606 138.04 337.099 138.04H259.537V168.071Z" fill="#612A7A"/>
<path d="M131.025 45.8867L125.077 47.9659L122.799 54.1131L120.647 48.0925L114.572 45.8867L120.719 43.6087L122.799 37.6604L125.022 43.7352L131.025 45.8867Z" fill="#612A7A"/>
<path d="M289.748 176.17L283.8 178.25L281.522 184.397L279.388 178.394L273.313 176.17L279.443 173.892L281.522 167.944L283.746 174.019L289.748 176.17Z" fill="#612A7A"/>
<path d="M273.151 29.4521L261.363 33.5743L256.843 45.7602L252.576 33.8455L240.517 29.4521L252.702 24.9321L256.843 13.144L261.236 25.1852L273.151 29.4521Z" fill="#612A7A"/>
<path d="M153.968 141.782L148.797 159.356H136.647L156.517 95.6606H171.415L191.158 159.356H178.629L173.223 141.782H153.986H153.968ZM171.433 133.249L166.823 117.881C165.666 113.867 164.599 109.076 163.659 105.153H163.424C162.502 109.112 161.471 114.03 160.386 117.863L155.812 133.249H171.469H171.433Z" fill="#612A7A"/>
<path d="M211.769 100.741C211.806 104.213 209.148 106.87 205.008 106.87C201.175 106.87 198.517 104.213 198.553 100.741C198.535 97.1794 201.283 94.5759 205.17 94.5759C209.058 94.5759 211.751 97.1614 211.788 100.741H211.769ZM199.204 159.374V113.361H211.173V159.374H199.204Z" fill="#612A7A"/>
<path d="M7.84667 74.3987C12.1803 74.3987 15.6933 70.8856 15.6933 66.552C15.6933 62.2184 12.1803 58.7053 7.84667 58.7053C3.51307 58.7053 0 62.2184 0 66.552C0 70.8856 3.51307 74.3987 7.84667 74.3987Z" fill="#612A7A"/>
<path d="M344.946 144.205C349.28 144.205 352.793 140.692 352.793 136.359C352.793 132.025 349.28 128.512 344.946 128.512C340.613 128.512 337.1 132.025 337.1 136.359C337.1 140.692 340.613 144.205 344.946 144.205Z" fill="#612A7A"/>
<path d="M57.2774 159.935C54.4569 159.899 52.2693 158.976 50.4974 157.114C50.3709 156.988 50.2624 156.933 50.0635 156.97C47.2431 157.44 44.7119 156.789 42.5242 154.927C40.7705 153.426 39.758 151.509 39.4506 149.213C39.2879 147.966 39.3783 146.718 39.758 145.525C39.8122 145.344 39.7941 145.236 39.6676 145.091C38.4743 143.699 37.7692 142.09 37.5703 140.264C37.1545 136.467 39.0529 132.905 42.4519 131.17C43.0666 130.844 43.7717 130.663 44.4226 130.446C44.5853 130.392 44.6938 130.32 44.7661 130.139C45.9955 126.903 48.3279 124.878 51.7269 124.281C54.8547 123.721 57.5848 124.643 59.8086 126.921C59.9532 127.065 60.0798 127.12 60.2787 127.065C65.1783 126.161 69.9152 129.452 70.8012 134.352C71.0543 135.762 70.9819 137.154 70.5661 138.51C70.5119 138.691 70.53 138.799 70.6565 138.944C72.2656 140.86 72.9707 143.066 72.7899 145.561C72.5187 149.376 69.6621 152.703 65.9377 153.589C65.7207 153.643 65.6122 153.715 65.5399 153.932C64.3105 157.078 62.0505 159.031 58.7238 159.736C58.1633 159.844 57.5848 159.88 57.2593 159.917L57.2774 159.935ZM49.6658 143.319V142.994C49.6658 139.794 49.6658 136.575 49.6658 133.375C49.6658 132.833 49.8827 132.453 50.3528 132.2C52.432 131.007 54.4931 129.814 56.5723 128.62C56.8977 128.421 57.2412 128.241 57.5667 128.042C57.5486 128.006 57.5486 127.987 57.5305 127.969C57.4944 127.951 57.4763 127.915 57.4401 127.897C55.8672 126.704 54.0953 126.252 52.1427 126.577C48.9968 127.12 46.6283 129.886 46.6103 133.086C46.6103 135.834 46.6103 138.582 46.6103 141.33C46.6103 141.493 46.6464 141.565 46.7911 141.656C47.2069 141.891 47.6227 142.126 48.0205 142.361C48.5629 142.668 49.1053 142.976 49.6838 143.319H49.6658ZM53.5168 147.441C53.5168 147.441 53.3902 147.351 53.336 147.333C50.5155 145.706 47.7131 144.079 44.8927 142.451C44.4588 142.198 44.2418 141.855 44.2418 141.349C44.2418 138.637 44.2418 135.925 44.2418 133.213V132.923C44.1152 132.959 44.0429 132.996 43.9706 133.032C41.2225 134.153 39.541 137.027 39.9026 139.993C40.1738 142.162 41.2586 143.862 43.1389 144.965C45.5074 146.375 47.8939 147.731 50.2805 149.105C50.407 149.177 50.5155 149.177 50.6421 149.105C51.2387 148.743 51.8534 148.4 52.4501 148.056C52.7936 147.857 53.1371 147.658 53.5168 147.441ZM66.0823 151.112C66.1908 151.076 66.2812 151.039 66.3535 151.021C69.0836 149.9 70.7831 147.026 70.4215 144.115C70.1503 141.891 69.0474 140.173 67.1129 139.034C64.7625 137.66 62.4121 136.304 60.0617 134.948C59.9171 134.858 59.8086 134.876 59.6639 134.948C58.7961 135.454 57.9102 135.961 57.0243 136.467C56.952 136.503 56.8977 136.557 56.8073 136.612C56.8616 136.648 56.8796 136.666 56.9158 136.684C59.7543 138.329 62.5748 139.956 65.4133 141.584C65.8653 141.837 66.0642 142.216 66.0642 142.723C66.0642 145.163 66.0642 147.604 66.0642 150.045V151.112H66.0823ZM51.311 137.877C51.4014 137.823 51.4738 137.787 51.5642 137.733C54.3123 136.142 57.0604 134.569 59.7905 132.978C60.351 132.652 60.8391 132.652 61.3815 132.978C63.6777 134.315 65.9919 135.653 68.288 136.973C68.3604 137.009 68.4146 137.046 68.4869 137.082C68.6135 136.395 68.6316 135.762 68.5412 135.111C68.3061 133.448 67.5648 132.074 66.3354 130.935C64.3466 129.127 61.1284 128.693 58.7961 130.012C56.3372 131.387 53.8965 132.833 51.4557 134.225C51.311 134.315 51.293 134.406 51.293 134.55C51.293 135.581 51.293 136.594 51.293 137.624C51.293 137.696 51.293 137.769 51.293 137.859L51.311 137.877ZM59.0311 146.158C58.9227 146.212 58.8503 146.266 58.778 146.302C56.0118 147.893 53.2456 149.484 50.4794 151.094C49.9731 151.383 49.5211 151.383 49.033 151.094C47.1527 149.991 45.2543 148.906 43.374 147.821C42.8677 147.532 42.3615 147.243 41.7829 146.899C41.7829 147.532 41.7468 148.092 41.7829 148.635C41.9276 150.497 42.7412 152.052 44.1876 153.227C46.4114 155.053 49.3403 155.27 51.8353 153.842C52.7755 153.299 53.7157 152.757 54.6558 152.215C56.048 151.419 57.4401 150.605 58.8323 149.792C58.9227 149.738 59.0311 149.629 59.0311 149.539C59.0311 148.418 59.0311 147.297 59.0311 146.122V146.158ZM60.6764 140.734C60.6764 140.86 60.6764 140.951 60.6764 141.023C60.6764 144.241 60.6764 147.441 60.6764 150.66C60.6764 151.202 60.4595 151.582 59.9894 151.871C57.6571 153.209 55.3248 154.565 52.9925 155.903C52.9201 155.939 52.8478 155.993 52.7755 156.029C52.8117 156.066 52.8117 156.084 52.8297 156.102C52.8659 156.12 52.884 156.156 52.9201 156.174C54.6016 157.44 56.4638 157.874 58.5068 157.44C61.4177 156.807 63.6415 154.294 63.7319 151.256C63.8223 148.4 63.75 145.543 63.7319 142.668C63.7319 142.596 63.6596 142.469 63.5873 142.433C63.3161 142.253 63.0268 142.108 62.7556 141.945C62.0686 141.547 61.3996 141.168 60.6764 140.752V140.734ZM59.0311 142.017C59.0311 141.33 59.0311 140.643 59.0311 139.974C59.0311 139.848 58.995 139.758 58.8684 139.685C57.6752 138.998 56.5 138.311 55.3067 137.642C55.2344 137.606 55.0897 137.588 55.0174 137.642C53.8241 138.311 52.6489 139.016 51.4557 139.685C51.3291 139.758 51.293 139.848 51.293 139.993C51.293 141.349 51.293 142.705 51.293 144.061C51.293 144.205 51.3291 144.296 51.4557 144.368C52.6309 145.037 53.8241 145.724 54.9993 146.411C55.1078 146.483 55.1982 146.483 55.3248 146.411C56.4819 145.724 57.6571 145.055 58.8323 144.386C58.995 144.296 59.0492 144.205 59.0492 144.024C59.0492 143.355 59.0492 142.686 59.0492 142.017H59.0311Z" fill="#612A7A"/>
<path d="M112.384 143.157C120.463 143.157 127.011 136.608 127.011 128.53C127.011 120.452 120.463 113.903 112.384 113.903C104.306 113.903 97.7578 120.452 97.7578 128.53C97.7578 136.608 104.306 143.157 112.384 143.157Z" fill="#8DC63F"/>
<path d="M121.135 128.53L114.807 130.736L112.384 137.281L110.106 130.88L103.634 128.53L110.179 126.107L112.384 119.779L114.753 126.252L121.135 128.53Z" fill="white"/>
<path d="M174.635 174.473L103.544 197.49C100.684 198.416 99.1167 201.484 100.042 204.344L115.909 253.349C116.834 256.208 119.903 257.776 122.762 256.85L193.853 233.833C196.713 232.908 198.28 229.839 197.354 226.98L181.488 177.975C180.563 175.115 177.494 173.548 174.635 174.473Z" fill="white"/>
<path d="M121.098 258C118.423 258 115.909 256.283 115.042 253.607L99.1856 204.628C98.6613 203.019 98.8059 201.302 99.5653 199.783C100.325 198.264 101.644 197.143 103.272 196.637L174.344 173.621C177.67 172.536 181.268 174.381 182.353 177.707L198.209 226.686C199.294 230.012 197.45 233.61 194.123 234.677L123.051 257.693C122.4 257.91 121.749 258 121.098 258ZM176.296 175.104C175.826 175.104 175.356 175.176 174.904 175.321L103.832 198.336C102.675 198.716 101.735 199.512 101.192 200.596C100.65 201.681 100.542 202.911 100.921 204.068L116.777 253.046C117.555 255.433 120.122 256.735 122.509 255.975L193.581 232.959C195.967 232.182 197.269 229.615 196.51 227.228L180.654 178.25C180.039 176.333 178.249 175.104 176.332 175.104H176.296Z" fill="#612A7A"/>
<path d="M124.516 216.344C128.92 216.344 132.489 212.774 132.489 208.371C132.489 203.967 128.92 200.397 124.516 200.397C120.113 200.397 116.543 203.967 116.543 208.371C116.543 212.774 120.113 216.344 124.516 216.344Z" fill="#8DC63F"/>
<path d="M117.7 239.107L121.19 249.882L190.815 227.337C190.815 227.337 183.529 214.428 172.41 216.344C161.291 218.26 158.705 225.818 158.705 225.818L140.119 215.06L117.7 239.107Z" fill="#8DC63F"/>
<path d="M191.068 54.8904C190.381 53.7514 189.767 52.7389 189.17 51.7264C183.348 42.0175 177.509 32.3267 171.687 22.6178C171.542 22.3828 171.416 22.0935 171.361 21.8223C171.054 19.8335 172.03 18.9295 173.983 19.4177C174.489 19.5442 174.977 19.7793 175.447 20.0143C176.713 20.6471 177.961 21.3161 179.244 21.9127C180.763 22.6359 182.354 22.9794 184.053 23.0156C188.555 23.1241 192.822 24.3354 196.944 26.0168C200.723 27.5536 203.254 30.356 204.556 34.2251C205.677 37.5518 206.093 40.9508 205.442 44.4222C205.334 45.0007 205.117 45.5793 204.827 46.1036C204.267 47.098 203.272 47.333 202.296 46.7545C201.573 46.3386 201.175 45.8324 201.211 44.8561C201.374 40.8423 198.716 36.0693 194.232 34.5144C190.689 33.285 187.037 32.9776 183.312 33.068C183.276 33.068 183.24 33.1042 183.131 33.1584C183.258 33.3573 183.366 33.5381 183.475 33.737C188.049 41.3486 192.623 48.9602 197.179 56.5899C198.192 58.2894 198.987 60.1155 199.476 62.0501C200.615 66.6243 199.313 70.4391 195.932 73.6212C193.925 75.5015 191.557 76.6586 188.808 77.0202C183.656 77.7072 179.534 74.8868 178.431 69.8063C177.436 65.1779 178.919 61.3088 182.426 58.199C184.017 56.7888 185.843 55.7402 187.868 55.0351C188.863 54.6915 189.875 54.5288 191.05 54.8904H191.068Z" fill="#8DC63F"/>
<path d="M237.263 217.393C237.028 217.393 236.793 217.302 236.63 217.121L230.049 210.54V192.587H248.002L254.583 199.168C254.945 199.53 254.945 200.09 254.583 200.452C254.222 200.813 253.661 200.813 253.3 200.452L247.243 194.395H231.857V209.781L237.914 215.838C238.275 216.199 238.275 216.76 237.914 217.121C237.733 217.302 237.498 217.393 237.281 217.393H237.263Z" fill="#D1EDF8"/>
<path d="M237.262 200.723C237.027 200.723 236.792 200.632 236.629 200.452L230.301 194.142C229.94 193.78 229.94 193.22 230.301 192.858C230.663 192.497 231.224 192.497 231.585 192.858L237.913 199.168C238.275 199.53 238.275 200.09 237.913 200.452C237.732 200.632 237.497 200.723 237.28 200.723H237.262Z" fill="#D1EDF8"/>
<path d="M254.347 199.403H237.804C237.305 199.403 236.9 199.808 236.9 200.307V216.85C236.9 217.349 237.305 217.754 237.804 217.754H254.347C254.847 217.754 255.251 217.349 255.251 216.85V200.307C255.251 199.808 254.847 199.403 254.347 199.403Z" fill="#D1EDF8"/>
<path d="M241.186 233.448L241.132 232.164L241.258 230.88C241.945 230.952 242.469 231.531 242.433 232.218C242.397 232.905 241.855 233.448 241.168 233.448H241.186ZM256.735 233.194L256.536 231.929L256.445 230.645C257.132 230.591 257.783 231.079 257.855 231.784C257.928 232.489 257.422 233.122 256.716 233.194H256.735ZM225.944 231.133C225.818 231.133 225.691 231.133 225.583 231.079C224.914 230.88 224.516 230.193 224.679 229.524C224.86 228.855 225.492 228.439 226.18 228.584C226.216 228.584 226.288 228.602 226.324 228.62C226.993 228.819 227.391 229.542 227.174 230.211C227.011 230.772 226.505 231.115 225.944 231.115V231.133ZM271.632 229.904C271.09 229.904 270.584 229.578 270.403 229.036C270.186 228.367 270.511 227.644 271.198 227.427H271.253C271.922 227.174 272.645 227.553 272.88 228.222C273.097 228.891 272.735 229.615 272.066 229.85C271.922 229.904 271.795 229.922 271.65 229.922L271.632 229.904ZM211.227 226.523C211.047 226.523 210.884 226.487 210.703 226.414C210.052 226.125 209.745 225.366 210.034 224.715C210.323 224.064 211.047 223.775 211.698 224.046H211.752C212.403 224.353 212.692 225.113 212.403 225.764C212.186 226.234 211.716 226.523 211.227 226.523ZM286.277 223.015L285.463 222.021L284.795 220.936C285.373 220.575 286.169 220.719 286.548 221.28C286.946 221.84 286.838 222.6 286.277 223.015ZM298.391 213.108L297.378 212.312L296.474 211.408C296.962 210.92 297.758 210.884 298.264 211.354C298.77 211.824 298.824 212.601 298.391 213.108ZM306.96 201.518C306.707 201.518 306.472 201.446 306.255 201.301C305.695 200.922 305.514 200.162 305.876 199.584C305.894 199.548 305.948 199.475 305.966 199.457C306.382 198.897 307.195 198.77 307.756 199.204C308.316 199.638 308.443 200.434 308.009 200.994C307.756 201.338 307.358 201.518 306.96 201.518ZM58.0004 191.99C58.0004 191.99 57.91 191.99 57.8558 191.99C57.1506 191.918 56.6263 191.285 56.6986 190.58C56.771 189.875 57.3857 189.351 58.0727 189.441C58.0727 189.441 58.127 189.441 58.145 189.441C58.8501 189.513 59.3564 190.146 59.2841 190.851C59.2117 191.502 58.6513 191.99 58.0185 191.99H58.0004ZM314.301 187.977C314.12 187.977 313.939 187.94 313.777 187.85C313.144 187.561 312.854 186.838 313.144 186.187C313.144 186.187 313.18 186.114 313.198 186.096C313.505 185.464 314.283 185.21 314.916 185.518C315.548 185.825 315.802 186.603 315.494 187.235C315.277 187.687 314.807 187.959 314.319 187.959L314.301 187.977ZM43.2291 187.742C42.9941 187.742 42.759 187.669 42.5421 187.543C41.8912 187.253 41.6562 186.53 41.9455 185.879C42.2347 185.228 43.0483 184.975 43.6992 185.265C43.7534 185.283 43.8438 185.337 43.8981 185.373C44.4947 185.753 44.6755 186.53 44.2958 187.145C44.0608 187.525 43.6269 187.742 43.211 187.742H43.2291ZM31.423 178.015C31.0614 178.015 30.7178 177.87 30.4647 177.581L31.4049 176.713L32.4354 175.953C32.8513 176.496 32.7609 177.309 32.2366 177.743C32.0015 177.942 31.7122 178.033 31.423 178.033V178.015ZM321.117 172.681L319.869 172.356L318.658 171.94C318.875 171.271 319.58 170.891 320.267 171.09C320.936 171.307 321.316 171.994 321.117 172.681ZM24.7876 164.22C24.191 164.22 23.6486 163.804 23.5401 163.189C23.3232 162.52 23.6848 161.851 24.3718 161.616C25.0408 161.399 25.782 161.815 25.999 162.484C25.999 162.538 26.0532 162.629 26.0532 162.683C26.1979 163.37 25.7459 164.057 25.0408 164.183C24.9504 164.183 24.878 164.202 24.7876 164.202V164.22ZM324.968 157.476L323.684 157.385L322.437 157.132C322.563 156.463 323.196 155.993 323.883 156.084C324.57 156.192 325.04 156.789 324.968 157.476ZM22.7446 149.051C22.0937 149.051 21.5333 148.526 21.4609 147.857C21.4609 147.803 21.4609 147.713 21.4609 147.658C21.4609 146.953 22.0395 146.375 22.7446 146.375C23.4497 146.375 24.0283 146.953 24.0283 147.658C24.1006 148.364 23.5944 148.96 22.8892 149.033C22.8531 149.033 22.7988 149.033 22.7627 149.033L22.7446 149.051ZM325.529 142.108L324.245 141.981C324.317 141.294 324.878 140.824 325.583 140.806C326.27 140.842 326.812 141.385 326.812 142.072L325.529 142.126V142.108ZM23.6667 133.61C23.5763 133.61 23.4859 133.61 23.3955 133.574C22.7084 133.43 22.2745 132.743 22.4192 132.056C22.4915 131.35 23.1424 130.88 23.8113 130.953C24.5164 131.025 25.0227 131.694 24.9504 132.399C24.9504 132.453 24.9323 132.544 24.9142 132.598C24.7876 133.195 24.2452 133.61 23.6667 133.61ZM325.312 127.933C324.661 127.933 324.1 127.463 324.046 126.812C324.046 126.776 324.046 126.668 324.046 126.632C324.046 125.926 324.625 125.348 325.33 125.348C326.035 125.348 326.613 125.926 326.613 126.632C326.613 127.337 326.071 127.897 325.402 127.933C325.384 127.933 325.348 127.933 325.33 127.933H325.312ZM26.5052 118.459C26.3787 118.459 26.2521 118.459 26.1436 118.405C25.4747 118.206 25.0769 117.483 25.2939 116.814C25.4928 116.163 26.1798 115.729 26.8487 115.91C27.5177 116.091 27.9335 116.724 27.7889 117.411C27.7889 117.447 27.7708 117.519 27.7527 117.555C27.59 118.116 27.0838 118.459 26.5233 118.459H26.5052ZM322.979 112.71C322.401 112.71 321.876 112.33 321.75 111.734V111.661C321.605 110.974 322.057 110.287 322.762 110.161C323.449 110.034 324.136 110.468 324.263 111.173C324.408 111.86 323.956 112.565 323.269 112.71C323.178 112.728 323.088 112.746 322.997 112.746L322.979 112.71ZM30.8082 103.652C30.6274 103.652 30.4647 103.616 30.2839 103.544C29.633 103.254 29.3438 102.495 29.633 101.844C29.9042 101.229 30.6455 100.904 31.2783 101.139C31.9111 101.392 32.2546 102.061 32.0377 102.712C32.0377 102.748 32.0015 102.838 31.9834 102.875C31.7665 103.345 31.2964 103.634 30.8082 103.634V103.652ZM317.483 97.0529C317.266 96.402 317.591 95.6788 318.224 95.4257C318.875 95.1726 319.58 95.4438 319.851 96.0766L318.694 96.637L317.483 97.0348V97.0529ZM36.7023 89.4051C36.4672 89.4051 36.2322 89.3328 36.0152 89.2062C35.4186 88.8265 35.2378 88.0491 35.6175 87.4344C35.9068 86.7835 36.63 86.5484 37.2808 86.8377C37.9317 87.127 38.1848 87.9406 37.8956 88.5915C37.8775 88.6457 37.8232 88.7361 37.7871 88.7904C37.552 89.17 37.1181 89.387 36.7023 89.387V89.4051ZM312.565 83.8003C312.077 83.8003 311.607 83.511 311.39 83.041C311.01 82.4443 311.227 81.703 311.824 81.3414C312.421 80.9799 313.252 81.2149 313.614 81.8115C313.65 81.8658 313.704 81.9562 313.722 82.0104C314.012 82.6613 313.722 83.4206 313.071 83.7099C312.909 83.7822 312.728 83.8184 312.547 83.8184L312.565 83.8003ZM44.115 75.8632C43.8981 75.8632 43.6811 75.809 43.4822 75.7005C42.8856 75.357 42.6686 74.5976 42.9941 73.9829L44.1331 74.5615L45.2179 75.2485C44.9829 75.6463 44.549 75.8632 44.097 75.8632H44.115ZM304.809 69.1918L303.724 69.8607C303.363 69.2822 303.507 68.5047 304.068 68.107C304.628 67.7092 305.388 67.8177 305.803 68.3782L304.809 69.1918ZM52.9742 63.2435C52.6849 63.2435 52.3775 63.135 52.1425 62.9361C51.6001 62.4841 51.5459 61.6705 51.9979 61.1281C52.4499 60.6038 53.2454 60.5134 53.7878 60.9473C54.3302 61.3812 54.4386 62.1406 54.0228 62.7011C54.0228 62.7192 53.9505 62.7915 53.9324 62.8096C53.6793 63.0988 53.3177 63.2616 52.9561 63.2616L52.9742 63.2435ZM294.648 57.6568L295.624 56.8251L294.63 57.6387C294.16 57.1144 294.214 56.3008 294.757 55.8307C295.281 55.3606 296.094 55.4149 296.565 55.9573L294.666 57.6749L294.648 57.6568ZM63.1351 51.6362C62.8277 51.6362 62.5204 51.5277 62.2672 51.3107C61.761 50.8407 61.7068 50.0632 62.1407 49.557L63.1532 50.3525L64.0572 51.2565C63.804 51.5096 63.4605 51.6362 63.1351 51.6362ZM284.27 46.3749C283.782 45.8868 283.746 45.0913 284.216 44.585C284.686 44.0788 285.463 44.0246 285.97 44.4585L285.174 45.4709L284.27 46.3749ZM74.4712 41.2041C74.1096 41.2041 73.7661 41.0595 73.5129 40.7702C73.0429 40.2459 73.0971 39.4323 73.6395 38.9622L74.5254 39.8843L75.339 40.8787C75.104 41.0956 74.7966 41.2041 74.4893 41.2041H74.4712ZM273.639 36.4852C273.386 36.4852 273.115 36.4129 272.898 36.2321C272.88 36.2321 272.808 36.1598 272.789 36.1417C272.247 35.6897 272.193 34.8761 272.645 34.3337C273.115 33.7913 273.91 33.7371 274.453 34.1891C274.977 34.6411 275.068 35.4366 274.634 35.979C274.38 36.3044 274.001 36.4672 273.639 36.4672V36.4852ZM86.8559 31.9653C86.4401 31.9653 86.0423 31.7664 85.8073 31.4229C85.4095 30.8624 85.518 30.103 86.0785 29.6872L86.8921 30.6816L87.561 31.7664C87.344 31.911 87.109 31.9653 86.8559 31.9653ZM261.182 27.373C260.965 27.373 260.73 27.3187 260.513 27.1741C260.477 27.156 260.405 27.1018 260.387 27.0837C259.826 26.6498 259.7 25.8543 260.134 25.2938C260.567 24.7333 261.363 24.6068 261.923 25.0407C262.466 25.4565 262.629 26.2339 262.231 26.8125C261.978 27.1741 261.58 27.373 261.182 27.373ZM100.054 24.0463C99.5841 24.0463 99.1321 23.7932 98.9152 23.3412C98.6078 22.7084 98.8609 21.9309 99.4937 21.6236C100.108 21.3162 100.904 21.5513 101.229 22.166C101.555 22.7807 101.356 23.54 100.741 23.8655C100.741 23.8655 100.669 23.9016 100.651 23.9197C100.47 24.0101 100.271 24.0644 100.072 24.0644L100.054 24.0463ZM247.315 19.3274L247.93 18.2065L247.297 19.3274C246.682 19.002 246.447 18.2246 246.754 17.6098C247.08 16.9951 247.821 16.742 248.454 17.0494L247.93 18.2246L247.315 19.3455V19.3274ZM113.958 17.3929C113.415 17.3929 112.927 17.0494 112.746 16.507C112.529 15.838 112.891 15.1148 113.56 14.8798C114.211 14.6628 114.934 14.9883 115.187 15.6211C115.44 16.2538 115.169 16.977 114.536 17.2482C114.5 17.2482 114.41 17.3025 114.373 17.3206C114.247 17.3748 114.102 17.3929 113.976 17.3929H113.958ZM233.448 12.8187C232.815 12.5475 232.507 11.8243 232.742 11.1734C232.978 10.5225 233.665 10.1971 234.334 10.414L233.972 11.6435L233.448 12.8187ZM128.403 12.0051C127.861 12.0051 127.337 11.6435 127.174 11.1011C126.975 10.414 127.355 9.70893 128.024 9.51005C128.693 9.31117 129.434 9.67277 129.633 10.3417C129.85 11.0107 129.506 11.7158 128.837 11.9328C128.837 11.9328 128.765 11.9508 128.747 11.9689C128.62 12.0051 128.494 12.0232 128.385 12.0232L128.403 12.0051ZM219.436 7.81054C219.309 7.81054 219.165 7.79246 219.038 7.73822L219.436 6.52687L219.02 7.73822C218.333 7.59358 217.935 6.9427 218.062 6.23759C218.206 5.55055 218.929 5.11664 219.617 5.24319C219.671 5.24319 219.761 5.27935 219.815 5.29743C220.484 5.51439 220.846 6.23759 220.629 6.92462C220.448 7.46702 219.942 7.81054 219.418 7.81054H219.436ZM143.283 7.81054C142.705 7.81054 142.18 7.43086 142.036 6.8523C141.855 6.18335 142.235 5.49631 142.885 5.29743L143.301 6.50879L143.573 7.7563C143.482 7.77438 143.374 7.79246 143.283 7.79246V7.81054ZM158.362 4.75504C157.711 4.75504 157.169 4.26688 157.096 3.616C157.024 2.91089 157.53 2.27809 158.235 2.20577C158.922 2.15153 159.555 2.60353 159.664 3.27249C159.772 3.95952 159.338 4.59232 158.669 4.71888C158.633 4.71888 158.543 4.73696 158.506 4.73696C158.452 4.73696 158.416 4.73696 158.362 4.73696V4.75504ZM204.429 3.00129L204.176 4.2488C203.507 4.12224 203.037 3.47137 203.128 2.80241C203.236 2.11537 203.833 1.6453 204.52 1.71762L204.429 3.00129ZM173.639 2.76625C172.934 2.76625 172.356 2.18769 172.356 1.48258C172.356 0.777462 172.934 0.198906 173.639 0.198906C174.344 0.198906 174.905 0.741302 174.941 1.41026C174.977 2.09729 174.489 2.67585 173.82 2.74817C173.784 2.74817 173.676 2.74817 173.639 2.74817V2.76625ZM188.971 2.53121C188.284 2.45889 187.76 1.88034 187.796 1.1933C187.832 0.506264 188.374 -0.0361328 189.061 -0.0361328L189.116 1.24754L188.989 2.53121H188.971Z" fill="#612A7A"/>
<path d="M279.75 78.3945C279.569 78.6657 279.388 78.9008 279.226 79.172C278.918 79.6782 278.792 80.2387 278.629 80.7811C277.87 83.3303 277.128 85.8796 276.369 88.4469C275.556 91.2674 274.76 94.0879 273.928 96.8903C273.531 98.2462 272.59 99.0237 271.216 99.2768C271.072 99.2949 270.945 99.313 270.801 99.313C269.282 99.313 267.745 99.313 266.226 99.313C265.575 99.313 264.943 99.2045 264.346 98.9333C263.406 98.4994 262.882 97.74 262.628 96.7637C262.411 95.9501 262.411 95.1184 262.466 94.2868C262.61 92.3703 263.117 90.5081 263.641 88.682C264.039 87.3079 264.454 85.9338 264.961 84.5959C265.413 83.4207 265.937 82.2817 266.624 81.215C267.148 80.4014 267.745 79.6782 268.541 79.1177C269.209 78.6476 269.951 78.4126 270.782 78.4126C273.729 78.4126 276.658 78.4126 279.605 78.4126C279.66 78.4126 279.714 78.4126 279.75 78.4126V78.3945Z" fill="#612A7A"/>
<path d="M277.038 109.076C277.707 108.389 277.942 107.539 278.195 106.69C278.972 104.05 279.75 101.41 280.527 98.7706C281.323 96.0406 282.082 93.3105 282.895 90.5804C283.293 89.2244 284.233 88.447 285.607 88.1939C285.752 88.1758 285.879 88.1577 286.023 88.1577C287.56 88.1577 289.079 88.1577 290.616 88.1577C291.266 88.1577 291.881 88.2662 292.478 88.5374C293.436 88.9713 293.96 89.7487 294.213 90.7251C294.43 91.5387 294.43 92.3523 294.376 93.1839C294.232 95.1185 293.725 96.9807 293.183 98.8249C292.785 100.181 292.387 101.519 291.881 102.821C291.429 104.014 290.905 105.189 290.2 106.274C289.694 107.069 289.097 107.792 288.319 108.353C287.632 108.841 286.873 109.094 286.023 109.094C283.094 109.094 280.147 109.094 277.218 109.094H277.02L277.038 109.076Z" fill="#612A7A"/>
<path d="M277.779 88.6096C277.906 88.1938 278.014 87.796 278.123 87.4164C278.81 85.0841 279.497 82.7518 280.184 80.4194C280.582 79.0815 281.902 78.2499 283.294 78.4126C284.469 78.5572 285.355 79.1358 285.969 80.1302C286.223 80.5641 286.331 81.0342 286.476 81.5042C286.747 82.4263 287 83.3665 287.289 84.2885C287.723 85.6265 288.627 86.4401 290.019 86.7112C290.056 86.7112 290.074 86.7112 290.11 86.7112C290.128 86.7112 290.164 86.7112 290.182 86.7474C290.11 86.7474 290.056 86.7474 289.983 86.7474C286.964 86.7474 283.963 86.7474 280.943 86.7474C279.587 86.7474 278.575 87.344 277.87 88.4831C277.87 88.5012 277.852 88.5192 277.834 88.5373C277.834 88.5373 277.834 88.5373 277.779 88.5735V88.6096Z" fill="#612A7A"/>
<path d="M266.643 100.723C266.643 100.723 266.787 100.723 266.86 100.723C269.861 100.723 272.88 100.723 275.881 100.723C277.219 100.723 278.25 100.127 278.955 98.9876C278.973 98.9515 278.991 98.9334 279.045 98.8972C278.973 99.1503 278.901 99.4215 278.828 99.6747C278.105 102.134 277.382 104.592 276.659 107.051C276.261 108.389 274.941 109.239 273.549 109.058C271.994 108.841 270.982 107.991 270.512 106.491C270.259 105.641 270.024 104.791 269.77 103.942C269.626 103.49 269.517 103.019 269.3 102.604C268.794 101.555 267.944 100.94 266.787 100.741C266.733 100.741 266.697 100.741 266.643 100.741C266.643 100.741 266.643 100.741 266.643 100.723Z" fill="#612A7A"/>
<path d="M154.891 230.229C154.511 230.229 154.149 229.994 154.023 229.596C153.878 229.126 154.131 228.62 154.601 228.457L162.99 225.745L162.846 208.66L156.03 211.209L155.397 218.188C155.361 218.694 154.873 219.038 154.421 219.002C153.914 218.947 153.553 218.513 153.607 218.025L154.348 209.907L164.654 206.056L164.816 227.047L155.18 230.175C155.09 230.211 154.999 230.211 154.909 230.211L154.891 230.229Z" fill="#612A7A"/>
<path d="M174.58 232.164C174.2 232.164 173.838 231.929 173.712 231.531L171.199 223.757L163.46 218.803C163.045 218.531 162.918 217.971 163.189 217.555C163.46 217.139 164.021 217.013 164.437 217.284L172.717 222.581L175.429 230.97C175.574 231.44 175.321 231.947 174.851 232.109C174.76 232.146 174.67 232.146 174.58 232.146V232.164Z" fill="#612A7A"/>
<path d="M170.891 212.782L163.641 207.991C163.225 207.72 163.117 207.159 163.388 206.744C163.659 206.328 164.22 206.201 164.636 206.49L171.162 210.793L177.762 208.66C178.25 208.515 178.756 208.769 178.901 209.239C179.045 209.709 178.792 210.215 178.322 210.378L170.891 212.782Z" fill="#612A7A"/>
<path d="M164.165 206.545C162.357 206.545 160.676 205.387 160.079 203.579C159.718 202.495 159.826 201.32 160.332 200.307C160.857 199.295 161.742 198.535 162.827 198.174C163.912 197.812 165.087 197.92 166.1 198.427C167.112 198.951 167.872 199.837 168.233 200.922C168.595 202.007 168.486 203.182 167.98 204.194C167.456 205.207 166.57 205.966 165.485 206.328C165.051 206.472 164.599 206.545 164.165 206.545ZM164.165 199.783C163.912 199.783 163.659 199.819 163.406 199.909C162.773 200.108 162.267 200.542 161.959 201.139C161.652 201.735 161.598 202.404 161.815 203.037C162.231 204.339 163.641 205.044 164.943 204.628C166.244 204.212 166.968 202.802 166.534 201.5C166.19 200.452 165.214 199.783 164.165 199.783Z" fill="#612A7A"/>
<path d="M144.766 217.808C144.386 217.808 144.025 217.573 143.898 217.176C143.753 216.706 144.007 216.199 144.477 216.037L150.009 214.247C150.497 214.084 150.985 214.355 151.148 214.825C151.293 215.295 151.04 215.802 150.57 215.964L145.037 217.754C144.947 217.79 144.856 217.79 144.766 217.79V217.808Z" fill="#612A7A"/>
<path d="M142.035 223.449C141.656 223.449 141.294 223.214 141.168 222.816C141.023 222.346 141.276 221.84 141.746 221.677L151.401 218.55C151.889 218.405 152.377 218.658 152.54 219.128C152.684 219.598 152.431 220.105 151.961 220.267L142.307 223.395C142.216 223.431 142.126 223.431 142.035 223.431V223.449Z" fill="#612A7A"/>
<path d="M147.459 226.125C147.08 226.125 146.718 225.89 146.591 225.492C146.447 225.022 146.7 224.516 147.17 224.353L152.702 222.563C153.191 222.401 153.697 222.672 153.841 223.142C153.986 223.612 153.733 224.118 153.263 224.281L147.73 226.071C147.64 226.107 147.55 226.107 147.459 226.107V226.125Z" fill="#612A7A"/>
<path d="M93.5459 168.559C91.3583 168.559 89.5684 166.66 89.5684 164.31V158.163C89.5684 155.812 91.3402 153.914 93.5459 153.914C95.7336 153.914 97.5235 155.812 97.5235 158.163V164.31C97.5235 166.66 95.7517 168.559 93.5459 168.559Z" fill="#D1EDF8"/>
<path d="M93.5455 171.578C89.8572 171.578 86.874 168.884 86.874 165.576C86.874 165.069 87.2718 164.672 87.778 164.672C88.2843 164.672 88.682 165.069 88.682 165.576C88.682 167.89 90.8697 169.77 93.5455 169.77C96.2213 169.77 98.409 167.89 98.409 165.576C98.409 165.069 98.8068 164.672 99.313 164.672C99.8192 164.672 100.217 165.069 100.217 165.576C100.217 168.884 97.2157 171.578 93.5455 171.578Z" fill="#D1EDF8"/>
<path d="M93.5456 176.17C93.0394 176.17 92.6416 175.773 92.6416 175.266V170.674C92.6416 170.168 93.0394 169.77 93.5456 169.77C94.0518 169.77 94.4496 170.168 94.4496 170.674V175.266C94.4496 175.773 94.0518 176.17 93.5456 176.17Z" fill="#D1EDF8"/>
</g>
<defs>
<clipPath id="clip0_369_40741">
<rect width="352.793" height="258" fill="white"/>
</clipPath>
</defs>
</svg>
