<svg width="334" height="259" viewBox="0 0 334 259" fill="none" xmlns="http://www.w3.org/2000/svg">
<path d="M127.922 94.4672L98.8105 0.710205" stroke="#613182" stroke-width="1.42" stroke-miterlimit="10" stroke-linecap="round" stroke-dasharray="0.3 8"/>
<path d="M312.44 72.0015L307.928 68.5566L313.17 66.3851L318.393 64.1948L317.663 69.83L316.951 75.4464L312.44 72.0015Z" fill="#613182"/>
<path d="M297.724 61.9661H57.5658C56.2733 61.9661 55.2256 63.0138 55.2256 64.3062V219.938C55.2256 221.23 56.2733 222.278 57.5658 222.278H297.724C299.017 222.278 300.064 221.23 300.064 219.938V64.3062C300.064 63.0138 299.017 61.9661 297.724 61.9661Z" fill="#613182"/>
<path d="M291.881 70.0161H63.3861C62.0936 70.0161 61.0459 71.0638 61.0459 72.3563V211.887C61.0459 213.18 62.0936 214.227 63.3861 214.227H291.881C293.173 214.227 294.221 213.18 294.221 211.887V72.3563C294.221 71.0638 293.173 70.0161 291.881 70.0161Z" fill="white"/>
<path d="M114.385 180.998V188.617H128.033C127.265 191.519 125.73 193.822 123.408 195.657C120.525 197.903 117.155 199.008 113.093 199.008C107.72 199.008 103.377 197.304 99.8007 193.766C96.2436 190.246 94.5213 186.24 94.5213 181.541C94.5213 178.564 95.3076 175.756 96.8802 173.21C98.4528 170.645 100.662 168.585 103.489 167.05C109.218 163.961 115.021 164.186 120.338 166.507C123.053 167.687 125.599 169.409 127.883 171.618L129.062 172.76L134.885 167.144L133.593 165.927C127.377 160.011 120.301 156.997 112.569 156.997C104.837 156.997 98.4527 159.468 93.66 164.336C88.8674 169.203 86.4336 175.044 86.4336 181.69C86.4336 188.337 88.8674 194.215 93.6788 199.139C98.5089 204.062 104.987 206.571 112.924 206.571C119.87 206.571 125.618 204.437 129.961 200.243C134.323 196.031 136.588 190.133 136.719 182.72L136.757 180.998H114.347H114.385Z" fill="#8DC63F"/>
<path d="M268.614 29.4858L263.241 31.358L261.181 36.9182L259.234 31.4887L253.749 29.4858L259.291 27.4263L261.181 22.0535L263.166 27.5387L268.614 29.4858Z" fill="#613182"/>
<path d="M333.129 185.003L327.775 186.876L325.716 192.436L323.769 187.007L318.283 185.003L323.825 182.944L325.716 177.571L327.7 183.057L333.129 185.003Z" fill="#613182"/>
<path d="M195.132 217.897H160.16V247.046H195.132V217.897Z" fill="#613182"/>
<path d="M177.645 258.71C200.992 258.71 219.918 254.142 219.918 248.507C219.918 242.872 200.992 238.304 177.645 238.304C154.298 238.304 135.372 242.872 135.372 248.507C135.372 254.142 154.298 258.71 177.645 258.71Z" fill="#613182"/>
<path d="M141.778 116.202L144.624 127.679L136.742 129.701L134.215 119.497L141.778 116.221M143.07 113.619L132.024 118.412L135.394 131.985L146.889 129.027L143.07 113.6V113.619Z" fill="#613182"/>
<path d="M158.179 109.089L161.698 123.298L149.698 126.369L146.665 114.088L158.179 109.089ZM159.47 106.487L144.475 113.002L148.35 128.653L163.964 124.646L159.47 106.487Z" fill="#613182"/>
<path d="M145.898 132.884L148.744 144.36L140.525 144.978L137.998 134.775L145.898 132.884ZM147.265 130.637L135.714 133.389L139.084 146.962L151.084 146.045L147.265 130.619V130.637Z" fill="#613182"/>
<path d="M163.045 128.784L166.565 142.993L154.04 143.948L151.008 131.667L163.045 128.784ZM164.412 126.537L148.724 130.281L152.599 145.933L168.905 144.697L164.412 126.537Z" fill="#613182"/>
<path d="M196.629 163.287L182.12 156.042C180.978 155.48 180.528 154.095 181.09 152.972L191.593 131.966C192.154 130.824 193.54 130.375 194.663 130.936L207.057 137.133C205.166 138.481 202.114 141.14 199.699 145.52C197.209 150.032 196.816 150.051 197.621 150.481C198.426 150.912 201.141 152.241 201.141 152.241C201.141 152.241 196.442 161.696 196.591 163.306L196.629 163.287Z" stroke="#8DC63F" stroke-miterlimit="10"/>
<path d="M218.44 145.371L207.937 166.377C207.375 167.5 205.99 167.968 204.867 167.406L196.648 163.288C196.498 161.678 201.197 152.224 201.197 152.224C201.197 152.224 198.483 150.894 197.678 150.463C196.873 150.033 197.266 150.014 199.756 145.502C202.171 141.122 205.222 138.463 207.113 137.115L217.429 142.282C218.571 142.844 219.02 144.229 218.459 145.352L218.44 145.371Z" stroke="#613182" stroke-miterlimit="10"/>
<path d="M209.153 146.457L207.955 148.872" stroke="#613182" stroke-miterlimit="10" stroke-linecap="round"/>
<path d="M197.284 140.522L196.067 142.918" stroke="#613182" stroke-miterlimit="10" stroke-linecap="round"/>
<path d="M190.487 149.021C190.487 149.021 191.18 153.683 196.647 156.435C202.113 159.168 206.438 156.996 206.438 156.996" stroke="#613182" stroke-miterlimit="10" stroke-linecap="round"/>
<path d="M148.196 61.7427V66.573L152.821 67.228C153.251 69.5869 154.168 71.7772 155.479 73.6868L152.671 77.431L156.078 80.8385L159.804 78.049C161.713 79.3595 163.885 80.2955 166.244 80.7448L166.899 85.3877H171.729L172.384 80.7635C174.743 80.3329 176.934 79.4157 178.843 78.1052L182.588 80.9134L185.995 77.506L183.205 73.7805C184.516 71.8709 185.452 69.6993 185.901 67.3404L190.544 66.685V61.8552L185.92 61.1997C185.489 58.8408 184.572 56.6505 183.261 54.7409L186.07 50.9966L182.662 47.5892L178.937 50.3787C177.027 49.0682 174.856 48.1322 172.497 47.6829L171.841 43.04H167.011L166.356 47.6642C163.997 48.0948 161.807 49.012 159.897 50.3225L156.153 47.5143L152.746 50.9217L155.535 54.6472C154.225 56.5568 153.288 58.7284 152.839 61.0873L148.196 61.7427ZM169.37 52.5132C175.829 52.5132 181.052 57.7552 181.052 64.1953C181.052 70.6355 175.81 75.8775 169.37 75.8775C162.93 75.8775 157.688 70.6355 157.688 64.1953C157.688 57.7552 162.93 52.5132 169.37 52.5132Z" fill="white" stroke="#613182" stroke-miterlimit="10" stroke-linecap="round"/>
<path d="M121.876 36.2059V39.2765L124.815 39.6883C125.096 41.186 125.676 42.59 126.5 43.8069L124.703 46.2033L126.875 48.3748L129.252 46.5964C130.469 47.4388 131.855 48.0382 133.352 48.319L133.783 51.2767H136.853L137.265 48.3373C138.763 48.0565 140.167 47.4763 141.384 46.6526L143.78 48.4498L145.952 46.2782L144.173 43.9006C145.016 42.6837 145.615 41.2984 145.896 39.8007L148.854 39.3702V36.2996L145.914 35.8878C145.634 34.3901 145.053 32.986 144.229 31.7691L146.027 29.3727L143.855 27.2012L141.477 28.9797C140.26 28.1372 138.875 27.5383 137.377 27.2574L136.947 24.2993H133.876L133.465 27.2387C131.967 27.5195 130.563 28.0997 129.346 28.9235L126.95 27.1263L124.778 29.2978L126.556 31.6754C125.714 32.8923 125.115 34.2776 124.834 35.7753L121.876 36.2059ZM135.374 30.3276C139.493 30.3276 142.825 33.6599 142.825 37.7786C142.825 41.8974 139.493 45.2297 135.374 45.2297C131.255 45.2297 127.923 41.8974 127.923 37.7786C127.923 33.6599 131.255 30.3276 135.374 30.3276Z" fill="#D1EDF8"/>
<path d="M209.154 105.138C229.171 105.138 245.398 88.9114 245.398 68.894C245.398 48.8767 229.171 32.6492 209.154 32.6492C189.136 32.6492 172.909 48.8767 172.909 68.894C172.909 88.9114 189.136 105.138 209.154 105.138Z" fill="#613182"/>
<path d="M191.593 79.5093C189.627 78.4609 188.092 77.0005 186.969 75.1471C185.846 73.2936 185.303 71.2158 185.303 68.8944C185.303 66.5729 185.864 64.4947 186.969 62.6413C188.074 60.7879 189.627 59.3274 191.593 58.279C193.559 57.2306 195.768 56.688 198.221 56.688C200.673 56.688 202.863 57.2119 204.829 58.279C206.776 59.3274 208.33 60.7879 209.453 62.6413C210.577 64.4947 211.138 66.5729 211.138 68.8944C211.138 71.2158 210.577 73.2936 209.453 75.1471C208.33 77.0005 206.795 78.4609 204.829 79.5093C202.863 80.5577 200.673 81.1003 198.221 81.1003C195.768 81.1003 193.559 80.5764 191.593 79.5093ZM201.983 75.4839C203.107 74.8474 203.987 73.9489 204.623 72.8069C205.26 71.6649 205.578 70.3547 205.578 68.8944C205.578 67.4341 205.26 66.1235 204.623 64.9814C203.987 63.8394 203.107 62.9409 201.983 62.3044C200.86 61.6679 199.606 61.3496 198.202 61.3496C196.798 61.3496 195.543 61.6679 194.42 62.3044C193.297 62.9409 192.417 63.8394 191.78 64.9814C191.144 66.1235 190.826 67.4341 190.826 68.8944C190.826 70.3547 191.144 71.6649 191.78 72.8069C192.417 73.9489 193.297 74.8474 194.42 75.4839C195.543 76.1204 196.798 76.4387 198.202 76.4387C199.606 76.4387 200.86 76.1204 201.983 75.4839Z" fill="white"/>
<path d="M217.578 80.3324C215.837 79.8269 214.433 79.1716 213.385 78.3665L215.238 74.2479C216.249 74.9968 217.447 75.577 218.851 76.0264C220.237 76.4757 221.641 76.7005 223.026 76.7005C224.58 76.7005 225.722 76.4757 226.471 76.0076C227.22 75.5396 227.576 74.9405 227.576 74.173C227.576 73.6113 227.351 73.1433 226.92 72.7688C226.49 72.3944 225.928 72.0949 225.235 71.8703C224.543 71.6456 223.625 71.4024 222.446 71.1216C220.649 70.691 219.17 70.2605 218.028 69.8487C216.886 69.4181 215.893 68.7439 215.07 67.7891C214.246 66.853 213.834 65.58 213.834 64.0074C213.834 62.6407 214.209 61.3864 214.939 60.2818C215.688 59.1772 216.792 58.2788 218.29 57.6423C219.787 57.0057 221.603 56.6687 223.775 56.6687C225.273 56.6687 226.752 56.856 228.193 57.2117C229.635 57.5674 230.889 58.0913 231.975 58.7653L230.29 62.9026C228.119 61.667 225.928 61.0492 223.756 61.0492C222.221 61.0492 221.098 61.2929 220.368 61.7984C219.638 62.2851 219.282 62.9404 219.282 63.7455C219.282 64.5505 219.694 65.1495 220.536 65.5426C221.379 65.9358 222.671 66.3287 224.393 66.7031C226.19 67.1337 227.669 67.5646 228.811 67.9765C229.953 68.4071 230.945 69.0808 231.769 69.9981C232.593 70.9155 233.005 72.1698 233.005 73.7424C233.005 75.0903 232.63 76.3259 231.882 77.4305C231.133 78.535 230.009 79.4152 228.493 80.0705C226.995 80.7257 225.161 81.044 223.008 81.044C221.135 81.044 219.338 80.8004 217.597 80.2762L217.578 80.3324Z" fill="white"/>
<path d="M267.866 199.27C265.751 199.27 263.729 199.7 261.875 200.449C259.591 189.591 249.969 181.428 238.436 181.428C229.3 181.428 221.381 186.539 217.337 194.047C216.401 193.897 215.465 193.804 214.491 193.804C204.176 193.804 195.826 202.172 195.826 212.469C195.826 222.766 204.195 231.134 214.491 231.134H267.885C276.684 231.134 283.817 224.001 283.817 215.202C283.817 206.403 276.684 199.27 267.885 199.27H267.866Z" fill="white" stroke="#613182" stroke-miterlimit="10" stroke-linecap="round"/>
<path d="M309.28 121.233L257.001 128.729C254.166 129.135 252.198 131.763 252.604 134.598L257.666 169.902C258.073 172.737 260.701 174.705 263.536 174.299L315.814 166.803C318.649 166.396 320.618 163.768 320.211 160.933L315.149 125.63C314.743 122.795 312.115 120.826 309.28 121.233Z" fill="white" stroke="#613182" stroke-miterlimit="10" stroke-linecap="round"/>
<path d="M269.997 145.239C273.254 145.239 275.894 142.599 275.894 139.342C275.894 136.085 273.254 133.445 269.997 133.445C266.74 133.445 264.1 136.085 264.1 139.342C264.1 142.599 266.74 145.239 269.997 145.239Z" fill="#8DC63F"/>
<path d="M261.178 160.834L262.357 169.109L315.825 161.434C315.825 161.434 312.156 151.137 303.825 151.137C295.494 151.137 292.667 156.304 292.667 156.304L280.498 146.138L261.178 160.816V160.834Z" fill="#8DC63F"/>
<path d="M215.293 127.885L253.279 97.3688L262.097 109.07L278.759 88.4574L286.322 100.458L315.64 68.3506" stroke="#613182" stroke-miterlimit="10"/>
<path d="M98.8105 43.0208L88.158 46.7651L84.058 57.7731L80.2201 47.0083L69.3242 43.0208L80.3324 38.9397L84.058 28.2869L88.0269 39.1829L98.8105 43.0208Z" fill="#613182"/>
<path d="M233.006 163.418C234.447 158.869 307.929 14.9387 307.929 14.9387" stroke="#613182" stroke-width="1.42" stroke-miterlimit="10" stroke-linecap="round" stroke-dasharray="0.3 8"/>
<path d="M167.405 172.086L0.709961 68.9309" stroke="#613182" stroke-width="1.42" stroke-miterlimit="10" stroke-linecap="round" stroke-dasharray="0.3 8"/>
<path d="M100.438 89.281H28.9413C26.284 89.281 24.1299 91.4353 24.1299 94.0925V184.76C24.1299 187.418 26.284 189.572 28.9413 189.572H100.438C103.096 189.572 105.25 187.418 105.25 184.76V94.0925C105.25 91.4353 103.096 89.281 100.438 89.281Z" fill="white" stroke="#613182" stroke-miterlimit="10" stroke-linecap="round"/>
<path d="M59.8651 111.747L53.5185 129.271H48.6322L44.7008 118.393L40.6194 129.271H35.7331L29.4053 111.747H34.198L38.3354 123.598L42.6413 111.747H46.9472L51.1222 123.598L55.3906 111.747H59.8838H59.8651Z" fill="#613182"/>
<path d="M89.9696 111.747L83.623 129.271H78.7367L74.8051 118.393L70.7239 129.271H65.8376L59.5098 111.747H64.3024L68.4399 123.598L72.7458 111.747H77.0517L81.2266 123.598L85.4951 111.747H89.9883H89.9696Z" fill="#613182"/>
<path d="M120.074 111.747L113.727 129.271H108.841L104.91 118.393L100.828 129.271H95.9421L89.6143 111.747H94.4069L98.5443 123.598L102.85 111.747H107.156L111.331 123.598L115.6 111.747H120.093H120.074Z" fill="#613182"/>
<path d="M31.1107 96.0403C31.9793 96.0403 32.6833 95.3361 32.6833 94.4675C32.6833 93.599 31.9793 92.8948 31.1107 92.8948C30.2422 92.8948 29.5381 93.599 29.5381 94.4675C29.5381 95.3361 30.2422 96.0403 31.1107 96.0403Z" fill="#613182"/>
<path d="M35.5492 96.0403C36.4177 96.0403 37.1217 95.3361 37.1217 94.4675C37.1217 93.599 36.4177 92.8948 35.5492 92.8948C34.6807 92.8948 33.9766 93.599 33.9766 94.4675C33.9766 95.3361 34.6807 96.0403 35.5492 96.0403Z" fill="#613182"/>
<path d="M40.0033 96.0403C40.8718 96.0403 41.5758 95.3361 41.5758 94.4675C41.5758 93.599 40.8718 92.8948 40.0033 92.8948C39.1348 92.8948 38.4307 93.599 38.4307 94.4675C38.4307 95.3361 39.1348 96.0403 40.0033 96.0403Z" fill="#613182"/>
<path d="M24.1299 99.1099H105.25" stroke="#613182" stroke-miterlimit="10" stroke-linecap="round"/>
<path d="M63.6492 137.451C64.3419 137.451 65.0346 137.451 65.746 137.451C66.1391 137.507 66.5135 137.545 66.9067 137.601C70.5948 138.163 73.74 139.791 76.2861 142.525C78.3642 144.771 79.6747 147.411 80.2176 150.425C80.3112 150.987 80.3861 151.567 80.461 152.148V154.244C80.4423 154.338 80.4235 154.432 80.4048 154.544C80.3299 155.087 80.2925 155.63 80.1989 156.154C79.4313 159.992 77.5404 163.174 74.4514 165.59C70.9505 168.323 66.9441 169.371 62.5633 168.81C59.9423 168.473 57.546 167.518 55.4492 165.926C50.5442 162.163 48.41 157.165 49.1588 151.024C49.6081 147.317 51.3305 144.191 54.0638 141.645C56.3104 139.548 58.9688 138.238 62.0017 137.714C62.5633 137.62 63.1249 137.545 63.7053 137.47L63.6492 137.451ZM63.8738 148.515C63.8738 148.515 63.8176 148.478 63.7989 148.478C61.7021 148.478 59.6053 148.478 57.4898 148.478C57.4149 148.478 57.2651 148.609 57.2651 148.684C57.1153 149.695 56.9656 150.706 56.8907 151.717C56.7409 153.683 56.8907 155.648 57.2464 157.595C57.2838 157.839 57.3775 157.932 57.6396 157.932C59.624 157.932 61.5898 157.932 63.5742 157.932C63.6678 157.932 63.7802 157.932 63.8926 157.932V148.534L63.8738 148.515ZM65.5026 157.895C65.5026 157.895 65.5587 157.932 65.5774 157.932C67.6742 157.932 69.771 157.932 71.8865 157.932C71.9614 157.932 72.0925 157.802 72.1112 157.727C72.261 156.716 72.4108 155.723 72.4856 154.712C72.6354 152.728 72.4856 150.743 72.1299 148.778C72.0925 148.553 71.9989 148.478 71.7742 148.478C69.771 148.478 67.7865 148.478 65.7833 148.478C65.6897 148.478 65.5962 148.478 65.5026 148.478V157.876V157.895ZM55.6926 148.497H51.3866C50.282 151.118 50.282 155.967 51.4053 157.914H55.6926C55.0935 154.768 55.0935 151.642 55.6926 148.497ZM73.7026 148.497C74.3017 151.661 74.2829 154.768 73.7026 157.876C73.7775 157.914 73.7962 157.914 73.8149 157.914C75.1628 157.914 76.492 157.914 77.8399 157.914C77.9148 157.914 78.0459 157.82 78.0646 157.745C78.439 156.697 78.6637 155.63 78.776 154.525C78.9632 152.56 78.7199 150.631 78.1021 148.74C78.0459 148.553 77.9523 148.478 77.7464 148.478C76.5107 148.478 75.2751 148.478 74.0208 148.478C73.9272 148.478 73.8336 148.478 73.6838 148.478L73.7026 148.497ZM63.8926 139.136C62.7318 139.361 61.7958 139.997 60.972 140.802C59.6241 142.15 58.7629 143.817 58.1263 145.595C57.9766 146.007 57.8456 146.438 57.6958 146.887H63.8926V139.136ZM71.6806 146.887C71.6806 146.887 71.6619 146.737 71.6432 146.681C71.2874 145.52 70.8569 144.378 70.2578 143.311C69.5651 142.057 68.7226 140.915 67.5432 140.054C66.9254 139.604 66.2702 139.267 65.5026 139.136V146.887H71.6619H71.6806ZM63.8926 159.543H57.6958C57.8268 159.936 57.9391 160.31 58.0701 160.684C58.7254 162.519 59.5867 164.223 60.972 165.608C61.7771 166.432 62.7131 167.05 63.8926 167.274V159.543ZM65.5213 167.274C66.4948 167.124 67.5807 166.507 68.4419 165.608C69.7711 164.242 70.6509 162.594 71.2874 160.815C71.4372 160.404 71.5683 159.973 71.7181 159.524H65.5213V167.256V167.274ZM52.0419 146.906C52.2104 146.906 52.3227 146.906 52.4163 146.906C53.5209 146.906 54.6068 146.906 55.7113 146.906C55.9921 146.906 56.1045 146.812 56.1606 146.569C56.6474 144.79 57.3588 143.086 58.3697 141.551C58.688 141.064 59.0625 140.615 59.4556 140.072C56.1419 141.476 53.7081 143.704 52.0419 146.906ZM70.0144 140.147C70.3514 140.615 70.7258 141.064 71.0441 141.551C72.0737 143.105 72.7665 144.79 73.2533 146.569C73.3282 146.831 73.4405 146.906 73.6838 146.887C74.7697 146.887 75.8555 146.887 76.9413 146.887C77.0537 146.887 77.1847 146.887 77.3719 146.887C75.7057 143.704 73.2719 141.476 70.0144 140.128V140.147ZM59.4556 166.357C59.0625 165.814 58.7067 165.365 58.3885 164.897C57.3588 163.343 56.6474 161.639 56.1606 159.842C56.1045 159.599 56.0108 159.524 55.7487 159.524C54.6254 159.524 53.5209 159.524 52.3976 159.524C52.304 159.524 52.2104 159.524 52.0606 159.543C53.7081 162.706 56.1606 164.934 59.4556 166.357ZM69.977 166.282C73.2533 164.934 75.7058 162.706 77.3533 159.543C77.1661 159.543 77.0537 159.543 76.9601 159.543C75.893 159.543 74.8071 159.543 73.7399 159.543C73.4404 159.543 73.3281 159.617 73.2345 159.917C72.6729 161.976 71.8304 163.905 70.5387 165.608C70.3702 165.852 70.1642 166.076 69.977 166.301V166.282Z" fill="#8DC63F"/>
<path d="M32.6845 169.783L26.1133 160.198L30.5878 157.184L14.0381 147.13L17.3517 166.095L22.369 162.706L28.9777 172.33L32.6845 169.783Z" fill="#613182"/>
</svg>
