<svg width="252" height="258" viewBox="0 0 252 258" fill="none" xmlns="http://www.w3.org/2000/svg">
<path d="M39.6776 97.9836C40.8889 97.9836 42.1002 97.9836 43.3115 97.9836C43.9884 98.0727 44.6475 98.1261 45.3066 98.233C51.7194 99.1949 57.1881 102.027 61.6058 106.801C65.2219 110.702 67.502 115.298 68.4283 120.553C68.6064 121.551 68.7133 122.548 68.8558 123.546V127.18C68.8202 127.358 68.7845 127.518 68.7489 127.696C68.6242 128.622 68.5708 129.567 68.3748 130.493C67.0388 137.173 63.7434 142.677 58.3637 146.881C52.2716 151.655 45.3244 153.454 37.6825 152.474C33.1401 151.887 28.9718 150.248 25.32 147.451C16.7875 140.896 13.0823 132.221 14.3827 121.551C15.1664 115.102 18.1413 109.669 22.9152 105.251C26.8342 101.618 31.4478 99.3196 36.7206 98.4112C37.7003 98.233 38.68 98.1261 39.6598 97.9836H39.6776ZM40.0873 117.204C40.0873 117.204 39.9804 117.151 39.9626 117.151C36.3109 117.151 32.6591 117.151 29.0074 117.151C28.8649 117.151 28.6333 117.364 28.6155 117.507C28.3661 119.27 28.0811 121.016 27.9564 122.798C27.6892 126.218 27.9564 129.62 28.5621 133.005C28.6333 133.45 28.7758 133.575 29.239 133.575C32.6769 133.557 36.1149 133.575 39.5529 133.575C39.731 133.575 39.9091 133.575 40.1051 133.557V117.222L40.0873 117.204ZM42.9196 133.503C42.9196 133.503 43.0265 133.557 43.0621 133.557C46.7138 133.557 50.3656 133.557 54.0173 133.557C54.1598 133.557 54.3914 133.343 54.4092 133.2C54.6586 131.455 54.9258 129.727 55.0683 127.963C55.3355 124.508 55.0683 121.07 54.4448 117.649C54.3736 117.258 54.2311 117.133 53.8213 117.133C50.3478 117.133 46.8742 117.133 43.4006 117.133C43.2402 117.133 43.0977 117.133 42.9018 117.169V133.503H42.9196ZM25.8544 117.169H18.3728C16.449 121.711 16.4668 130.137 18.4085 133.539H25.8544C24.8213 128.07 24.8213 122.655 25.8544 117.169ZM57.1524 117.169C58.1856 122.655 58.1678 128.088 57.1524 133.468C57.2771 133.521 57.3128 133.539 57.3484 133.539C59.6819 133.539 62.0155 133.539 64.349 133.539C64.4915 133.539 64.6875 133.379 64.7409 133.236C65.3822 131.419 65.7919 129.549 65.9878 127.643C66.3263 124.205 65.881 120.874 64.8122 117.596C64.7053 117.258 64.5628 117.133 64.1887 117.133C62.0333 117.151 59.8779 117.133 57.7225 117.133C57.5621 117.133 57.4018 117.133 57.1524 117.169ZM40.0873 100.887C38.0566 101.297 36.4356 102.366 35.0105 103.791C32.6769 106.142 31.1806 109.028 30.0584 112.11C29.7912 112.84 29.5774 113.57 29.3102 114.336H40.0873V100.887ZM53.6254 114.354C53.5898 114.212 53.5898 114.105 53.5541 113.998C52.9485 111.967 52.1825 110.008 51.1493 108.137C49.938 105.946 48.4774 103.969 46.4466 102.473C45.3778 101.689 44.22 101.119 42.9018 100.887V114.336H53.6254V114.354ZM40.0873 136.371H29.3102C29.5418 137.066 29.7199 137.707 29.9515 138.348C31.0916 141.519 32.6057 144.494 35.0105 146.917C36.4177 148.342 38.0566 149.428 40.0873 149.82V136.371ZM42.9018 149.802C44.594 149.535 46.4823 148.466 47.9786 146.917C50.2943 144.547 51.8084 141.68 52.9307 138.598C53.1979 137.868 53.4116 137.137 53.661 136.371H42.884V149.802H42.9018ZM19.4773 114.39C19.7801 114.39 19.9582 114.39 20.1364 114.39C22.0424 114.39 23.9484 114.372 25.8544 114.39C26.3354 114.39 26.5313 114.247 26.6382 113.784C27.4933 110.684 28.7046 107.745 30.4859 105.056C31.0381 104.218 31.6794 103.434 32.3563 102.49C26.6026 104.949 22.363 108.814 19.4595 114.372L19.4773 114.39ZM50.704 102.651C51.3097 103.47 51.9331 104.254 52.4853 105.109C54.2667 107.799 55.4958 110.738 56.333 113.837C56.4577 114.283 56.6537 114.407 57.099 114.407C58.9872 114.39 60.8754 114.407 62.7636 114.407C62.9774 114.407 63.1733 114.407 63.494 114.407C60.6082 108.868 56.3687 105.002 50.704 102.669V102.651ZM32.3563 148.217C31.6794 147.291 31.0381 146.507 30.4859 145.67C28.6868 142.962 27.4576 140.005 26.6204 136.888C26.5135 136.478 26.3532 136.318 25.9079 136.336C23.9662 136.371 22.0246 136.336 20.0829 136.336C19.9226 136.336 19.7445 136.353 19.4951 136.371C22.363 141.876 26.6204 145.759 32.3563 148.217ZM50.6506 148.075C56.3508 145.741 60.6082 141.876 63.4762 136.336C63.1733 136.336 62.9774 136.336 62.7815 136.336C60.9111 136.336 59.0407 136.353 57.1703 136.336C56.6715 136.336 56.4399 136.46 56.2974 136.977C55.2999 140.54 53.8392 143.906 51.6125 146.881C51.3097 147.291 50.9712 147.683 50.6506 148.075Z" fill="#8DC63F"/>
<path d="M133.946 197.791V210.082L145.721 211.757C146.808 217.778 149.159 223.353 152.472 228.216L145.311 237.764L154.004 246.457L163.516 239.332C168.362 242.681 173.919 245.068 179.94 246.19L181.633 258H193.924L195.616 246.226C201.637 245.139 207.212 242.788 212.076 239.474L221.623 246.635L230.316 237.942L223.191 228.43C226.54 223.585 228.927 218.027 230.049 212.006L241.859 210.314V198.023L230.085 196.331C228.998 190.31 226.647 184.734 223.334 179.871L230.494 170.323L221.802 161.63L212.289 168.756C207.444 165.407 201.886 163.02 195.865 161.898L194.173 150.087H181.882L180.207 161.862C174.187 162.949 168.611 165.3 163.748 168.613L154.2 161.452L145.507 170.145L152.632 179.657C149.284 184.503 146.897 190.06 145.774 196.081L133.964 197.773L133.946 197.791ZM187.903 174.26C204.362 174.26 217.687 187.602 217.687 204.044C217.687 220.485 204.345 233.828 187.903 233.828C171.461 233.828 158.119 220.485 158.119 204.044C158.119 187.602 171.461 174.26 187.903 174.26Z" fill="#D1EDF8"/>
<path d="M161.752 105.697V112.751L168.503 113.713C169.127 117.169 170.48 120.375 172.386 123.154L168.272 128.623L173.259 133.61L178.71 129.513C181.489 131.437 184.678 132.809 188.133 133.45L189.095 140.237H196.149L197.111 133.486C200.567 132.862 203.774 131.508 206.552 129.602L212.021 133.717L217.009 128.729L212.912 123.279C214.836 120.5 216.207 117.311 216.849 113.855L223.635 112.893V105.839L216.884 104.877C216.261 101.422 214.907 98.2153 213.001 95.4364L217.116 89.9678L212.128 84.98L206.677 89.0771C203.898 87.1533 200.71 85.7816 197.254 85.1404L196.292 78.3535H189.238L188.276 85.1047C184.82 85.7282 181.614 87.082 178.835 88.988L173.366 84.8732L168.378 89.8609L172.476 95.3117C170.552 98.0906 169.18 101.279 168.539 104.735L161.752 105.697ZM192.711 92.1944C202.153 92.1944 209.812 99.8541 209.812 109.295C209.812 118.736 202.153 126.396 192.711 126.396C183.27 126.396 175.611 118.736 175.611 109.295C175.611 99.8541 183.27 92.1944 192.711 92.1944Z" fill="#D1EDF8"/>
<path d="M195.189 30.4358H63.3349C60.8065 30.4358 58.7568 32.4854 58.7568 35.0138V213.93C58.7568 216.458 60.8065 218.508 63.3349 218.508H195.189C197.717 218.508 199.767 216.458 199.767 213.93V35.0138C199.767 32.4854 197.717 30.4358 195.189 30.4358Z" fill="white"/>
<path d="M195.188 219.416H63.3515C60.341 219.416 57.8828 216.958 57.8828 213.948V35.0314C57.8828 32.021 60.341 29.5627 63.3515 29.5627H195.188C198.216 29.5627 200.657 32.021 200.657 35.0314V213.93C200.657 216.94 198.198 219.399 195.188 219.399V219.416ZM63.3515 31.3263C61.3208 31.3263 59.6641 32.9829 59.6641 35.0136V213.93C59.6641 215.961 61.3208 217.617 63.3515 217.617H195.188C197.219 217.617 198.875 215.961 198.875 213.93V35.0314C198.875 33.0007 197.219 31.3441 195.188 31.3441H63.3515V31.3263Z" fill="#612A7A"/>
<path d="M70.9051 42.1742C72.4103 42.1742 73.6306 40.954 73.6306 39.4488C73.6306 37.9436 72.4103 36.7234 70.9051 36.7234C69.3999 36.7234 68.1797 37.9436 68.1797 39.4488C68.1797 40.954 69.3999 42.1742 70.9051 42.1742Z" fill="#612A7A"/>
<path d="M78.618 42.1742C80.1232 42.1742 81.3435 40.954 81.3435 39.4488C81.3435 37.9436 80.1232 36.7234 78.618 36.7234C77.1128 36.7234 75.8926 37.9436 75.8926 39.4488C75.8926 40.954 77.1128 42.1742 78.618 42.1742Z" fill="#612A7A"/>
<path d="M86.3495 42.1742C87.8547 42.1742 89.0749 40.954 89.0749 39.4488C89.0749 37.9436 87.8547 36.7234 86.3495 36.7234C84.8442 36.7234 83.624 37.9436 83.624 39.4488C83.624 40.954 84.8442 42.1742 86.3495 42.1742Z" fill="#612A7A"/>
<path d="M199.766 48.4263H58.7559C58.2571 48.4263 57.8652 48.0345 57.8652 47.5357C57.8652 47.0369 58.2571 46.645 58.7559 46.645H199.766C200.265 46.645 200.657 47.0369 200.657 47.5357C200.657 48.0345 200.265 48.4263 199.766 48.4263Z" fill="#612A7A"/>
<path d="M75.589 201.603L64.1528 184.947L71.955 179.71L43.1865 162.236L48.9224 195.19L57.6687 189.312L69.1405 206.038L75.589 201.603Z" fill="#612A7A"/>
<path d="M179.582 58.9363H79.899C76.4852 58.9363 73.7178 61.7037 73.7178 65.1175V98.4283C73.7178 101.842 76.4852 104.609 79.899 104.609H179.582C182.996 104.609 185.764 101.842 185.764 98.4283V65.1175C185.764 61.7037 182.996 58.9363 179.582 58.9363Z" fill="white"/>
<path d="M179.583 105.5H79.9C75.9989 105.5 72.8281 102.329 72.8281 98.4281V65.1173C72.8281 61.2162 75.9989 58.0454 79.9 58.0454H179.583C183.484 58.0454 186.655 61.2162 186.655 65.1173V98.4281C186.655 102.329 183.484 105.5 179.583 105.5ZM79.9 59.8267C76.9786 59.8267 74.6095 62.1959 74.6095 65.1173V98.4281C74.6095 101.349 76.9786 103.719 79.9 103.719H179.583C182.505 103.719 184.874 101.349 184.874 98.4281V65.1173C184.874 62.1959 182.505 59.8267 179.583 59.8267H79.9Z" fill="#612A7A"/>
<path d="M100.795 126.842H79.8648C76.451 126.842 73.6836 129.609 73.6836 133.023V165.336C73.6836 168.75 76.451 171.517 79.8648 171.517H100.795C104.209 171.517 106.977 168.75 106.977 165.336V133.023C106.977 129.609 104.209 126.842 100.795 126.842Z" fill="white"/>
<path d="M100.777 172.407H79.8639C75.9628 172.407 72.792 169.237 72.792 165.336V133.04C72.792 129.139 75.9628 125.968 79.8639 125.968H100.777C104.678 125.968 107.849 129.139 107.849 133.04V165.336C107.849 169.237 104.678 172.407 100.777 172.407ZM79.8639 127.732C76.9425 127.732 74.5733 130.101 74.5733 133.022V165.318C74.5733 168.239 76.9425 170.608 79.8639 170.608H100.777C103.698 170.608 106.067 168.239 106.067 165.318V133.022C106.067 130.101 103.698 127.732 100.777 127.732H79.8639Z" fill="#612A7A"/>
<path d="M140.144 126.842H119.213C115.8 126.842 113.032 129.609 113.032 133.023V165.336C113.032 168.75 115.8 171.517 119.213 171.517H140.144C143.558 171.517 146.325 168.75 146.325 165.336V133.023C146.325 129.609 143.558 126.842 140.144 126.842Z" fill="white"/>
<path d="M140.127 172.408H119.214C115.313 172.408 112.143 169.237 112.143 165.336V133.04C112.143 129.139 115.313 125.969 119.214 125.969H140.127C144.028 125.969 147.199 129.139 147.199 133.04V165.336C147.199 169.237 144.028 172.408 140.127 172.408ZM119.214 127.732C116.293 127.732 113.924 130.101 113.924 133.023V165.318C113.924 168.239 116.293 170.609 119.214 170.609H140.127C143.049 170.609 145.418 168.239 145.418 165.318V133.023C145.418 130.101 143.049 127.732 140.127 127.732H119.214Z" fill="#612A7A"/>
<path d="M179.511 126.842H158.581C155.167 126.842 152.399 129.609 152.399 133.023V165.336C152.399 168.75 155.167 171.517 158.581 171.517H179.511C182.925 171.517 185.692 168.75 185.692 165.336V133.023C185.692 129.609 182.925 126.842 179.511 126.842Z" fill="white"/>
<path d="M179.494 172.407H158.581C154.68 172.407 151.509 169.237 151.509 165.336V133.04C151.509 129.139 154.68 125.968 158.581 125.968H179.494C183.395 125.968 186.565 129.139 186.565 133.04V165.336C186.565 169.237 183.395 172.407 179.494 172.407ZM158.581 127.732C155.659 127.732 153.29 130.101 153.29 133.022V165.318C153.29 168.239 155.659 170.608 158.581 170.608H179.494C182.415 170.608 184.784 168.239 184.784 165.318V133.022C184.784 130.101 182.415 127.732 179.494 127.732H158.581Z" fill="#612A7A"/>
<path d="M129.742 94.7764C136.924 94.7764 142.746 88.9545 142.746 81.7727C142.746 74.591 136.924 68.769 129.742 68.769C122.56 68.769 116.738 74.591 116.738 81.7727C116.738 88.9545 122.56 94.7764 129.742 94.7764Z" fill="#612A7A"/>
<path d="M171.852 186.408H86.6866C86.1878 186.408 85.7959 186.016 85.7959 185.517C85.7959 185.019 86.1878 184.627 86.6866 184.627H171.834C172.333 184.627 172.725 185.019 172.725 185.517C172.725 186.016 172.333 186.408 171.834 186.408H171.852Z" fill="#612A7A"/>
<path d="M165.011 192.75H93.5264C93.0276 192.75 92.6357 192.358 92.6357 191.859C92.6357 191.36 93.0276 190.968 93.5264 190.968H165.029C165.528 190.968 165.92 191.36 165.92 191.859C165.92 192.358 165.528 192.75 165.029 192.75H165.011Z" fill="#612A7A"/>
<path d="M116.916 117.329H99.3164C98.8177 117.329 98.4258 116.937 98.4258 116.438C98.4258 115.939 98.8177 115.547 99.3164 115.547H116.916C117.415 115.547 117.807 115.939 117.807 116.438C117.807 116.937 117.415 117.329 116.916 117.329Z" fill="#612A7A"/>
<path d="M103.022 120.446V112.573L95.6826 116.581L103.022 120.446Z" fill="#612A7A"/>
<path d="M159.223 117.061H141.623C141.124 117.061 140.732 116.669 140.732 116.171C140.732 115.672 141.124 115.28 141.623 115.28H159.223C159.721 115.28 160.113 115.672 160.113 116.171C160.113 116.669 159.721 117.061 159.223 117.061Z" fill="#612A7A"/>
<path d="M155.518 112.163V120.036L162.857 116.028L155.518 112.163Z" fill="#612A7A"/>
<path d="M162.054 65.9195C175.188 65.9195 185.835 55.2726 185.835 42.1388C185.835 29.0051 175.188 18.3582 162.054 18.3582C148.92 18.3582 138.273 29.0051 138.273 42.1388C138.273 55.2726 148.92 65.9195 162.054 65.9195Z" fill="white"/>
<path d="M162.055 66.81C148.446 66.81 137.384 55.748 137.384 42.1386C137.384 28.5293 148.446 17.4673 162.055 17.4673C175.665 17.4673 186.727 28.5293 186.727 42.1386C186.727 55.748 175.665 66.81 162.055 66.81ZM162.055 19.2308C149.426 19.2308 139.165 29.509 139.165 42.1208C139.165 54.7326 149.443 65.0109 162.055 65.0109C174.667 65.0109 184.945 54.7326 184.945 42.1208C184.945 29.509 174.667 19.2308 162.055 19.2308Z" fill="#8DC63F"/>
<path d="M147.056 51.9011C145.88 51.3845 144.918 50.6364 144.17 49.6745L146.824 46.4859C147.946 48 149.229 48.766 150.672 48.766C152.631 48.766 153.593 47.6259 153.593 45.328V35.4773H146.325V31.6296H158.367V45.0608C158.367 47.6081 157.744 49.5141 156.479 50.7789C155.214 52.0436 153.362 52.6849 150.921 52.6849C149.514 52.6849 148.231 52.4177 147.056 51.9011Z" fill="#612A7A"/>
<path d="M165.171 52.0254C163.639 51.5801 162.41 51.01 161.483 50.2975L163.104 46.6814C163.995 47.3405 165.046 47.8571 166.275 48.249C167.504 48.6409 168.716 48.8368 169.945 48.8368C171.299 48.8368 172.314 48.6409 172.955 48.2312C173.596 47.8215 173.935 47.2871 173.935 46.6102C173.935 46.1114 173.739 45.7017 173.365 45.381C172.991 45.0604 172.492 44.7932 171.886 44.5973C171.281 44.4013 170.479 44.1876 169.446 43.9382C167.861 43.5641 166.578 43.19 165.58 42.8159C164.583 42.4419 163.71 41.8362 162.998 41.0168C162.285 40.1974 161.911 39.093 161.911 37.7035C161.911 36.51 162.232 35.4056 162.891 34.4437C163.55 33.4818 164.529 32.698 165.83 32.128C167.148 31.558 168.751 31.2729 170.639 31.2729C171.958 31.2729 173.258 31.4333 174.523 31.7539C175.787 32.0745 176.892 32.5199 177.836 33.1077L176.358 36.7416C174.451 35.655 172.528 35.1206 170.622 35.1206C169.286 35.1206 168.288 35.3344 167.647 35.7797C167.006 36.2072 166.685 36.7772 166.685 37.4898C166.685 38.2023 167.059 38.7367 167.789 39.0752C168.537 39.4136 169.66 39.7521 171.174 40.0905C172.759 40.4646 174.042 40.8387 175.057 41.2127C176.055 41.5868 176.928 42.1747 177.64 42.9941C178.353 43.7957 178.727 44.9001 178.727 46.2717C178.727 47.4474 178.388 48.534 177.729 49.5137C177.07 50.4935 176.073 51.2594 174.754 51.8294C173.436 52.3995 171.833 52.6845 169.927 52.6845C168.288 52.6845 166.703 52.4707 165.171 52.0254Z" fill="#612A7A"/>
<path d="M99.5668 197.951V214.108H95.826V207.481H88.4869V214.108H84.7461V197.951H88.4869V204.328H95.826V197.951H99.5668Z" fill="#612A7A"/>
<path d="M106.746 200.997H101.58V197.951H115.653V200.997H110.487V214.108H106.746V200.997Z" fill="#612A7A"/>
<path d="M132.36 214.108V204.417L127.586 212.398H125.894L121.156 204.613V214.09H117.646V197.933H120.746L126.785 207.962L132.734 197.933H135.798L135.852 214.09H132.342L132.36 214.108Z" fill="#612A7A"/>
<path d="M139.699 197.951H143.44V211.061H151.545V214.108H139.717V197.951H139.699Z" fill="#612A7A"/>
<path d="M64.7942 54.9109H33.7812C25.4484 54.9109 18.6934 61.6659 18.6934 69.9987C18.6934 78.3315 25.4484 85.0865 33.7812 85.0865H64.7942C73.127 85.0865 79.8821 78.3315 79.8821 69.9987C79.8821 61.6659 73.127 54.9109 64.7942 54.9109Z" fill="#8DC63F"/>
<path d="M31.9991 77.3024C30.6631 76.5898 29.6121 75.5923 28.8461 74.3097C28.0801 73.0272 27.7061 71.6021 27.7061 69.9811C27.7061 68.3601 28.0801 66.935 28.8461 65.6525C29.6121 64.3699 30.6631 63.3724 31.9991 62.6599C33.3351 61.9473 34.8314 61.5911 36.5058 61.5911C37.9131 61.5911 39.1778 61.8405 40.3179 62.3392C41.4579 62.838 42.402 63.5505 43.1858 64.4768L40.781 66.7035C39.6766 65.4387 38.3228 64.7974 36.7018 64.7974C35.7042 64.7974 34.7958 65.0112 34.012 65.4565C33.2282 65.9019 32.6047 66.5075 32.1594 67.2913C31.714 68.0751 31.5003 68.9836 31.5003 69.9811C31.5003 70.9786 31.714 71.8871 32.1594 72.6709C32.6047 73.4547 33.2104 74.0782 34.012 74.5235C34.7958 74.9688 35.7042 75.1826 36.7018 75.1826C38.3228 75.1826 39.6766 74.5413 40.781 73.2587L43.1858 75.4854C42.4199 76.4295 41.4579 77.142 40.3179 77.6408C39.1778 78.1396 37.8953 78.389 36.488 78.389C34.8314 78.389 33.3351 78.0327 31.9991 77.3024Z" fill="white"/>
<path d="M47.1943 77.8721C46.0009 77.5159 45.0389 77.0705 44.3086 76.5183L45.5912 73.686C46.2859 74.2026 47.1053 74.6123 48.0672 74.9151C49.0291 75.218 49.991 75.3783 50.9351 75.3783C52.0039 75.3783 52.7877 75.218 53.3043 74.8973C53.8209 74.5767 54.0703 74.167 54.0703 73.6326C54.0703 73.2407 53.9278 72.9201 53.625 72.6707C53.3221 72.4213 52.9302 72.2075 52.4671 72.065C52.0039 71.9047 51.3627 71.7444 50.5611 71.5484C49.3319 71.2634 48.3166 70.9606 47.5328 70.6756C46.749 70.3906 46.0721 69.9096 45.5021 69.2683C44.9321 68.6271 44.6649 67.7542 44.6649 66.6676C44.6649 65.7235 44.9142 64.8685 45.4308 64.1025C45.9474 63.3365 46.7134 62.7309 47.7288 62.2855C48.7619 61.8402 50.0089 61.6086 51.4874 61.6086C52.5205 61.6086 53.5359 61.7333 54.5156 61.9827C55.5132 62.2321 56.3682 62.5884 57.1164 63.0515L55.9585 65.9016C54.4622 65.0466 52.9659 64.6191 51.4695 64.6191C50.4186 64.6191 49.6348 64.7972 49.136 65.1357C48.6372 65.4741 48.3878 65.9194 48.3878 66.4717C48.3878 67.0239 48.6729 67.4336 49.2607 67.7186C49.8485 67.9858 50.7214 68.253 51.9149 68.5202C53.144 68.823 54.1594 69.108 54.9431 69.393C55.7269 69.6959 56.4038 70.159 56.9739 70.7825C57.5439 71.4059 57.8111 72.2788 57.8111 73.3476C57.8111 74.2739 57.5617 75.1289 57.0273 75.8771C56.5107 76.643 55.7269 77.2487 54.6938 77.694C53.6606 78.1393 52.3958 78.3709 50.9173 78.3709C49.6348 78.3709 48.3878 78.1928 47.1943 77.8543V77.8721Z" fill="white"/>
<path d="M61.9795 77.8721C60.786 77.5159 59.8241 77.0705 59.0938 76.5183L60.3763 73.686C61.071 74.2026 61.8904 74.6123 62.8524 74.9151C63.8143 75.218 64.7762 75.3783 65.7203 75.3783C66.7891 75.3783 67.5729 75.218 68.0895 74.8973C68.6061 74.5767 68.8555 74.167 68.8555 73.6326C68.8555 73.2407 68.7129 72.9201 68.4101 72.6707C68.1073 72.4213 67.7154 72.2075 67.2523 72.065C66.7891 71.9047 66.1478 71.7444 65.3462 71.5484C64.1171 71.2634 63.1017 70.9606 62.318 70.6756C61.5342 70.3906 60.8573 69.9096 60.2872 69.2683C59.7172 68.6271 59.45 67.7542 59.45 66.6676C59.45 65.7235 59.6994 64.8685 60.216 64.1025C60.7326 63.3365 61.4986 62.7309 62.5139 62.2855C63.5471 61.8402 64.794 61.6086 66.2725 61.6086C67.3057 61.6086 68.3211 61.7333 69.3008 61.9827C70.2983 62.2321 71.1534 62.5884 71.9015 63.0515L70.7437 65.9016C69.2473 65.0466 67.751 64.6191 66.2547 64.6191C65.2037 64.6191 64.4199 64.7972 63.9212 65.1357C63.4224 65.4741 63.173 65.9194 63.173 66.4717C63.173 67.0239 63.458 67.4336 64.0459 67.7186C64.6337 67.9858 65.5065 68.253 66.7 68.5202C67.9292 68.823 68.9445 69.108 69.7283 69.393C70.5121 69.6959 71.189 70.159 71.759 70.7825C72.329 71.4059 72.5962 72.2788 72.5962 73.3476C72.5962 74.2739 72.3469 75.1289 71.8125 75.8771C71.2959 76.643 70.5121 77.2487 69.4789 77.694C68.4457 78.1393 67.181 78.3709 65.7025 78.3709C64.4199 78.3709 63.173 78.1928 61.9795 77.8543V77.8721Z" fill="white"/>
<path d="M126.268 76.7136V87.4372L136.136 82.4673L126.268 76.7136Z" fill="white"/>
<path d="M28.7045 234.523H31.1093V239.136C30.4859 239.599 29.7733 239.956 28.9717 240.205C28.1701 240.454 27.3329 240.579 26.5135 240.579C25.3378 240.579 24.269 240.33 23.3249 239.831C22.3808 239.332 21.6505 238.637 21.1161 237.729C20.5817 236.838 20.3145 235.823 20.3145 234.701C20.3145 233.578 20.5817 232.563 21.1161 231.672C21.6505 230.782 22.3986 230.087 23.3427 229.57C24.3046 229.072 25.3734 228.822 26.5669 228.822C27.5645 228.822 28.473 228.983 29.2746 229.321C30.0762 229.659 30.7709 230.14 31.3231 230.782L29.6308 232.349C28.8114 231.494 27.8317 231.067 26.6916 231.067C25.9613 231.067 25.32 231.209 24.75 231.53C24.1799 231.833 23.7524 232.26 23.4318 232.812C23.1111 233.365 22.9686 234.006 22.9686 234.718C22.9686 235.431 23.129 236.054 23.4318 236.607C23.7524 237.159 24.1799 237.586 24.7322 237.889C25.2844 238.192 25.9256 238.352 26.6382 238.352C27.4042 238.352 28.0811 238.192 28.6867 237.871V234.54L28.7045 234.523Z" fill="#8DC63F"/>
<path d="M33.4971 230.034C33.2121 229.767 33.0518 229.428 33.0518 229.019C33.0518 228.609 33.1943 228.288 33.4971 228.003C33.7821 227.736 34.174 227.594 34.6371 227.594C35.1003 227.594 35.4744 227.718 35.7772 227.985C36.08 228.253 36.2225 228.573 36.2225 228.965C36.2225 229.393 36.08 229.731 35.7772 230.016C35.4744 230.301 35.1003 230.426 34.6371 230.426C34.174 230.426 33.7999 230.283 33.4971 230.016V230.034ZM33.3724 231.655H35.9019V240.401H33.3724V231.655Z" fill="#8DC63F"/>
<path d="M43.9005 239.973C43.6511 240.151 43.3482 240.293 42.992 240.383C42.6357 240.472 42.2438 240.525 41.8519 240.525C40.8188 240.525 39.9993 240.258 39.4471 239.723C38.8949 239.189 38.5921 238.405 38.5921 237.39V233.792H37.2383V231.85H38.5921V229.73H41.1216V231.85H43.2948V233.792H41.1216V237.354C41.1216 237.728 41.2107 238.013 41.4066 238.209C41.6025 238.405 41.8697 238.512 42.2082 238.512C42.6001 238.512 42.9564 238.405 43.2236 238.192L43.9005 239.973Z" fill="#8DC63F"/>
<path d="M53.5727 226.72H55.835L50.4732 242.022H48.2109L53.5727 226.72Z" fill="#8DC63F"/>
<path d="M68.7504 234.523H71.1552V239.136C70.5318 239.599 69.8192 239.956 69.0176 240.205C68.216 240.454 67.3788 240.579 66.5594 240.579C65.3837 240.579 64.3149 240.33 63.3708 239.831C62.4267 239.332 61.6964 238.637 61.162 237.729C60.6276 236.838 60.3604 235.823 60.3604 234.701C60.3604 233.578 60.6276 232.563 61.162 231.672C61.6964 230.782 62.4445 230.087 63.3886 229.57C64.3505 229.072 65.4193 228.822 66.6128 228.822C67.6104 228.822 68.5188 228.983 69.3204 229.321C70.122 229.659 70.8168 230.14 71.369 230.782L69.6767 232.349C68.8573 231.494 67.8776 231.067 66.7375 231.067C66.0072 231.067 65.3659 231.209 64.7959 231.53C64.2258 231.833 63.7983 232.26 63.4777 232.812C63.157 233.365 63.0145 234.006 63.0145 234.718C63.0145 235.431 63.1749 236.054 63.4777 236.607C63.7983 237.159 64.2258 237.586 64.7781 237.889C65.3303 238.192 65.9715 238.352 66.6841 238.352C67.4501 238.352 68.127 238.192 68.7326 237.871V234.54L68.7504 234.523Z" fill="#8DC63F"/>
<path d="M73.541 230.034C73.256 229.767 73.0957 229.428 73.0957 229.019C73.0957 228.609 73.2382 228.288 73.541 228.003C73.826 227.736 74.2179 227.594 74.6811 227.594C75.1442 227.594 75.5183 227.718 75.8211 227.985C76.124 228.253 76.2665 228.573 76.2665 228.965C76.2665 229.393 76.124 229.731 75.8211 230.016C75.5183 230.301 75.1442 230.426 74.6811 230.426C74.2179 230.426 73.8439 230.283 73.541 230.016V230.034ZM73.4163 231.655H75.9458V240.401H73.4163V231.655Z" fill="#8DC63F"/>
<path d="M83.9444 239.973C83.695 240.151 83.3922 240.293 83.0359 240.383C82.6797 240.472 82.2878 240.525 81.8959 240.525C80.8627 240.525 80.0433 240.258 79.4911 239.723C78.9389 239.189 78.636 238.405 78.636 237.39V233.792H77.2822V231.85H78.636V229.73H81.1655V231.85H83.3388V233.792H81.1655V237.354C81.1655 237.728 81.2546 238.013 81.4505 238.209C81.6465 238.405 81.9137 238.512 82.2521 238.512C82.644 238.512 83.0003 238.405 83.2675 238.192L83.9444 239.973Z" fill="#8DC63F"/>
<path d="M93.3146 232.492C93.9737 233.151 94.3122 234.113 94.3122 235.377V240.383H91.7827V235.769C91.7827 235.074 91.6402 234.558 91.3373 234.219C91.0345 233.881 90.5892 233.703 90.0192 233.703C89.3779 233.703 88.8791 233.899 88.4872 234.291C88.1131 234.683 87.9172 235.27 87.9172 236.054V240.383H85.3877V228.323H87.9172V232.545C88.2556 232.207 88.6653 231.957 89.1285 231.779C89.5916 231.601 90.126 231.512 90.6961 231.512C91.7827 231.512 92.6555 231.832 93.3146 232.492Z" fill="#8DC63F"/>
<path d="M105.409 231.654V240.401H103.004V239.367C102.666 239.742 102.274 240.044 101.811 240.24C101.347 240.436 100.849 240.543 100.296 240.543C99.1564 240.543 98.2301 240.205 97.571 239.546C96.9119 238.886 96.5557 237.907 96.5557 236.606V231.672H99.0852V236.232C99.0852 237.64 99.673 238.352 100.849 238.352C101.454 238.352 101.935 238.156 102.309 237.764C102.683 237.372 102.862 236.785 102.862 236.001V231.672H105.391L105.409 231.654Z" fill="#8DC63F"/>
<path d="M115.135 232.082C115.794 232.456 116.328 232.973 116.702 233.649C117.076 234.326 117.272 235.11 117.272 236.019C117.272 236.927 117.076 237.711 116.702 238.388C116.328 239.065 115.794 239.581 115.135 239.955C114.476 240.329 113.727 240.508 112.908 240.508C111.715 240.508 110.788 240.133 110.165 239.367V240.383H107.742V228.323H110.272V232.563C110.913 231.85 111.786 231.512 112.908 231.512C113.727 231.512 114.458 231.69 115.135 232.064V232.082ZM114.084 237.782C114.493 237.337 114.707 236.749 114.707 236.019C114.707 235.288 114.493 234.7 114.084 234.255C113.674 233.81 113.14 233.596 112.481 233.596C111.821 233.596 111.305 233.81 110.877 234.255C110.468 234.7 110.254 235.288 110.254 236.019C110.254 236.749 110.468 237.337 110.877 237.782C111.287 238.227 111.821 238.441 112.481 238.441C113.14 238.441 113.656 238.227 114.084 237.782Z" fill="#8DC63F"/>
<path d="M213.767 79.8133L218.291 74.2021C219.574 72.5989 221.925 72.3495 223.528 73.6321L226.254 75.8409C227.857 77.1235 228.106 79.4748 226.824 81.078C226.824 81.078 221.729 85.9411 222.834 86.0301C223.635 86.0836 229.122 84.3735 231.295 81.6837C234.484 77.7291 234.662 72.3495 232.204 68.2347L248.806 47.6247C249.625 46.5916 249.465 45.0953 248.449 44.2758L245.831 42.1561C244.798 41.3367 243.301 41.497 242.482 42.5123L225.88 63.1223C221.32 61.5903 216.118 62.9085 212.93 66.8631C209.919 70.6038 209.598 75.5915 211.629 79.5995C212.057 80.4189 213.197 80.5436 213.785 79.8133H213.767Z" fill="#612A7A"/>
<path d="M123.346 246.652H123.293C122.598 246.652 122.028 246.082 122.028 245.388C122.028 244.693 122.598 244.123 123.293 244.123C123.987 244.123 124.575 244.693 124.575 245.388C124.575 246.082 124.041 246.652 123.346 246.652ZM108.169 246.029C108.169 246.029 108.08 246.029 108.045 246.029C108.045 246.029 107.991 246.029 107.973 246.029C107.279 245.958 106.78 245.334 106.851 244.639C106.922 243.945 107.564 243.464 108.24 243.517C108.935 243.588 109.452 244.212 109.381 244.907C109.309 245.548 108.793 246.047 108.151 246.047L108.169 246.029ZM138.452 245.673C137.811 245.673 137.276 245.192 137.205 244.55C137.134 243.856 137.632 243.232 138.327 243.161L138.523 244.408L138.612 245.673C138.612 245.673 138.523 245.673 138.47 245.673H138.452ZM92.8854 243.713L93.1526 242.484L92.8498 243.713C92.1729 243.571 91.7276 242.912 91.8522 242.235C91.9948 241.558 92.6717 241.13 93.3307 241.237L92.8676 243.713H92.8854ZM153.451 243.143C152.863 243.143 152.328 242.733 152.222 242.128C152.079 241.451 152.524 240.774 153.219 240.649C153.896 240.525 154.591 240.952 154.733 241.629C154.876 242.306 154.466 242.965 153.789 243.108H153.718C153.629 243.108 153.558 243.125 153.469 243.125L153.451 243.143ZM168.111 239.171C167.577 239.171 167.06 238.814 166.9 238.28C166.704 237.603 167.078 236.908 167.737 236.713C168.396 236.517 169.126 236.873 169.322 237.532C169.536 238.191 169.198 238.886 168.539 239.1C168.539 239.1 168.467 239.117 168.449 239.135C168.325 239.171 168.2 239.189 168.093 239.189L168.111 239.171ZM182.077 233.453C181.667 233.453 181.257 233.221 181.026 232.829C180.652 232.241 180.901 231.422 181.489 231.066C181.542 231.03 181.631 230.977 181.685 230.959C182.326 230.674 183.074 230.959 183.359 231.6C183.644 232.241 183.359 232.99 182.718 233.275C182.522 233.399 182.308 233.453 182.094 233.453H182.077ZM51.1488 226.648C50.935 226.648 50.7035 226.595 50.4897 226.452C50.4897 226.452 50.4185 226.416 50.4185 226.399C49.8306 226.007 49.6881 225.223 50.0622 224.653C50.4541 224.083 51.2379 223.923 51.8079 224.297C52.3779 224.671 52.5561 225.472 52.182 226.042C51.9326 226.416 51.5407 226.63 51.131 226.63L51.1488 226.648ZM195.045 225.401C194.671 225.401 194.314 225.241 194.065 224.938C193.638 224.404 193.691 223.638 194.208 223.192L195.063 224.119L195.811 225.134C195.579 225.312 195.312 225.401 195.027 225.401H195.045ZM38.9467 217.599C38.6617 217.599 38.3767 217.51 38.1451 217.296L38.0916 217.26C37.5751 216.797 37.5216 215.996 37.967 215.479C38.4301 214.963 39.2317 214.891 39.7483 215.354C40.2649 215.818 40.3361 216.619 39.8908 217.154C39.6414 217.439 39.2851 217.599 38.9289 217.599H38.9467ZM206.107 215.069C205.804 215.069 205.519 214.963 205.27 214.749C204.753 214.286 204.7 213.484 205.145 212.967C205.608 212.451 206.41 212.362 206.944 212.825C207.461 213.288 207.55 214.054 207.087 214.588L207.051 214.642C206.802 214.927 206.445 215.069 206.107 215.069ZM27.1543 206.537L28.1162 205.717L27.1365 206.519C26.6733 206.002 26.7268 205.201 27.2612 204.738C27.7777 204.275 28.5793 204.328 29.0425 204.862L27.1721 206.555L27.1543 206.537ZM214.657 202.529C214.461 202.529 214.265 202.475 214.087 202.386C213.482 202.066 213.232 201.335 213.535 200.712L214.693 201.229L215.797 201.852C215.566 202.28 215.12 202.529 214.675 202.529H214.657ZM18.8533 193.676L17.7845 194.335C17.4282 193.765 17.5707 192.999 18.1229 192.607C18.6751 192.215 19.4233 192.322 19.833 192.874L18.8533 193.676ZM220.34 188.528C220.34 188.528 220.162 188.528 220.072 188.492C219.396 188.35 218.968 187.637 219.093 186.96C219.093 186.907 219.128 186.818 219.146 186.764C219.36 186.105 220.072 185.731 220.749 185.963C221.408 186.176 221.765 186.889 221.551 187.566L220.357 187.174L221.551 187.584C221.426 188.171 220.928 188.546 220.357 188.546L220.34 188.528ZM10.2851 180.957L11.4429 180.44L10.2851 180.939C10 180.316 10.2672 179.568 10.8907 179.265C11.5142 178.962 12.2445 179.211 12.5652 179.835L11.4607 180.44L10.3029 180.957H10.2851ZM223.154 173.547C223.154 173.547 223.065 173.547 223.012 173.547C222.317 173.475 221.818 172.852 221.889 172.157C221.961 171.463 222.566 170.928 223.279 171.017C223.974 171.089 224.472 171.676 224.401 172.371C224.401 172.371 224.401 172.425 224.401 172.442C224.33 173.084 223.778 173.565 223.154 173.565V173.547ZM6.08112 167.579C5.54672 167.579 5.03013 167.205 4.83418 166.671C4.83418 166.617 4.78074 166.528 4.78074 166.475C4.63824 165.798 5.08357 165.121 5.77829 164.996C6.47301 164.872 7.1321 165.299 7.25679 165.994C7.47055 166.653 7.11429 167.312 6.43738 167.544C6.31269 167.579 6.188 167.597 6.0633 167.597L6.08112 167.579ZM223.457 158.37C222.762 158.37 222.192 157.8 222.192 157.105C222.192 156.41 222.727 155.858 223.386 155.823C224.098 155.769 224.633 156.268 224.704 156.927C224.704 156.963 224.704 157.069 224.704 157.105C224.704 157.8 224.134 158.37 223.439 158.37H223.457ZM2.75003 152.705C2.10875 152.705 1.55653 152.224 1.50309 151.565C1.36059 150.888 1.78811 150.265 2.46501 150.104C3.1241 149.962 3.81882 150.425 3.97914 151.12C3.97914 151.173 3.99696 151.262 4.01477 151.316C4.08602 152.011 3.56944 152.634 2.89253 152.705C2.8569 152.705 2.80347 152.705 2.76784 152.705H2.75003ZM221.337 143.335C220.785 143.335 220.268 142.961 220.108 142.391C219.93 141.732 220.322 141.02 220.981 140.824C221.658 140.628 222.335 140.984 222.531 141.643C222.531 141.643 222.549 141.714 222.549 141.732C222.727 142.409 222.317 143.104 221.658 143.282C221.551 143.318 221.444 143.318 221.337 143.318V143.335ZM1.27152 137.582C0.5768 137.582 0.00677425 137.012 0.00677425 136.317C-0.064479 135.622 0.434294 135.034 1.12901 134.963C1.80592 134.874 2.4472 135.426 2.51845 136.121C2.51845 136.175 2.51845 136.264 2.51845 136.317C2.51845 137.012 1.94843 137.582 1.25371 137.582H1.27152ZM1.27152 122.441C0.5768 122.441 0.00677425 121.835 0.00677425 121.14C0.00677425 121.087 0.00677425 120.998 0.00677425 120.944C0.0780275 120.249 0.719307 119.769 1.39621 119.822C2.09093 119.893 2.58971 120.517 2.51845 121.211C2.51845 121.906 1.94843 122.423 1.25371 122.423L1.27152 122.441ZM2.73221 107.317C2.73221 107.317 2.64315 107.317 2.58971 107.317C1.89499 107.246 1.39621 106.587 1.46747 105.892C1.46747 105.839 1.48528 105.749 1.50309 105.696C1.6456 105.019 2.32251 104.592 2.99941 104.734C3.67632 104.877 4.10384 105.554 3.96133 106.23C3.89008 106.872 3.35568 107.317 2.73221 107.317ZM5.6536 92.3361C5.54672 92.3361 5.43984 92.3361 5.35077 92.3005C4.69168 92.1224 4.28197 91.4989 4.42448 90.822C4.42448 90.7864 4.44229 90.7151 4.4601 90.6795C4.65605 90.0204 5.36858 89.6285 6.02768 89.8423C6.68677 90.0382 7.07866 90.7507 6.8649 91.4098C6.70458 91.962 6.188 92.3361 5.63578 92.3361H5.6536ZM10.0891 77.8005C9.9466 77.8005 9.78629 77.7827 9.64378 77.7114C9.02031 77.462 8.68186 76.8029 8.89562 76.1617C8.89562 76.126 8.93125 76.037 8.94906 76.0014C9.23407 75.3601 9.98223 75.0751 10.6235 75.3601C11.2648 75.6451 11.5498 76.3932 11.2648 77.0345C11.051 77.5155 10.5879 77.8005 10.0891 77.8005ZM16.11 63.9418C15.9319 63.9418 15.7359 63.9062 15.5578 63.8171C14.9165 63.5321 14.6671 62.7305 14.9521 62.0892C14.97 62.0358 15.0234 61.9467 15.059 61.8933C15.4331 61.3054 16.1991 61.1273 16.8047 61.5014C17.3926 61.8754 17.5707 62.6414 17.1966 63.2471C17.0007 63.7102 16.5732 63.9596 16.11 63.9596V63.9418ZM23.7163 50.7065C23.4669 50.7065 23.2353 50.6353 23.0216 50.4928C22.4694 50.1187 22.2912 49.3705 22.6475 48.8005C22.6653 48.7649 22.7188 48.6936 22.7366 48.6758C23.1463 48.1236 23.9479 47.9989 24.5001 48.4264C25.0523 48.8539 25.177 49.6377 24.7495 50.1899C24.5001 50.5284 24.1082 50.7065 23.7163 50.7065ZM32.9614 38.6648C32.6764 38.6648 32.3736 38.5757 32.142 38.3619C31.6254 37.8988 31.5363 37.1328 31.9995 36.5984L32.0351 36.545C32.4983 36.0284 33.2999 35.9571 33.8165 36.4203C34.333 36.8834 34.3865 37.685 33.9411 38.2016C33.6918 38.4866 33.3177 38.647 32.9614 38.647V38.6648ZM213.713 32.6795C213.428 32.6795 213.125 32.5726 212.894 32.3767C212.377 31.9314 212.288 31.1476 212.716 30.6132C213.143 30.0788 213.891 29.9719 214.443 30.3816C214.461 30.3816 214.533 30.4529 214.55 30.4707C215.085 30.916 215.138 31.7176 214.693 32.252C214.443 32.537 214.087 32.6973 213.731 32.6973L213.713 32.6795ZM44.6291 27.6918L43.7563 26.7833L42.9547 25.8036C43.4713 25.3405 44.2729 25.3939 44.736 25.9283C45.1992 26.4627 45.1457 27.2465 44.6113 27.7096L44.6291 27.6918ZM201.119 24.1113C200.923 24.1113 200.709 24.0579 200.513 23.951L201.083 22.8288L201.76 21.76C202.348 22.1163 202.544 22.8822 202.206 23.4879C201.974 23.8976 201.547 24.1113 201.119 24.1113ZM56.0297 19.0524C55.6021 19.0524 55.1746 18.8386 54.943 18.4467C54.6046 17.8589 54.7649 17.1107 55.3349 16.7545C55.3528 16.7545 55.424 16.701 55.4418 16.701C56.0475 16.3626 56.8134 16.5763 57.1519 17.1998C57.4904 17.8054 57.2766 18.5714 56.6531 18.9099C56.4572 19.0167 56.2434 19.0702 56.0297 19.0702V19.0524ZM187.688 17.0038C187.492 17.0038 187.314 16.9682 187.118 16.8613C186.512 16.5585 186.227 15.8104 186.512 15.1869C186.797 14.5634 187.51 14.2784 188.151 14.5634C188.151 14.5634 188.222 14.5991 188.24 14.6169C188.864 14.9197 189.113 15.6857 188.81 16.3091C188.596 16.7545 188.151 17.0038 187.688 17.0038ZM69.4787 12.0161C68.9978 12.0161 68.5168 11.7489 68.303 11.268C68.018 10.6267 68.2852 9.89636 68.9265 9.61134H68.9799C69.6212 9.30852 70.3694 9.61134 70.6544 10.2348C70.9394 10.8761 70.6544 11.6242 70.0131 11.9093C69.835 11.9805 69.6568 12.0161 69.4965 12.0161H69.4787ZM173.58 11.3749C173.455 11.3749 173.313 11.357 173.188 11.3036C172.529 11.0898 172.137 10.3595 172.368 9.70041C172.6 9.04132 173.277 8.66724 173.936 8.89881H173.989C174.649 9.13039 175.005 9.84292 174.791 10.502C174.613 11.0364 174.114 11.3749 173.598 11.3749H173.58ZM158.991 7.15312C158.866 7.15312 158.741 7.15312 158.634 7.09968C157.975 6.90373 157.583 6.22683 157.744 5.56774C157.922 4.90865 158.563 4.49894 159.222 4.64145C159.258 4.64145 159.329 4.65926 159.365 4.67707C160.024 4.87302 160.416 5.58555 160.202 6.24464C160.042 6.79685 159.543 7.1353 158.991 7.1353V7.15312ZM83.6581 6.9928C83.1415 6.9928 82.6784 6.65435 82.5003 6.11995C82.2865 5.46086 82.6962 4.73051 83.3553 4.51675C83.4087 4.51675 83.4978 4.46331 83.5512 4.46331C84.2281 4.33862 84.905 4.76614 85.0297 5.46086C85.1722 6.13776 84.7269 6.81466 84.0322 6.93936C83.9075 6.97498 83.765 7.01061 83.6403 7.01061L83.6581 6.9928ZM144.081 4.303C143.992 4.303 143.903 4.303 143.814 4.26737C143.119 4.19612 142.656 3.59046 142.727 2.89575C142.798 2.20103 143.422 1.68445 144.152 1.77351C144.206 1.77351 144.295 1.79133 144.348 1.80914C145.025 1.95165 145.453 2.62855 145.31 3.30545C145.185 3.89329 144.651 4.303 144.081 4.303ZM98.6035 3.85766C97.9622 3.85766 97.41 3.37671 97.3566 2.71762C97.2853 2.0229 97.8019 1.39943 98.4788 1.32818C99.1557 1.16786 99.7792 1.61319 99.9395 2.2901C100.082 2.967 99.6188 3.6439 98.9241 3.80422C98.8707 3.80422 98.7816 3.82204 98.7282 3.83985C98.6926 3.83985 98.6391 3.83985 98.6035 3.83985V3.85766ZM128.957 2.78887L128.904 1.52413L129.029 0.259386C129.706 0.330639 130.222 0.900663 130.186 1.57757C130.151 2.25447 129.616 2.78887 128.94 2.78887H128.957ZM113.727 2.53948C113.032 2.53948 112.462 1.96946 112.462 1.27474C112.462 0.580025 113.014 0.0100004 113.709 0.0100004C114.404 -0.0790659 114.992 0.437519 115.063 1.13224C115.134 1.82695 114.6 2.45042 113.905 2.52167C113.852 2.52167 113.763 2.52167 113.709 2.52167L113.727 2.53948Z" fill="#612A7A"/>
<path d="M251.602 131.454L246.489 133.253L244.53 138.526L242.677 133.36L237.458 131.454L242.749 129.495L244.53 124.382L246.436 129.602L251.602 131.454Z" fill="#612A7A"/>
<path d="M28.508 178.535L23.3956 180.316L21.4361 185.607L19.5836 180.441L14.3643 178.535L19.637 176.576L21.4361 171.463L23.3422 176.682L28.508 178.535Z" fill="#612A7A"/>
<path d="M55.6192 22.5437L45.4834 26.0885L41.6001 36.5627L37.9306 26.3201L27.5811 22.5437L38.0553 18.6426L41.6001 8.50684L45.3766 18.8742L55.6192 22.5437Z" fill="#612A7A"/>
</svg>
