<svg width="252" height="258" viewBox="0 0 252 258" fill="none" xmlns="http://www.w3.org/2000/svg">
<path d="M250.115 64.9431L232.139 132.093L121.17 102.415L113.791 129.995L46.6416 112.036L71.9967 17.2893L250.115 64.9431Z" fill="white"/>
<path d="M232.789 133.214L121.819 103.518L114.441 131.116L45.5371 112.687L71.3443 16.186L251.217 64.3101L232.789 133.214ZM120.535 101.312L231.505 131.007L249.011 65.6122L72.6284 18.3924L47.7435 111.385L113.157 128.891L120.535 101.294V101.312Z" fill="#612A7A"/>
<path d="M160.648 130.357L227.798 148.333L202.46 243.062L24.3418 195.408L42.3002 128.259L153.269 157.954L160.648 130.357Z" fill="white"/>
<path d="M203.094 244.183L23.2207 196.059L41.6493 127.155L152.619 156.851L159.997 129.253L228.901 147.682L203.076 244.165L203.094 244.183ZM25.4452 194.775L201.828 241.959L226.713 148.966L161.299 131.459L153.921 159.057L42.9514 129.362L25.4632 194.757L25.4452 194.775Z" fill="#612A7A"/>
<path d="M217.128 70.1876L211.196 72.2855L208.899 78.4163L206.765 72.4121L200.688 70.1876L206.819 67.9089L208.899 61.9771L211.123 68.0536L217.128 70.1876Z" fill="#612A7A"/>
<path d="M43.0593 116.015L37.1275 118.095L34.8488 124.244L32.6967 118.221L26.6201 116.015L32.7509 113.736L34.8488 107.786L37.0551 113.863L43.0593 116.015Z" fill="#612A7A"/>
<path d="M181.681 67.7643L169.89 71.8877L165.368 84.0769L161.1 72.1589L149.056 67.7643L161.245 63.243L165.368 51.4517L169.763 63.4962L181.681 67.7643Z" fill="#612A7A"/>
<path d="M163.398 220.203L150.774 203.673C147.718 199.676 142.672 198.103 138.079 199.296L94.9461 212.734C90.4972 214.379 87.2238 218.539 86.9887 223.566L85.9941 244.346C85.6685 251.037 90.8408 256.716 97.5142 257.024L98.2195 257.06C104.911 257.385 110.59 252.213 110.897 245.54L111.042 242.339L141.605 232.808L143.558 235.358C147.628 240.675 155.223 241.688 160.54 237.637L161.101 237.221C166.418 233.151 167.431 225.556 163.38 220.239L163.398 220.203Z" fill="white"/>
<path d="M98.8168 257.982C98.5998 257.982 98.3828 257.982 98.1838 257.982L97.4785 257.946C90.2988 257.602 84.7467 251.489 85.0903 244.31L86.085 223.53C86.3201 218.575 89.3041 214.253 93.7892 212.263V212.191L94.6753 211.883L138.622 198.175L138.658 198.247C143.487 197.307 148.46 199.17 151.498 203.13L164.122 219.66C168.48 225.375 167.377 233.549 161.68 237.926L161.119 238.36C155.423 242.718 147.23 241.615 142.854 235.918L141.298 233.875L111.946 243.026L111.82 245.594C111.657 249.066 110.138 252.267 107.57 254.618C105.147 256.806 102.072 258 98.8349 258L98.8168 257.982ZM95.453 213.529L95.2541 213.602C91.0041 215.157 88.1105 219.081 87.8935 223.602L86.8988 244.382C86.7541 247.384 87.785 250.242 89.8105 252.466C91.8179 254.691 94.5849 255.993 97.5689 256.119L98.2743 256.155C101.24 256.318 104.134 255.269 106.358 253.262C108.583 251.254 109.885 248.487 110.011 245.503L110.192 241.669L141.967 231.759L144.3 234.797C148.062 239.716 155.115 240.657 160.016 236.895L160.577 236.461C165.496 232.699 166.436 225.646 162.675 220.745L150.051 204.215C147.303 200.617 142.691 199.043 138.314 200.164L138.025 200.237L95.4711 213.511L95.453 213.529Z" fill="#612A7A"/>
<path d="M99.088 244.075C102.554 244.075 105.363 241.265 105.363 237.799C105.363 234.333 102.554 231.524 99.088 231.524C95.6221 231.524 92.8125 234.333 92.8125 237.799C92.8125 241.265 95.6221 244.075 99.088 244.075Z" fill="#8DC63F"/>
<path d="M148.911 228.539C152.377 228.539 155.187 225.73 155.187 222.264C155.187 218.798 152.377 215.989 148.911 215.989C145.445 215.989 142.636 218.798 142.636 222.264C142.636 225.73 145.445 228.539 148.911 228.539Z" fill="#8DC63F"/>
<path d="M134.86 216.079L108.311 224.38L100.264 211.088L132.744 200.96L134.86 216.079Z" fill="#612A7A"/>
<path d="M31.7207 43.7657V49.1912L36.9292 49.9327C37.4175 52.5912 38.4483 55.0688 39.9132 57.2028L36.7483 61.4166L40.5823 65.2506L44.778 62.1039C46.9121 63.5868 49.3716 64.6358 52.0301 65.1421L52.7716 70.3687H58.1971L58.9386 65.1602C61.597 64.6719 64.0747 63.6411 66.2087 62.1762L70.4225 65.3411L74.2565 61.5071L71.1097 57.3114C72.5927 55.1773 73.6416 52.7178 74.148 50.0593L79.3745 49.3178V43.8923L74.1661 43.1508C73.6778 40.4924 72.6469 38.0147 71.1821 35.8807L74.3469 31.6669L70.5129 27.8329L66.3172 30.9797C64.1832 29.4967 61.7236 28.4478 59.0651 27.9414L58.3237 22.7148H52.8982L52.1567 27.9233C49.4982 28.4116 47.0206 29.4424 44.8865 30.9073L40.6728 27.7425L36.8387 31.5765L39.9855 35.7722C38.5026 37.9062 37.4536 40.3658 36.9473 43.0242L31.7207 43.7657ZM55.5567 33.3669C62.8268 33.3669 68.7225 39.2626 68.7225 46.5327C68.7225 53.8029 62.8268 59.6986 55.5567 59.6986C48.2865 59.6986 42.3908 53.8029 42.3908 46.5327C42.3908 39.2626 48.2865 33.3669 55.5567 33.3669Z" fill="white"/>
<path d="M59.0113 71.2729H52.0124L51.2529 65.9017C48.9561 65.3953 46.804 64.491 44.8327 63.2251L40.5104 66.4623L35.5551 61.507L38.8104 57.1666C37.5445 55.1954 36.6583 53.0252 36.17 50.7284L30.835 49.9688V42.97L36.2062 42.2104C36.7126 39.9136 37.6168 37.7615 38.8828 35.7902L35.6456 31.4679L40.6008 26.5127L44.9412 29.7679C46.9306 28.502 49.0827 27.6158 51.3795 27.1275L52.139 21.7925H59.1379L59.8975 27.1637C62.1943 27.6701 64.3464 28.5743 66.3176 29.8403L70.6399 26.6031L75.5952 31.5584L72.3399 35.8987C73.6059 37.87 74.492 40.0402 74.9803 42.337L80.3335 43.0966V50.0954L74.9622 50.855C74.4559 53.1518 73.5516 55.3039 72.2857 57.2752L75.5229 61.5975L70.5676 66.5527L66.2272 63.2974C64.2559 64.5634 62.0858 65.4496 59.789 65.9378L59.0294 71.2729H59.0113ZM53.5858 69.4644H57.4379L58.1613 64.4006L58.8124 64.2921C61.3081 63.84 63.6411 62.8815 65.7389 61.4528L66.2815 61.0911L70.3867 64.1655L73.1176 61.4347L70.0431 57.3475L70.4229 56.8049C71.8697 54.7252 72.8463 52.3922 73.3165 49.8965L73.4431 49.2635L78.525 48.5401V44.6699L73.4612 43.9465L73.3527 43.3136C72.9006 40.8178 71.9421 38.4849 70.5133 36.387L70.1516 35.8445L73.2261 31.7392L70.4953 29.0084L66.39 32.0828L65.8474 31.703C63.7496 30.2562 61.4347 29.2796 58.939 28.8094L58.306 28.6828L57.5826 23.601H53.7124L52.989 28.6648L52.338 28.7733C49.8422 29.2254 47.5093 30.1839 45.4114 31.6126L44.8689 31.9743L40.7636 28.8999L38.0328 31.6307L41.1072 35.736L40.7274 36.2785C39.2806 38.3764 38.304 40.6913 37.8338 43.187L37.7072 43.8199L32.6254 44.5433V48.4135L37.6892 49.1369L37.7977 49.788C38.2498 52.2837 39.2083 54.6167 40.637 56.7145L40.9987 57.2571L37.9243 61.3623L40.6551 64.0932L44.7604 61.0187L45.3029 61.3985C47.4008 62.8453 49.7157 63.8219 52.2114 64.2921L52.8443 64.4187L53.5677 69.5006L53.5858 69.4644ZM55.5752 60.6028C47.8167 60.6028 41.5051 54.2911 41.5051 46.5327C41.5051 38.7742 47.8167 32.4626 55.5752 32.4626C63.3336 32.4626 69.6453 38.7742 69.6453 46.5327C69.6453 54.2911 63.3336 60.6028 55.5752 60.6028ZM55.5752 34.2711C48.8114 34.2711 43.3136 39.7689 43.3136 46.5327C43.3136 53.2965 48.8114 58.7943 55.5752 58.7943C62.3389 58.7943 67.8368 53.2965 67.8368 46.5327C67.8368 39.7689 62.3389 34.2711 55.5752 34.2711Z" fill="#612A7A"/>
<path d="M184.884 196.891V203.293L191.015 204.161C191.575 207.29 192.805 210.201 194.541 212.733L190.816 217.706L195.337 222.228L200.292 218.52C202.806 220.275 205.718 221.504 208.846 222.083L209.733 228.232H216.135L217.003 222.101C220.131 221.541 223.043 220.311 225.575 218.575L230.548 222.3L235.07 217.779L231.362 212.824C233.116 210.31 234.346 207.398 234.925 204.269L241.074 203.383V196.981L234.943 196.113C234.382 192.984 233.153 190.073 231.416 187.541L235.142 182.567L230.621 178.046L225.665 181.754C223.152 179.999 220.24 178.77 217.111 178.191L216.225 172.042H209.823L208.955 178.173C205.826 178.733 202.914 179.963 200.383 181.699L195.409 177.974L190.888 182.495L194.595 187.45C192.841 189.964 191.611 192.876 191.033 196.005L184.884 196.891ZM212.97 184.647C221.542 184.647 228.487 191.592 228.487 200.164C228.487 208.736 221.542 215.681 212.97 215.681C204.397 215.681 197.453 208.736 197.453 200.164C197.453 191.592 204.397 184.647 212.97 184.647Z" fill="#D1EDF8"/>
<path d="M42.8789 8.13823V10.2361L44.8863 10.5254C45.0672 11.5563 45.4651 12.5148 46.0438 13.3467L44.814 14.9743L46.297 16.4573L47.9246 15.2456C48.7565 15.8243 49.6969 16.2222 50.7278 16.4211L51.0171 18.4466H53.115L53.4044 16.4392C54.4352 16.2584 55.3937 15.8605 56.2256 15.2818L57.8532 16.5116L59.3362 15.0286L58.1245 13.4009C58.7032 12.569 59.1011 11.6286 59.3 10.5978L61.3256 10.3084V8.21057L59.3181 7.92121C59.1373 6.89037 58.7394 5.93186 58.1607 5.09996L59.3905 3.47231L57.9075 1.98934L56.2799 3.20104C55.448 2.62232 54.5075 2.22445 53.4767 2.02551L53.1873 0H51.0895L50.8001 2.00743C49.7693 2.18828 48.8108 2.58615 47.9789 3.16487L46.3512 1.93509L44.8683 3.41806L46.0799 5.0457C45.5012 5.87761 45.1034 6.81803 44.9044 7.84887L42.8789 8.13823ZM52.1022 4.12337C54.9235 4.12337 57.2022 6.40207 57.2022 9.22332C57.2022 12.0446 54.9235 14.3233 52.1022 14.3233C49.281 14.3233 47.0023 12.0446 47.0023 9.22332C47.0023 6.40207 49.281 4.12337 52.1022 4.12337Z" fill="#D1EDF8"/>
<path d="M105.96 33.1714L33.3543 55.7299C25.3231 58.2252 20.8353 66.7586 23.3306 74.7899L23.336 74.8071C25.8313 82.8383 34.3647 87.3261 42.3959 84.8308L115.001 62.2723C123.033 59.777 127.52 51.2436 125.025 43.2124L125.02 43.1951C122.524 35.1639 113.991 30.6761 105.96 33.1714Z" fill="#8DC63F"/>
<path d="M47.3473 75.939L42.9527 72.5028L42.7718 72.5571L39.607 73.5337L40.9633 77.9102L37.3282 79.0496L32.4453 63.3157L39.2633 61.1997C40.6559 60.7657 41.9399 60.621 43.1154 60.7657C44.291 60.9104 45.2856 61.3263 46.0994 62.0135C46.9133 62.7008 47.5101 63.6231 47.8718 64.7986C48.2335 65.9741 48.2696 67.0592 47.9622 68.0901C47.6548 69.1028 47.058 70.0071 46.1718 70.7847L51.2717 74.7453L47.3654 75.957L47.3473 75.939ZM42.6814 64.1657C41.958 63.8763 41.0537 63.8944 39.9687 64.238L37.0027 65.1603L38.7027 70.6401L41.6686 69.7177C42.7537 69.3741 43.5133 68.8858 43.9473 68.2167C44.3633 67.5656 44.4356 66.8061 44.1644 65.938C43.8931 65.0518 43.3867 64.4731 42.6814 64.1657Z" fill="white"/>
<path d="M55.7208 72.6653C54.5453 72.4483 53.5325 71.96 52.6644 71.1824C51.7964 70.4228 51.1815 69.4281 50.8017 68.2345C50.4219 67.0409 50.3857 65.8835 50.657 64.7622C50.9283 63.6409 51.4889 62.6643 52.3389 61.8143C53.1889 60.9644 54.2378 60.3495 55.5219 59.9516C56.8059 59.5537 58.0176 59.4633 59.1931 59.6803C60.3686 59.8973 61.3814 60.3856 62.2314 61.1633C63.0994 61.9229 63.7143 62.9175 64.076 64.1111C64.4558 65.3047 64.492 66.4622 64.2207 67.5835C63.9494 68.7047 63.3888 69.6813 62.5569 70.5313C61.725 71.3813 60.658 71.9962 59.392 72.394C58.1261 72.7919 56.8963 72.8823 55.7208 72.6653ZM60.4229 67.9271C60.8027 67.1494 60.8388 66.2452 60.5314 65.2143C60.2059 64.2016 59.6814 63.4782 58.9037 63.0441C58.1442 62.6101 57.3123 62.5377 56.408 62.8271C55.5038 63.0984 54.8527 63.6409 54.4729 64.4186C54.0751 65.2143 54.0389 66.1186 54.3463 67.1313C54.6719 68.1441 55.2144 68.8675 55.9921 69.3015C56.7697 69.7356 57.6016 69.8079 58.5059 69.5185C59.4101 69.2292 60.0431 68.7047 60.441 67.9271H60.4229Z" fill="white"/>
<path d="M74.9447 54.7615C76.0298 54.9966 76.9703 55.4849 77.7841 56.2625C78.5979 57.0402 79.1947 58.0529 79.5926 59.2827C79.9724 60.5306 80.0628 61.7061 79.8277 62.7912C79.5926 63.8944 79.0862 64.8348 78.3266 65.6486C77.5671 66.4624 76.6266 67.0231 75.5054 67.3848C73.8416 67.9092 72.4129 67.7645 71.2192 66.9869L71.6533 68.3794L68.3076 69.4284L63.1172 52.754L66.6257 51.6689L68.4522 57.5285C69.031 56.2806 70.098 55.4125 71.6352 54.9423C72.7565 54.5987 73.8596 54.5264 74.9447 54.7615ZM75.9394 63.0986C76.3192 62.3029 76.3554 61.4167 76.0479 60.3859C75.7405 59.3731 75.1979 58.6497 74.4203 58.2157C73.6607 57.7817 72.8288 57.7093 71.9246 57.9987C71.0203 58.27 70.3873 58.8125 69.9895 59.5902C69.6097 60.3678 69.5735 61.2721 69.881 62.3029C70.1884 63.3157 70.731 64.0391 71.5086 64.4731C72.2682 64.9071 73.1001 64.9795 74.0043 64.6901C74.9086 64.4007 75.5415 63.8763 75.9394 63.0986Z" fill="white"/>
<path d="M78.6338 47.943L82.1423 46.8579L87.3327 63.5322L83.8242 64.6173L78.6338 47.943Z" fill="white"/>
<path d="M92.7052 61.1631C91.5296 60.9461 90.5169 60.4578 89.6488 59.6802C88.7807 58.9206 88.1658 57.9259 87.7861 56.7323C87.4063 55.5387 87.3701 54.3813 87.6414 53.26C87.9126 52.1387 88.4733 51.1621 89.3233 50.3122C90.1733 49.4622 91.2222 48.8473 92.5062 48.4494C93.7903 48.0515 95.0019 47.9611 96.1775 48.1781C97.353 48.3951 98.3657 48.8834 99.2157 49.6611C100.084 50.4207 100.699 51.4153 101.06 52.6089C101.44 53.8025 101.476 54.96 101.205 56.0813C100.934 57.2025 100.373 58.1791 99.5413 59.0291C98.7094 59.8791 97.6424 60.494 96.3764 60.8918C95.1105 61.2897 93.8807 61.3801 92.7052 61.1631ZM97.4072 56.4249C97.787 55.6291 97.8232 54.743 97.5158 53.7121C97.1902 52.6994 96.6658 51.976 95.8881 51.5419C95.1285 51.1079 94.2966 51.0355 93.3924 51.3249C92.4881 51.5962 91.8371 52.1387 91.4573 52.9345C91.0594 53.7302 91.0233 54.6345 91.3307 55.6472C91.6562 56.66 92.1988 57.3834 92.9764 57.8174C93.7541 58.2334 94.586 58.3057 95.4902 58.0344C96.3945 57.7631 97.0275 57.2206 97.4253 56.4429L97.4072 56.4249Z" fill="white"/>
<path d="M112.598 55.6655L108.8 52.7899L107.209 57.3474L103.393 58.541L106.16 50.9995L99.7939 46.406L103.718 45.1762L107.372 47.907L108.909 43.5666L112.634 42.4092L109.976 49.7155L116.577 54.4357L112.598 55.6655Z" fill="white"/>
<path d="M113.195 80.8939L120.031 74.9982L109.885 75.9387L108.24 70.043L104.243 77.1142L98.8174 73.5876L98.3472 80.1886L91.0408 76.1738L92.9217 82.5397L83.2462 82.3046L89.8472 86.3194L76.6633 90.7864L88.4366 91.7268L73.5889 101.872L86.7909 99.0512L76.8984 113.429L90.3355 107.298L113.195 80.8939Z" fill="#612A7A"/>
<path d="M99.3227 162.801C99.0695 162.801 98.7983 162.692 98.6174 162.475L91.2568 153.559L105.128 141.225L102.759 128.276C102.668 127.788 102.994 127.318 103.482 127.227C103.971 127.137 104.441 127.463 104.531 127.951L107.081 141.894L93.7345 153.74L99.9919 161.318C100.317 161.697 100.263 162.276 99.8653 162.584C99.7025 162.728 99.4855 162.782 99.2866 162.782L99.3227 162.801Z" fill="#612A7A"/>
<path d="M122.87 153.993C122.616 153.993 122.381 153.885 122.201 153.704L114.279 144.969L125.275 137.916L115.093 129.362C114.713 129.036 114.659 128.475 114.985 128.096C115.31 127.716 115.871 127.662 116.251 127.987L128.313 138.115L117.046 145.349L123.539 152.492C123.882 152.854 123.846 153.433 123.485 153.776C123.304 153.939 123.087 154.011 122.87 154.011V153.993Z" fill="#612A7A"/>
<path d="M124.207 131.893H93.4807C92.052 131.893 90.8945 130.736 90.8945 129.307V98.2555C90.8945 88.3449 98.9243 80.3152 108.835 80.3152C118.745 80.3152 126.775 88.3449 126.775 98.2555V129.307C126.775 130.736 125.618 131.893 124.189 131.893H124.207Z" fill="white"/>
<path d="M124.207 132.798H93.4806C91.5636 132.798 89.9902 131.242 89.9902 129.307V98.2554C89.9902 87.8566 98.454 79.4109 108.835 79.4109C119.216 79.4109 127.679 87.8747 127.679 98.2554V129.307C127.679 131.224 126.124 132.798 124.189 132.798H124.207ZM108.835 81.2194C99.4306 81.2194 91.7987 88.8693 91.7987 98.2554V129.307C91.7987 130.23 92.5583 130.989 93.4806 130.989H124.207C125.129 130.989 125.889 130.23 125.889 129.307V98.2554C125.889 88.8512 118.239 81.2194 108.853 81.2194H108.835Z" fill="#612A7A"/>
<path d="M130.175 120.681C136.188 120.681 141.062 115.806 141.062 109.794C141.062 103.781 136.188 98.9065 130.175 98.9065C124.162 98.9065 119.288 103.781 119.288 109.794C119.288 115.806 124.162 120.681 130.175 120.681Z" fill="white"/>
<path d="M130.175 121.585C123.683 121.585 118.384 116.304 118.384 109.794C118.384 103.283 123.665 98.0022 130.175 98.0022C136.686 98.0022 141.967 103.283 141.967 109.794C141.967 116.304 136.686 121.585 130.175 121.585ZM130.175 99.8288C124.677 99.8288 120.192 104.314 120.192 109.812C120.192 115.309 124.677 119.795 130.175 119.795C135.673 119.795 140.158 115.328 140.158 109.812C140.158 104.296 135.673 99.8288 130.175 99.8288Z" fill="#612A7A"/>
<path d="M135.221 112.199C137.289 112.199 138.965 110.523 138.965 108.455C138.965 106.388 137.289 104.712 135.221 104.712C133.154 104.712 131.478 106.388 131.478 108.455C131.478 110.523 133.154 112.199 135.221 112.199Z" fill="#612A7A"/>
<path d="M204.577 192.569H182.803V180.542H171.735V192.569H154.626V177.287H143.631V191.447H124.045V155.513H110.101V191.447H97.4779V178.028H87.3684V191.447H0.904248C0.397869 191.447 0 191.05 0 190.543C0 190.037 0.397869 189.639 0.904248 189.639H85.5418V176.22H99.2683V189.639H108.275V153.704H125.835V189.639H141.804V175.478H156.417V190.76H169.908V178.734H184.593V190.76H204.559C205.065 190.76 205.463 191.158 205.463 191.664C205.463 192.171 205.065 192.569 204.559 192.569H204.577Z" fill="#8DC63F"/>
<path d="M174.176 155.838V148.966L180.035 155.82L178.769 145.294L184.972 151.335L185.732 143.396L190.85 150.449L191.537 141.967L196.095 148.405L196.239 140.972L201.683 148.405L175.659 159.292L174.176 155.838Z" fill="#8DC63F"/>
<path d="M202.244 145.041L197.253 150.828L197.723 139.833L191.664 146.669L190.688 139.236L184.43 144.517L185.552 134.751L178.679 142.726L180.054 131.803L172.766 137.482L174.194 131.676C174.429 129.488 177.486 127.68 179.222 128.548L203.619 140.827L202.244 145.059V145.041Z" fill="#8DC63F"/>
<path d="M206.458 145.294L174.177 131.676C174.177 131.676 180.054 112.94 196.186 119.758C212.336 126.576 206.458 145.294 206.458 145.294Z" fill="white"/>
<path d="M207.037 146.506L173.073 132.183L173.326 131.405C173.453 131.025 176.347 122.037 183.689 118.619C187.541 116.829 191.864 116.937 196.566 118.908C213.276 125.962 207.417 145.367 207.344 145.548L207.037 146.506ZM175.334 131.17L205.879 144.046C206.82 140.194 209.171 126.197 195.86 120.572C191.665 118.8 187.831 118.691 184.467 120.247C179.023 122.76 176.202 128.982 175.352 131.17H175.334Z" fill="#612A7A"/>
<path d="M174.177 155.838L206.495 142.328C206.495 142.328 212.318 161.082 196.15 167.828C179.982 174.574 174.177 155.82 174.177 155.82V155.838Z" fill="white"/>
<path d="M189.458 170.216C187.415 170.216 185.461 169.782 183.635 168.932C176.292 165.495 173.417 156.489 173.308 156.109L173.073 155.332L207.073 141.117L207.362 142.075C207.417 142.274 213.24 161.698 196.511 168.678C194.052 169.709 191.701 170.216 189.458 170.216ZM175.316 156.344C176.166 158.533 178.969 164.754 184.413 167.286C187.776 168.859 191.61 168.751 195.806 166.997C209.153 161.426 206.82 147.411 205.897 143.558L175.316 156.344Z" fill="#612A7A"/>
<path d="M188.462 126.793C193.107 126.793 196.872 123.15 196.872 118.655C196.872 114.16 193.107 110.517 188.462 110.517C183.818 110.517 180.053 114.16 180.053 118.655C180.053 123.15 183.818 126.793 188.462 126.793Z" fill="white"/>
<path d="M188.463 127.698C183.327 127.698 179.131 123.646 179.131 118.655C179.131 113.664 183.308 109.613 188.463 109.613C193.617 109.613 197.776 113.664 197.776 118.655C197.776 123.646 193.599 127.698 188.463 127.698ZM188.463 111.439C184.321 111.439 180.939 114.676 180.939 118.673C180.939 122.67 184.303 125.907 188.463 125.907C192.622 125.907 195.968 122.67 195.968 118.673C195.968 114.676 192.604 111.439 188.463 111.439Z" fill="#612A7A"/>
<path d="M186.021 123.213C188.488 123.213 190.488 121.221 190.488 118.764C190.488 116.307 188.488 114.315 186.021 114.315C183.554 114.315 181.554 116.307 181.554 118.764C181.554 121.221 183.554 123.213 186.021 123.213Z" fill="#612A7A"/>
<path d="M56.3349 190.145C55.8285 190.145 55.4307 189.747 55.4307 189.241V164.826C55.4307 164.32 55.8285 163.922 56.3349 163.922C56.8413 163.922 57.2392 164.32 57.2392 164.826V189.241C57.2392 189.747 56.8413 190.145 56.3349 190.145Z" fill="#8DC63F"/>
<path d="M57.3818 161.209C61.5768 161.209 64.9775 157.808 64.9775 153.613C64.9775 149.419 61.5768 146.018 57.3818 146.018C53.1868 146.018 49.7861 149.419 49.7861 153.613C49.7861 157.808 53.1868 161.209 57.3818 161.209Z" fill="#8DC63F"/>
<path d="M50.9085 169.727C54.4942 169.727 57.401 166.82 57.401 163.235C57.401 159.649 54.4942 156.742 50.9085 156.742C47.3228 156.742 44.416 159.649 44.416 163.235C44.416 166.82 47.3228 169.727 50.9085 169.727Z" fill="#8DC63F"/>
<path d="M62.664 173.67C67.3384 173.67 71.1277 169.88 71.1277 165.206C71.1277 160.532 67.3384 156.742 62.664 156.742C57.9896 156.742 54.2002 160.532 54.2002 165.206C54.2002 169.88 57.9896 173.67 62.664 173.67Z" fill="#8DC63F"/>
<path d="M145.367 175.207C148.673 175.207 151.353 172.527 151.353 169.221C151.353 165.915 148.673 163.235 145.367 163.235C142.061 163.235 139.381 165.915 139.381 169.221C139.381 172.527 142.061 175.207 145.367 175.207Z" fill="#8DC63F"/>
<path d="M115.653 120.681C121.666 120.681 126.54 115.806 126.54 109.794C126.54 103.781 121.666 98.9065 115.653 98.9065C109.64 98.9065 104.766 103.781 104.766 109.794C104.766 115.806 109.64 120.681 115.653 120.681Z" fill="white"/>
<path d="M115.653 121.585C109.16 121.585 103.861 116.304 103.861 109.794C103.861 103.283 109.142 98.0022 115.653 98.0022C122.163 98.0022 127.444 103.283 127.444 109.794C127.444 116.304 122.163 121.585 115.653 121.585ZM115.653 99.8288C110.155 99.8288 105.67 104.314 105.67 109.812C105.67 115.309 110.155 119.795 115.653 119.795C121.151 119.795 125.636 115.328 125.636 109.812C125.636 104.296 121.151 99.8288 115.653 99.8288Z" fill="#612A7A"/>
<path d="M119.125 112.199C121.193 112.199 122.869 110.523 122.869 108.455C122.869 106.388 121.193 104.712 119.125 104.712C117.058 104.712 115.382 106.388 115.382 108.455C115.382 110.523 117.058 112.199 119.125 112.199Z" fill="#612A7A"/>
<path d="M174.194 110.589C173.977 110.589 173.778 110.517 173.597 110.372L157.104 95.9406C156.724 95.6151 156.688 95.0363 157.013 94.6566C157.339 94.2768 157.918 94.2406 158.297 94.5661L174.791 108.998C175.171 109.323 175.207 109.902 174.881 110.282C174.7 110.481 174.447 110.589 174.194 110.589Z" fill="#612A7A"/>
<path d="M183.02 103.826C182.604 103.826 182.225 103.518 182.134 103.102L179.476 89.5567C179.385 89.0684 179.693 88.5982 180.181 88.4897C180.651 88.3811 181.14 88.7067 181.248 89.195L183.907 102.741C183.997 103.229 183.69 103.699 183.201 103.808C183.147 103.808 183.093 103.808 183.02 103.808V103.826Z" fill="#612A7A"/>
<path d="M196.276 106.484C196.113 106.484 195.95 106.448 195.805 106.339C195.39 106.068 195.245 105.507 195.516 105.091L201.412 95.6692C201.683 95.2352 202.244 95.1267 202.66 95.3799C203.076 95.6512 203.22 96.2118 202.949 96.6277L197.053 106.05C196.891 106.321 196.583 106.484 196.294 106.484H196.276Z" fill="#612A7A"/>
<path d="M130.212 238.848H130.158C129.453 238.848 128.874 238.269 128.874 237.564C128.874 236.859 129.453 236.28 130.158 236.28C130.864 236.28 131.46 236.859 131.46 237.564C131.46 238.269 130.918 238.848 130.212 238.848ZM145.567 238.233C144.861 238.233 144.283 237.654 144.283 236.949C144.283 236.244 144.861 235.665 145.567 235.665C146.272 235.665 146.833 236.208 146.869 236.877C146.905 237.564 146.417 238.143 145.747 238.215C145.711 238.215 145.603 238.215 145.567 238.215V238.233ZM114.804 238.143C114.804 238.143 114.714 238.143 114.677 238.143C114.677 238.143 114.623 238.143 114.605 238.143C113.9 238.07 113.393 237.437 113.466 236.732C113.538 236.027 114.189 235.52 114.876 235.593C115.582 235.665 116.106 236.298 116.034 237.003C115.962 237.654 115.437 238.161 114.786 238.161L114.804 238.143ZM160.794 236.642C160.215 236.642 159.727 236.226 159.582 235.629C159.438 234.942 159.908 234.254 160.613 234.092C160.668 234.092 160.758 234.074 160.812 234.056C161.499 233.947 162.15 234.508 162.223 235.195C162.295 235.9 161.771 236.533 161.083 236.606C160.993 236.624 160.903 236.642 160.812 236.642H160.794ZM99.3053 235.737L99.5766 234.49L99.2691 235.737C98.5819 235.593 98.1298 234.924 98.2564 234.236C98.401 233.549 99.0702 233.097 99.7574 233.224L99.2872 235.737H99.3053ZM176.094 233.82C175.515 233.82 174.991 233.441 174.846 232.862C174.665 232.193 175.045 231.506 175.696 231.307L176.112 232.518L176.383 233.766C176.293 233.784 176.184 233.802 176.094 233.802V233.82ZM84.7831 231.487C84.6565 231.487 84.5118 231.469 84.3852 231.415C84.349 231.415 84.2586 231.379 84.2224 231.361C83.5714 231.072 83.282 230.312 83.5714 229.661C83.8607 229.01 84.6203 228.72 85.2714 229.01C85.9043 229.281 86.2118 230.023 85.9767 230.656C85.7777 231.162 85.3075 231.487 84.8012 231.487H84.7831ZM190.887 229.516C190.363 229.516 189.875 229.209 189.676 228.702C189.423 228.069 189.712 227.346 190.327 227.075L190.887 228.232L191.285 229.444C191.141 229.498 191.014 229.516 190.869 229.516H190.887ZM70.7672 225.104C70.5321 225.104 70.297 225.031 70.08 224.905C69.4289 224.615 69.1938 223.892 69.4832 223.241C69.7726 222.59 70.5864 222.337 71.2374 222.626C71.2917 222.644 71.3821 222.698 71.4364 222.734C72.0332 223.114 72.214 223.892 71.8342 224.507C71.5991 224.886 71.1651 225.104 70.7491 225.104H70.7672ZM204.958 223.313C204.487 223.313 204.035 223.06 203.818 222.608C203.511 221.975 203.764 221.197 204.397 220.89C205.03 220.582 205.808 220.817 206.133 221.432C206.459 222.047 206.26 222.807 205.645 223.132C205.645 223.132 205.572 223.168 205.554 223.186C205.374 223.277 205.175 223.331 204.976 223.331L204.958 223.313ZM57.9269 216.567C57.6737 216.567 57.4025 216.495 57.1854 216.314C57.1674 216.314 57.095 216.242 57.0769 216.224C56.5344 215.772 56.4801 214.958 56.9322 214.415C57.4025 213.873 58.1982 213.818 58.7407 214.271C59.2652 214.723 59.3556 215.518 58.9216 216.061C58.6684 216.387 58.2886 216.549 57.9269 216.549V216.567ZM217.744 214.741C217.382 214.741 217.038 214.596 216.785 214.307C216.315 213.782 216.369 212.969 216.912 212.498L217.798 213.421L218.612 214.415C218.377 214.632 218.069 214.741 217.762 214.741H217.744ZM45.7377 205.59L46.7143 204.758L45.7196 205.572C45.2494 205.047 45.3036 204.233 45.8462 203.763C46.3706 203.293 47.1845 203.347 47.6547 203.89L45.7557 205.608L45.7377 205.59ZM228.323 203.582C228.07 203.582 227.799 203.51 227.582 203.347C227.003 202.931 226.877 202.136 227.292 201.575L228.359 202.28L229.372 203.076C229.119 203.42 228.721 203.6 228.323 203.6V203.582ZM37.3101 192.514L36.225 193.184C35.8633 192.605 36.008 191.827 36.5686 191.429C37.1292 191.031 37.8888 191.14 38.3048 191.701L37.3101 192.514ZM235.865 190.163C235.72 190.163 235.557 190.145 235.413 190.073C234.78 189.82 234.436 189.133 234.653 188.481L235.883 188.843L237.058 189.368C236.841 189.856 236.371 190.145 235.865 190.145V190.163ZM28.7197 179.529L29.8953 179.005L28.7197 179.511C28.4304 178.878 28.7016 178.119 29.3346 177.811C29.9676 177.504 30.7091 177.757 31.0346 178.39L29.9133 179.005L28.7378 179.529H28.7197ZM240.042 175.334C240.042 175.334 239.916 175.334 239.862 175.334C239.174 175.225 238.704 174.628 238.776 173.941L240.06 174.032L241.308 174.285C241.182 174.9 240.657 175.334 240.042 175.334ZM24.3793 165.839C23.8549 165.839 23.3666 165.514 23.1857 164.989C23.1857 164.989 23.1676 164.917 23.1496 164.899C22.9506 164.211 23.3304 163.506 23.9996 163.307C24.6868 163.108 25.3921 163.488 25.591 164.157C25.79 164.826 25.4283 165.568 24.7591 165.767C24.6325 165.803 24.4878 165.821 24.3613 165.821L24.3793 165.839ZM241.182 159.98C240.476 159.98 239.898 159.401 239.898 158.696C239.898 157.99 240.476 157.393 241.182 157.393C241.887 157.393 242.466 157.936 242.466 158.641V158.696C242.466 159.401 241.887 159.98 241.182 159.98ZM20.7443 150.847C20.1475 150.847 19.623 150.449 19.4964 149.834C19.4964 149.798 19.4783 149.707 19.4783 149.671C19.406 148.966 19.9124 148.333 20.6177 148.261C21.323 148.188 21.956 148.695 22.0283 149.4C22.1006 150.087 21.6304 150.72 20.9613 150.829C20.8889 150.829 20.8166 150.829 20.7623 150.829L20.7443 150.847ZM239.952 144.662C239.355 144.662 238.813 144.21 238.668 143.613C238.668 143.558 238.65 143.468 238.632 143.414C238.559 142.708 239.084 142.075 239.771 142.003C240.458 141.913 241.109 142.455 241.182 143.143C241.326 143.83 240.892 144.463 240.205 144.625C240.115 144.644 240.042 144.662 239.952 144.662ZM18.8273 135.529C18.1762 135.529 17.6156 135.059 17.5613 134.407C17.5613 134.371 17.5613 134.263 17.5613 134.227C17.5613 133.521 18.14 132.943 18.8453 132.943C19.5507 132.943 20.1294 133.521 20.1294 134.227C20.1294 134.932 19.5868 135.493 18.9177 135.529C18.8996 135.529 18.8634 135.529 18.8453 135.529H18.8273ZM236.805 129.47C236.263 129.47 235.756 129.127 235.593 128.566L236.805 128.15L238.053 127.879C238.198 128.548 237.8 129.235 237.131 129.416C237.022 129.452 236.914 129.452 236.787 129.452L236.805 129.47ZM18.5741 120.175C17.8688 120.175 17.29 119.56 17.29 118.854C17.29 118.8 17.29 118.71 17.29 118.655C17.3624 117.95 18.0134 117.462 18.7007 117.516C19.406 117.588 19.9124 118.221 19.84 118.927C19.84 119.632 19.2613 120.157 18.556 120.157L18.5741 120.175ZM232.248 114.731C231.759 114.731 231.307 114.46 231.09 113.99L232.248 113.429L233.459 113.031C233.676 113.682 233.351 114.406 232.718 114.659C232.555 114.713 232.392 114.749 232.248 114.749V114.731ZM19.9124 104.875C19.9124 104.875 19.8219 104.875 19.7677 104.875C19.0624 104.802 18.556 104.133 18.6283 103.428C18.6283 103.374 18.6464 103.283 18.6645 103.229C18.8092 102.542 19.4964 102.108 20.1836 102.252C20.8709 102.397 21.3049 103.084 21.1602 103.772C21.0879 104.423 20.5453 104.875 19.9124 104.875ZM226.497 100.462C226.027 100.462 225.592 100.209 225.357 99.7567L226.479 99.1418L227.654 98.6354C227.944 99.2684 227.672 100.028 227.039 100.335C226.858 100.426 226.66 100.462 226.479 100.462H226.497ZM22.8964 89.6653C22.7879 89.6653 22.6794 89.6653 22.5889 89.6291C21.9198 89.4483 21.5038 88.8153 21.6485 88.1281C21.6485 88.0919 21.6666 88.0196 21.6847 87.9834C21.8836 87.2962 22.607 86.9164 23.2762 87.1334C23.9453 87.3323 24.3432 88.0557 24.1261 88.7249C23.9634 89.2855 23.4389 89.6653 22.8783 89.6653H22.8964ZM219.588 86.627C219.154 86.627 218.738 86.41 218.503 86.0121L220.691 84.6919C221.035 85.3068 220.836 86.1026 220.221 86.4462C220.022 86.5728 219.787 86.627 219.57 86.627H219.588ZM28.9006 74.0942L27.6708 73.7325L26.4953 73.208C26.7666 72.575 27.49 72.2676 28.141 72.5027C28.774 72.7559 29.1176 73.4431 28.9006 74.0942ZM35.6463 60.4943L34.5069 59.9156L33.4218 59.2283C33.7835 58.6315 34.5612 58.4326 35.1761 58.7762C35.7729 59.1198 35.9899 59.8794 35.6643 60.4943H35.6463ZM44.9058 48.522L43.893 47.7263L42.9888 46.8221C43.477 46.3338 44.2728 46.2976 44.7792 46.7678C45.2855 47.238 45.3398 48.0157 44.9058 48.522ZM56.8418 39.2264L56.028 38.2317L55.3589 37.1466C55.9376 36.7849 56.7333 36.9296 57.1131 37.4902C57.511 38.0509 57.4025 38.8104 56.8418 39.2264ZM203.113 38.3945C202.932 38.3945 202.733 38.3583 202.552 38.286C202.498 38.2679 202.408 38.2136 202.353 38.1775C201.757 37.7977 201.576 37.02 201.955 36.4051C202.335 35.8083 203.113 35.6275 203.728 36.0073C204.379 36.2966 204.614 37.02 204.325 37.6711C204.108 38.1413 203.637 38.4126 203.131 38.4126L203.113 38.3945ZM69.447 31.9201C68.9587 31.9201 68.4885 31.6307 68.2715 31.1605C67.9822 30.5094 68.2715 29.7499 68.9226 29.4605C69.5194 29.0807 70.2609 29.2977 70.6226 29.8945C71.0023 30.4913 70.7492 31.3233 70.1523 31.685C70.0981 31.7211 70.0077 31.7754 69.9534 31.7935C69.7906 31.8658 69.6098 31.902 69.4289 31.902L69.447 31.9201ZM189.296 31.4679C189.115 31.4679 188.952 31.4318 188.772 31.3594C188.12 31.0701 187.813 30.3105 188.102 29.6594C188.392 29.0084 189.115 28.7009 189.766 28.9903H189.82C190.472 29.2977 190.761 30.0573 190.472 30.7084C190.255 31.1786 189.784 31.4679 189.296 31.4679ZM83.7703 26.0786C83.2278 26.0786 82.7214 25.7531 82.5405 25.2105C82.3235 24.5414 82.649 23.818 83.3363 23.601H83.3905C84.0597 23.3478 84.7831 23.7276 85.0182 24.3967C85.2352 25.0659 84.8735 25.7893 84.2044 26.0244C84.0597 26.0786 83.9331 26.0967 83.7884 26.0967L83.7703 26.0786ZM174.846 26.0424C174.72 26.0424 174.611 26.0424 174.484 25.9882L175.208 23.5286L174.81 24.7403L175.226 23.5286C175.895 23.7457 176.275 24.451 176.076 25.1382C175.913 25.6807 175.407 26.0424 174.864 26.0424H174.846ZM159.926 22.118C159.926 22.118 159.763 22.118 159.673 22.0999L160.143 19.5861L159.872 20.834L160.179 19.5861C160.866 19.7308 161.319 20.3999 161.192 21.0872C161.065 21.7021 160.541 22.118 159.944 22.118H159.926ZM98.6361 22.0095C98.0393 22.0095 97.4968 21.5936 97.3702 20.9967C97.2255 20.3095 97.6415 19.6404 98.3287 19.4957H98.401C99.1064 19.3691 99.7755 19.8031 99.9021 20.5085C100.047 21.1957 99.5947 21.8829 98.8893 22.0095C98.7989 22.0095 98.7266 22.0276 98.6361 22.0276V22.0095ZM144.68 19.7308C144.68 19.7308 144.59 19.7308 144.536 19.7308C143.83 19.6585 143.306 19.0255 143.378 18.3202C143.451 17.6149 144.084 17.0904 144.753 17.1808C144.753 17.1808 144.807 17.1808 144.825 17.1808C145.53 17.2532 146.037 17.8861 145.964 18.5914C145.892 19.2425 145.331 19.7308 144.699 19.7308H144.68ZM114.008 19.6223L113.809 18.3563L113.719 17.0723C114.406 17 115.057 17.5064 115.13 18.2117C115.202 18.917 114.696 19.55 113.99 19.6223H114.008ZM129.272 18.8808C128.567 18.8808 127.97 18.3021 127.97 17.5968C127.97 16.8915 128.512 16.3127 129.218 16.3127H129.272C129.977 16.3127 130.556 16.8915 130.556 17.5968C130.556 18.3021 129.977 18.8808 129.272 18.8808Z" fill="#612A7A"/>
</svg>
