<svg width="345" height="258" viewBox="0 0 345 258" fill="none" xmlns="http://www.w3.org/2000/svg">
<g clip-path="url(#clip0_369_42091)">
<path d="M307.876 51.0288H54.8368C53.475 51.0288 52.3711 52.131 52.3711 53.4906V217.212C52.3711 218.572 53.475 219.674 54.8368 219.674H307.876C309.238 219.674 310.342 218.572 310.342 217.212V53.4906C310.342 52.131 309.238 51.0288 307.876 51.0288Z" fill="#612A7A"/>
<path d="M301.722 59.4976H60.9716C59.6098 59.4976 58.5059 60.5998 58.5059 61.9594V208.744C58.5059 210.103 59.6098 211.205 60.9716 211.205H301.722C303.084 211.205 304.188 210.103 304.188 208.744V61.9594C304.188 60.5998 303.084 59.4976 301.722 59.4976Z" fill="white"/>
<path d="M104.092 237.99L98.4305 239.96L96.2607 245.809L94.2093 240.097L88.4297 237.99L94.2685 235.824L96.2607 230.171L98.3714 235.942L104.092 237.99Z" fill="#612A7A"/>
<path d="M335.65 118.404L330.009 120.374L327.819 126.223L325.787 120.512L320.008 118.404L325.847 116.238L327.819 110.585L329.93 116.356L335.65 118.404Z" fill="#612A7A"/>
<path d="M199.76 215.066H162.913V245.73H199.76V215.066Z" fill="#612A7A"/>
<path d="M181.357 258C205.956 258 225.897 253.194 225.897 247.266C225.897 241.338 205.956 236.533 181.357 236.533C156.758 236.533 136.816 241.338 136.816 247.266C136.816 253.194 156.758 258 181.357 258Z" fill="#612A7A"/>
<path d="M224.201 15.4997L212.977 19.4386L208.677 31.0191L204.613 19.6947L193.133 15.4997L204.731 11.2063L208.677 0L212.858 11.4623L224.201 15.4997Z" fill="#612A7A"/>
<path d="M54.1468 68.6163C63.0364 68.6163 70.2429 61.4211 70.2429 52.5454C70.2429 43.6698 63.0364 36.4746 54.1468 36.4746C45.2572 36.4746 38.0508 43.6698 38.0508 52.5454C38.0508 61.4211 45.2572 68.6163 54.1468 68.6163Z" fill="#8DC63F"/>
<path d="M59.7879 56.9372V59.6157H49.0375V57.4887L54.5212 52.3287C55.0932 51.7772 55.4877 51.3046 55.7047 50.891C55.902 50.4971 56.0006 50.1032 56.0006 49.7093C56.0006 49.1381 55.8033 48.7049 55.4285 48.4094C55.034 48.114 54.4817 47.9565 53.7321 47.9565C53.1009 47.9565 52.5486 48.0746 52.0555 48.311C51.5623 48.5473 51.1284 48.9018 50.793 49.3745L48.4062 47.8383C48.9586 47.0111 49.7279 46.3612 50.6944 45.9082C51.661 45.4356 52.7853 45.1992 54.0478 45.1992C55.1129 45.1992 56.0203 45.3765 56.8291 45.7113C57.6181 46.0461 58.2296 46.5385 58.6833 47.1687C59.137 47.7989 59.3342 48.5473 59.3342 49.3942C59.3342 50.1623 59.1764 50.891 58.8411 51.5606C58.5057 52.2302 57.8942 52.9983 56.9474 53.8649L53.673 56.9372H59.7879Z" fill="#612A7A"/>
<path d="M89.1204 142.235L72.1367 135.105V127.897L85.8657 122.481L102.672 129.315V136.622L89.1204 142.254V142.235ZM74.1093 133.786L89.1401 140.108L100.719 135.302V130.635L85.8854 124.588L74.129 129.217V133.786H74.1093Z" fill="#8DC63F"/>
<path d="M89.1201 142.057C88.5678 142.057 88.1338 141.624 88.1338 141.073V135.499C88.1338 134.948 88.5678 134.514 89.1201 134.514C89.6724 134.514 90.1063 134.948 90.1063 135.499V141.073C90.1063 141.624 89.6724 142.057 89.1201 142.057Z" fill="#8DC63F"/>
<path d="M89.1403 136.405L72.7681 129.532C72.275 129.315 72.0383 128.744 72.2355 128.232C72.4525 127.74 73.0245 127.503 73.5374 127.7L89.1206 134.258L100.68 129.295L100.719 120.846L97.0108 122.363L78.5871 114.662L85.8461 111.61L102.692 118.522L102.633 130.615L89.1009 136.425L89.1403 136.405ZM83.7158 114.643L97.0503 120.216L99.3779 119.271L85.8856 113.737L83.7158 114.643Z" fill="#8DC63F"/>
<path d="M94.7616 133.845C94.6433 133.845 94.5052 133.825 94.3868 133.766L84.8594 129.926V116.77C84.8594 116.218 85.2933 115.785 85.8457 115.785C86.398 115.785 86.8319 116.218 86.8319 116.77V128.586L95.1364 131.935C95.6493 132.131 95.886 132.703 95.6887 133.215C95.5309 133.589 95.1561 133.825 94.7813 133.825L94.7616 133.845Z" fill="#8DC63F"/>
<path d="M80.3821 132.466C79.9876 132.466 79.6326 132.23 79.4748 131.856C79.2775 131.344 79.5142 130.773 80.0074 130.576L85.4516 128.37C85.9645 128.153 86.5365 128.409 86.7338 128.902C86.931 129.414 86.6943 129.985 86.2012 130.182L80.7569 132.388C80.6386 132.447 80.5005 132.466 80.3821 132.466Z" fill="#8DC63F"/>
<path d="M79.8885 96.7992L72.4914 104.185L70.8147 105.859L62.313 114.367L60.5771 116.08L32.7444 143.869L18.4434 129.571L65.5677 82.4812L79.8885 96.7992Z" fill="#612A7A"/>
<path d="M72.4917 104.185L70.8151 105.859C70.8151 105.859 70.677 105.78 70.5981 105.721L61.2087 96.3463C60.7156 95.8539 60.7156 95.0661 61.2087 94.6132C61.6821 94.1208 62.4514 94.1208 62.9248 94.6132L72.3339 103.988C72.3339 103.988 72.4523 104.126 72.472 104.204L72.4917 104.185Z" fill="white"/>
<path d="M62.3134 114.367L60.5776 116.08L55.1531 110.664C54.6599 110.192 54.6599 109.424 55.1531 108.931C55.6265 108.458 56.3958 108.458 56.8692 108.931L62.3134 114.367Z" fill="white"/>
<path d="M52.0957 124.549L50.3598 126.282L44.9353 120.866C44.4421 120.374 44.4421 119.625 44.9353 119.133C45.4087 118.66 46.178 118.66 46.6514 119.133L52.0957 124.549Z" fill="white"/>
<path d="M41.8186 134.81L40.1813 136.445C40.1813 136.445 40.0433 136.366 39.9643 136.307L30.5553 126.932C30.0818 126.459 30.0818 125.691 30.5553 125.199C31.0484 124.726 31.798 124.726 32.2911 125.199L41.6805 134.593C41.6805 134.593 41.8186 134.731 41.8186 134.81Z" fill="white"/>
<path d="M169.205 36.4746H117.82C115.914 36.4746 114.368 38.0177 114.368 39.9212V104.973C114.368 106.876 115.914 108.419 117.82 108.419H169.205C171.112 108.419 172.657 106.876 172.657 104.973V39.9212C172.657 38.0177 171.112 36.4746 169.205 36.4746Z" fill="white"/>
<path d="M169.185 109.404H117.82C115.374 109.404 113.382 107.415 113.382 104.973V39.9408C113.382 37.4987 115.374 35.5095 117.82 35.5095H169.185C171.631 35.5095 173.624 37.4987 173.624 39.9408V104.973C173.624 107.415 171.631 109.404 169.185 109.404ZM117.82 37.4593C116.459 37.4593 115.354 38.5622 115.354 39.9211V104.973C115.354 106.332 116.459 107.434 117.82 107.434H169.185C170.546 107.434 171.651 106.332 171.651 104.973V39.9408C171.651 38.5819 170.546 37.479 169.185 37.479H117.82V37.4593Z" fill="#612A7A"/>
<path d="M119.378 41.3194C119.999 41.3194 120.503 40.8168 120.503 40.1968C120.503 39.5768 119.999 39.0742 119.378 39.0742C118.757 39.0742 118.254 39.5768 118.254 40.1968C118.254 40.8168 118.757 41.3194 119.378 41.3194Z" fill="#612A7A"/>
<path d="M122.575 41.3194C123.196 41.3194 123.699 40.8168 123.699 40.1968C123.699 39.5768 123.196 39.0742 122.575 39.0742C121.954 39.0742 121.45 39.5768 121.45 40.1968C121.45 40.8168 121.954 41.3194 122.575 41.3194Z" fill="#612A7A"/>
<path d="M125.75 41.3194C126.371 41.3194 126.875 40.8168 126.875 40.1968C126.875 39.5768 126.371 39.0742 125.75 39.0742C125.129 39.0742 124.626 39.5768 124.626 40.1968C124.626 40.8168 125.129 41.3194 125.75 41.3194Z" fill="#612A7A"/>
<path d="M172.638 44.5298H114.349C113.796 44.5298 113.362 44.0965 113.362 43.545C113.362 42.9936 113.796 42.5603 114.349 42.5603H172.638C173.19 42.5603 173.624 42.9936 173.624 43.545C173.624 44.0965 173.19 44.5298 172.638 44.5298Z" fill="#612A7A"/>
<path d="M162.992 68.6358H124.014C122.673 68.6358 121.588 67.7101 121.588 66.5678V55.4009C121.588 54.2587 122.673 53.333 124.014 53.333H162.992C164.333 53.333 165.418 54.2587 165.418 55.4009V66.5678C165.418 67.7101 164.333 68.6358 162.992 68.6358Z" fill="white"/>
<path d="M162.992 69.6206H124.014C122.14 69.6206 120.602 68.242 120.602 66.5679V55.4011C120.602 53.7073 122.12 52.3484 124.014 52.3484H162.992C164.866 52.3484 166.404 53.727 166.404 55.4011V66.5679C166.404 68.2617 164.885 69.6206 162.992 69.6206ZM124.014 54.2982C123.245 54.2982 122.574 54.7905 122.574 55.3814V66.5482C122.574 67.1391 123.225 67.6314 124.014 67.6314H162.992C163.761 67.6314 164.432 67.1391 164.432 66.5482V55.3814C164.432 54.7905 163.781 54.2982 162.992 54.2982H124.014Z" fill="#612A7A"/>
<path d="M146.915 71.7082H145.869C145.317 71.7082 144.883 71.275 144.883 70.7235C144.883 70.1721 145.317 69.7388 145.869 69.7388H146.915C147.467 69.7388 147.901 70.1721 147.901 70.7235C147.901 71.275 147.467 71.7082 146.915 71.7082Z" fill="#612A7A"/>
<path d="M141.116 71.7082H140.07C139.518 71.7082 139.084 71.275 139.084 70.7235C139.084 70.1721 139.518 69.7388 140.07 69.7388H141.116C141.668 69.7388 142.102 70.1721 142.102 70.7235C142.102 71.275 141.668 71.7082 141.116 71.7082Z" fill="#612A7A"/>
<path d="M154.963 49.4927H150.959C150.407 49.4927 149.973 49.0594 149.973 48.5079C149.973 47.9565 150.407 47.5232 150.959 47.5232H154.963C155.516 47.5232 155.949 47.9565 155.949 48.5079C155.949 49.0594 155.516 49.4927 154.963 49.4927Z" fill="#612A7A"/>
<path d="M165.496 49.4927H161.492C160.94 49.4927 160.506 49.0594 160.506 48.5079C160.506 47.9565 160.94 47.5232 161.492 47.5232H165.496C166.049 47.5232 166.483 47.9565 166.483 48.5079C166.483 49.0594 166.049 49.4927 165.496 49.4927Z" fill="#612A7A"/>
<path d="M125.513 49.4927H121.509C120.956 49.4927 120.522 49.0594 120.522 48.5079C120.522 47.9565 120.956 47.5232 121.509 47.5232H125.513C126.065 47.5232 126.499 47.9565 126.499 48.5079C126.499 49.0594 126.065 49.4927 125.513 49.4927Z" fill="#612A7A"/>
<path d="M136.046 49.4927H132.042C131.49 49.4927 131.056 49.0594 131.056 48.5079C131.056 47.9565 131.49 47.5232 132.042 47.5232H136.046C136.599 47.5232 137.033 47.9565 137.033 48.5079C137.033 49.0594 136.599 49.4927 136.046 49.4927Z" fill="#612A7A"/>
<path d="M131.569 76.238H123.265C122.644 76.238 122.141 76.7406 122.141 77.3606V85.6521C122.141 86.2721 122.644 86.7747 123.265 86.7747H131.569C132.19 86.7747 132.694 86.2721 132.694 85.6521V77.3606C132.694 76.7406 132.19 76.238 131.569 76.238Z" fill="white"/>
<path d="M131.569 87.7595H123.265C122.101 87.7595 121.154 86.8142 121.154 85.6522V77.3607C121.154 76.1988 122.101 75.2534 123.265 75.2534H131.569C132.733 75.2534 133.68 76.1988 133.68 77.3607V85.6522C133.68 86.8142 132.733 87.7595 131.569 87.7595ZM123.265 77.2229L123.127 85.6522L131.569 85.7901C131.569 85.7901 131.707 85.731 131.707 85.6522V77.3607L123.265 77.2229Z" fill="#612A7A"/>
<path d="M147.665 76.238H139.361C138.74 76.238 138.236 76.7406 138.236 77.3606V85.6521C138.236 86.2721 138.74 86.7747 139.361 86.7747H147.665C148.286 86.7747 148.789 86.2721 148.789 85.6521V77.3606C148.789 76.7406 148.286 76.238 147.665 76.238Z" fill="white"/>
<path d="M147.665 87.7595H139.361C138.197 87.7595 137.25 86.8142 137.25 85.6522V77.3607C137.25 76.1988 138.197 75.2534 139.361 75.2534H147.665C148.829 75.2534 149.776 76.1988 149.776 77.3607V85.6522C149.776 86.8142 148.829 87.7595 147.665 87.7595ZM139.361 77.2229L139.223 85.6522L147.665 85.7901C147.665 85.7901 147.803 85.731 147.803 85.6522V77.3607L139.361 77.2229Z" fill="#612A7A"/>
<path d="M163.741 76.238H155.437C154.816 76.238 154.312 76.7406 154.312 77.3606V85.6521C154.312 86.2721 154.816 86.7747 155.437 86.7747H163.741C164.362 86.7747 164.866 86.2721 164.866 85.6521V77.3606C164.866 76.7406 164.362 76.238 163.741 76.238Z" fill="white"/>
<path d="M163.741 87.7595H155.437C154.273 87.7595 153.326 86.8142 153.326 85.6522V77.3607C153.326 76.1988 154.273 75.2534 155.437 75.2534H163.741C164.905 75.2534 165.852 76.1988 165.852 77.3607V85.6522C165.852 86.8142 164.905 87.7595 163.741 87.7595ZM155.437 77.2229L155.299 85.6522L163.741 85.7901C163.741 85.7901 163.879 85.731 163.879 85.6522V77.3607L155.437 77.2229Z" fill="#612A7A"/>
<path d="M143.503 50.5169C144.669 50.5169 145.614 49.5734 145.614 48.4096C145.614 47.2457 144.669 46.3022 143.503 46.3022C142.338 46.3022 141.393 47.2457 141.393 48.4096C141.393 49.5734 142.338 50.5169 143.503 50.5169Z" fill="#612A7A"/>
<path d="M149.223 95.6177H137.782C137.23 95.6177 136.796 95.1844 136.796 94.6329C136.796 94.0815 137.23 93.6482 137.782 93.6482H149.223C149.775 93.6482 150.209 94.0815 150.209 94.6329C150.209 95.1844 149.775 95.6177 149.223 95.6177Z" fill="#612A7A"/>
<path d="M134.607 99.0249H128.827C128.275 99.0249 127.841 98.5916 127.841 98.0402C127.841 97.4887 128.275 97.0554 128.827 97.0554H134.607C135.159 97.0554 135.593 97.4887 135.593 98.0402C135.593 98.5916 135.159 99.0249 134.607 99.0249Z" fill="#612A7A"/>
<path d="M141.076 99.0249H137.19C136.638 99.0249 136.204 98.5916 136.204 98.0402C136.204 97.4887 136.638 97.0554 137.19 97.0554H141.076C141.629 97.0554 142.063 97.4887 142.063 98.0402C142.063 98.5916 141.629 99.0249 141.076 99.0249Z" fill="#612A7A"/>
<path d="M152.517 99.0249H143.917C143.365 99.0249 142.931 98.5916 142.931 98.0402C142.931 97.4887 143.365 97.0554 143.917 97.0554H152.517C153.07 97.0554 153.504 97.4887 153.504 98.0402C153.504 98.5916 153.07 99.0249 152.517 99.0249Z" fill="#612A7A"/>
<path d="M158.179 99.0249H155.358C154.806 99.0249 154.372 98.5916 154.372 98.0402C154.372 97.4887 154.806 97.0554 155.358 97.0554H158.179C158.731 97.0554 159.165 97.4887 159.165 98.0402C159.165 98.5916 158.731 99.0249 158.179 99.0249Z" fill="#612A7A"/>
<path d="M144.588 101.802H138.809C138.256 101.802 137.822 101.368 137.822 100.817C137.822 100.266 138.256 99.8323 138.809 99.8323H144.588C145.14 99.8323 145.574 100.266 145.574 100.817C145.574 101.368 145.14 101.802 144.588 101.802Z" fill="#612A7A"/>
<path d="M136.086 101.802H133.266C132.713 101.802 132.279 101.368 132.279 100.817C132.279 100.266 132.713 99.8323 133.266 99.8323H136.086C136.639 99.8323 137.073 100.266 137.073 100.817C137.073 101.368 136.639 101.802 136.086 101.802Z" fill="#612A7A"/>
<path d="M150.012 101.802H147.191C146.639 101.802 146.205 101.368 146.205 100.817C146.205 100.266 146.639 99.8323 147.191 99.8323H150.012C150.564 99.8323 150.998 100.266 150.998 100.817C150.998 101.368 150.564 101.802 150.012 101.802Z" fill="#612A7A"/>
<path d="M153.741 101.802H152.656C152.104 101.802 151.67 101.368 151.67 100.817C151.67 100.266 152.104 99.8323 152.656 99.8323H153.741C154.293 99.8323 154.727 100.266 154.727 100.817C154.727 101.368 154.293 101.802 153.741 101.802Z" fill="#612A7A"/>
<path d="M182.027 99.5566C189.032 99.5566 194.711 93.8869 194.711 86.8929C194.711 79.899 189.032 74.2292 182.027 74.2292C175.022 74.2292 169.344 79.899 169.344 86.8929C169.344 93.8869 175.022 99.5566 182.027 99.5566Z" fill="#D1EDF8"/>
<path d="M185.301 81.7527V91.1076L175.438 86.3022L185.301 81.7527Z" fill="#612A7A"/>
<path d="M87.5989 173.442L99.4688 185.293L104.839 179.931L92.9689 168.08L87.5989 173.442Z" fill="#612A7A"/>
<path d="M71.3869 194.721L74.2471 197.577L84.9975 186.843C84.6819 186.115 84.82 185.268 85.4118 184.677C86.1811 183.909 87.4238 183.909 88.2128 184.677C88.9821 185.445 88.9821 186.686 88.2128 187.473C87.621 188.064 86.7531 188.202 86.043 187.887L75.2926 198.621L78.1528 201.476L93.3809 194.406L98.2531 186.489L86.3783 174.633L78.4487 179.497L71.3672 194.701L71.3869 194.721Z" fill="#612A7A"/>
<path d="M218.244 100.876C215.561 98.2173 214.239 94.4359 214.239 89.5123V70.7039H222.031V89.2168C222.031 95.2237 224.536 98.237 229.527 98.237C231.953 98.237 233.827 97.5083 235.109 96.0509C236.391 94.5935 237.022 92.3089 237.022 89.2168V70.7039H244.715V89.5123C244.715 94.4359 243.374 98.237 240.691 100.876C238.009 103.515 234.28 104.854 229.467 104.854C224.654 104.854 220.926 103.535 218.244 100.876Z" fill="#8DC63F"/>
<path d="M252.389 70.7039H260.18V104.283H252.389V70.7039Z" fill="#8DC63F"/>
<path d="M174.255 150.92H141.393V131.58H174.255V150.92ZM143.365 148.951H172.283V133.55H143.365V148.951Z" fill="#612A7A"/>
<path d="M169.68 188.832H145.95V161.417C145.95 159.448 147.627 157.872 149.678 157.872H165.952C168.003 157.872 169.68 159.468 169.68 161.417V188.832Z" fill="white"/>
<path d="M170.666 189.817H144.964V161.417C144.964 158.916 147.075 156.888 149.678 156.888H165.952C168.556 156.888 170.666 158.916 170.666 161.417V189.817ZM146.936 187.848H168.694V161.417C168.694 159.999 167.471 158.857 165.952 158.857H149.678C148.159 158.857 146.936 159.999 146.936 161.417V187.848Z" fill="#612A7A"/>
<path d="M173.29 188.813H166.366V170.93C166.366 170.024 167.116 169.275 168.023 169.275H171.613C172.54 169.275 173.27 170.024 173.27 170.93V188.813H173.29Z" fill="white"/>
<path d="M174.276 189.797H165.38V170.93C165.38 169.472 166.563 168.291 168.023 168.291H171.613C173.073 168.291 174.256 169.472 174.256 170.93V189.797H174.276ZM167.352 187.828H172.304V170.93C172.304 170.556 172.008 170.26 171.633 170.26H168.043C167.668 170.26 167.372 170.556 167.372 170.93V187.828H167.352Z" fill="#612A7A"/>
<path d="M149.244 188.813H142.32V170.93C142.32 170.024 143.07 169.275 143.977 169.275H147.567C148.494 169.275 149.224 170.024 149.224 170.93V188.813H149.244Z" fill="white"/>
<path d="M150.23 189.797H141.334V170.93C141.334 169.472 142.518 168.291 143.977 168.291H147.567C149.027 168.291 150.21 169.472 150.21 170.93V189.797H150.23ZM143.307 187.828H148.258V170.93C148.258 170.556 147.962 170.26 147.587 170.26H143.997C143.622 170.26 143.326 170.556 143.326 170.93V187.828H143.307Z" fill="#612A7A"/>
<path d="M164.808 175.991H150.803C149.06 175.991 147.646 177.402 147.646 179.143V179.793C147.646 181.533 149.06 182.944 150.803 182.944H164.808C166.551 182.944 167.964 181.533 167.964 179.793V179.143C167.964 177.402 166.551 175.991 164.808 175.991Z" fill="white"/>
<path d="M164.808 183.928H150.803C148.514 183.928 146.66 182.077 146.66 179.792V179.162C146.66 176.878 148.514 175.026 150.803 175.026H164.808C167.096 175.026 168.95 176.878 168.95 179.162V179.792C168.95 182.077 167.096 183.928 164.808 183.928ZM150.803 176.976C149.599 176.976 148.633 177.961 148.633 179.143V179.773C148.633 180.974 149.619 181.939 150.803 181.939H164.808C166.011 181.939 166.977 180.954 166.977 179.773V179.143C166.977 177.941 165.991 176.976 164.808 176.976H150.803Z" fill="#612A7A"/>
<path d="M153.15 164.569C153.487 164.569 153.761 164.295 153.761 163.958C153.761 163.621 153.487 163.348 153.15 163.348C152.812 163.348 152.538 163.621 152.538 163.958C152.538 164.295 152.812 164.569 153.15 164.569Z" fill="#612A7A"/>
<path d="M157.805 164.569C158.143 164.569 158.416 164.295 158.416 163.958C158.416 163.621 158.143 163.348 157.805 163.348C157.467 163.348 157.193 163.621 157.193 163.958C157.193 164.295 157.467 164.569 157.805 164.569Z" fill="#612A7A"/>
<path d="M162.46 164.569C162.798 164.569 163.072 164.295 163.072 163.958C163.072 163.621 162.798 163.348 162.46 163.348C162.122 163.348 161.849 163.621 161.849 163.958C161.849 164.295 162.122 164.569 162.46 164.569Z" fill="#612A7A"/>
<path d="M153.15 169.354C153.487 169.354 153.761 169.081 153.761 168.744C153.761 168.407 153.487 168.133 153.15 168.133C152.812 168.133 152.538 168.407 152.538 168.744C152.538 169.081 152.812 169.354 153.15 169.354Z" fill="#612A7A"/>
<path d="M157.805 169.354C158.143 169.354 158.416 169.081 158.416 168.744C158.416 168.407 158.143 168.133 157.805 168.133C157.467 168.133 157.193 168.407 157.193 168.744C157.193 169.081 157.467 169.354 157.805 169.354Z" fill="#612A7A"/>
<path d="M162.46 169.354C162.798 169.354 163.072 169.081 163.072 168.744C163.072 168.407 162.798 168.133 162.46 168.133C162.122 168.133 161.849 168.407 161.849 168.744C161.849 169.081 162.122 169.354 162.46 169.354Z" fill="#612A7A"/>
<path d="M146.699 188.714H145.2C144.645 188.714 144.194 189.164 144.194 189.719V189.896C144.194 190.451 144.645 190.9 145.2 190.9H146.699C147.255 190.9 147.705 190.451 147.705 189.896V189.719C147.705 189.164 147.255 188.714 146.699 188.714Z" fill="#612A7A"/>
<path d="M170.429 188.714H168.93C168.374 188.714 167.924 189.164 167.924 189.719V189.896C167.924 190.451 168.374 190.9 168.93 190.9H170.429C170.985 190.9 171.435 190.451 171.435 189.896V189.719C171.435 189.164 170.985 188.714 170.429 188.714Z" fill="#612A7A"/>
<path d="M139.46 189.758H125.81C125.81 188.557 126.954 187.592 128.354 187.592H136.895C138.296 187.592 139.44 188.557 139.44 189.758H139.46Z" fill="#612A7A"/>
<path d="M133.621 157.36H131.648V188.419H133.621V157.36Z" fill="#612A7A"/>
<path d="M140.288 158.857H125.001L127.822 144.756H137.468L140.288 158.857ZM127.407 156.888H137.882L135.85 146.725H129.439L127.407 156.888Z" fill="#612A7A"/>
<path d="M148.849 139.872C150.047 139.872 151.018 138.91 151.018 137.725C151.018 136.539 150.047 135.578 148.849 135.578C147.65 135.578 146.679 136.539 146.679 137.725C146.679 138.91 147.65 139.872 148.849 139.872Z" fill="#8DC63F"/>
<path d="M144.687 144.598V147.651L170.922 147.592C170.922 147.592 169.857 143.673 165.852 143.259C161.848 142.845 160.132 144.559 160.132 144.559L154.964 140.265L144.667 144.598H144.687Z" fill="#8DC63F"/>
<path d="M202.07 146.823L275.843 99.9697L328.629 182.845L258.958 227.099C253.967 230.27 247.359 228.812 244.184 223.81L194.712 146.154" fill="white"/>
<path d="M253.217 229.738C249.351 229.738 245.564 227.828 243.335 224.342L193.863 146.686L195.52 145.622L244.992 223.278C247.872 227.788 253.888 229.127 258.405 226.252L327.247 182.53L275.527 101.329L202.582 147.651L201.517 145.996L276.119 98.6306L329.97 183.16L259.451 227.926C257.518 229.167 255.348 229.738 253.198 229.738H253.217Z" fill="#612A7A"/>
<path d="M274.58 86.4202L330.305 173.904L325.058 177.232L275.842 99.9701L202.069 146.824C201.595 147.119 201.102 147.355 200.609 147.493C198.538 148.143 196.289 147.631 194.692 146.154C194.297 145.8 193.962 145.406 193.666 144.933C191.851 142.077 192.68 138.335 195.52 136.543L274.58 86.4202Z" fill="white"/>
<path d="M324.742 178.591L275.527 101.329L202.581 147.651C202.029 148.005 201.437 148.281 200.865 148.439C198.518 149.187 195.875 148.596 194.021 146.863C193.567 146.469 193.172 145.996 192.817 145.465C190.726 142.176 191.673 137.803 194.967 135.716L274.856 85.0808L275.389 85.908L331.646 174.219L324.742 178.611V178.591ZM276.138 98.611L325.353 175.873L328.943 173.608L274.284 87.779L196.052 137.37C193.685 138.867 192.995 142.038 194.514 144.401C194.75 144.775 195.046 145.11 195.362 145.406C196.723 146.646 198.617 147.08 200.313 146.548C200.727 146.43 201.142 146.233 201.536 145.996L276.138 98.611Z" fill="#612A7A"/>
<path d="M250.771 190.191C251.363 190.408 251.856 190.821 252.25 191.432C252.803 192.298 252.901 193.185 252.507 194.091C252.132 194.977 251.284 195.844 250.002 196.671L244.853 199.94L238.521 190.014L243.374 186.922C244.577 186.154 245.662 185.799 246.609 185.839C247.556 185.878 248.286 186.311 248.779 187.099C249.094 187.572 249.252 188.084 249.252 188.616C249.252 189.147 249.134 189.64 248.858 190.132C249.548 189.955 250.179 189.975 250.771 190.191ZM241.914 190.29L243.413 192.633L245.702 191.176C246.274 190.821 246.629 190.447 246.806 190.053C246.964 189.659 246.944 189.285 246.688 188.891C246.431 188.497 246.116 188.3 245.682 188.3C245.268 188.3 244.774 188.478 244.202 188.832L241.914 190.29ZM249.903 193.894C250.081 193.5 250.041 193.086 249.785 192.673C249.252 191.846 248.384 191.826 247.161 192.594L244.479 194.307L246.037 196.769L248.72 195.056C249.331 194.682 249.726 194.288 249.903 193.894Z" fill="#612A7A"/>
<path d="M254.006 183.653C254.341 183.18 254.795 182.747 255.387 182.373L256.689 184.421C256.432 184.559 256.255 184.657 256.176 184.716C255.545 185.11 255.15 185.602 255.032 186.193C254.894 186.784 255.052 187.434 255.505 188.143L257.793 191.747L255.584 193.146L250.712 185.504L252.823 184.165L253.473 185.169C253.513 184.637 253.69 184.125 254.006 183.653Z" fill="#612A7A"/>
<path d="M263.001 178.709C263.988 178.867 264.855 179.517 265.585 180.659L268.367 185.012L266.295 186.331L265.684 185.386C265.723 186.371 265.171 187.198 264.027 187.926C263.435 188.301 262.863 188.517 262.311 188.596C261.759 188.675 261.246 188.596 260.792 188.399C260.338 188.202 259.983 187.867 259.687 187.414C259.234 186.705 259.155 185.977 259.431 185.228C259.707 184.48 260.397 183.751 261.522 183.042L263.277 181.92C262.962 181.447 262.587 181.151 262.133 181.092C261.68 181.014 261.147 181.171 260.555 181.545C260.141 181.801 259.786 182.117 259.47 182.491C259.155 182.865 258.938 183.259 258.8 183.653L257.024 182.609C257.241 182.057 257.616 181.506 258.09 180.974C258.563 180.442 259.115 179.989 259.727 179.596C260.91 178.847 261.995 178.552 263.001 178.709ZM264.461 185.169C264.638 184.815 264.678 184.421 264.599 184.007L264.106 183.219L262.587 184.184C261.68 184.756 261.423 185.346 261.798 185.937C261.976 186.213 262.232 186.371 262.567 186.39C262.903 186.41 263.258 186.292 263.652 186.055C264.027 185.819 264.303 185.524 264.5 185.149L264.461 185.169Z" fill="#612A7A"/>
<path d="M272.903 172.446C273.85 172.643 274.678 173.293 275.388 174.416L278.17 178.788L275.96 180.186L273.396 176.149C273.002 175.538 272.587 175.164 272.134 175.046C271.68 174.908 271.207 175.007 270.694 175.322C270.141 175.676 269.806 176.129 269.688 176.681C269.569 177.232 269.747 177.862 270.181 178.532L272.587 182.313L270.378 183.712L265.506 176.07L267.616 174.731L268.189 175.617C268.267 175.105 268.484 174.632 268.8 174.179C269.116 173.727 269.55 173.333 270.062 172.998C271.009 172.387 271.956 172.19 272.903 172.387V172.446Z" fill="#612A7A"/>
<path d="M281.345 161.989L288.052 172.525L285.941 173.864L285.389 172.978C285.271 173.983 284.679 174.829 283.633 175.479C282.923 175.932 282.154 176.188 281.365 176.247C280.576 176.307 279.826 176.129 279.116 175.735C278.406 175.342 277.795 174.77 277.302 173.983C276.808 173.195 276.532 172.407 276.473 171.6C276.414 170.792 276.591 170.044 276.966 169.354C277.341 168.665 277.893 168.094 278.623 167.641C279.59 167.03 280.556 166.833 281.503 167.109L279.136 163.407L281.345 162.008V161.989ZM283.87 171.974C283.989 171.363 283.87 170.733 283.436 170.083C283.022 169.433 282.509 169.039 281.898 168.901C281.286 168.744 280.694 168.862 280.142 169.216C279.57 169.571 279.235 170.063 279.097 170.694C278.978 171.304 279.097 171.954 279.531 172.584C279.945 173.234 280.458 173.628 281.069 173.766C281.681 173.923 282.272 173.805 282.844 173.451C283.397 173.096 283.752 172.604 283.87 171.993V171.974Z" fill="#612A7A"/>
<path d="M274.797 185.465C275.586 185.425 276.336 185.583 277.046 185.977C277.756 186.351 278.367 186.942 278.86 187.729C279.354 188.517 279.63 189.305 279.669 190.113C279.709 190.92 279.551 191.668 279.176 192.358C278.801 193.047 278.269 193.618 277.559 194.071C276.513 194.741 275.487 194.918 274.521 194.603L275.073 195.489L272.963 196.828L266.256 186.292L268.327 184.992L270.832 188.596C270.99 187.631 271.562 186.824 272.548 186.213C273.258 185.76 274.008 185.504 274.797 185.465ZM277.046 191.038C277.164 190.428 277.026 189.797 276.612 189.148C276.198 188.498 275.685 188.104 275.093 187.966C274.481 187.808 273.89 187.926 273.318 188.281C272.746 188.635 272.41 189.128 272.292 189.738C272.174 190.349 272.312 190.979 272.726 191.629C273.14 192.279 273.653 192.673 274.245 192.811C274.836 192.949 275.448 192.85 276.02 192.496C276.592 192.141 276.927 191.649 277.046 191.038Z" fill="#612A7A"/>
<path d="M283.989 189.266C283.141 189.344 282.332 189.187 281.602 188.813C280.852 188.438 280.261 187.887 279.768 187.119C279.294 186.37 279.038 185.583 279.018 184.756C278.998 183.928 279.195 183.141 279.629 182.412C280.063 181.683 280.675 181.033 281.484 180.541C282.292 180.029 283.121 179.733 283.969 179.674C284.817 179.615 285.606 179.753 286.356 180.127C287.105 180.501 287.697 181.053 288.19 181.801C288.664 182.55 288.92 183.357 288.94 184.165C288.96 184.992 288.762 185.78 288.328 186.508C287.914 187.257 287.303 187.867 286.494 188.379C285.685 188.891 284.857 189.187 284.009 189.246L283.989 189.266ZM286.356 185.11C286.474 184.499 286.336 183.869 285.922 183.219C285.508 182.569 284.995 182.176 284.403 182.038C283.792 181.88 283.2 181.998 282.628 182.353C282.056 182.707 281.72 183.2 281.582 183.83C281.464 184.44 281.582 185.071 282.016 185.721C282.43 186.37 282.943 186.764 283.555 186.902C284.166 187.04 284.758 186.942 285.33 186.587C285.902 186.233 286.238 185.74 286.356 185.13V185.11Z" fill="#612A7A"/>
<path d="M293.299 183.357C292.451 183.436 291.642 183.278 290.913 182.904C290.183 182.53 289.571 181.979 289.078 181.21C288.605 180.462 288.348 179.655 288.328 178.847C288.309 178.02 288.506 177.232 288.94 176.503C289.374 175.755 289.985 175.144 290.794 174.632C291.603 174.12 292.431 173.825 293.28 173.766C294.128 173.707 294.917 173.845 295.666 174.219C296.416 174.593 297.008 175.144 297.501 175.893C297.974 176.641 298.231 177.449 298.25 178.256C298.27 179.083 298.073 179.871 297.659 180.6C297.244 181.329 296.633 181.959 295.824 182.471C295.015 182.983 294.187 183.278 293.339 183.337L293.299 183.357ZM295.666 179.202C295.785 178.591 295.647 177.961 295.232 177.311C294.818 176.661 294.305 176.267 293.714 176.129C293.122 175.991 292.51 176.09 291.938 176.444C291.366 176.799 291.031 177.291 290.893 177.921C290.774 178.532 290.893 179.162 291.307 179.812C291.721 180.462 292.234 180.856 292.846 180.994C293.457 181.151 294.049 181.033 294.621 180.679C295.193 180.324 295.528 179.832 295.647 179.221L295.666 179.202Z" fill="#612A7A"/>
<path d="M302.768 173.707L302.373 175.44L303.616 177.39L301.407 178.788L294.7 168.251L296.909 166.853L300.697 172.821L301.979 167.7L304.622 166.026L303.498 171.284L309.771 173.49L307.088 175.204L302.768 173.746V173.707Z" fill="#612A7A"/>
<path d="M207.02 136.582L225.108 125.1C225.108 125.1 217.08 131.265 218.007 133.884C218.934 136.504 238.147 166.695 238.147 166.695L229.29 166.912L225.246 174.888L204.692 142.333C204.692 142.333 203.923 139.97 207.02 136.582Z" fill="#8DC63F"/>
<path d="M264.362 159.763C263.041 159.763 261.798 159.507 260.674 158.995C259.096 158.286 257.794 157.163 256.807 155.627C255.21 153.165 254.894 150.585 255.841 147.966C256.748 145.445 259.056 142.963 262.686 140.62L267.262 137.666C266.591 136.897 265.822 136.464 264.934 136.326C263.77 136.149 262.35 136.582 260.752 137.606C259.589 138.355 258.543 139.3 257.656 140.403C256.768 141.486 256.137 142.609 255.762 143.712L255.367 144.854L248.01 140.639L248.325 139.852C249.075 138 250.239 136.188 251.777 134.455C253.316 132.742 255.091 131.206 257.064 129.945C260.91 127.464 264.559 126.459 267.893 126.952C271.266 127.464 274.205 129.63 276.632 133.372L285.903 147.69L277.815 152.909L276.829 151.373C276.119 153.618 274.383 155.627 271.661 157.38C269.728 158.621 267.795 159.389 265.94 159.664C265.408 159.743 264.895 159.783 264.382 159.783L264.362 159.763ZM264.362 134.337C264.638 134.337 264.915 134.337 265.191 134.396C266.907 134.652 268.347 135.676 269.471 137.409L270.004 138.237L263.731 142.294C260.476 144.401 258.425 146.548 257.675 148.655C256.945 150.703 257.182 152.633 258.445 154.583C259.234 155.804 260.22 156.671 261.463 157.222C262.705 157.774 264.066 157.951 265.625 157.715C267.203 157.498 268.86 156.828 270.556 155.726C273.791 153.638 275.31 151.314 275.192 148.635L275.034 145.012L278.367 150.172L283.141 147.099L274.935 134.436C272.825 131.186 270.339 129.315 267.558 128.901C264.737 128.468 261.542 129.374 258.109 131.6C256.275 132.781 254.638 134.18 253.237 135.775C252.073 137.094 251.146 138.453 250.495 139.812L254.302 141.998C254.756 141.053 255.348 140.108 256.097 139.182C257.123 137.922 258.306 136.858 259.668 135.991C261.364 134.908 262.942 134.357 264.402 134.357L264.362 134.337ZM266.729 152.889C266.631 152.889 266.532 152.889 266.433 152.889C265.112 152.791 264.007 152.161 263.277 151.019C262.212 149.384 261.818 146.863 265.999 144.165L271.542 140.58L273.771 144.125C274.126 145.642 273.969 147.099 273.318 148.419C272.686 149.699 271.68 150.782 270.379 151.649C269.116 152.476 267.893 152.87 266.749 152.87L266.729 152.889ZM270.951 143.298L267.065 145.799C263.672 147.986 264.579 149.404 264.934 149.935C265.329 150.546 265.842 150.861 266.552 150.9C267.321 150.94 268.268 150.644 269.274 149.994C270.3 149.325 271.029 148.537 271.523 147.552C271.957 146.666 272.075 145.74 271.858 144.736L270.931 143.298H270.951Z" fill="#D1EDF8"/>
<path d="M269.293 246.439C268.662 246.439 268.09 246.026 267.932 245.396C267.735 244.667 268.149 243.918 268.859 243.702L269.313 245.021L269.609 246.38C269.51 246.4 269.392 246.42 269.293 246.42V246.439ZM284.817 240.157C284.285 240.157 283.772 239.842 283.535 239.33C283.219 238.621 283.535 237.793 284.245 237.478C284.896 237.065 285.705 237.301 286.119 237.951C286.533 238.601 286.257 239.507 285.606 239.901C285.547 239.94 285.448 239.999 285.389 240.019C285.212 240.098 285.014 240.137 284.817 240.137V240.157ZM298.704 230.723C298.27 230.723 297.856 230.526 297.58 230.172C297.126 229.561 297.244 228.675 297.856 228.222C298.448 227.769 299.335 227.867 299.809 228.458C300.282 229.049 300.223 229.876 299.651 230.368C299.631 230.368 299.572 230.447 299.532 230.467C299.276 230.644 298.98 230.743 298.704 230.743V230.723ZM310.835 219.083C310.5 219.083 310.184 218.965 309.908 218.729C309.336 218.217 309.277 217.331 309.77 216.759C310.283 216.188 311.171 216.09 311.762 216.602C312.334 217.114 312.433 217.961 311.92 218.552L311.881 218.611C311.604 218.926 311.21 219.083 310.835 219.083ZM79.8094 207.227C79.0598 207.148 78.4878 206.518 78.5273 205.77C78.5667 205.021 79.1585 204.431 79.908 204.431L79.9672 205.829L79.8291 207.227H79.8094ZM96.655 206.439C95.9449 206.439 95.3532 205.908 95.2743 205.199C95.1954 204.431 95.7477 203.741 96.517 203.663C97.2665 203.603 97.9569 204.096 98.0753 204.825C98.1936 205.573 97.7202 206.262 96.9904 206.4C96.9509 206.4 96.8523 206.42 96.8129 206.42C96.7537 206.42 96.7142 206.42 96.655 206.42V206.439ZM321.191 205.849C320.895 205.849 320.599 205.75 320.363 205.573C319.751 205.1 319.613 204.234 320.086 203.623C320.56 203.013 321.388 202.855 322.02 203.288C322.631 203.702 322.828 204.529 322.434 205.159C322.414 205.199 322.355 205.277 322.335 205.297C322.059 205.671 321.645 205.849 321.211 205.849H321.191ZM63.0624 203.84L63.4964 202.52L63.0427 203.84C62.3128 203.603 61.8986 202.835 62.1156 202.087C62.3523 201.358 63.1019 200.945 63.8514 201.161L63.0624 203.84ZM112.791 201.831C112.199 201.831 111.666 201.457 111.469 200.866C111.232 200.137 111.627 199.349 112.357 199.093C113.067 198.857 113.856 199.212 114.132 199.901C114.408 200.59 114.112 201.378 113.422 201.673C113.382 201.673 113.284 201.732 113.244 201.752C113.106 201.811 112.948 201.831 112.81 201.831H112.791ZM47.4792 196.75C46.8283 196.356 46.6113 195.509 46.9861 194.839C47.3609 194.189 48.1893 193.933 48.86 194.308L48.2288 195.548L47.4792 196.73V196.75ZM127.802 194.248C127.309 194.248 126.835 193.992 126.579 193.52C126.204 192.85 126.441 192.003 127.131 191.629C127.782 191.255 128.65 191.472 129.044 192.121C129.419 192.771 129.242 193.599 128.61 193.992C128.591 193.992 128.512 194.052 128.492 194.052C128.275 194.17 128.038 194.229 127.821 194.229L127.802 194.248ZM329.752 191.373C329.496 191.373 329.239 191.294 329.002 191.156C328.351 190.743 328.154 189.896 328.568 189.226C328.884 188.517 329.673 188.261 330.383 188.576C331.093 188.892 331.369 189.778 331.054 190.487C331.034 190.546 330.975 190.644 330.936 190.703C330.679 191.117 330.206 191.353 329.752 191.353V191.373ZM33.5727 186.981C33.0007 186.489 32.902 185.622 33.3755 185.031C33.8489 184.441 34.6971 184.322 35.2888 184.775L34.4998 185.918L33.5924 186.981H33.5727ZM141.57 184.539C141.156 184.539 140.761 184.362 140.485 184.027C140.012 183.436 140.071 182.589 140.643 182.097L141.59 183.121L142.418 184.244C142.162 184.441 141.866 184.539 141.55 184.539H141.57ZM336.439 175.972C336.242 175.972 336.064 175.932 335.867 175.854C335.157 175.539 334.841 174.711 335.157 174.002C335.453 173.333 336.261 172.978 336.952 173.234C337.642 173.51 338.017 174.239 337.78 174.948C337.78 174.987 337.741 175.086 337.721 175.125C337.484 175.637 336.972 175.952 336.439 175.952V175.972ZM22.1911 175.834C21.836 175.834 21.5007 175.696 21.2245 175.44C21.2048 175.42 21.1456 175.342 21.1062 175.322C20.613 174.731 20.6722 173.865 21.264 173.352C21.8557 172.86 22.7236 172.919 23.2365 173.51C23.7297 174.081 23.6902 174.948 23.1379 175.46C22.8617 175.716 22.5264 175.834 22.1713 175.834H22.1911ZM154.116 173.352C153.721 173.352 153.327 173.195 153.05 172.86C152.557 172.269 152.616 171.403 153.208 170.891C153.78 170.398 154.648 170.418 155.161 170.989C155.674 171.541 155.674 172.368 155.161 172.899C155.141 172.919 155.062 172.978 155.043 173.018C154.786 173.234 154.451 173.352 154.135 173.352H154.116ZM10.5924 162.008L11.776 161.26L10.5727 161.989C10.1585 161.339 10.336 160.472 10.9672 160.059C11.6182 159.645 12.4664 159.803 12.9003 160.452L10.5924 162.008ZM165.556 161.004C165.221 161.004 164.905 160.886 164.629 160.649C164.057 160.137 163.998 159.251 164.491 158.68C165.004 158.109 165.892 158.01 166.484 158.522C167.056 159.034 167.154 159.881 166.641 160.472L166.602 160.531C166.326 160.846 165.931 161.004 165.556 161.004ZM341.094 159.803C341.094 159.803 340.917 159.803 340.818 159.783C340.068 159.625 339.575 158.897 339.713 158.148L341.094 158.365L342.455 158.7C342.317 159.369 341.745 159.822 341.094 159.822V159.803ZM176.031 147.809C175.755 147.809 175.459 147.73 175.222 147.552C174.591 147.099 174.453 146.233 174.906 145.622L176.07 146.39L177.175 147.257C176.899 147.631 176.465 147.828 176.031 147.828V147.809ZM4.51696 147.513C3.94492 147.513 3.41233 147.159 3.21507 146.587C3.21507 146.587 3.19535 146.509 3.17562 146.489C2.95864 145.741 3.37288 144.972 4.10272 144.756C4.85229 144.539 5.62159 144.953 5.83857 145.681C6.05555 146.41 5.66104 147.218 4.9312 147.434C4.79312 147.474 4.63531 147.493 4.49723 147.493L4.51696 147.513ZM343.58 143.161C343.58 143.161 343.54 143.161 343.52 143.161C342.771 143.121 342.179 142.53 342.179 141.782L343.58 141.723L344.98 141.861C344.901 142.589 344.309 143.141 343.58 143.141V143.161ZM185.46 133.806C185.223 133.806 184.966 133.747 184.749 133.609C184.079 133.215 183.862 132.368 184.256 131.698C184.651 131.048 185.499 130.792 186.17 131.167C186.84 131.541 187.077 132.368 186.702 133.038L186.663 133.116C186.406 133.55 185.933 133.806 185.46 133.806ZM1.40032 131.048C0.6902 131.048 0.0787079 130.536 0.0195312 129.827C0.0195312 129.788 0.0195312 129.67 0.0195312 129.63C0.0195312 128.862 0.650749 128.232 1.42005 128.232C2.18934 128.232 2.82056 128.862 2.82056 129.63C2.82056 130.398 2.22879 131.009 1.49895 131.048C1.47922 131.048 1.43977 131.048 1.42005 131.048H1.40032ZM343.599 126.4C342.83 126.4 342.199 125.77 342.199 125.002C342.199 124.234 342.791 123.623 343.52 123.584C344.349 123.525 344.901 124.076 344.98 124.805C344.98 124.845 344.98 124.963 344.98 125.002C344.98 125.77 344.349 126.4 343.58 126.4H343.599ZM4.04355 113.205L2.66276 112.988L1.30169 112.654C1.4595 111.905 2.18934 111.413 2.93891 111.551C3.68849 111.708 4.18162 112.437 4.04355 113.185V113.205ZM340.996 109.798C340.404 109.798 339.851 109.424 339.674 108.813L340.996 108.36L342.357 108.065C342.514 108.793 342.08 109.542 341.351 109.739C341.232 109.778 341.114 109.778 340.976 109.778L340.996 109.798ZM7.7914 98.3946C7.61387 98.3946 7.41662 98.3552 7.23909 98.2764C6.52897 97.9613 6.21336 97.1735 6.50924 96.4645V96.4054C6.84457 95.6964 7.67305 95.3813 8.38317 95.6964C9.09329 96.0116 9.4089 96.8387 9.09329 97.5477C8.85658 98.0795 8.32399 98.3946 7.7914 98.3946ZM335.709 93.9042C335.177 93.9042 334.664 93.5891 334.427 93.077C334.111 92.368 334.427 91.5212 335.117 91.2061C335.827 90.8909 336.636 91.1864 336.952 91.8954V91.9545C337.287 92.6635 336.952 93.4906 336.261 93.8058C336.084 93.8845 335.887 93.9239 335.689 93.9239L335.709 93.9042ZM15.9381 83.7221C15.6619 83.7221 15.4055 83.6433 15.1688 83.4857C14.5573 83.0722 14.36 82.245 14.7545 81.6148C14.7742 81.5754 14.8334 81.4966 14.8532 81.4769C15.3266 80.8664 16.1945 80.7285 16.806 81.2012C17.4175 81.6738 17.5556 82.5404 17.0821 83.1509C16.806 83.5251 16.372 83.7221 15.9381 83.7221ZM327.72 79.1135C327.306 79.1135 326.892 78.9166 326.635 78.5621L327.72 77.6758L328.904 76.9471C329.298 77.5774 329.141 78.4242 328.529 78.8575C328.292 79.0348 327.996 79.1135 327.72 79.1135ZM26.3334 70.5267C26.0178 70.5267 25.6825 70.4282 25.4261 70.1919C24.854 69.6798 24.7554 68.8329 25.2682 68.2421L25.3077 68.183C25.8206 67.6119 26.7082 67.5331 27.2803 68.0451C27.8523 68.5572 27.9115 69.4435 27.4183 70.0146C27.1422 70.3297 26.7279 70.507 26.3334 70.507V70.5267ZM317.443 65.859C317.049 65.859 316.654 65.7015 316.378 65.3667C315.885 64.7955 315.924 63.929 316.477 63.4169C317.029 62.9048 317.857 62.9048 318.39 63.4169C318.41 63.4366 318.469 63.5154 318.508 63.5351C319.002 64.1259 318.942 64.9925 318.351 65.5045C318.094 65.7212 317.759 65.8393 317.443 65.8393V65.859ZM39.3523 58.4735L38.3857 57.4691L37.4981 56.3859C38.0701 55.8738 38.9578 55.9329 39.4706 56.5238C39.9835 57.0949 39.9243 57.9812 39.3326 58.4932L39.3523 58.4735ZM305.213 54.3574C304.937 54.3574 304.641 54.2786 304.385 54.0816L305.174 52.9393L306.081 51.8758C306.653 52.3682 306.752 53.2348 306.279 53.8256C306.002 54.1801 305.588 54.3574 305.174 54.3574H305.213ZM51.7202 48.5474C51.2665 48.5474 50.8326 48.3505 50.5761 47.9566C50.1619 47.3461 50.2605 46.5189 50.872 46.0659C50.9115 46.0462 50.9904 45.9871 51.0101 45.9674C51.661 45.5538 52.529 45.7508 52.9432 46.4007C53.3574 47.0506 53.1602 47.9172 52.5092 48.3308C52.2725 48.4884 52.0161 48.5474 51.7399 48.5474H51.7202ZM291.563 44.5494C291.346 44.5494 291.11 44.4903 290.893 44.3722L291.524 43.1314L292.273 41.9497C292.924 42.3436 293.141 43.1905 292.767 43.8601C292.51 44.3131 292.037 44.5494 291.563 44.5494ZM65.8832 39.7439C65.4295 39.7439 64.9758 39.4879 64.7194 39.0546C64.3051 38.4047 64.5813 37.4987 65.2322 37.1048C65.2914 37.0655 65.39 37.0064 65.4492 36.9867C66.1593 36.6716 66.9878 36.9867 67.3034 37.6957C67.619 38.4047 67.3034 39.2319 66.5933 39.547C66.3763 39.6848 66.1396 39.7439 65.9029 39.7439H65.8832ZM276.868 36.4155C276.611 36.4155 276.355 36.3367 276.118 36.1989C275.408 35.8838 275.152 35.096 275.467 34.387C275.783 33.678 276.671 33.4022 277.381 33.7174C277.44 33.7371 277.538 33.7961 277.598 33.8355C278.249 34.2491 278.446 35.096 278.032 35.7656C277.775 36.1792 277.302 36.4155 276.848 36.4155H276.868ZM81.6636 31.9645L80.993 30.7435L80.4406 29.4633C81.131 29.1482 81.9595 29.4436 82.2948 30.1329C82.6302 30.8222 82.354 31.6297 81.6636 31.9842V31.9645ZM261.442 29.739C261.245 29.739 261.068 29.6996 260.87 29.6209C260.18 29.3254 259.845 28.518 260.101 27.8287C260.377 27.1393 261.107 26.7651 261.817 27.0015C261.857 27.0015 261.955 27.0409 261.995 27.0606C262.705 27.3757 263.02 28.2029 262.705 28.9119C262.468 29.4239 261.955 29.739 261.423 29.739H261.442ZM97.2271 25.7213L96.6156 24.4609L96.1816 23.1413C96.8918 22.905 97.6808 23.2595 97.9569 23.9488C98.2331 24.6381 97.9175 25.4259 97.2468 25.7213H97.2271ZM245.544 24.2442C245.405 24.2442 245.287 24.2442 245.149 24.1851L245.938 21.5067L245.504 22.8262L245.958 21.5067C246.688 21.743 247.102 22.5111 246.885 23.2595C246.707 23.8503 246.155 24.2442 245.563 24.2442H245.544ZM112.574 20.8764C112.002 20.8764 111.489 20.5022 111.291 19.9114C111.055 19.1827 111.508 18.3752 112.238 18.1389C112.297 18.1389 112.396 18.0798 112.455 18.0798C113.205 17.9419 113.954 18.4146 114.092 19.1827C114.231 19.9508 113.757 20.6795 112.988 20.8174C112.85 20.8567 112.692 20.8961 112.554 20.8961L112.574 20.8764ZM229.309 19.7932C229.171 19.7932 229.033 19.7932 228.915 19.7342C228.185 19.5175 227.751 18.7691 227.929 18.0404C228.126 17.3117 228.836 16.8587 229.566 17.0163C229.605 17.0163 229.684 17.036 229.724 17.0557C230.454 17.2723 230.887 18.0601 230.651 18.7888C230.473 19.3993 229.921 19.7735 229.309 19.7735V19.7932ZM129.123 17.0754C128.433 17.0754 127.821 16.583 127.723 15.8937C127.604 15.1453 128.078 14.456 128.808 14.3181C128.847 14.3181 128.946 14.2984 128.985 14.2984C129.755 14.2196 130.445 14.7711 130.524 15.5392C130.603 16.3073 130.05 16.9966 129.281 17.0754C129.222 17.0754 129.182 17.0754 129.123 17.0754ZM212.819 16.4255C212.819 16.4255 212.72 16.4255 212.681 16.4255C212.622 16.4255 212.523 16.4058 212.464 16.3861C211.714 16.2285 211.241 15.4801 211.399 14.7317C211.556 13.9833 212.326 13.5106 213.056 13.6682L212.76 15.0271L213.075 13.6682C213.845 13.747 214.357 14.4166 214.279 15.1847C214.2 15.9134 213.549 16.4255 212.839 16.4255H212.819ZM145.91 14.5348L145.693 13.1561L145.594 11.7578C146.363 11.6987 147.054 12.2305 147.133 12.9986C147.212 13.7667 146.659 14.456 145.89 14.5348H145.91ZM196.151 14.2C196.151 14.2 196.052 14.2 195.993 14.2C195.224 14.1212 194.652 13.4319 194.731 12.6638C194.809 11.8957 195.46 11.3245 196.23 11.423C196.23 11.423 196.289 11.423 196.309 11.423C197.078 11.5018 197.63 12.1911 197.551 12.9592C197.472 13.6682 196.861 14.2 196.17 14.2H196.151ZM162.479 13.2349C161.71 13.2349 161.079 12.6047 161.079 11.8366C161.079 11.0685 161.71 10.4383 162.479 10.4383C163.249 10.3398 163.899 10.9109 163.978 11.679C164.057 12.4471 163.466 13.1364 162.696 13.2152C162.637 13.2152 162.538 13.2152 162.479 13.2152V13.2349ZM179.364 13.1364C179.364 13.1364 179.266 13.1364 179.206 13.1364C178.437 13.1364 177.865 12.5062 177.865 11.7381C177.865 10.9109 178.713 10.261 179.522 10.3595C180.291 10.4383 180.844 11.1276 180.765 11.8957C180.686 12.6047 180.074 13.1364 179.384 13.1364H179.364Z" fill="#612A7A"/>
</g>
<defs>
<clipPath id="clip0_369_42091">
<rect width="345" height="258" fill="white"/>
</clipPath>
</defs>
</svg>
