<svg width="331" height="258" viewBox="0 0 331 258" fill="none" xmlns="http://www.w3.org/2000/svg">
<g clip-path="url(#clip0_369_41884)">
<path d="M290.528 39.3625H23.5971C22.1606 39.3625 20.9961 40.5269 20.9961 41.9631V214.913C20.9961 216.35 22.1606 217.514 23.5971 217.514H290.528C291.964 217.514 293.129 216.35 293.129 214.913V41.9631C293.129 40.5269 291.964 39.3625 290.528 39.3625Z" fill="#612A7A"/>
<path d="M284.036 48.3086H30.0688C28.6323 48.3086 27.4678 49.4729 27.4678 50.9092V205.967C27.4678 207.403 28.6323 208.568 30.0688 208.568H284.036C285.472 208.568 286.637 207.403 286.637 205.967V50.9092C286.637 49.4729 285.472 48.3086 284.036 48.3086Z" fill="white"/>
<path d="M257.401 186.411L251.429 188.512L249.14 194.67L246.997 188.637L240.879 186.411L247.059 184.122L249.14 178.151L251.366 184.268L257.401 186.411Z" fill="#612A7A"/>
<path d="M318.765 17.7673L312.793 19.8685L310.504 26.0268L308.361 19.9934L302.243 17.7673L308.423 15.4787L310.504 9.52856L312.731 15.6244L318.765 17.7673Z" fill="#612A7A"/>
<path d="M176.497 212.646H137.627V245.039H176.497V212.646Z" fill="#612A7A"/>
<path d="M157.063 258C183.012 258 204.048 252.923 204.048 246.661C204.048 240.399 183.012 235.323 157.063 235.323C131.113 235.323 110.077 240.399 110.077 246.661C110.077 252.923 131.113 258 157.063 258Z" fill="#612A7A"/>
<path d="M77.6366 16.3734L65.7966 20.5343L61.2603 32.7675L56.9738 20.8048L44.8633 16.3734L57.0987 11.8379L61.2603 0L65.6717 12.1084L77.6366 16.3734Z" fill="#612A7A"/>
<path d="M103.626 156.743C123.967 156.743 140.457 140.256 140.457 119.919C140.457 99.5811 123.967 83.0942 103.626 83.0942C83.2847 83.0942 66.7949 99.5811 66.7949 119.919C66.7949 140.256 83.2847 156.743 103.626 156.743Z" fill="#D1EDF8"/>
<path d="M80.9443 118.816H38.4326V161.32H80.9443V118.816Z" fill="white"/>
<path d="M81.9851 162.361H37.3926V117.776H81.9851V162.361ZM39.4734 160.28H79.9042V119.856H39.4734V160.28Z" fill="#612A7A"/>
<path d="M52.1875 141.348H17.916V175.613H52.1875V141.348Z" fill="white"/>
<path d="M53.2283 176.653H16.876V140.307H53.2283V176.653ZM18.9568 174.573H51.1475V142.388H18.9568V174.573Z" fill="#612A7A"/>
<path d="M35.3116 156.535H1.04004V190.801H35.3116V156.535Z" fill="white"/>
<path d="M36.3524 191.841H0V155.495H36.3524V191.841ZM2.08084 189.76H34.2715V157.575H2.08084V189.76Z" fill="#612A7A"/>
<path d="M150.154 178.006H92.3271L121.251 127.928L150.175 178.006H150.154ZM95.927 175.925H146.554L121.251 132.089L95.9478 175.925H95.927Z" fill="#8DC63F"/>
<path d="M130.489 91.5202L153.171 68.843L146.45 62.123L123.768 84.8002C122.707 85.0083 121.708 85.5284 120.876 86.3398C118.649 88.5659 118.649 92.1651 120.876 94.3912C123.102 96.6174 126.702 96.6174 128.929 94.3912C129.74 93.5799 130.261 92.5604 130.469 91.4994L130.489 91.5202Z" fill="white"/>
<path d="M124.913 97.1168C123.186 97.1168 121.459 96.451 120.148 95.1403C117.526 92.5189 117.526 88.2331 120.148 85.6117C121.001 84.7587 122.083 84.1554 123.248 83.8433L146.45 60.646L154.628 68.8223L131.426 92.0196C131.135 93.2055 130.531 94.2665 129.658 95.1195C128.347 96.4302 126.619 97.096 124.892 97.096L124.913 97.1168ZM146.45 63.6211L124.289 85.7782L123.977 85.8406C123.082 86.0278 122.25 86.4647 121.605 87.1097C120.731 87.9835 120.231 89.1485 120.231 90.3968C120.231 91.6451 120.71 92.8102 121.605 93.684C123.415 95.494 126.37 95.494 128.18 93.684C128.825 93.039 129.262 92.2276 129.449 91.3122L129.512 91.0002L151.673 68.8431L146.429 63.6003L146.45 63.6211Z" fill="#612A7A"/>
<path d="M156.521 66.284L160.308 62.4976C162.222 60.5835 162.222 57.4628 160.308 55.5488L159.746 54.987C157.832 53.073 154.71 53.073 152.796 54.987L149.009 58.7735C148.614 59.1688 147.968 59.1688 147.573 58.7735C147.178 58.3782 146.533 58.3782 146.137 58.7735L142.059 62.8512C141.289 63.621 141.289 64.8693 142.059 65.6391L149.675 73.2536C150.445 74.0234 151.693 74.0234 152.463 73.2536L156.542 69.1759C156.937 68.7806 156.937 68.1357 156.542 67.7404C156.146 67.3451 156.146 66.7001 156.542 66.3048L156.521 66.284Z" fill="#612A7A"/>
<path d="M257.295 29.1912L178.431 29.3563C175.248 29.363 172.672 31.9485 172.679 35.1313L172.793 89.4733C172.8 92.656 175.386 95.2308 178.569 95.2241L257.433 95.059C260.616 95.0523 263.191 92.4667 263.185 89.284L263.071 34.942C263.064 31.7593 260.478 29.1845 257.295 29.1912Z" fill="white"/>
<path d="M178.536 96.243C174.791 96.243 171.753 93.2055 171.753 89.4606L171.628 35.0978C171.628 33.2878 172.315 31.5818 173.605 30.2919C174.895 29.002 176.58 28.2946 178.411 28.2946L257.296 28.1282C259.107 28.1282 260.813 28.8355 262.082 30.1046C263.372 31.3945 264.08 33.0797 264.08 34.9105L264.205 89.2734C264.205 91.0834 263.518 92.7894 262.228 94.0793C260.938 95.3692 259.252 96.0766 257.421 96.0766L178.536 96.243ZM257.317 30.2087L178.432 30.3751C177.163 30.3751 175.998 30.8744 175.103 31.769C174.208 32.6636 173.73 33.8495 173.73 35.0978L173.854 89.4606C173.854 90.7297 174.354 91.8948 175.249 92.7894C176.143 93.6632 177.309 94.1625 178.578 94.1625L257.463 93.9961C258.732 93.9961 259.897 93.4968 260.792 92.6022C261.687 91.7076 262.165 90.5217 262.165 89.2734L262.041 34.9105C262.041 33.6414 261.541 32.4764 260.646 31.5818C259.752 30.708 258.586 30.2087 257.317 30.2087Z" fill="#612A7A"/>
<path d="M195.973 55.4864C200.628 55.4864 204.401 51.714 204.401 47.0605C204.401 42.4069 200.628 38.6345 195.973 38.6345C191.319 38.6345 187.546 42.4069 187.546 47.0605C187.546 51.714 191.319 55.4864 195.973 55.4864Z" fill="#8DC63F"/>
<path d="M179.181 75.7502V87.713L256.484 87.5465C256.484 87.5465 253.342 72.2134 241.523 70.5698C229.725 68.9054 224.668 75.667 224.668 75.667L209.457 58.8359L179.16 75.7502H179.181Z" fill="#8DC63F"/>
<path d="M263.208 93.3216L296.049 126.157L310.91 111.299L278.069 78.4633L263.208 93.3216Z" fill="white"/>
<path d="M296.042 127.617L261.729 93.3095L278.063 76.9778L312.376 111.285L296.042 127.617ZM264.683 93.3095L296.042 124.662L309.421 111.285L278.063 79.9321L264.683 93.3095Z" fill="#612A7A"/>
<path d="M218.364 152.249L226.313 160.197L256.09 130.425C255.237 128.428 255.611 126.035 257.234 124.413C259.378 122.27 262.832 122.27 264.954 124.413C267.077 126.535 267.077 130.009 264.954 132.131C263.331 133.754 260.938 134.128 258.941 133.275L229.164 163.047L237.113 170.994L279.271 151.396L292.734 129.468L259.898 96.6382L237.966 110.099L218.364 152.249Z" fill="white"/>
<path d="M236.884 172.243L227.686 163.047L258.691 132.048L259.336 132.318C261.001 133.047 262.915 132.672 264.205 131.382C265.932 129.655 265.932 126.847 264.205 125.141C262.478 123.414 259.669 123.414 257.963 125.141C256.672 126.431 256.319 128.345 257.026 130.009L257.297 130.654L226.292 161.653L217.095 152.457L237.133 109.35L260.023 95.2859L294.024 129.281L279.957 152.166L236.842 172.201L236.884 172.243ZM230.641 163.047L237.321 169.725L278.542 150.564L291.423 129.593L259.752 97.9281L238.777 110.806L219.613 152.021L226.292 158.699L254.862 130.134C254.175 127.845 254.758 125.37 256.485 123.664C259.024 121.125 263.144 121.125 265.682 123.664C268.221 126.202 268.221 130.321 265.682 132.859C263.955 134.565 261.479 135.169 259.211 134.482L230.641 163.047Z" fill="#612A7A"/>
<path d="M209.042 170.017C204.069 170.017 198.825 168.352 194.518 163.213C180.264 146.195 197.327 131.777 212.371 119.066C224.128 109.121 234.303 100.55 228.81 92.5189C222.047 82.595 210.707 87.5881 210.228 87.7962C209.708 88.0458 209.083 87.7962 208.855 87.2761C208.626 86.756 208.855 86.1318 209.375 85.903C209.5 85.8405 222.796 79.9736 230.537 91.333C237.071 100.924 225.73 110.494 213.724 120.647C198.721 133.317 183.198 146.445 196.12 161.882C207.023 174.927 224.419 163.276 225.148 162.756C225.626 162.423 226.271 162.548 226.583 163.026C226.916 163.505 226.791 164.15 226.313 164.462C226.188 164.545 218.052 170.017 209.042 170.017Z" fill="#612A7A"/>
<path d="M229.746 87.4009H226.042V91.1041H229.746V87.4009Z" fill="#612A7A"/>
<path d="M197.306 160.239H192.749V164.795H197.306V160.239Z" fill="#612A7A"/>
<path d="M246.809 111.202C246.539 111.202 246.247 111.098 246.039 110.869L214.452 76.4368C214.057 76.0207 214.098 75.3549 214.515 74.9596C214.931 74.5643 215.597 74.6059 215.992 75.022L247.579 109.454C247.975 109.87 247.933 110.536 247.517 110.931C247.309 111.118 247.059 111.202 246.809 111.202Z" fill="#612A7A"/>
<path d="M212.662 182.624C212.392 182.624 212.121 182.52 211.913 182.312L176.06 145.613C175.665 145.197 175.665 144.552 176.06 144.136C176.476 143.74 177.142 143.74 177.538 144.136L213.391 180.835C213.786 181.251 213.786 181.896 213.391 182.312C213.182 182.52 212.933 182.604 212.662 182.604V182.624Z" fill="#612A7A"/>
<path d="M215.034 78.0596C216.528 78.0596 217.739 76.8487 217.739 75.355C217.739 73.8613 216.528 72.6504 215.034 72.6504C213.54 72.6504 212.329 73.8613 212.329 75.355C212.329 76.8487 213.54 78.0596 215.034 78.0596Z" fill="#612A7A"/>
<path d="M248.1 114.447C249.594 114.447 250.805 113.236 250.805 111.742C250.805 110.249 249.594 109.038 248.1 109.038C246.606 109.038 245.395 110.249 245.395 111.742C245.395 113.236 246.606 114.447 248.1 114.447Z" fill="#612A7A"/>
<path d="M213.203 184.497C214.697 184.497 215.908 183.286 215.908 181.792C215.908 180.299 214.697 179.088 213.203 179.088C211.709 179.088 210.498 180.299 210.498 181.792C210.498 183.286 211.709 184.497 213.203 184.497Z" fill="#612A7A"/>
<path d="M176.144 146.653C177.638 146.653 178.849 145.442 178.849 143.948C178.849 142.455 177.638 141.244 176.144 141.244C174.65 141.244 173.438 142.455 173.438 143.948C173.438 145.442 174.65 146.653 176.144 146.653Z" fill="#612A7A"/>
<path d="M82.193 191.82L74.8684 181.168L79.8624 177.818L61.4678 166.646L65.1301 187.721L70.7275 183.956L78.0729 194.649L82.193 191.82Z" fill="#612A7A"/>
<path d="M267.992 247.806L267.763 246.349L267.659 244.872C268.471 244.81 269.199 245.371 269.283 246.183C269.366 246.994 268.783 247.722 267.972 247.806H267.992ZM250.16 247.119C250.16 247.119 250.055 247.119 249.993 247.119L250.097 245.642L250.388 244.206C251.158 244.352 251.699 245.101 251.595 245.871C251.491 246.599 250.867 247.119 250.16 247.119ZM285.451 242.771L284.743 241.481L284.161 240.129C284.889 239.796 285.763 240.108 286.117 240.836C286.47 241.564 286.179 242.417 285.451 242.792V242.771ZM233.242 241.793C233.097 241.793 232.93 241.772 232.784 241.71L233.201 240.295L233.804 238.943C234.532 239.255 234.886 240.087 234.616 240.836C234.387 241.419 233.846 241.793 233.242 241.793ZM78.1777 235.822C78.032 235.822 77.8864 235.822 77.7615 235.76C76.9916 235.531 76.5338 234.74 76.7211 233.97C76.9292 233.201 77.6575 232.701 78.4482 232.889C78.4898 232.889 78.573 232.909 78.6147 232.93C79.3846 233.159 79.8424 233.991 79.5927 234.761C79.4054 235.406 78.8228 235.801 78.1777 235.801V235.822ZM217.428 233.804C217.199 233.804 216.949 233.742 216.72 233.617L217.386 232.306L218.177 231.058C218.864 231.474 219.092 232.368 218.697 233.076C218.427 233.554 217.927 233.804 217.428 233.804ZM300.558 232.847L299.538 231.786L298.602 230.642C299.205 230.101 300.141 230.163 300.682 230.787C301.223 231.391 301.161 232.327 300.537 232.868L300.558 232.847ZM61.3853 230.101C61.2396 230.101 61.0732 230.08 60.9275 230.018L61.3437 228.603L61.9471 227.251C62.6754 227.563 63.0291 228.395 62.7586 229.144C62.5297 229.726 61.9887 230.101 61.3853 230.101ZM203.299 223.11C202.966 223.11 202.633 222.986 202.363 222.757L203.278 221.592L204.319 220.551C204.88 221.113 204.922 222.029 204.381 222.611C204.09 222.923 203.694 223.09 203.299 223.09V223.11ZM45.7581 221.737C45.446 221.737 45.1339 221.633 44.8842 221.446C44.2599 220.967 44.0726 220.073 44.5304 219.407C44.9674 218.762 45.8414 218.554 46.5072 218.97C46.5489 218.991 46.6321 219.053 46.6529 219.074C47.298 219.574 47.4436 220.489 46.9442 221.134C46.6529 221.529 46.2159 221.716 45.7581 221.716V221.737ZM312.71 219.407L311.42 218.679L310.254 217.784C310.733 217.139 311.628 216.973 312.273 217.431C312.918 217.868 313.126 218.741 312.71 219.407ZM31.8997 210.669C31.5668 210.669 31.2338 210.544 30.9633 210.315L31.8789 209.15L32.9193 208.11C33.4811 208.672 33.5228 209.587 32.9817 210.17C32.6904 210.482 32.2951 210.648 31.8997 210.648V210.669ZM191.833 209.608C191.396 209.608 190.959 209.4 190.689 209.026L191.833 208.089L193.082 207.32C193.498 207.985 193.332 208.88 192.687 209.338C192.437 209.525 192.125 209.608 191.833 209.608ZM320.367 204.823C320.159 204.823 319.951 204.781 319.764 204.677C319.035 204.344 318.703 203.512 319.035 202.763C319.035 202.763 319.077 202.68 319.098 202.659C319.452 201.931 320.346 201.64 321.075 201.993C321.803 202.347 322.094 203.242 321.741 203.97C321.491 204.49 320.95 204.802 320.388 204.802L320.367 204.823ZM20.4967 197.104C20.0597 197.104 19.6227 196.896 19.3522 196.522L20.4967 195.586L21.7452 194.816C22.1613 195.482 21.9949 196.376 21.3498 196.834C21.1001 197.021 20.788 197.104 20.4967 197.104ZM184.072 193.713C183.448 193.713 182.886 193.318 182.678 192.694C182.428 191.924 182.823 191.05 183.593 190.801C184.363 190.551 185.196 190.925 185.445 191.716V191.778C185.716 192.548 185.3 193.38 184.53 193.651C184.384 193.713 184.218 193.734 184.072 193.734V193.713ZM12.0901 181.563C11.4658 181.563 10.904 181.168 10.6959 180.544C10.4462 179.795 10.8207 178.963 11.549 178.671C12.2773 178.38 13.1097 178.692 13.4218 179.42C13.4218 179.462 13.4842 179.566 13.505 179.608C13.7547 180.377 13.3386 181.21 12.5687 181.48C12.423 181.542 12.2565 181.563 12.1109 181.563H12.0901ZM180.888 176.3C180.888 176.3 180.826 176.3 180.805 176.3C179.993 176.258 179.369 175.571 179.411 174.739C179.452 173.949 180.097 173.304 180.888 173.304H180.93C181.721 173.304 182.366 173.949 182.366 174.739C182.366 174.76 182.366 174.843 182.366 174.885C182.324 175.675 181.679 176.279 180.888 176.279V176.3ZM329.502 169.247L328.025 169.101C328.108 168.311 328.711 167.728 329.565 167.749C330.355 167.79 330.98 168.415 330.98 169.205L329.502 169.268V169.247ZM6.82552 164.649C6.13884 164.649 5.51459 164.17 5.38974 163.463C5.22327 162.672 5.74348 161.861 6.5342 161.695C7.32492 161.528 8.09484 162.007 8.2613 162.797V162.881C8.42777 163.671 7.90756 164.462 7.09603 164.607C6.99199 164.607 6.90876 164.628 6.80471 164.628L6.82552 164.649ZM327.879 151.667L329.356 151.521L327.879 151.625C327.796 150.814 328.378 150.086 329.19 150.002C329.981 149.919 330.73 150.502 330.813 151.313L327.879 151.688V151.667ZM4.76549 147.09C4.01638 147.09 3.37132 146.486 3.28809 145.717C3.28809 145.654 3.28809 145.55 3.28809 145.488C3.28809 144.676 3.95396 144.011 4.76549 144.011C5.57702 144.011 6.24289 144.676 6.24289 145.488C6.32612 146.299 5.74348 146.986 4.93195 147.069C4.89034 147.069 4.82791 147.069 4.78629 147.069L4.76549 147.09ZM324.009 134.711C323.759 133.962 324.134 133.13 324.862 132.838C325.611 132.547 326.422 132.88 326.735 133.587L325.403 134.232L324.009 134.69V134.711ZM5.74348 129.322C5.63944 129.322 5.5354 129.322 5.43136 129.281C4.64063 129.114 4.14123 128.324 4.3077 127.533C4.39093 126.722 5.11923 126.16 5.90995 126.264C6.72148 126.347 7.30412 127.117 7.22088 127.929C7.22088 127.991 7.20007 128.095 7.17927 128.157C7.03361 128.844 6.40935 129.322 5.74348 129.322ZM318.141 119.607C317.621 119.607 317.1 119.336 316.809 118.858C316.767 118.795 316.705 118.691 316.684 118.629C316.351 117.88 316.684 117.006 317.433 116.673C318.182 116.34 319.056 116.673 319.389 117.422C319.826 118.109 319.577 118.962 318.89 119.399C318.661 119.544 318.411 119.607 318.162 119.607H318.141ZM9.57224 112.075C9.57224 112.075 9.36415 112.075 9.26011 112.034C8.46939 111.867 7.96999 111.035 8.11565 110.244C8.11565 110.182 8.15726 110.078 8.17807 110.016C8.42777 109.246 9.28092 108.809 10.0508 109.079C10.8207 109.329 11.2369 110.161 10.9872 110.952L9.59305 110.494L10.9872 110.973C10.8416 111.659 10.2589 112.096 9.59305 112.096L9.57224 112.075ZM308.735 102.963L307.487 103.733C307.071 103.067 307.237 102.172 307.882 101.715C308.527 101.257 309.401 101.382 309.88 102.027L308.735 102.963ZM15.9604 95.4731C15.7315 95.4731 15.5235 95.4315 15.2946 95.3066C14.5663 94.953 14.2749 94.0583 14.6287 93.3302C14.9824 92.6228 15.8772 92.2899 16.5847 92.6228C17.313 92.9557 17.6459 93.7879 17.313 94.5369C17.313 94.5369 17.2714 94.6201 17.2506 94.6409C17.0009 95.161 16.4806 95.4523 15.9396 95.4523L15.9604 95.4731ZM298.04 90.2303C297.644 90.2303 297.249 90.0638 296.958 89.731C296.958 89.7102 296.874 89.6477 296.854 89.6061C296.375 88.9612 296.5 88.025 297.145 87.5465C297.79 87.0679 298.726 87.1928 299.205 87.8377C299.684 88.4827 299.58 89.3981 298.955 89.8974C298.685 90.1262 298.352 90.2303 298.019 90.2303H298.04ZM24.6792 80.0359C24.367 80.0359 24.0549 79.9319 23.8052 79.7447C23.1602 79.2454 23.0145 78.3299 23.5139 77.685C24.0133 77.04 24.8873 76.8736 25.5531 77.3313C26.1982 77.7682 26.4063 78.642 25.9901 79.3078C25.9693 79.3494 25.9069 79.4326 25.8861 79.4534C25.5947 79.8487 25.1578 80.0359 24.7 80.0359H24.6792ZM286.283 76.9152C285.929 76.9152 285.555 76.7696 285.263 76.4991C285.243 76.4783 285.18 76.3951 285.139 76.3743C284.618 75.7501 284.681 74.8347 285.305 74.2938C285.929 73.7737 286.845 73.8361 287.386 74.4603C287.906 75.0636 287.864 75.979 287.282 76.5199C286.99 76.7904 286.637 76.9152 286.262 76.9152H286.283ZM35.4371 65.9303C35.0834 65.9303 34.7505 65.8055 34.4591 65.5558C33.8557 65.0149 33.7933 64.0787 34.3135 63.4753C34.8545 62.872 35.7909 62.768 36.4151 63.3089C37.0186 63.8498 37.1226 64.7444 36.5816 65.3686L36.54 65.431C36.2487 65.7639 35.8325 65.9303 35.4371 65.9303ZM273.569 64.5364C273.236 64.5364 272.903 64.4324 272.633 64.1827L272.57 64.1411C271.967 63.6002 271.904 62.6639 272.425 62.0606C272.945 61.4573 273.902 61.3741 274.505 61.915C275.109 62.4559 275.192 63.3921 274.672 64.0163C274.381 64.3491 273.964 64.5364 273.548 64.5364H273.569ZM47.943 53.3434C47.5269 53.3434 47.1315 53.177 46.8402 52.8441C46.2991 52.2408 46.3616 51.3045 46.9858 50.7636L48.0054 51.8247L48.9418 52.9689C48.6713 53.2186 48.3176 53.3434 47.9638 53.3434H47.943ZM259.939 53.1562C259.648 53.1562 259.336 53.0729 259.086 52.8649C259.066 52.8649 258.982 52.7817 258.961 52.7609C258.337 52.2408 258.275 51.3045 258.795 50.6804C259.336 50.0563 260.252 49.9938 260.876 50.514C261.479 51.0341 261.583 51.9495 261.084 52.5736C260.793 52.9481 260.356 53.1354 259.939 53.1354V53.1562ZM245.457 42.8786C245.207 42.8786 244.937 42.8162 244.687 42.6498C244.645 42.6289 244.562 42.5665 244.541 42.5457C243.896 42.0464 243.751 41.131 244.25 40.4861C244.729 39.8411 245.665 39.6955 246.31 40.1948C246.934 40.6733 247.121 41.5679 246.664 42.2337C246.372 42.6497 245.915 42.8786 245.457 42.8786ZM61.9263 42.3793C61.4477 42.3793 60.9899 42.1504 60.7194 41.7551C60.2616 41.1102 60.3865 40.2364 61.0315 39.7579L61.9679 40.9021L62.7378 42.1504C62.4881 42.3169 62.2176 42.3793 61.9263 42.3793ZM229.476 33.6829L230.183 32.393L229.455 33.6829C228.748 33.3084 228.477 32.4138 228.831 31.7064C229.205 30.9991 230.059 30.7078 230.787 31.0615L230.183 32.4138L229.476 33.7037V33.6829ZM77.054 33.1628C76.513 33.1628 75.9928 32.8715 75.7431 32.3514C75.3894 31.6232 75.6807 30.7286 76.409 30.3749C77.1165 30.0213 78.032 30.2917 78.4066 30.9991C78.7811 31.7064 78.5522 32.5802 77.8448 32.9547C77.8448 32.9547 77.7615 32.9963 77.7407 33.0171C77.5326 33.1212 77.3037 33.1836 77.0748 33.1836L77.054 33.1628ZM213.557 26.1516C212.829 25.8395 212.475 25.0073 212.746 24.2583C213.037 23.5302 213.807 23.1349 214.577 23.3845L214.161 24.7993L213.557 26.1516ZM93.1182 25.6314C92.4939 25.6314 91.9321 25.2362 91.724 24.612C91.4743 23.8422 91.8905 23.01 92.6604 22.7396C93.4095 22.4899 94.2418 22.8644 94.5331 23.5926C94.8244 24.3207 94.5123 25.1529 93.784 25.465C93.7424 25.465 93.6384 25.5274 93.5967 25.5482C93.4511 25.6106 93.2846 25.6314 93.139 25.6314H93.1182ZM197.452 20.3054C197.306 20.3054 197.14 20.2846 196.994 20.2222L197.452 18.8283L196.973 20.2222C196.182 20.0558 195.725 19.3068 195.87 18.4954C196.016 17.684 196.869 17.2055 197.66 17.3511C197.722 17.3511 197.826 17.3928 197.889 17.4136C198.659 17.6632 199.075 18.4954 198.825 19.286C198.617 19.9101 198.034 20.3054 197.431 20.3054H197.452ZM109.89 19.7853C109.203 19.7853 108.579 19.3068 108.454 18.5994C108.288 17.8088 108.808 17.0183 109.619 16.8726C110.389 16.623 111.159 17.0391 111.43 17.8297C111.679 18.5994 111.201 19.4524 110.431 19.7021C110.368 19.7021 110.264 19.7645 110.202 19.7645C110.098 19.7645 110.015 19.7853 109.911 19.7853H109.89ZM180.222 14.6465L179.931 16.0821C179.161 15.9364 178.62 15.1874 178.724 14.4177C178.849 13.6271 179.536 13.0862 180.326 13.1694L180.222 14.6465ZM127.182 15.7908C126.432 15.7908 125.787 15.2291 125.725 14.4593C125.642 13.6479 126.245 12.9197 127.036 12.8365C127.827 12.6701 128.555 13.1694 128.742 13.96C128.929 14.7505 128.368 15.5411 127.556 15.7284C127.494 15.7284 127.39 15.77 127.327 15.77C127.286 15.77 127.223 15.77 127.182 15.77V15.7908ZM162.473 13.9392C161.682 13.8559 161.079 13.1902 161.12 12.3996C161.162 11.609 161.786 10.9849 162.577 10.9849L162.639 12.462L162.494 13.9392H162.473ZM144.827 13.8351C144.016 13.8351 143.35 13.1694 143.35 12.358C143.35 11.5466 144.016 10.8809 144.827 10.8809C145.639 10.8809 146.284 11.505 146.325 12.2748C146.367 13.0654 145.805 13.7311 145.035 13.8143C144.994 13.8143 144.869 13.8143 144.827 13.8143V13.8351Z" fill="#612A7A"/>
<path d="M80.2373 126.618C95.5794 126.618 108.017 114.183 108.017 98.8435C108.017 83.5041 95.5794 71.0691 80.2373 71.0691C64.8952 71.0691 52.458 83.5041 52.458 98.8435C52.458 114.183 64.8952 126.618 80.2373 126.618Z" fill="#8DC63F"/>
<path d="M74.8687 99.3426C75.8675 100.445 76.3877 101.798 76.3877 103.42C76.3877 104.669 76.0547 105.834 75.4097 106.895C74.7438 107.956 73.745 108.809 72.4133 109.433C71.0607 110.078 69.4168 110.39 67.4608 110.39C65.9418 110.39 64.4436 110.182 62.9662 109.787C61.4888 109.391 60.2403 108.809 59.2207 108.081L61.1559 104.253C61.9674 104.877 62.9246 105.355 64.0066 105.688C65.0887 106.021 66.1915 106.187 67.3152 106.187C68.5637 106.187 69.5625 105.938 70.27 105.459C70.9983 104.981 71.352 104.294 71.352 103.42C71.352 101.652 69.9995 100.778 67.3152 100.778H65.0263V97.491L69.4585 92.4562H60.2819V88.4409H75.3889V91.6865L70.5197 97.2413C72.4133 97.5534 73.849 98.2608 74.8687 99.3426Z" fill="white"/>
<path d="M80.0293 88.441H89.8301C92.1814 88.441 94.2415 88.8779 96.0518 89.7725C97.8621 90.6671 99.2563 91.9362 100.234 93.5381C101.233 95.1609 101.733 97.0541 101.733 99.2178C101.733 101.382 101.233 103.275 100.234 104.898C99.2355 106.52 97.8413 107.769 96.0518 108.663C94.2623 109.558 92.1814 109.995 89.8301 109.995H80.0293V88.4202V88.441ZM89.5804 105.917C91.7445 105.917 93.4507 105.314 94.7409 104.107C96.031 102.9 96.6761 101.278 96.6761 99.2178C96.6761 97.1582 96.031 95.5354 94.7409 94.3287C93.4507 93.122 91.7445 92.5187 89.5804 92.5187H85.0233V105.896H89.5804V105.917Z" fill="white"/>
<path d="M80.9238 75.7295C80.9238 75.7295 98.174 74.6892 101.337 89.3358C101.337 89.3358 91.224 77.6227 80.9238 75.7295Z" fill="white"/>
<path d="M77.054 76.5824C77.5137 76.5824 77.8864 76.2098 77.8864 75.7502C77.8864 75.2906 77.5137 74.918 77.054 74.918C76.5943 74.918 76.2217 75.2906 76.2217 75.7502C76.2217 76.2098 76.5943 76.5824 77.054 76.5824Z" fill="white"/>
<path d="M216.99 61.4365C216.99 61.4365 232.472 63.6834 236.862 54.6542C241.544 45.0632 231.723 40.1532 226.583 42.9619C221.443 45.7705 221.672 52.5529 223.316 54.1757C223.316 54.1757 220.985 60.958 217.011 61.4157L216.99 61.4365Z" fill="#612A7A"/>
<path d="M231.494 40.6318C231.494 40.6318 250.201 8.36361 252.76 9.54948C255.341 10.7145 237.57 43.6693 237.57 43.6693L231.494 40.6318Z" fill="#612A7A"/>
<path d="M21.7033 57.9204C31.0809 57.9204 38.683 50.3197 38.683 40.9437C38.683 31.5678 31.0809 23.967 21.7033 23.967C12.3257 23.967 4.72363 31.5678 4.72363 40.9437C4.72363 50.3197 12.3257 57.9204 21.7033 57.9204Z" fill="#8DC63F"/>
<path d="M24.3464 33.4331V48.4334H20.8714V36.2209H17.875V33.4331H24.3464Z" fill="#612A7A"/>
</g>
<defs>
<clipPath id="clip0_369_41884">
<rect width="331" height="258" fill="white"/>
</clipPath>
</defs>
</svg>
