<svg width="363" height="258" viewBox="0 0 363 258" fill="none" xmlns="http://www.w3.org/2000/svg">
<g clip-path="url(#clip0_369_41644)">
<path d="M307.55 31.301H71.0577C66.0358 31.301 61.9648 35.3747 61.9648 40.3999V231.496C61.9648 236.522 66.0358 240.595 71.0577 240.595H307.55C312.572 240.595 316.643 236.522 316.643 231.496V40.3999C316.643 35.3747 312.572 31.301 307.55 31.301Z" fill="white"/>
<path d="M307.551 241.586H71.0579C65.4913 241.586 60.9746 237.067 60.9746 231.496V40.3999C60.9746 34.8295 65.4913 30.3098 71.0579 30.3098H307.551C313.117 30.3098 317.634 34.8295 317.634 40.3999V231.496C317.634 237.067 313.117 241.586 307.551 241.586ZM71.0579 32.2921C66.6007 32.2921 62.9556 35.9198 62.9556 40.3999V231.496C62.9556 235.976 66.5809 239.604 71.0579 239.604H307.551C312.008 239.604 315.653 235.976 315.653 231.496V40.3999C315.653 35.9198 312.028 32.2921 307.551 32.2921H71.0579Z" fill="#612A7A"/>
<path d="M260.047 97.1736H283.006C297.507 97.1736 309.275 108.949 309.275 123.459V139.437H260.027C248.378 139.437 238.909 129.961 238.909 118.305C238.909 106.649 248.378 97.1736 260.027 97.1736H260.047Z" fill="#612A7A"/>
<path d="M267.04 139.001H315.535C327.183 139.001 336.653 148.476 336.653 160.132C336.653 171.788 327.183 181.264 315.535 181.264H289.643C277.163 181.264 267.04 171.134 267.04 158.646V139.001Z" fill="#612A7A"/>
<path d="M258.858 118.107C261.386 118.107 263.434 116.057 263.434 113.528C263.434 110.999 261.386 108.949 258.858 108.949C256.331 108.949 254.282 110.999 254.282 113.528C254.282 116.057 256.331 118.107 258.858 118.107Z" fill="white"/>
<path d="M248.161 127.365C244.377 127.365 241.287 126.135 241.109 126.056C240.594 125.858 240.356 125.283 240.554 124.768C240.752 124.252 241.326 124.014 241.842 124.213C241.901 124.232 248.319 126.77 253.43 124.252C253.926 124.014 254.52 124.213 254.758 124.708C254.995 125.204 254.797 125.799 254.302 126.036C252.281 127.028 250.122 127.365 248.161 127.365Z" fill="white"/>
<path d="M201.527 223.904L194.019 226.54L191.127 234.311L188.413 226.699L180.727 223.904L188.492 221.01L191.127 213.497L193.94 221.188L201.527 223.904Z" fill="#612A7A"/>
<path d="M362.999 118.821L348.082 124.054L342.357 139.496L336.949 124.391L321.695 118.821L337.127 113.092L342.357 98.1648L347.904 113.429L362.999 118.821Z" fill="#612A7A"/>
<path d="M303.391 41.1926H78.725C75.5303 41.1926 72.9404 43.7842 72.9404 46.981V65.1392C72.9404 68.336 75.5303 70.9275 78.725 70.9275H303.391C306.586 70.9275 309.176 68.336 309.176 65.1392V46.981C309.176 43.7842 306.586 41.1926 303.391 41.1926Z" fill="#D1EDF8"/>
<path d="M286.335 62.9388C286.077 62.9388 285.8 62.8397 285.602 62.6216C285.226 62.2252 285.265 61.5908 285.661 61.2142L297.211 50.5294C297.607 50.1528 298.241 50.1924 298.617 50.5889C298.994 50.9854 298.954 51.6197 298.558 51.9964L287.009 62.6811C286.81 62.8595 286.573 62.9388 286.335 62.9388Z" fill="#612A7A"/>
<path d="M297.884 62.9388C297.647 62.9388 297.409 62.8595 297.211 62.6811L285.661 51.9964C285.265 51.6197 285.226 51.0052 285.602 50.5889C285.978 50.1924 286.593 50.1528 287.009 50.5294L298.558 61.2142C298.954 61.5908 298.994 62.2053 298.617 62.6216C298.419 62.8397 298.162 62.9388 297.884 62.9388Z" fill="#612A7A"/>
<path d="M272.923 58.6173H262.938V50.2717H272.923V58.6173ZM264.919 56.635H270.942V52.2541H264.919V56.635Z" fill="#612A7A"/>
<path d="M268.941 62.9389H258.957V54.5933H268.941V62.9389ZM260.938 60.9565H266.96V56.5756H260.938V60.9565Z" fill="#612A7A"/>
<path d="M247.091 62.9389H238.276C237.721 62.9389 237.285 62.5028 237.285 61.9477C237.285 61.3927 237.721 60.9565 238.276 60.9565H247.091C247.646 60.9565 248.082 61.3927 248.082 61.9477C248.082 62.5028 247.646 62.9389 247.091 62.9389Z" fill="#612A7A"/>
<path d="M155.449 107.858H111.966C111.411 107.858 110.976 107.422 110.976 106.867C110.976 106.312 111.411 105.876 111.966 105.876H155.449C156.004 105.876 156.44 106.312 156.44 106.867C156.44 107.422 156.004 107.858 155.449 107.858Z" fill="#612A7A"/>
<path d="M164.72 159.894H112.243C111.689 159.894 111.253 159.458 111.253 158.903C111.253 158.348 111.689 157.912 112.243 157.912H164.72C165.275 157.912 165.711 158.348 165.711 158.903C165.711 159.458 165.275 159.894 164.72 159.894Z" fill="#612A7A"/>
<path d="M155.449 138.763H111.966C111.411 138.763 110.976 138.327 110.976 137.772C110.976 137.217 111.411 136.781 111.966 136.781H155.449C156.004 136.781 156.44 137.217 156.44 137.772C156.44 138.327 156.004 138.763 155.449 138.763Z" fill="#612A7A"/>
<path d="M176.607 126.829H112.58C112.026 126.829 111.59 126.393 111.59 125.838C111.59 125.283 112.026 124.847 112.58 124.847H176.607C177.161 124.847 177.597 125.283 177.597 125.838C177.597 126.393 177.161 126.829 176.607 126.829Z" fill="#612A7A"/>
<path d="M181.36 107.858H163.195C162.64 107.858 162.204 107.422 162.204 106.867C162.204 106.312 162.64 105.876 163.195 105.876H181.36C181.915 105.876 182.351 106.312 182.351 106.867C182.351 107.422 181.915 107.858 181.36 107.858Z" fill="#612A7A"/>
<path d="M135.164 117.334H116.998C116.444 117.334 116.008 116.898 116.008 116.343C116.008 115.788 116.444 115.352 116.998 115.352H135.164C135.719 115.352 136.155 115.788 136.155 116.343C136.155 116.898 135.719 117.334 135.164 117.334Z" fill="#612A7A"/>
<path d="M202.756 126.829H184.59C184.035 126.829 183.6 126.393 183.6 125.838C183.6 125.283 184.035 124.847 184.59 124.847H202.756C203.311 124.847 203.746 125.283 203.746 125.838C203.746 126.393 203.311 126.829 202.756 126.829Z" fill="#612A7A"/>
<path d="M217.713 126.829H209.571C209.016 126.829 208.58 126.393 208.58 125.838C208.58 125.283 209.016 124.847 209.571 124.847H217.713C218.267 124.847 218.703 125.283 218.703 125.838C218.703 126.393 218.267 126.829 217.713 126.829Z" fill="#612A7A"/>
<path d="M120.445 149.17H112.303C111.748 149.17 111.312 148.734 111.312 148.179C111.312 147.624 111.748 147.188 112.303 147.188H120.445C121 147.188 121.435 147.624 121.435 148.179C121.435 148.734 121 149.17 120.445 149.17Z" fill="#612A7A"/>
<path d="M125.655 171.095H113.036C112.482 171.095 112.046 170.659 112.046 170.103C112.046 169.548 112.482 169.112 113.036 169.112H125.655C126.21 169.112 126.646 169.548 126.646 170.103C126.646 170.659 126.21 171.095 125.655 171.095Z" fill="#612A7A"/>
<path d="M147.11 171.095H134.491C133.936 171.095 133.5 170.659 133.5 170.103C133.5 169.548 133.936 169.112 134.491 169.112H147.11C147.664 169.112 148.1 169.548 148.1 170.103C148.1 170.659 147.664 171.095 147.11 171.095Z" fill="#612A7A"/>
<path d="M121.792 181.819H113.293C112.739 181.819 112.303 181.383 112.303 180.828C112.303 180.273 112.739 179.837 113.293 179.837H121.792C122.346 179.837 122.782 180.273 122.782 180.828C122.782 181.383 122.346 181.819 121.792 181.819Z" fill="#612A7A"/>
<path d="M120.722 99.7111H112.224C111.669 99.7111 111.233 99.275 111.233 98.7199C111.233 98.1649 111.669 97.7288 112.224 97.7288H120.722C121.277 97.7288 121.713 98.1649 121.713 98.7199C121.713 99.275 121.277 99.7111 120.722 99.7111Z" fill="#612A7A"/>
<path d="M192.613 182.176V188.995L199.151 189.927C199.765 193.277 201.052 196.369 202.895 199.065L198.933 204.358L203.747 209.175L209.016 205.21C211.71 207.074 214.801 208.402 218.129 209.016L219.06 215.578H225.874L226.805 209.036C230.153 208.422 233.244 207.133 235.938 205.29L241.227 209.254L246.041 204.437L242.079 199.164C243.941 196.468 245.268 193.376 245.883 190.046L252.44 189.114V182.295L245.902 181.363C245.288 178.013 244.001 174.92 242.158 172.224L246.12 166.932L241.306 162.115L236.037 166.079C233.343 164.216 230.252 162.888 226.924 162.273L225.993 155.712H219.179L218.248 162.253C214.9 162.868 211.809 164.156 209.115 166L203.826 162.035L199.012 166.852L202.974 172.125C201.112 174.821 199.785 177.914 199.17 181.244L192.613 182.176ZM222.546 169.112C231.679 169.112 239.068 176.526 239.068 185.645C239.068 194.764 231.659 202.177 222.546 202.177C213.434 202.177 206.025 194.783 206.025 185.645C206.025 176.506 213.434 169.112 222.546 169.112Z" fill="white"/>
<path d="M226.746 216.589H218.208L217.257 209.869C214.325 209.235 211.572 208.085 209.056 206.44L203.648 210.484L197.606 204.437L201.667 199.006C200.042 196.468 198.913 193.713 198.299 190.779L191.623 189.828V181.284L198.339 180.312C198.973 177.379 200.122 174.623 201.766 172.106L197.725 166.694L203.767 160.648L209.195 164.712C211.71 163.086 214.484 161.956 217.416 161.342L218.367 154.661H226.905L227.875 161.381C230.807 162.016 233.561 163.165 236.077 164.811L241.485 160.767L247.527 166.813L243.466 172.244C245.09 174.762 246.22 177.537 246.834 180.471L253.51 181.423V189.966L246.794 190.918C246.16 193.852 245.011 196.607 243.367 199.125L247.408 204.537L241.366 210.583L235.938 206.519C233.422 208.144 230.649 209.274 227.717 209.889L226.766 216.569L226.746 216.589ZM219.932 214.607H225.023L225.934 208.224L226.647 208.105C229.817 207.53 232.749 206.321 235.403 204.517L235.998 204.12L241.168 208.006L244.773 204.398L240.911 199.224L241.327 198.629C243.149 195.993 244.377 193.039 244.972 189.887L245.11 189.193L251.509 188.281V183.187L245.13 182.275L245.011 181.581C244.437 178.409 243.228 175.476 241.426 172.819L241.029 172.225L244.912 167.051L241.307 163.443L236.156 167.308L235.562 166.892C232.927 165.068 229.995 163.839 226.826 163.245L226.132 163.106L225.221 156.703H220.13L219.218 163.086L218.525 163.205C215.356 163.78 212.424 164.989 209.769 166.793L209.175 167.189L204.004 163.304L200.399 166.912L204.262 172.066L203.846 172.661C202.023 175.297 200.795 178.251 200.201 181.403L200.062 182.097L193.663 183.008V188.103L200.042 189.015L200.161 189.729C200.736 192.88 201.944 195.834 203.747 198.49L204.143 199.085L200.26 204.259L203.866 207.867L209.016 204.001L209.611 204.418C212.245 206.241 215.197 207.47 218.347 208.065L219.04 208.204L219.951 214.607H219.932ZM222.547 203.189C212.879 203.189 205.034 195.319 205.034 185.665C205.034 176.011 212.899 168.141 222.547 168.141C232.194 168.141 240.059 176.011 240.059 185.665C240.059 195.319 232.194 203.189 222.547 203.189ZM222.547 170.123C213.989 170.123 207.015 177.101 207.015 185.665C207.015 194.228 213.989 201.206 222.547 201.206C231.105 201.206 238.078 194.228 238.078 185.665C238.078 177.101 231.105 170.123 222.547 170.123Z" fill="#612A7A"/>
<path d="M22.3452 158.209L79.636 121.754L120.623 186.259L66.5019 220.692C62.6191 223.17 57.4883 222.021 55.0319 218.135L16.6201 157.694" fill="white"/>
<path d="M62.0644 222.972C61.3909 222.972 60.7174 222.893 60.024 222.754C57.6072 222.219 55.5271 220.752 54.1998 218.651L15.7881 158.209L17.4521 157.139L55.8639 217.58C56.9138 219.226 58.5383 220.375 60.4598 220.811C62.3616 221.228 64.3228 220.891 65.9868 219.84L119.276 185.942L79.3388 123.122L22.8801 159.062L21.8104 157.397L79.9331 120.406L121.99 186.577L67.0368 221.545C65.5312 222.516 63.8077 223.012 62.0446 223.012L62.0644 222.972Z" fill="#612A7A"/>
<path d="M78.646 111.189L121.931 179.282L117.85 181.878L79.6365 121.735L22.3457 158.19C21.9892 158.427 21.593 158.606 21.2166 158.705C19.612 159.22 17.8687 158.804 16.6206 157.654C16.3037 157.377 16.0461 157.079 15.8084 156.703C14.4019 154.483 15.0556 151.569 17.2347 150.161L78.6262 111.149L78.646 111.189Z" fill="white"/>
<path d="M117.553 183.246L79.3389 123.102L22.8802 159.042C22.4246 159.32 21.9491 159.538 21.4935 159.676C19.5917 160.291 17.472 159.795 15.9665 158.408C15.5901 158.071 15.2731 157.694 14.9958 157.258C13.2921 154.582 14.0845 151.033 16.7391 149.348L78.9824 109.801L79.5172 110.634L123.317 179.559L117.572 183.207L117.553 183.246ZM79.9332 120.367L118.147 180.511L120.544 178.984L78.3286 112.556L17.7692 151.033C16.0457 152.144 15.5307 154.463 16.64 156.207C16.8183 156.485 17.0164 156.723 17.2739 156.941C18.2645 157.872 19.6512 158.19 20.8992 157.773C21.1963 157.694 21.5133 157.535 21.7906 157.357L79.9134 120.367H79.9332Z" fill="#612A7A"/>
<path d="M51.4856 181.64C52.0799 181.561 52.6346 181.64 53.1298 181.858C53.6251 182.096 54.0411 182.473 54.3779 183.008C54.7146 183.543 54.8731 184.079 54.8731 184.634C54.8731 185.189 54.6948 185.724 54.358 186.22C54.0213 186.735 53.5458 187.191 52.8921 187.587L51.446 188.499L52.694 190.482L51.03 191.532L46.4736 184.356L49.5838 182.374C50.2177 181.977 50.8319 181.72 51.446 181.64H51.4856ZM52.9119 185.228C53.0308 184.852 52.9713 184.455 52.7138 184.059C52.4563 183.662 52.1393 183.425 51.7233 183.385C51.3271 183.325 50.8913 183.464 50.3762 183.781L49.0291 184.634L50.6139 187.131L51.961 186.279C52.4563 185.962 52.7732 185.605 52.8921 185.228H52.9119Z" fill="#612A7A"/>
<path d="M60.3996 177.854L61.6279 185.288C61.7863 186.081 61.7467 186.735 61.5486 187.231C61.3505 187.726 60.9741 188.143 60.4591 188.48C60.1817 188.658 59.8648 188.797 59.528 188.896C59.1912 188.995 58.8743 189.015 58.5969 188.955L58.4582 187.449C58.6563 187.488 58.8544 187.469 59.0525 187.449C59.2506 187.409 59.4289 187.33 59.5874 187.231C59.8053 187.092 59.944 186.933 60.0232 186.735C60.0827 186.537 60.1025 186.279 60.0629 185.982V185.922L54.1396 181.878L55.7839 180.828L59.7063 183.583L58.8941 178.845L60.4393 177.874L60.3996 177.854Z" fill="#612A7A"/>
<path d="M67.1354 176.13L68.6608 175.158L70.5031 178.072C70.305 178.608 69.9881 179.123 69.5919 179.599C69.1759 180.075 68.7202 180.491 68.1853 180.828C67.4326 181.304 66.6798 181.561 65.8676 181.621C65.0752 181.68 64.3224 181.541 63.629 181.185C62.9357 180.848 62.3612 180.312 61.9055 179.599C61.4499 178.885 61.2122 178.152 61.1924 177.359C61.1924 176.586 61.3707 175.832 61.7669 175.139C62.1631 174.445 62.7376 173.85 63.4904 173.374C64.1243 172.978 64.7582 172.72 65.4119 172.601C66.0657 172.482 66.6798 172.522 67.2939 172.7L66.8581 174.365C66.0062 174.147 65.2138 174.266 64.4809 174.742C64.0252 175.039 63.6686 175.396 63.4507 175.813C63.213 176.229 63.114 176.665 63.1338 177.141C63.1536 177.616 63.3121 178.072 63.6092 178.528C63.8866 178.964 64.2431 179.301 64.6591 179.52C65.0752 179.738 65.5308 179.837 66.0062 179.817C66.4817 179.797 66.9373 179.638 67.3929 179.341C67.8684 179.044 68.2448 178.667 68.4825 178.211L67.1552 176.11L67.1354 176.13Z" fill="#612A7A"/>
<path d="M73.4355 170.302C74.1487 170.421 74.7628 170.876 75.2976 171.709L77.2985 174.861L75.8127 175.812L75.3769 175.119C75.3967 175.812 75.0005 176.427 74.1883 176.962C73.7723 177.24 73.3563 177.398 72.9403 177.438C72.544 177.497 72.1677 177.438 71.8507 177.299C71.5337 177.16 71.2564 176.923 71.0583 176.586C70.7413 176.07 70.6621 175.555 70.8602 175C71.0583 174.445 71.5535 173.929 72.3658 173.414L73.6336 172.601C73.4157 172.264 73.1384 172.046 72.8016 172.006C72.4648 171.947 72.0884 172.066 71.6724 172.343C71.3753 172.522 71.1177 172.76 70.8998 173.037C70.6819 173.315 70.5036 173.592 70.4244 173.87L69.1367 173.117C69.2952 172.72 69.5527 172.324 69.9093 171.927C70.2461 171.55 70.6621 171.213 71.0979 170.936C71.9497 170.401 72.7422 170.183 73.4553 170.302H73.4355ZM74.4854 174.98C74.6241 174.722 74.6439 174.445 74.5845 174.127L74.2279 173.572L73.1383 174.266C72.4846 174.683 72.2865 175.119 72.5639 175.535C72.7025 175.733 72.8808 175.852 73.1185 175.872C73.3563 175.872 73.6138 175.812 73.8911 175.634C74.1685 175.456 74.3666 175.238 74.5052 174.98H74.4854Z" fill="#612A7A"/>
<path d="M84.271 163.403C84.9445 163.562 85.519 164.037 86.0341 164.85L88.0349 168.002L86.4303 169.013L84.5879 166.099C84.3106 165.663 84.0134 165.385 83.6965 165.286C83.3795 165.187 83.0428 165.247 82.7258 165.465C82.3494 165.703 82.1315 166.02 82.0721 166.396C82.0126 166.773 82.1315 167.209 82.4286 167.685L84.1917 170.46L82.5871 171.471L80.7448 168.557C80.1901 167.685 79.576 167.487 78.8628 167.923C78.4864 168.161 78.2685 168.458 78.2091 168.854C78.1497 169.231 78.2685 169.667 78.5657 170.143L80.3288 172.918L78.7242 173.929L75.2178 168.418L76.7432 167.447L77.1393 168.081C77.1988 167.725 77.3375 167.388 77.5554 167.07C77.7733 166.753 78.0506 166.496 78.4072 166.258C78.8034 166.02 79.1996 165.861 79.6156 165.822C80.0316 165.782 80.4278 165.822 80.8042 166.02C80.8438 165.584 80.9825 165.187 81.24 164.811C81.4778 164.434 81.8145 164.117 82.2305 163.859C82.9239 163.423 83.5974 163.264 84.271 163.423V163.403Z" fill="#612A7A"/>
<path d="M93.4437 161.322L89.2638 163.978C89.5609 164.275 89.8977 164.434 90.3137 164.454C90.7297 164.474 91.1259 164.355 91.5419 164.077C91.8193 163.899 92.057 163.7 92.2155 163.463C92.374 163.245 92.5126 162.967 92.5721 162.67L94.0182 163.046C93.8795 163.978 93.305 164.751 92.3145 165.385C91.7004 165.782 91.0665 166 90.4326 166.079C89.7987 166.139 89.2242 166.04 88.6893 165.782C88.1544 165.524 87.7186 165.108 87.362 164.573C87.0252 164.037 86.847 163.463 86.8271 162.868C86.8271 162.273 86.946 161.718 87.2432 161.183C87.5403 160.648 87.9563 160.212 88.511 159.855C89.0459 159.518 89.6204 159.32 90.1949 159.28C90.7693 159.24 91.3438 159.339 91.8589 159.617C92.3938 159.894 92.8296 160.311 93.1862 160.886C93.1862 160.905 93.2852 161.064 93.4239 161.341L93.4437 161.322ZM88.5704 161.936C88.4516 162.293 88.4912 162.67 88.6497 163.066L91.3637 161.341C91.0863 161.024 90.7693 160.846 90.3731 160.786C89.9968 160.727 89.6204 160.826 89.2638 161.044C88.9072 161.282 88.6695 161.579 88.5506 161.936H88.5704Z" fill="#612A7A"/>
<path d="M58.1029 198.114L55.805 199.581L54.9531 198.233L61.1933 194.248L62.0451 195.596L59.7472 197.063L63.4516 202.891L61.7876 203.942L58.0831 198.114H58.1029Z" fill="#612A7A"/>
<path d="M68.4441 191.949L71.9505 197.46L70.4252 198.431L70.0091 197.777C69.9497 198.153 69.811 198.49 69.5931 198.808C69.3752 199.125 69.0979 199.382 68.7611 199.601C68.0281 200.056 67.3348 200.215 66.6414 200.076C65.9481 199.938 65.3538 199.442 64.8189 198.629L62.8379 195.517L64.4425 194.506L66.265 197.38C66.8395 198.272 67.4933 198.471 68.2262 197.995C68.6026 197.757 68.8403 197.44 68.9196 197.043C68.9988 196.647 68.88 196.191 68.563 195.715L66.8197 192.98L68.4243 191.969L68.4441 191.949Z" fill="#612A7A"/>
<path d="M72.3072 189.669C72.5449 189.332 72.8817 189.015 73.2977 188.757L74.2288 190.224C74.0505 190.323 73.9118 190.383 73.8524 190.442C73.3967 190.74 73.1194 191.096 73.0203 191.513C72.9213 191.929 73.0203 192.405 73.3571 192.92L75.0212 195.517L73.4165 196.528L69.9102 191.017L71.4355 190.046L71.8912 190.779C71.911 190.383 72.0496 190.026 72.2874 189.689L72.3072 189.669Z" fill="#612A7A"/>
<path d="M81.3993 191.096C81.3201 191.314 81.1814 191.513 80.9833 191.731C80.7852 191.929 80.5673 192.127 80.3098 192.286C79.6561 192.702 79.0419 192.861 78.4675 192.761C77.893 192.662 77.3977 192.286 76.9817 191.632L75.5356 189.372L74.6837 189.907L73.9111 188.678L74.763 188.143L73.9111 186.795L75.5157 185.784L76.3676 187.132L77.7345 186.259L78.5071 187.488L77.1402 188.361L78.5665 190.601C78.7052 190.839 78.8835 190.977 79.0816 191.017C79.2797 191.077 79.4976 191.017 79.7155 190.878C79.973 190.72 80.1315 190.502 80.2305 190.264L81.3795 191.116L81.3993 191.096Z" fill="#612A7A"/>
<path d="M77.6357 183.167L79.2404 182.156L84.074 189.768L82.4694 190.779L77.6357 183.167Z" fill="#612A7A"/>
<path d="M89.4424 183.088L85.2822 185.744C85.5794 186.041 85.9162 186.2 86.3322 186.22C86.7482 186.24 87.1444 186.121 87.5604 185.843C87.8378 185.665 88.0755 185.467 88.234 185.229C88.3924 185.011 88.5311 184.733 88.5905 184.436L90.0367 184.812C89.898 185.744 89.3235 186.517 88.333 187.152C87.7189 187.548 87.085 187.786 86.451 187.845C85.8171 187.905 85.2426 187.806 84.7078 187.548C84.1729 187.29 83.7371 186.874 83.3805 186.339C83.0437 185.804 82.8654 185.229 82.8456 184.634C82.8258 184.039 82.9645 183.484 83.2616 182.949C83.5588 182.414 83.9748 181.978 84.5295 181.621C85.0643 181.284 85.6388 181.086 86.2133 181.046C86.8076 181.006 87.3623 181.105 87.8774 181.383C88.4122 181.66 88.8481 182.077 89.2046 182.652C89.2046 182.671 89.3037 182.83 89.4424 183.108V183.088ZM84.5691 183.702C84.4502 184.059 84.4898 184.436 84.6483 184.832L87.3623 183.108C87.085 182.79 86.7482 182.612 86.3718 182.553C85.9954 182.493 85.619 182.592 85.2624 182.81C84.9059 183.048 84.6681 183.345 84.5493 183.702H84.5691Z" fill="#612A7A"/>
<path d="M26.1886 150.241L40.234 141.3C40.234 141.3 33.9938 146.098 34.707 148.139C35.4201 150.181 50.3569 173.672 50.3569 173.672L43.4828 173.85L40.333 180.055L24.3661 154.721C24.3661 154.721 23.7718 152.877 26.1688 150.241H26.1886Z" fill="#8DC63F"/>
<path d="M55.9232 157.833L51.7631 163.264L58.4391 161.778L59.7267 163.819L50.099 165.802L48.752 163.681L54.6355 155.791L55.9232 157.813V157.833Z" fill="#D1EDF8"/>
<path d="M57.9238 148.1L60.1822 146.653L64.5602 165.425L62.3019 166.872L57.9238 148.1Z" fill="#D1EDF8"/>
<path d="M72.6631 148.496L74.0102 150.617L68.1266 158.507L66.839 156.465L70.9991 151.033L64.3033 152.5L63.0156 150.478L72.6433 148.496H72.6631Z" fill="#D1EDF8"/>
<path d="M123.04 221.446L113.829 208.006L120.128 203.783L96.9307 189.709L101.566 216.272L108.599 211.534L117.85 225.014L123.04 221.446Z" fill="#612A7A"/>
<path d="M67.5919 104.885C62.9563 107.204 55.5672 105.222 51.0306 103.576C48.6732 102.724 47.4054 100.187 48.1582 97.8078C49.5845 93.189 52.4372 86.0922 57.0727 83.7927C64.1449 80.2642 72.2274 82.1276 75.1197 87.9556C78.0318 93.7837 74.6641 101.356 67.5919 104.885Z" fill="#612A7A"/>
<path d="M69.1762 84.6452C69.1762 84.6452 68.8394 78.3612 71.1572 77.4097C73.4749 76.4582 68.146 72.6719 63.5699 81.196C58.9938 89.72 69.1564 84.6452 69.1564 84.6452H69.1762Z" fill="#612A7A"/>
<path d="M74.1877 94.6956C74.1877 94.6956 79.0016 98.7593 81.1609 97.451C83.3202 96.1625 83.1419 102.704 73.5736 101.237C64.0053 99.7703 74.1877 94.6956 74.1877 94.6956Z" fill="#612A7A"/>
<path d="M56.5171 103.517C56.5171 103.517 56.8539 109.801 54.5361 110.752C52.2184 111.704 57.5473 115.49 62.1234 106.966C66.6995 98.4422 56.537 103.517 56.537 103.517H56.5171Z" fill="#612A7A"/>
<path d="M51.5056 93.4666C51.5056 93.4666 46.6918 89.4029 44.5325 90.7112C42.3732 91.9997 42.5515 85.458 52.1198 86.925C61.688 88.3919 51.5056 93.4666 51.5056 93.4666Z" fill="#612A7A"/>
<path d="M81.379 90.6517C78.8037 91.9402 75.6737 90.8896 74.4059 88.3125C73.138 85.7355 74.1681 82.6034 76.7435 81.3347C79.3188 80.066 84.1128 80.2643 85.3806 82.8413C86.6683 85.4183 83.9543 89.383 81.379 90.6517Z" fill="#612A7A"/>
<path d="M66.3438 101.634L58.0434 101.138L54.3389 93.7045L58.915 86.7664L67.2154 87.2619L70.9199 94.6957L66.3438 101.634ZM59.3112 99.2154L65.3335 99.5722L68.6616 94.5371L65.9674 89.1452L59.9451 88.7883L56.617 93.8234L59.3112 99.2154Z" fill="white"/>
<path d="M75.0404 95.8056H75.0008L69.6322 95.5876C69.0776 95.5677 68.6615 95.1118 68.6813 94.5567C68.7012 94.0017 69.137 93.6052 69.7115 93.6052L75.08 93.8233C75.6347 93.8431 76.0507 94.299 76.0309 94.8541C76.0111 95.3893 75.5753 95.8056 75.0404 95.8056Z" fill="white"/>
<path d="M66.5808 89.2045C66.4026 89.2045 66.2045 89.145 66.046 89.0459C65.5903 88.7485 65.4517 88.134 65.7488 87.6781L68.5817 83.2377C68.8788 82.7817 69.4929 82.643 69.9486 82.9403C70.4042 83.2377 70.5429 83.8522 70.2457 84.3081L67.4129 88.7486C67.2148 89.0459 66.8978 89.2045 66.5808 89.2045Z" fill="white"/>
<path d="M67.5519 105.083C67.1953 105.083 66.8387 104.885 66.6604 104.528L64.9171 101.059C64.6794 100.563 64.8775 99.9686 65.353 99.7307C65.8482 99.4928 66.4425 99.691 66.6802 100.167L68.4235 103.636C68.6612 104.131 68.4631 104.726 67.9877 104.964C67.849 105.043 67.6905 105.063 67.5519 105.063V105.083Z" fill="white"/>
<path d="M59.4297 88.7685C59.0731 88.7685 58.7165 88.5702 58.5382 88.2134L56.8742 84.8633C56.6364 84.3677 56.8345 83.773 57.31 83.5351C57.8052 83.2972 58.3995 83.4955 58.6373 83.9712L60.3013 87.3214C60.539 87.817 60.3409 88.4117 59.8655 88.6495C59.7268 88.7288 59.5683 88.7486 59.4297 88.7486V88.7685Z" fill="white"/>
<path d="M55.4672 94.755C55.4672 94.755 55.4276 94.755 55.388 94.755L50.5742 94.418C50.0195 94.3784 49.6233 93.9026 49.6629 93.3674C49.7025 92.8322 50.1779 92.3762 50.7128 92.4555L55.5267 92.7925C56.0814 92.8322 56.4776 93.3079 56.4379 93.8432C56.3983 94.3586 55.9625 94.755 55.4474 94.755H55.4672Z" fill="white"/>
<path d="M56.0223 105.182C55.844 105.182 55.6459 105.123 55.4874 105.023C55.0317 104.726 54.8931 104.112 55.1902 103.656L57.825 99.6117C58.1221 99.1558 58.7362 99.0368 59.1919 99.3144C59.6475 99.6117 59.7862 100.226 59.489 100.682L56.8543 104.726C56.6562 105.023 56.3392 105.182 56.0223 105.182Z" fill="white"/>
<path d="M80.9438 83.1188C81.458 83.1188 81.8748 82.7016 81.8748 82.1871C81.8748 81.6725 81.458 81.2554 80.9438 81.2554C80.4296 81.2554 80.0127 81.6725 80.0127 82.1871C80.0127 82.7016 80.4296 83.1188 80.9438 83.1188Z" fill="white"/>
<path d="M83.2221 87.6781C83.7363 87.6781 84.1532 87.2609 84.1532 86.7464C84.1532 86.2318 83.7363 85.8147 83.2221 85.8147C82.7079 85.8147 82.291 86.2318 82.291 86.7464C82.291 87.2609 82.7079 87.6781 83.2221 87.6781Z" fill="white"/>
<path d="M172.466 72.355L164.938 74.9915L162.066 82.7622L159.352 75.1501L151.646 72.355L159.431 69.4608L162.066 61.9478L164.859 69.6392L172.466 72.355Z" fill="#612A7A"/>
<path d="M340.535 203.902L261.315 223.527C247.507 226.957 233.66 219.027 230.391 205.845C227.123 192.643 235.681 179.183 249.488 175.753L328.709 156.128C342.516 152.699 356.364 160.628 359.632 173.81C362.901 187.013 354.343 200.473 340.535 203.902Z" fill="white"/>
<path d="M254.797 225.331C250.102 225.331 245.506 224.142 241.405 221.783C235.324 218.314 231.064 212.724 229.42 206.083C227.776 199.442 228.945 192.524 232.689 186.597C236.433 180.689 242.317 176.506 249.25 174.782L328.471 155.157C335.404 153.452 342.556 154.404 348.617 157.873C354.699 161.342 358.958 166.932 360.603 173.573C362.247 180.213 361.078 187.132 357.334 193.059C353.59 198.966 347.706 203.149 340.773 204.874L261.552 224.499C259.314 225.054 257.035 225.331 254.797 225.331ZM335.226 156.326C333.146 156.326 331.026 156.584 328.946 157.099L249.726 176.725C243.287 178.31 237.839 182.216 234.373 187.667C230.906 193.118 229.836 199.482 231.362 205.607C232.887 211.732 236.79 216.847 242.396 220.058C248.022 223.27 254.658 224.162 261.077 222.576L340.297 202.951C346.736 201.365 352.183 197.46 355.65 192.008C359.117 186.557 360.187 180.194 358.661 174.068C357.136 167.943 353.233 162.828 347.627 159.617C343.823 157.436 339.564 156.326 335.226 156.326Z" fill="#612A7A"/>
<path d="M257.946 211.078C256.005 210.999 254.381 210.682 253.073 210.107L253.945 205.349C255.193 205.865 256.58 206.162 258.145 206.281C259.71 206.4 261.215 206.281 262.661 205.904C264.266 205.508 265.395 204.973 266.049 204.299C266.702 203.625 266.92 202.891 266.722 202.098C266.584 201.523 266.227 201.087 265.672 200.81C265.118 200.532 264.464 200.374 263.691 200.314C262.919 200.255 261.889 200.235 260.621 200.255C258.64 200.275 256.996 200.215 255.708 200.057C254.4 199.918 253.212 199.442 252.122 198.689C251.033 197.916 250.28 196.706 249.884 195.081C249.527 193.654 249.606 192.266 250.082 190.918C250.557 189.57 251.508 188.361 252.895 187.31C254.282 186.24 256.084 185.447 258.343 184.892C259.908 184.495 261.492 184.317 263.077 184.317C264.662 184.317 266.108 184.535 267.396 184.951L266.702 189.689C264.127 188.956 261.691 188.876 259.432 189.451C257.847 189.848 256.738 190.383 256.104 191.096C255.47 191.79 255.272 192.563 255.47 193.416C255.688 194.248 256.263 194.784 257.253 194.962C258.244 195.14 259.67 195.22 261.552 195.18C263.533 195.18 265.177 195.22 266.465 195.378C267.772 195.537 268.961 195.973 270.05 196.726C271.14 197.48 271.893 198.669 272.289 200.294C272.626 201.702 272.566 203.07 272.071 204.418C271.576 205.766 270.625 206.975 269.238 208.045C267.832 209.116 266.029 209.929 263.79 210.484C261.849 210.959 259.908 211.158 257.966 211.078H257.946Z" fill="#8DC63F"/>
<path d="M289.484 202.693C289.049 203.228 288.454 203.684 287.721 204.081C286.988 204.477 286.196 204.774 285.324 204.992C283.086 205.547 281.204 205.409 279.698 204.556C278.193 203.724 277.163 202.178 276.608 199.957L274.686 192.206L271.774 192.92L270.744 188.718L273.656 188.004L272.527 183.405L277.995 182.057L279.124 186.656L283.819 185.486L284.869 189.689L280.174 190.858L282.076 198.53C282.274 199.323 282.63 199.878 283.145 200.215C283.66 200.552 284.294 200.611 285.047 200.433C285.919 200.215 286.592 199.799 287.087 199.184L289.504 202.673L289.484 202.693Z" fill="#8DC63F"/>
<path d="M302.896 182.235C304.798 183.246 306.105 185.149 306.798 187.944L309.453 198.709L304.342 199.977L303.767 197.638C303.173 199.64 301.469 200.988 298.676 201.682C297.23 202.039 295.923 202.098 294.734 201.88C293.545 201.642 292.575 201.167 291.802 200.453C291.03 199.72 290.495 198.808 290.237 197.717C289.801 195.973 290.118 194.427 291.188 193.099C292.258 191.77 294.179 190.759 296.933 190.085L301.271 189.015C300.974 187.826 300.38 186.993 299.508 186.537C298.617 186.081 297.448 186.022 296.002 186.378C294.992 186.636 294.061 187.033 293.169 187.588C292.278 188.143 291.564 188.777 291.01 189.471L288.098 186.141C288.949 185.169 290.039 184.297 291.386 183.544C292.713 182.79 294.16 182.216 295.665 181.859C298.577 181.145 300.994 181.284 302.916 182.275L302.896 182.235ZM301.45 196.389C302.064 195.775 302.42 195.021 302.519 194.09L302.044 192.167L298.3 193.099C296.061 193.654 295.11 194.665 295.487 196.132C295.665 196.825 296.061 197.321 296.715 197.598C297.369 197.876 298.161 197.896 299.132 197.658C300.063 197.42 300.836 197.004 301.45 196.389Z" fill="#8DC63F"/>
<path d="M317.714 177.101C318.704 176.368 319.932 175.813 321.379 175.456L322.627 180.511C322.012 180.61 321.596 180.689 321.379 180.749C319.814 181.145 318.704 181.879 318.031 182.969C317.357 184.059 317.238 185.486 317.674 187.251L319.873 196.151L314.405 197.499L309.75 178.647L314.96 177.359L315.574 179.837C316.01 178.766 316.703 177.854 317.714 177.121V177.101Z" fill="#8DC63F"/>
<path d="M341.941 189.689C341.505 190.224 340.911 190.68 340.178 191.077C339.445 191.473 338.652 191.77 337.781 191.988C335.542 192.543 333.66 192.405 332.155 191.552C330.649 190.72 329.619 189.174 329.064 186.973L327.143 179.222L324.231 179.936L323.181 175.733L326.093 175.02L324.964 170.441L330.431 169.093L331.56 173.692L336.255 172.522L337.305 176.724L332.61 177.894L334.512 185.566C334.71 186.359 335.067 186.914 335.582 187.251C336.097 187.588 336.731 187.647 337.484 187.469C338.355 187.251 339.029 186.834 339.524 186.22L341.941 189.709V189.689Z" fill="#8DC63F"/>
<path d="M122.505 258C121.97 258 121.455 257.683 121.218 257.167C120.901 256.454 121.218 255.621 121.931 255.304C122.584 254.888 123.397 255.126 123.813 255.78C124.229 256.434 123.951 257.346 123.298 257.742C123.238 257.782 123.139 257.841 123.08 257.861C122.901 257.94 122.703 257.98 122.505 257.98V258ZM136.669 248.802C136.234 248.802 135.798 248.604 135.52 248.207C135.065 247.573 135.223 246.701 135.837 246.245C136.471 245.809 137.363 245.928 137.818 246.542C138.274 247.157 138.155 248.009 137.541 248.485C137.541 248.485 137.482 248.524 137.462 248.544C137.224 248.723 136.927 248.802 136.65 248.802H136.669ZM149.625 237.978C149.229 237.978 148.833 237.82 148.555 237.483C148.06 236.888 148.12 236.016 148.714 235.5C149.288 235.005 150.16 235.025 150.675 235.6C151.19 236.155 151.19 236.987 150.675 237.522C150.655 237.542 150.576 237.602 150.556 237.641C150.299 237.859 149.962 237.978 149.645 237.978H149.625ZM161.174 225.628C160.877 225.628 160.56 225.529 160.303 225.331C159.709 224.855 159.59 224.003 160.045 223.408L161.194 224.201L162.264 225.113C161.987 225.45 161.571 225.609 161.174 225.609V225.628ZM171.119 211.99C170.822 211.99 170.525 211.891 170.287 211.713C169.673 211.237 169.534 210.365 170.01 209.75C170.485 209.136 171.317 208.977 171.951 209.413C172.565 209.829 172.763 210.662 172.367 211.296C172.347 211.336 172.288 211.415 172.268 211.435C171.991 211.812 171.575 211.99 171.139 211.99H171.119ZM179.38 197.261C179.122 197.261 178.865 197.182 178.627 197.043C177.973 196.627 177.775 195.775 178.191 195.101C178.508 194.387 179.301 194.129 180.014 194.446C180.727 194.764 181.004 195.656 180.687 196.369C180.668 196.429 180.608 196.528 180.569 196.587C180.311 197.004 179.836 197.242 179.38 197.242V197.261ZM185.917 181.68C185.719 181.68 185.541 181.641 185.343 181.561C184.63 181.244 184.313 180.412 184.63 179.698C184.927 179.024 185.739 178.667 186.432 178.925C187.126 179.202 187.502 179.936 187.264 180.649C187.264 180.689 187.225 180.788 187.205 180.828C186.967 181.343 186.452 181.66 185.917 181.66V181.68ZM190.771 165.485C190.632 165.485 190.493 165.485 190.375 165.425C189.642 165.207 189.206 164.414 189.443 163.681C189.661 162.967 190.414 162.491 191.147 162.69C191.88 162.888 192.336 163.582 192.177 164.335C192.177 164.375 192.157 164.454 192.138 164.493C191.959 165.108 191.405 165.485 190.791 165.485H190.771ZM193.98 148.893C193.881 148.893 193.782 148.893 193.683 148.853C192.93 148.694 192.455 147.941 192.613 147.188C192.692 146.415 193.366 145.899 194.138 145.979C194.911 146.058 195.466 146.791 195.386 147.564C195.386 147.624 195.367 147.723 195.347 147.782C195.208 148.437 194.614 148.893 193.98 148.893ZM195.585 132.063C195.585 132.063 195.486 132.063 195.426 132.063C194.654 131.983 194.099 131.289 194.178 130.516C194.178 129.743 194.812 129.168 195.585 129.168C196.357 129.168 196.991 129.842 196.991 130.616C196.991 130.675 196.991 130.774 196.991 130.834C196.912 131.547 196.298 132.082 195.604 132.082L195.585 132.063ZM195.644 115.213C194.931 115.213 194.317 114.638 194.238 113.904C194.238 113.845 194.238 113.746 194.238 113.686C194.238 112.913 194.871 112.279 195.644 112.279C196.417 112.279 197.051 112.913 197.051 113.686C197.13 114.46 196.575 115.114 195.802 115.193C195.763 115.193 195.703 115.193 195.664 115.193L195.644 115.213ZM36.153 105.499C35.4597 105.499 34.8852 104.964 34.8059 104.251C34.7267 103.477 35.321 102.784 36.0936 102.704C36.9058 102.625 37.718 103.279 37.718 104.092C37.718 104.865 37.0841 105.499 36.3115 105.499C36.3115 105.499 36.1926 105.499 36.153 105.499ZM19.156 102.803C18.4626 102.506 18.1258 101.713 18.3834 101C18.6409 100.306 19.3937 99.9291 20.1267 100.167L19.7305 101.515L19.156 102.803ZM52.8925 102.506C52.3181 102.506 51.7634 102.149 51.5653 101.574C51.3077 100.841 51.6643 100.068 52.3775 99.7903L52.9124 101.099L53.368 102.427C53.2095 102.486 53.051 102.506 52.8925 102.506ZM194.178 98.363C193.524 98.363 192.93 97.8674 192.772 97.2133C192.772 97.1538 192.752 97.0547 192.732 96.9952C192.653 96.2221 193.227 95.5283 193.98 95.449C194.733 95.3499 195.446 95.9446 195.525 96.6979C195.684 97.4511 195.208 98.145 194.455 98.3234C194.356 98.3432 194.277 98.363 194.178 98.363ZM6.95296 90.8698L5.76436 91.6033C5.36815 90.9689 5.52663 90.1165 6.14075 89.6804C6.75486 89.2443 7.58688 89.3633 8.04251 89.9778L6.95296 90.8698ZM191.088 81.652C190.493 81.652 189.939 81.2754 189.76 80.6608L191.088 80.2049L192.455 79.9076C192.613 80.641 192.177 81.3943 191.444 81.5925C191.325 81.6322 191.207 81.6322 191.068 81.6322L191.088 81.652ZM1.42595 76.4583C0.712783 76.4583 0.0986704 75.9231 0.0392402 75.1896C-0.119241 74.4363 0.356202 73.7425 1.10898 73.5641C1.86177 73.4055 2.61455 73.9209 2.79284 74.694C2.79284 74.7535 2.81265 74.8526 2.83246 74.9121C2.9117 75.6852 2.33721 76.379 1.58443 76.4583C1.54481 76.4583 1.48538 76.4583 1.44576 76.4583H1.42595ZM186.373 65.4167C185.838 65.4167 185.343 65.1194 185.105 64.604L186.373 63.9894L187.7 63.5533C187.938 64.267 187.581 65.0599 186.888 65.3374C186.71 65.3969 186.531 65.4366 186.373 65.4366V65.4167ZM1.96082 59.6482C1.84196 59.6482 1.7231 59.6482 1.62405 59.6085C0.891074 59.4103 0.435442 58.7165 0.593923 57.9632C0.593923 57.9235 0.613733 57.8442 0.633543 57.8046C0.851454 57.0711 1.64386 56.635 2.37683 56.8729C3.1098 57.091 3.54563 57.8839 3.3079 58.6173C3.12961 59.2319 2.55512 59.6482 1.94101 59.6482H1.96082ZM180.014 49.8554C179.519 49.8554 179.023 49.5978 178.746 49.1418C178.706 49.0823 178.647 48.9832 178.627 48.9238C178.31 48.2101 178.627 47.3775 179.34 47.0604C180.053 46.7432 180.886 47.0604 181.202 47.774C181.618 48.4282 181.381 49.2409 180.727 49.6374C180.509 49.7762 180.271 49.8356 180.034 49.8356L180.014 49.8554ZM8.81511 44.2851C8.53777 44.2851 8.28024 44.2058 8.04251 44.0472C7.4284 43.6309 7.2303 42.7984 7.6265 42.164C7.64631 42.1244 7.70574 42.0451 7.72555 42.0253C8.18119 41.4107 9.07264 41.272 9.68675 41.7477C10.3009 42.2235 10.4395 43.0957 9.96409 43.7102C9.68675 44.0869 9.25093 44.2851 8.81511 44.2851ZM171.436 35.206C170.961 35.206 170.505 34.9682 170.247 34.5519C169.851 33.9175 170.01 33.0453 170.624 32.629C171.238 32.2127 172.07 32.3118 172.526 32.9264C172.545 32.966 172.605 33.0453 172.625 33.0651C173.041 33.7193 172.843 34.5915 172.189 35.0078C171.951 35.1466 171.694 35.2259 171.436 35.2259V35.206ZM19.8493 31.5387C19.4729 31.5387 19.0965 31.4 18.8192 31.1026C18.3041 30.5476 18.3041 29.715 18.8192 29.1798C18.839 29.1599 18.9183 29.1005 18.9381 29.0608C19.5324 28.5652 20.404 28.6247 20.9191 29.2194C21.4143 29.8141 21.3549 30.6863 20.7606 31.2017C20.4832 31.4396 20.1465 31.5387 19.8097 31.5387H19.8493ZM160.521 22.3209C160.204 22.3209 159.887 22.202 159.629 21.9839L160.501 20.8738L161.491 19.8827C162.026 20.4179 162.066 21.2901 161.551 21.8452C161.274 22.1425 160.897 22.3011 160.521 22.3011V22.3209ZM33.34 21.3892C32.8646 21.3892 32.3891 21.1513 32.1316 20.7152C31.7552 20.0611 31.9335 19.2285 32.5674 18.832C32.5872 18.832 32.6665 18.7725 32.6863 18.7725C33.3598 18.3959 34.2116 18.6338 34.588 19.3276C34.9644 20.0016 34.7267 20.854 34.0333 21.2306C33.8154 21.3496 33.5777 21.409 33.34 21.409V21.3892ZM48.3164 13.559C47.7815 13.559 47.2467 13.2617 47.0089 12.7264C46.692 12.0128 46.9891 11.2001 47.7023 10.8829H47.7617C48.4749 10.5459 49.3069 10.8631 49.6239 11.5767C49.9408 12.2903 49.6239 13.1229 48.9107 13.4401C48.7126 13.5194 48.5145 13.559 48.3362 13.559H48.3164ZM146.911 12.4291C146.654 12.4291 146.396 12.3498 146.158 12.211C145.445 11.8939 145.188 11.1009 145.505 10.3873C145.822 9.67366 146.713 9.39613 147.426 9.71331C147.486 9.73313 147.585 9.7926 147.644 9.83225C148.298 10.2485 148.496 11.1009 148.08 11.7749C147.822 12.1912 147.347 12.4291 146.891 12.4291H146.911ZM64.1051 7.90939C63.5306 7.90939 63.0155 7.53275 62.8174 6.93805C62.5797 6.20459 63.0353 5.39183 63.7683 5.15395C63.8277 5.15395 63.9268 5.09448 63.9862 5.09448C64.7588 4.95572 65.4918 5.43148 65.6304 6.20459C65.7691 6.97769 65.2937 7.71115 64.5211 7.84992C64.3824 7.88956 64.2239 7.92921 64.0852 7.92921L64.1051 7.90939ZM131.063 6.68034C130.924 6.68034 130.786 6.68034 130.667 6.62087C129.934 6.40282 129.498 5.64953 129.676 4.91607C129.855 4.18261 130.568 3.72668 131.321 3.88526C131.36 3.88526 131.44 3.90508 131.479 3.92491C132.212 4.14296 132.648 4.9359 132.41 5.66936C132.232 6.28388 131.677 6.66052 131.063 6.66052V6.68034ZM80.7059 4.28173C79.9928 4.28173 79.3786 3.7465 79.3192 3.01304C79.24 2.23993 79.8145 1.54611 80.5672 1.46682C81.32 1.28841 82.0134 1.78399 82.1917 2.53728C82.3502 3.29056 81.8351 4.04385 81.0625 4.22226C81.0031 4.22226 80.904 4.24208 80.8446 4.2619C80.805 4.2619 80.7455 4.2619 80.7059 4.2619V4.28173ZM114.462 3.56809C114.462 3.56809 114.363 3.56809 114.304 3.56809C113.531 3.4888 112.957 2.79498 113.036 2.02187C113.115 1.24877 113.789 0.67389 114.542 0.773006C114.542 0.773006 114.601 0.773006 114.621 0.773006C115.393 0.8523 115.948 1.54611 115.869 2.31922C115.79 3.03286 115.175 3.56809 114.482 3.56809H114.462ZM97.5247 2.8148C96.7521 2.8148 96.1182 2.18046 96.1182 1.40735C96.1182 0.634243 96.7521 -0.000101608 97.5445 -0.000101608C98.3171 -0.099218 98.9708 0.475657 99.05 1.24877C99.1293 2.02187 98.535 2.71569 97.7624 2.79498C97.703 2.79498 97.6039 2.79498 97.5445 2.79498L97.5247 2.8148Z" fill="#612A7A"/>
<path d="M247.765 252.37C257.458 252.37 265.316 244.507 265.316 234.807C265.316 225.107 257.458 217.243 247.765 217.243C238.071 217.243 230.213 225.107 230.213 234.807C230.213 244.507 238.071 252.37 247.765 252.37Z" fill="#8DC63F"/>
<path d="M250.499 227.036V242.558H246.913V229.93H243.803V227.056H250.499V227.036Z" fill="#612A7A"/>
</g>
<defs>
<clipPath id="clip0_369_41644">
<rect width="363" height="258" fill="white"/>
</clipPath>
</defs>
</svg>
