<svg width="340" height="258" viewBox="0 0 340 258" fill="none" xmlns="http://www.w3.org/2000/svg">
<g clip-path="url(#clip0_369_44516)">
<path d="M80.633 192.903H28.8714C13.1235 192.903 0.344437 180.129 0.344437 164.387V147.054H80.633C93.2829 147.054 103.566 157.333 103.566 169.979C103.566 182.624 93.2829 192.903 80.633 192.903Z" fill="#612A7A"/>
<path d="M340 82L91.0453 82V36.129L312.011 36.129C327.458 36.129 340 48.6667 340 64.1075V81.9785V82Z" fill="#612A7A"/>
<path d="M269.263 1.0752H71.403C65.9494 1.0752 61.5283 5.49458 61.5283 10.9462V200.645C61.5283 206.097 65.9494 210.516 71.403 210.516H269.263C274.717 210.516 279.138 206.097 279.138 200.645V10.9462C279.138 5.49458 274.717 1.0752 269.263 1.0752Z" fill="white"/>
<path d="M269.264 211.591H71.4035C65.3582 211.591 60.4531 206.688 60.4531 200.645V10.9462C60.4531 4.90323 65.3582 0 71.4035 0H269.264C275.309 0 280.214 4.90323 280.214 10.9462V200.645C280.214 206.688 275.309 211.591 269.264 211.591ZM71.4035 2.15054C66.563 2.15054 62.6045 6.08602 62.6045 10.9462V200.645C62.6045 205.484 66.5415 209.441 71.4035 209.441H269.264C274.104 209.441 278.063 205.505 278.063 200.645V10.9462C278.063 6.08602 274.126 2.15054 269.264 2.15054H71.4035Z" fill="#612A7A"/>
<path d="M45.8672 90.9248L45.8672 176.495H25.5369C11.4455 176.495 -0.0211945 165.054 -0.0211945 150.946L-0.0211945 118.903C-0.0211945 103.462 12.5212 90.9248 27.9679 90.9248H45.8457H45.8672Z" fill="#612A7A"/>
<path d="M265.714 11.8064H75.0827C71.6133 11.8064 68.8008 14.6179 68.8008 18.086V37.7849C68.8008 41.253 71.6133 44.0645 75.0827 44.0645H265.714C269.184 44.0645 271.996 41.253 271.996 37.7849V18.086C271.996 14.6179 269.184 11.8064 265.714 11.8064Z" fill="#D1EDF8"/>
<path d="M246.072 35.3978C245.792 35.3978 245.491 35.2902 245.276 35.0537C244.867 34.6236 244.91 33.9354 245.34 33.5268L257.883 21.9354C258.313 21.5268 259.001 21.5698 259.41 21.9999C259.819 22.43 259.776 23.1182 259.346 23.5268L246.803 35.1182C246.588 35.3117 246.33 35.3978 246.072 35.3978Z" fill="#612A7A"/>
<path d="M258.636 35.3978C258.378 35.3978 258.119 35.3117 257.904 35.1182L245.362 23.5268C244.932 23.1182 244.889 22.4515 245.297 21.9999C245.706 21.5698 246.373 21.5268 246.825 21.9354L259.367 33.5268C259.797 33.9354 259.84 34.6021 259.432 35.0537C259.217 35.2902 258.937 35.3978 258.636 35.3978Z" fill="#612A7A"/>
<path d="M231.528 30.7098H220.686V21.656H231.528V30.7098ZM222.837 28.5592H229.377V23.8065H222.837V28.5592Z" fill="#612A7A"/>
<path d="M227.183 35.3765H216.34V26.3228H227.183V35.3765ZM218.491 33.226H225.031V28.4733H218.491V33.226Z" fill="#612A7A"/>
<path d="M203.475 35.3764H193.88C193.278 35.3764 192.805 34.9032 192.805 34.3011C192.805 33.6989 193.278 33.2258 193.88 33.2258H203.475C204.078 33.2258 204.551 33.6989 204.551 34.3011C204.551 34.9032 204.078 35.3764 203.475 35.3764Z" fill="#612A7A"/>
<path d="M149.906 76.4516H102.684C102.082 76.4516 101.608 75.9784 101.608 75.3763C101.608 74.7741 102.082 74.301 102.684 74.301H149.906C150.509 74.301 150.982 74.7741 150.982 75.3763C150.982 75.9784 150.509 76.4516 149.906 76.4516Z" fill="#612A7A"/>
<path d="M159.953 132.903H102.963C102.361 132.903 101.888 132.43 101.888 131.828C101.888 131.226 102.361 130.753 102.963 130.753H159.953C160.555 130.753 161.028 131.226 161.028 131.828C161.028 132.43 160.555 132.903 159.953 132.903Z" fill="#612A7A"/>
<path d="M149.906 109.978H102.684C102.082 109.978 101.608 109.505 101.608 108.903C101.608 108.301 102.082 107.828 102.684 107.828H149.906C150.509 107.828 150.982 108.301 150.982 108.903C150.982 109.505 150.509 109.978 149.906 109.978Z" fill="#612A7A"/>
<path d="M172.861 97.0324H103.33C102.727 97.0324 102.254 96.5593 102.254 95.9571C102.254 95.355 102.727 94.8818 103.33 94.8818H172.861C173.464 94.8818 173.937 95.355 173.937 95.9571C173.937 96.5593 173.464 97.0324 172.861 97.0324Z" fill="#612A7A"/>
<path d="M178.024 76.4516H158.296C157.694 76.4516 157.221 75.9784 157.221 75.3763C157.221 74.7741 157.694 74.301 158.296 74.301H178.024C178.627 74.301 179.1 74.7741 179.1 75.3763C179.1 75.9784 178.627 76.4516 178.024 76.4516Z" fill="#612A7A"/>
<path d="M127.877 86.7311H108.149C107.547 86.7311 107.073 86.258 107.073 85.6558C107.073 85.0537 107.547 84.5806 108.149 84.5806H127.877C128.479 84.5806 128.953 85.0537 128.953 85.6558C128.953 86.258 128.479 86.7311 127.877 86.7311Z" fill="#612A7A"/>
<path d="M201.28 97.0324H181.552C180.95 97.0324 180.477 96.5593 180.477 95.9571C180.477 95.355 180.95 94.8818 181.552 94.8818H201.28C201.883 94.8818 202.356 95.355 202.356 95.9571C202.356 96.5593 201.883 97.0324 201.28 97.0324Z" fill="#612A7A"/>
<path d="M217.502 97.0324H208.66C208.057 97.0324 207.584 96.5593 207.584 95.9571C207.584 95.355 208.057 94.8818 208.66 94.8818H217.502C218.104 94.8818 218.577 95.355 218.577 95.9571C218.577 96.5593 218.104 97.0324 217.502 97.0324Z" fill="#612A7A"/>
<path d="M111.892 121.269H103.05C102.448 121.269 101.975 120.796 101.975 120.194C101.975 119.592 102.448 119.118 103.05 119.118H111.892C112.495 119.118 112.968 119.592 112.968 120.194C112.968 120.796 112.495 121.269 111.892 121.269Z" fill="#612A7A"/>
<path d="M117.55 145.054H103.846C103.244 145.054 102.771 144.581 102.771 143.979C102.771 143.376 103.244 142.903 103.846 142.903H117.55C118.153 142.903 118.626 143.376 118.626 143.979C118.626 144.581 118.153 145.054 117.55 145.054Z" fill="#612A7A"/>
<path d="M140.828 145.054H127.124C126.521 145.054 126.048 144.581 126.048 143.979C126.048 143.376 126.521 142.903 127.124 142.903H140.828C141.43 142.903 141.903 143.376 141.903 143.979C141.903 144.581 141.43 145.054 140.828 145.054Z" fill="#612A7A"/>
<path d="M113.333 156.688H104.104C103.502 156.688 103.028 156.215 103.028 155.613C103.028 155.011 103.502 154.538 104.104 154.538H113.333C113.936 154.538 114.409 155.011 114.409 155.613C114.409 156.215 113.936 156.688 113.333 156.688Z" fill="#612A7A"/>
<path d="M112.171 67.6129H102.942C102.34 67.6129 101.866 67.1398 101.866 66.5377C101.866 65.9355 102.34 65.4624 102.942 65.4624H112.171C112.774 65.4624 113.247 65.9355 113.247 66.5377C113.247 67.1398 112.774 67.6129 112.171 67.6129Z" fill="#612A7A"/>
<path d="M165.612 20.0645L157.458 22.9247L154.317 31.3548L151.37 23.0968L143.022 20.0645L151.456 16.9247L154.317 8.75269L157.372 17.1183L165.612 20.0645Z" fill="#612A7A"/>
<path d="M92.056 157.656L83.8809 160.516L80.7614 168.968L77.7926 160.71L69.4453 157.656L77.9001 154.538L80.7614 146.365L83.7948 154.71L92.056 157.656Z" fill="#612A7A"/>
<path d="M92.0569 204.344L75.8572 210.022L69.6398 226.753L63.7666 210.366L47.2012 204.344L63.9602 198.129L69.6398 181.936L75.6636 198.495L92.0569 204.344Z" fill="#612A7A"/>
<path d="M225.14 94.2366H310.613V140.108H249.687C236.133 140.108 225.14 129.118 225.14 115.57V94.2581V94.2366Z" fill="#612A7A"/>
<path d="M294.133 140.107V56.8601H314.463C328.554 56.8601 340.021 68.301 340.021 82.4085V112.129C340.021 127.57 327.479 140.107 312.032 140.107H294.154H294.133Z" fill="#612A7A"/>
<path d="M58.3234 136.645H4.84074V119.312C4.84074 103.57 17.6198 90.7958 33.3677 90.7958H58.3234C70.9734 90.7958 81.2568 101.075 81.2568 113.721C81.2568 126.366 70.9734 136.645 58.3234 136.645Z" fill="#612A7A"/>
<path d="M59.6142 113.484C62.3588 113.484 64.5838 111.26 64.5838 108.516C64.5838 105.773 62.3588 103.549 59.6142 103.549C56.8695 103.549 54.6445 105.773 54.6445 108.516C54.6445 111.26 56.8695 113.484 59.6142 113.484Z" fill="white"/>
<path d="M71.2534 123.527C69.1235 123.527 66.7785 123.161 64.5842 122.086C64.0463 121.828 63.8312 121.183 64.0894 120.645C64.3475 120.108 64.9929 119.893 65.5308 120.151C71.1028 122.903 78.0516 120.151 78.1162 120.108C78.654 119.893 79.2994 120.151 79.5146 120.71C79.7297 121.269 79.4715 121.893 78.9122 122.108C78.697 122.194 75.3409 123.527 71.2534 123.527Z" fill="white"/>
<path d="M110.429 38.9678H119.099C121.164 38.9678 122.993 39.3549 124.585 40.1506C126.177 40.9463 127.403 42.043 128.285 43.4839C129.167 44.9248 129.597 46.5807 129.597 48.4947C129.597 50.4086 129.145 52.0645 128.285 53.5054C127.403 54.9463 126.177 56.043 124.585 56.8387C122.993 57.6344 121.164 58.0215 119.099 58.0215H110.429V38.9678ZM118.862 54.4086C120.777 54.4086 122.283 53.871 123.423 52.8172C124.563 51.7635 125.122 50.3226 125.122 48.4947C125.122 46.6667 124.563 45.2473 123.423 44.1721C122.283 43.1183 120.777 42.5807 118.862 42.5807H114.839V54.3871H118.862V54.4086Z" fill="#8DC63F"/>
<path d="M130.308 62.7096L131.448 59.6343C131.943 59.9784 132.545 60.1505 133.233 60.1505C133.771 60.1505 134.202 59.9784 134.524 59.6128C134.825 59.2687 134.976 58.7311 134.976 58.0214V43.3763H139.214V57.9999C139.214 59.6988 138.719 61.0537 137.751 62.0429C136.783 63.0322 135.428 63.5268 133.685 63.5268C132.201 63.5268 131.061 63.2472 130.286 62.7096H130.308ZM135.213 40.6666C134.718 40.215 134.481 39.6558 134.481 38.9677C134.481 38.2795 134.718 37.7419 135.213 37.2687C135.708 36.8171 136.331 36.5806 137.127 36.5806C137.923 36.5806 138.547 36.7956 139.042 37.2257C139.537 37.6558 139.774 38.215 139.774 38.8601C139.774 39.5698 139.537 40.1505 139.042 40.6236C138.547 41.0967 137.923 41.3117 137.127 41.3117C136.331 41.3117 135.708 41.0752 135.213 40.6236V40.6666Z" fill="#8DC63F"/>
<path d="M154.316 44.774C155.542 45.8493 156.145 47.4837 156.145 49.6558V58.0213H152.165V56.1934C151.369 57.5482 149.884 58.2364 147.69 58.2364C146.571 58.2364 145.582 58.0429 144.764 57.6558C143.947 57.2687 143.301 56.7525 142.871 56.0859C142.441 55.4192 142.226 54.645 142.226 53.8063C142.226 52.4515 142.742 51.3762 143.753 50.602C144.786 49.8278 146.356 49.4407 148.508 49.4407H151.885C151.885 48.516 151.605 47.8063 151.046 47.3117C150.487 46.817 149.648 46.559 148.508 46.559C147.733 46.559 146.959 46.688 146.206 46.9246C145.453 47.1611 144.807 47.5052 144.291 47.9138L142.763 44.9461C143.559 44.3869 144.528 43.9568 145.625 43.6343C146.743 43.3332 147.884 43.1611 149.067 43.1611C151.326 43.1611 153.09 43.6988 154.295 44.774H154.316ZM150.702 54.8816C151.261 54.5375 151.67 54.0429 151.907 53.3977V51.8923H149.002C147.26 51.8923 146.399 52.473 146.399 53.6127C146.399 54.1504 146.614 54.5805 147.045 54.9031C147.475 55.2256 148.056 55.3762 148.809 55.3762C149.562 55.3762 150.186 55.2041 150.745 54.8816H150.702Z" fill="#8DC63F"/>
<path d="M173.27 44.7955C174.389 45.8923 174.948 47.5052 174.948 49.6343V58.0213H170.71V50.3009C170.71 49.1396 170.452 48.2794 169.957 47.6988C169.441 47.1181 168.709 46.8386 167.741 46.8386C166.665 46.8386 165.826 47.1611 165.181 47.8278C164.557 48.4945 164.234 49.4837 164.234 50.774V58.0213H159.996V43.3762H164.062V45.0966C164.622 44.473 165.331 43.9998 166.149 43.6558C166.988 43.3117 167.892 43.1611 168.903 43.1611C170.71 43.1611 172.194 43.6988 173.291 44.7955H173.27Z" fill="#8DC63F"/>
<path d="M194.074 43.3762V55.5697C194.074 58.2579 193.364 60.2579 191.965 61.5697C190.567 62.8816 188.523 63.5267 185.834 63.5267C184.414 63.5267 183.08 63.3547 181.811 63.0106C180.542 62.6665 179.488 62.1719 178.649 61.5052L180.327 58.4515C180.95 58.9676 181.725 59.3547 182.672 59.6558C183.618 59.9568 184.565 60.1074 185.511 60.1074C186.974 60.1074 188.071 59.7848 188.76 59.1181C189.47 58.4515 189.814 57.4622 189.814 56.1074V55.4837C188.717 56.7095 187.168 57.3117 185.189 57.3117C183.855 57.3117 182.607 57.0106 181.488 56.4299C180.37 55.8493 179.488 55.0106 178.842 53.9353C178.197 52.8601 177.853 51.6343 177.853 50.2364C177.853 48.8386 178.175 47.6127 178.842 46.5375C179.488 45.4622 180.391 44.645 181.488 44.0429C182.607 43.4622 183.833 43.1611 185.189 43.1611C187.319 43.1611 188.932 43.8708 190.029 45.2472V43.3762H194.052H194.074ZM188.803 52.8386C189.513 52.1719 189.879 51.3117 189.879 50.2364C189.879 49.1611 189.513 48.3009 188.803 47.6343C188.093 46.9676 187.168 46.645 186.049 46.645C184.931 46.645 184.005 46.9676 183.274 47.6343C182.543 48.3009 182.177 49.1611 182.177 50.2364C182.177 51.3117 182.543 52.1719 183.274 52.8386C184.005 53.5052 184.931 53.8278 186.049 53.8278C187.168 53.8278 188.093 53.5052 188.803 52.8386Z" fill="#8DC63F"/>
<path d="M200.829 57.2687C199.602 56.6235 198.656 55.7203 197.946 54.5805C197.257 53.4407 196.913 52.1504 196.913 50.688C196.913 49.2257 197.257 47.9353 197.946 46.7956C198.634 45.6558 199.602 44.7526 200.829 44.1074C202.055 43.4622 203.432 43.1396 204.981 43.1396C206.53 43.1396 207.907 43.4622 209.111 44.1074C210.338 44.7526 211.284 45.6343 211.973 46.7956C212.661 47.9353 213.005 49.2472 213.005 50.688C213.005 52.1289 212.661 53.4407 211.973 54.5805C211.284 55.7203 210.338 56.6235 209.111 57.2687C207.885 57.9138 206.508 58.2364 204.981 58.2364C203.453 58.2364 202.055 57.9138 200.829 57.2687ZM207.67 53.6558C208.358 52.9246 208.724 51.9353 208.724 50.7095C208.724 49.4837 208.38 48.4945 207.67 47.7633C206.96 47.0321 206.078 46.6665 204.981 46.6665C203.883 46.6665 203.001 47.0321 202.291 47.7633C201.582 48.4945 201.237 49.4837 201.237 50.7095C201.237 51.9353 201.582 52.9246 202.291 53.6558C203.001 54.387 203.905 54.7526 204.981 54.7526C206.056 54.7526 206.96 54.387 207.67 53.6558Z" fill="#8DC63F"/>
<path d="M217.545 48.8601H242.479C258.227 48.8601 271.006 61.6343 271.006 77.3762V94.7096H217.523C204.873 94.7096 194.59 84.43 194.59 71.7848C194.59 59.1397 204.873 48.8601 217.523 48.8601H217.545Z" fill="#612A7A"/>
<path d="M216.254 71.5698C218.998 71.5698 221.223 69.3456 221.223 66.602C221.223 63.8584 218.998 61.6343 216.254 61.6343C213.509 61.6343 211.284 63.8584 211.284 66.602C211.284 69.3456 213.509 71.5698 216.254 71.5698Z" fill="white"/>
<path d="M204.615 81.6127C200.506 81.6127 197.171 80.2794 196.956 80.1934C196.397 79.9783 196.139 79.3547 196.354 78.7955C196.569 78.2364 197.193 77.9783 197.752 78.1934C197.817 78.2149 204.787 80.9676 210.338 78.2364C210.875 77.9783 211.521 78.1934 211.779 78.731C212.037 79.2687 211.822 79.9138 211.284 80.1719C209.09 81.2471 206.745 81.6127 204.615 81.6127Z" fill="white"/>
<path d="M50.9006 40.8817L32.6141 47.5698L50.9006 54.215V61.0752L24.7832 51.1397V43.9999L50.9006 34.0645V40.8602V40.8817Z" fill="#612A7A"/>
<path d="M70.5636 20.5806H78.2009L60.0865 72.258H52.4492L70.5636 20.5806Z" fill="#612A7A"/>
<path d="M105.309 43.9999V51.1397L79.1914 61.0752V54.215L97.4779 47.5698L79.1914 40.8816V34.0859L105.309 44.0214V43.9999Z" fill="#612A7A"/>
<path d="M111.16 178.796L99.6288 183.011L111.16 187.204V191.527L94.6807 185.269V180.774L111.16 174.516V178.817V178.796Z" fill="#612A7A"/>
<path d="M131.899 178.796L120.368 183.011L131.899 187.204V191.527L115.42 185.269V180.774L131.899 174.516V178.817V178.796Z" fill="#612A7A"/>
<path d="M287.923 150.481L127.817 203.783C113.523 208.542 105.795 223.983 110.555 238.272C115.316 252.56 130.762 260.286 145.056 255.527L305.163 202.225C319.457 197.466 327.185 182.025 322.425 167.737C317.664 153.448 302.217 145.723 287.923 150.481Z" fill="white"/>
<path d="M136.417 258C132.072 258 127.769 256.989 123.767 254.989C116.991 251.592 111.935 245.785 109.547 238.602C104.599 223.785 112.645 207.699 127.489 202.753L287.593 149.441C294.779 147.054 302.459 147.592 309.236 150.989C316.013 154.387 321.068 160.194 323.456 167.376C325.844 174.559 325.306 182.237 321.907 189.011C318.508 195.785 312.699 200.839 305.514 203.226L145.41 256.538C142.463 257.527 139.429 258 136.417 258ZM296.564 150.129C293.789 150.129 290.971 150.581 288.26 151.484L128.156 204.796C121.509 207.011 116.13 211.678 113.011 217.936C109.87 224.194 109.375 231.29 111.591 237.936C113.807 244.581 118.475 249.957 124.736 253.075C130.996 256.215 138.095 256.71 144.743 254.495L304.847 201.183C311.495 198.968 316.873 194.301 319.993 188.043C323.133 181.785 323.628 174.688 321.412 168.043C319.196 161.398 314.528 156.022 308.268 152.903C304.567 151.054 300.587 150.129 296.564 150.129Z" fill="#612A7A"/>
<path d="M149.841 231.849L139.364 235.333L138.977 240.839L133.62 242.624L136.159 216.688L141.322 214.968L158.942 234.194L153.456 236.022L149.841 231.849ZM146.872 228.43L140.418 220.968L139.708 230.817L146.872 228.43Z" fill="#8DC63F"/>
<path d="M170.494 203.763L178.476 227.699L173.678 229.29L173.011 227.29C172.258 229.204 170.709 230.559 168.343 231.355C166.708 231.892 165.116 232.021 163.545 231.742C161.975 231.462 160.598 230.753 159.393 229.656C158.188 228.559 157.285 227.118 156.704 225.312C156.102 223.527 155.951 221.828 156.252 220.237C156.553 218.624 157.242 217.247 158.317 216.065C159.393 214.882 160.749 214.043 162.384 213.484C164.599 212.753 166.557 212.86 168.278 213.849L165.481 205.441L170.516 203.763H170.494ZM170.559 224.581C171.118 223.441 171.14 222.129 170.645 220.667C170.15 219.204 169.354 218.172 168.214 217.591C167.073 217.011 165.89 216.925 164.621 217.333C163.33 217.763 162.405 218.559 161.867 219.699C161.329 220.86 161.286 222.151 161.781 223.613C162.276 225.075 163.072 226.108 164.212 226.688C165.352 227.29 166.557 227.355 167.848 226.925C169.117 226.495 170.021 225.72 170.58 224.559L170.559 224.581Z" fill="#8DC63F"/>
<path d="M194.546 203.054L192.997 222.839L187.813 224.559L174.732 209.634L179.939 207.914L188.673 218.129L189.706 204.667L194.546 203.054Z" fill="#8DC63F"/>
<path d="M209.8 199.828C211.671 200.624 213.027 202.323 213.887 204.903L217.179 214.796L212.467 216.366L211.736 214.215C211.327 216.151 209.843 217.548 207.261 218.409C205.927 218.86 204.701 219.011 203.561 218.882C202.421 218.753 201.474 218.387 200.7 217.764C199.925 217.14 199.366 216.323 199.021 215.312C198.484 213.699 198.677 212.237 199.581 210.903C200.484 209.57 202.205 208.473 204.744 207.635L208.746 206.301C208.38 205.204 207.756 204.473 206.895 204.108C206.035 203.742 204.938 203.764 203.604 204.215C202.679 204.516 201.818 204.968 201.022 205.549C200.226 206.129 199.602 206.774 199.129 207.484L196.16 204.559C196.892 203.57 197.838 202.688 199.043 201.871C200.248 201.075 201.539 200.43 202.937 199.957C205.626 199.054 207.907 199.011 209.778 199.807L209.8 199.828ZM209.499 213.226C210.036 212.602 210.316 211.871 210.338 210.989L209.757 209.226L206.315 210.387C204.249 211.075 203.432 212.086 203.884 213.441C204.099 214.086 204.529 214.516 205.153 214.71C205.777 214.925 206.551 214.882 207.433 214.581C208.294 214.301 208.982 213.85 209.52 213.226H209.499Z" fill="#8DC63F"/>
<path d="M232.259 192.366C234.002 193.204 235.314 194.903 236.153 197.441L239.466 207.376L234.432 209.054L231.377 199.892C230.926 198.516 230.28 197.591 229.441 197.118C228.624 196.645 227.634 196.602 226.494 196.968C225.225 197.398 224.342 198.129 223.848 199.161C223.353 200.194 223.374 201.484 223.891 203.032L226.752 211.613L221.718 213.29L215.931 195.935L220.728 194.323L221.395 196.344C221.825 195.398 222.449 194.559 223.31 193.828C224.17 193.097 225.181 192.538 226.365 192.15C228.516 191.441 230.474 191.505 232.216 192.344L232.259 192.366Z" fill="#8DC63F"/>
<path d="M247.319 203.785C245.598 203.505 244.092 202.839 242.802 201.763C241.532 200.688 240.586 199.29 240.026 197.57C239.445 195.849 239.359 194.172 239.725 192.538C240.091 190.903 240.908 189.462 242.113 188.215C243.339 186.968 244.867 186.021 246.717 185.398C248.546 184.796 250.267 184.645 251.88 184.946C253.494 185.247 254.849 186.021 255.946 187.226L252.741 190.624C251.299 189.333 249.75 188.968 248.051 189.527C246.739 189.957 245.792 190.753 245.211 191.892C244.63 193.032 244.587 194.366 245.082 195.828C245.577 197.312 246.394 198.344 247.535 198.925C248.675 199.505 249.901 199.57 251.213 199.118C252.934 198.538 253.967 197.312 254.333 195.441L258.937 196.28C258.765 197.871 258.141 199.269 257.022 200.495C255.903 201.72 254.44 202.645 252.612 203.247C250.762 203.871 248.976 204.043 247.255 203.763L247.319 203.785Z" fill="#8DC63F"/>
<path d="M277.546 186.645L264.422 191.011C265.025 192 265.864 192.667 266.94 192.989C268.037 193.312 269.22 193.269 270.532 192.839C271.436 192.538 272.189 192.129 272.791 191.634C273.394 191.14 273.91 190.495 274.319 189.699L277.976 191.72C276.965 194.129 274.878 195.871 271.737 196.903C269.779 197.548 267.929 197.742 266.165 197.484C264.401 197.226 262.895 196.559 261.626 195.462C260.356 194.366 259.431 192.968 258.85 191.247C258.291 189.548 258.184 187.892 258.528 186.258C258.872 184.624 259.625 183.183 260.787 181.957C261.948 180.731 263.39 179.806 265.132 179.247C266.832 178.688 268.489 178.538 270.102 178.817C271.716 179.097 273.157 179.785 274.383 180.882C275.61 181.979 276.535 183.441 277.158 185.247C277.158 185.312 277.288 185.763 277.503 186.624L277.546 186.645ZM263.906 184.989C263.347 185.892 263.175 186.925 263.368 188.108L271.909 185.269C271.371 184.237 270.597 183.505 269.607 183.118C268.618 182.731 267.563 182.71 266.445 183.075C265.305 183.462 264.465 184.086 263.906 184.989Z" fill="#8DC63F"/>
<path d="M293.122 162.925L301.103 186.86L296.284 188.452L295.618 186.452C294.865 188.366 293.316 189.72 290.949 190.516C289.314 191.054 287.722 191.183 286.152 190.903C284.581 190.602 283.204 189.914 281.999 188.817C280.795 187.721 279.891 186.28 279.289 184.473C278.686 182.688 278.557 180.989 278.858 179.398C279.16 177.785 279.848 176.409 280.924 175.226C281.999 174.065 283.355 173.204 284.99 172.645C287.206 171.914 289.163 172.022 290.885 173.011L288.088 164.602L293.122 162.925ZM293.186 183.742C293.724 182.602 293.767 181.29 293.273 179.828C292.778 178.366 291.982 177.333 290.842 176.753C289.723 176.172 288.518 176.086 287.249 176.495C285.958 176.925 285.033 177.72 284.495 178.86C283.957 180.022 283.914 181.312 284.409 182.774C284.904 184.237 285.7 185.269 286.84 185.85C287.959 186.452 289.185 186.516 290.476 186.086C291.745 185.656 292.649 184.882 293.208 183.721L293.186 183.742Z" fill="#8DC63F"/>
<path d="M200.248 243.613C200.248 243.613 200.14 243.613 200.097 243.613C200.097 243.613 200.033 243.613 200.011 243.613C199.172 243.527 198.57 242.774 198.656 241.936C198.742 241.097 199.517 240.516 200.334 240.581C201.173 240.667 201.797 241.419 201.711 242.258C201.625 243.032 201.001 243.635 200.227 243.635L200.248 243.613ZM218.384 243.355C217.696 243.355 217.115 242.86 216.943 242.151C216.77 241.333 217.33 240.516 218.169 240.323C218.233 240.323 218.341 240.301 218.405 240.28C219.223 240.172 219.997 240.817 220.084 241.635C220.17 242.452 219.546 243.226 218.728 243.312C218.621 243.333 218.513 243.355 218.405 243.355H218.384ZM182.349 239.678C182.198 239.678 182.026 239.656 181.875 239.592H181.811C181.015 239.312 180.585 238.452 180.843 237.656C181.101 236.86 181.962 236.409 182.779 236.688C183.575 236.946 184.048 237.828 183.769 238.624C183.554 239.269 182.973 239.678 182.349 239.678ZM236.24 238.796C235.595 238.796 235.014 238.387 234.799 237.742C234.541 236.946 234.971 236.086 235.767 235.807C236.541 235.548 237.402 235.936 237.703 236.688C238.004 237.441 237.682 238.301 236.929 238.624C236.886 238.624 236.778 238.688 236.735 238.71C236.584 238.774 236.412 238.796 236.262 238.796H236.24ZM165.891 231.656C165.633 231.656 165.353 231.591 165.095 231.419C165.052 231.398 164.966 231.333 164.944 231.312C164.277 230.796 164.127 229.85 164.643 229.183C165.159 228.516 166.106 228.366 166.773 228.882C167.418 229.376 167.612 230.301 167.139 230.989C166.838 231.419 166.364 231.656 165.891 231.656ZM252.461 230.215C251.967 230.215 251.493 229.979 251.214 229.57C250.74 228.903 250.869 228 251.536 227.505L252.504 228.688L253.3 229.979C253.042 230.151 252.763 230.215 252.461 230.215ZM150.918 219.183L152.079 218.194L150.896 219.161C150.337 218.538 150.401 217.57 151.047 217.011C151.67 216.452 152.639 216.516 153.198 217.161L150.939 219.204L150.918 219.183ZM266.488 218.473C266.058 218.473 265.628 218.301 265.327 217.936C264.789 217.29 264.853 216.344 265.499 215.785C266.123 215.247 267.069 215.269 267.628 215.893C268.188 216.495 268.188 217.398 267.628 217.979C267.607 218 267.521 218.065 267.499 218.108C267.22 218.344 266.854 218.473 266.51 218.473H266.488ZM278.751 204.839C278.45 204.839 278.127 204.753 277.869 204.559C277.18 204.065 277.03 203.118 277.525 202.452L278.794 203.29L279.999 204.237C279.698 204.645 279.224 204.86 278.751 204.86V204.839ZM142.42 204.194C141.839 204.194 141.301 203.871 141.064 203.312C141.064 203.269 141 203.161 140.978 203.118C140.72 202.323 141.15 201.462 141.946 201.183C142.742 200.903 143.603 201.355 143.883 202.151C144.141 202.925 143.753 203.785 143.001 204.086C142.807 204.151 142.613 204.194 142.441 204.194H142.42ZM287.744 188.925C287.528 188.925 287.335 188.882 287.12 188.796C286.345 188.452 286.001 187.548 286.345 186.774C286.668 186.043 287.528 185.656 288.303 185.936C289.056 186.237 289.465 187.032 289.207 187.807C289.207 187.85 289.163 187.957 289.142 188C288.884 188.559 288.324 188.903 287.744 188.903V188.925ZM138.655 186.366C137.816 186.366 137.127 185.678 137.127 184.839C137.041 184 137.644 183.29 138.483 183.204C139.3 183.118 140.075 183.764 140.161 184.602C140.161 184.667 140.161 184.774 140.161 184.839C140.161 185.678 139.472 186.366 138.633 186.366H138.655ZM289.637 170.903C288.862 170.903 288.217 170.323 288.131 169.548C288.045 168.731 288.604 167.979 289.4 167.85C290.218 167.742 290.971 168.237 291.121 169.032C291.121 169.075 291.143 169.183 291.143 169.226C291.229 170.065 290.626 170.817 289.787 170.903C289.723 170.903 289.68 170.903 289.615 170.903H289.637ZM142.699 167.14L141.215 166.753L139.773 166.258C140.032 165.462 140.871 165.011 141.688 165.247C142.484 165.505 142.936 166.323 142.699 167.14ZM281.87 154.559C281.44 154.559 281.031 154.387 280.73 154.043L281.849 153.011L283.075 152.108C283.57 152.753 283.462 153.721 282.839 154.237C282.559 154.473 282.215 154.581 281.87 154.581V154.559ZM268.338 142.28C268.08 142.28 267.801 142.215 267.542 142.043L268.295 140.71L269.22 139.505C269.887 140 270.059 140.925 269.586 141.591C269.285 142.022 268.812 142.258 268.317 142.258L268.338 142.28ZM252.483 133.054C252.203 133.054 251.924 132.968 251.665 132.817C250.891 132.473 250.611 131.613 250.955 130.839C251.3 130.065 252.268 129.764 253.042 130.108C253.107 130.129 253.214 130.194 253.279 130.237C253.989 130.688 254.204 131.613 253.752 132.344C253.473 132.796 252.956 133.054 252.461 133.054H252.483ZM235.573 125.828C235.358 125.828 235.165 125.785 234.949 125.699C234.196 125.376 233.831 124.495 234.11 123.742C234.412 122.989 235.229 122.581 235.982 122.839C236.025 122.839 236.133 122.882 236.176 122.903C236.95 123.247 237.294 124.151 236.95 124.925C236.692 125.484 236.133 125.828 235.552 125.828H235.573ZM218.126 120C218.126 120 217.911 120 217.825 119.979C217.76 119.979 217.653 119.936 217.588 119.914C216.792 119.656 216.362 118.796 216.62 117.979C216.878 117.183 217.739 116.753 218.556 117.011L218.083 118.452L218.578 117.011C219.395 117.183 219.868 117.957 219.718 118.796C219.567 119.527 218.9 120 218.169 120H218.126ZM200.334 115.247C200.184 115.247 200.033 115.247 199.904 115.183C199.108 114.946 198.635 114.129 198.828 113.333C199.043 112.538 199.796 112.043 200.614 112.215C200.657 112.215 200.743 112.237 200.786 112.258C201.582 112.495 202.055 113.355 201.797 114.151C201.603 114.817 201.001 115.226 200.334 115.226V115.247ZM182.349 111.355C182.349 111.355 182.241 111.355 182.177 111.355C182.112 111.355 182.005 111.333 181.962 111.312C181.144 111.14 180.628 110.323 180.8 109.505C180.972 108.688 181.789 108.194 182.585 108.344C183.381 108.473 183.962 109.204 183.855 110.022C183.769 110.796 183.102 111.376 182.349 111.376V111.355ZM164.148 108.323C164.148 108.323 163.998 108.323 163.933 108.323C163.116 108.215 162.513 107.441 162.599 106.624C162.707 105.807 163.438 105.204 164.234 105.29C164.234 105.29 164.342 105.29 164.363 105.29C165.202 105.398 165.783 106.172 165.654 107.011C165.547 107.764 164.901 108.323 164.148 108.323Z" fill="#612A7A"/>
<path d="M200.356 133.051L159.273 166.059C157.476 167.502 157.19 170.128 158.634 171.924L178.325 196.414C179.769 198.21 182.396 198.496 184.193 197.052L225.276 164.045C227.073 162.601 227.358 159.975 225.914 158.179L206.224 133.689C204.78 131.894 202.153 131.608 200.356 133.051Z" fill="white"/>
<path d="M181.595 199.054C181.402 199.054 181.208 199.054 181.014 199.032C179.616 198.882 178.368 198.193 177.486 197.097L157.801 172.624C155.994 170.365 156.338 167.054 158.597 165.247L199.688 132.236C200.785 131.355 202.184 130.968 203.539 131.118C204.937 131.269 206.185 131.957 207.067 133.054L226.752 157.527C228.559 159.785 228.215 163.097 225.956 164.903L184.865 197.914C183.919 198.667 182.778 199.075 181.595 199.075V199.054ZM202.98 133.204C202.291 133.204 201.624 133.419 201.043 133.892L159.953 166.903C159.307 167.419 158.898 168.15 158.812 168.989C158.726 169.806 158.963 170.624 159.479 171.269L179.164 195.742C179.68 196.387 180.412 196.796 181.251 196.882C182.068 196.968 182.886 196.731 183.531 196.215L224.622 163.204C225.956 162.129 226.171 160.172 225.096 158.839L205.411 134.365C204.808 133.613 203.905 133.204 203.001 133.204H202.98Z" fill="#612A7A"/>
<path d="M178.003 177.269C175.894 177.269 173.764 176.839 171.764 175.978L160.275 171.054C159.006 170.516 158.124 169.355 157.952 168C157.758 166.624 158.296 165.29 159.372 164.409L198.72 132.796C199.796 131.935 201.216 131.699 202.528 132.172C203.819 132.645 204.765 133.742 205.024 135.118L207.369 147.398C208.466 153.14 206.314 159.011 201.754 162.667L187.899 173.806C185.038 176.107 181.531 177.29 178.003 177.29V177.269ZM201.173 134.064C200.785 134.064 200.398 134.193 200.076 134.452L160.727 166.064C160.232 166.452 159.996 167.054 160.082 167.677C160.168 168.301 160.555 168.817 161.136 169.054L172.624 173.978C177.271 175.978 182.628 175.247 186.565 172.086L200.42 160.946C204.357 157.785 206.228 152.71 205.282 147.742L202.937 135.462C202.829 134.839 202.399 134.366 201.818 134.129C201.624 134.064 201.409 134.021 201.194 134.021L201.173 134.064Z" fill="#612A7A"/>
<path d="M192.465 164.1L191.341 165.003C190.082 166.015 189.881 167.856 190.893 169.115L191.433 169.785C192.445 171.044 194.287 171.245 195.546 170.233L196.67 169.33C197.929 168.318 198.129 166.477 197.117 165.218L196.578 164.548C195.566 163.289 193.724 163.088 192.465 164.1Z" fill="white"/>
<path d="M193.708 171.957C193.558 171.957 193.407 171.957 193.278 171.935C192.224 171.828 191.256 171.29 190.589 170.473L190.051 169.806C188.674 168.086 188.954 165.57 190.653 164.172L191.772 163.269C192.611 162.602 193.644 162.301 194.719 162.409C195.774 162.516 196.742 163.054 197.409 163.871L197.946 164.538C198.613 165.376 198.914 166.409 198.807 167.484C198.699 168.559 198.162 169.505 197.344 170.172L196.225 171.075C195.515 171.656 194.633 171.957 193.73 171.957H193.708ZM194.289 164.538C193.859 164.538 193.472 164.688 193.127 164.946L192.009 165.849C191.213 166.495 191.084 167.656 191.729 168.452L192.267 169.118C192.568 169.505 193.02 169.742 193.515 169.806C194.009 169.871 194.483 169.72 194.87 169.419L195.989 168.516C196.376 168.215 196.613 167.763 196.677 167.269C196.742 166.774 196.591 166.301 196.29 165.914L195.752 165.247C195.451 164.86 194.999 164.624 194.504 164.559C194.44 164.559 194.375 164.559 194.311 164.559L194.289 164.538Z" fill="#612A7A"/>
<path d="M194.136 133.405L188.451 137.972L190.567 140.603L196.252 136.036L194.136 133.405Z" fill="white"/>
<path d="M190.416 142.129L186.952 137.828L194.31 131.914L197.773 136.215L190.416 142.129ZM189.986 138.15L190.76 139.097L194.762 135.892L193.987 134.946L189.986 138.15Z" fill="#612A7A"/>
<path d="M166.686 155.501L161.001 160.068L163.117 162.7L168.802 158.133L166.686 155.501Z" fill="white"/>
<path d="M162.943 164.215L159.479 159.914L166.837 154L170.301 158.301L162.943 164.215ZM162.491 160.236L163.266 161.183L167.267 157.957L166.493 157.011L162.491 160.236Z" fill="#612A7A"/>
<path d="M163.89 158.43C163.416 158.43 162.986 158.107 162.857 157.634C162.771 157.333 160.985 150 172.947 140.387C184.908 130.774 191.384 133.935 191.664 134.086C192.201 134.365 192.395 135.011 192.137 135.527C191.857 136.064 191.212 136.258 190.696 136C190.653 136 185.059 133.441 174.302 142.086C163.545 150.709 164.944 157.054 164.944 157.118C165.073 157.699 164.729 158.279 164.169 158.408C164.083 158.43 163.997 158.451 163.911 158.451L163.89 158.43Z" fill="#612A7A"/>
<path d="M224.967 182.301C235.494 182.301 244.028 173.77 244.028 163.247C244.028 152.724 235.494 144.194 224.967 144.194C214.44 144.194 205.906 152.724 205.906 163.247C205.906 173.77 214.44 182.301 224.967 182.301Z" fill="#8DC63F"/>
<path d="M233.271 168.107H230.517V171.634H226.71V168.107H217.652V165.484L225.591 154.817H229.678L222.321 164.946H226.839V161.806H230.517V164.946H233.271V168.129V168.107Z" fill="#612A7A"/>
</g>
<defs>
<clipPath id="clip0_369_44516">
<rect width="340" height="258" fill="white"/>
</clipPath>
</defs>
</svg>
