<svg width="328" height="258" viewBox="0 0 328 258" fill="none" xmlns="http://www.w3.org/2000/svg">
<g clip-path="url(#clip0_369_41758)">
<path d="M327.963 205.507V224.093C327.963 235.926 318.444 245.51 306.696 245.51H229.141C223.67 245.51 218.686 243.259 215.088 239.64C211.49 236.02 209.279 231.032 209.279 225.499C209.279 223.961 209.448 222.461 209.785 221.017H271.132C275.854 221.017 279.695 217.172 279.695 212.409V205.507H327.963Z" fill="#612A7A"/>
<path d="M271.487 23.0112H47.7988C43.0488 23.0112 39.1982 26.8652 39.1982 31.6194V212.409C39.1982 217.163 43.0488 221.017 47.7988 221.017H271.487C276.237 221.017 280.088 217.163 280.088 212.409V31.6194C280.088 26.8652 276.237 23.0112 271.487 23.0112Z" fill="white"/>
<path d="M271.487 221.955H47.7991C42.5339 221.955 38.2617 217.679 38.2617 212.409V31.6193C38.2617 26.3494 42.5339 22.0735 47.7991 22.0735H271.487C276.753 22.0735 281.025 26.3494 281.025 31.6193V212.409C281.025 217.679 276.753 221.955 271.487 221.955ZM47.7991 23.9489C43.5644 23.9489 40.1355 27.3809 40.1355 31.6193V212.409C40.1355 216.628 43.5644 220.079 47.7991 220.079H271.487C275.722 220.079 279.151 216.647 279.151 212.409V31.6193C279.151 27.3809 275.722 23.9489 271.487 23.9489H47.7991Z" fill="#612A7A"/>
<path d="M226.555 111.212H248.272C261.988 111.212 273.118 122.352 273.118 136.08V151.195H226.537C215.519 151.195 206.562 142.231 206.562 131.204C206.562 120.176 215.519 111.212 226.537 111.212H226.555Z" fill="#612A7A"/>
<path d="M233.17 150.764H308.008C319.025 150.764 327.982 159.729 327.982 170.756C327.982 181.783 319.025 190.748 308.008 190.748H254.549C242.745 190.748 233.17 181.165 233.17 169.349V150.764Z" fill="#612A7A"/>
<path d="M288.033 245.678V170.775C288.033 159.747 296.99 150.783 308.007 150.783C319.025 150.783 327.982 159.747 327.982 170.775V224.28C327.982 236.095 318.407 245.678 306.602 245.678H288.033Z" fill="#612A7A"/>
<path d="M225.431 130.997C227.821 130.997 229.759 129.058 229.759 126.665C229.759 124.273 227.821 122.333 225.431 122.333C223.04 122.333 221.103 124.273 221.103 126.665C221.103 129.058 223.04 130.997 225.431 130.997Z" fill="white"/>
<path d="M215.313 139.756C211.734 139.756 208.811 138.593 208.642 138.518C208.155 138.33 207.93 137.786 208.118 137.299C208.305 136.83 208.867 136.586 209.335 136.774C209.392 136.792 215.463 139.193 220.297 136.811C220.765 136.586 221.327 136.774 221.552 137.243C221.777 137.711 221.59 138.274 221.121 138.499C219.21 139.437 217.168 139.756 215.313 139.756Z" fill="white"/>
<path d="M169.855 139.362L162.754 141.856L160.018 149.207L157.451 142.006L150.181 139.362L157.526 136.623L160.018 129.516L162.66 136.792L169.855 139.362Z" fill="#612A7A"/>
<path d="M267.552 32.3696H55.0505C52.0287 32.3696 49.5791 34.8214 49.5791 37.8458V55.0246C49.5791 58.049 52.0287 60.5008 55.0505 60.5008H267.552C270.574 60.5008 273.024 58.049 273.024 55.0246V37.8458C273.024 34.8214 270.574 32.3696 267.552 32.3696Z" fill="#D1EDF8"/>
<path d="M251.42 52.9429C251.176 52.9429 250.914 52.8491 250.727 52.6428C250.371 52.2678 250.408 51.6676 250.783 51.3113L261.707 41.2028C262.081 40.8465 262.681 40.884 263.037 41.2591C263.393 41.6342 263.356 42.2343 262.981 42.5906L252.057 52.6991C251.87 52.8679 251.645 52.9429 251.42 52.9429Z" fill="#612A7A"/>
<path d="M262.344 52.9429C262.119 52.9429 261.894 52.8679 261.707 52.6991L250.783 42.5906C250.408 42.2343 250.371 41.6529 250.727 41.2591C251.083 40.884 251.663 40.8465 252.057 41.2028L262.981 51.3113C263.356 51.6676 263.393 52.249 263.037 52.6428C262.85 52.8491 262.606 52.9429 262.344 52.9429Z" fill="#612A7A"/>
<path d="M238.735 48.8545H229.291V40.959H238.735V48.8545ZM231.165 46.979H236.861V42.8344H231.165V46.979Z" fill="#612A7A"/>
<path d="M234.95 52.9428H225.506V45.0474H234.95V52.9428ZM227.38 51.0674H233.076V46.9228H227.38V51.0674Z" fill="#612A7A"/>
<path d="M214.301 52.9428H205.944C205.419 52.9428 205.007 52.5302 205.007 52.0051C205.007 51.48 205.419 51.0674 205.944 51.0674H214.301C214.825 51.0674 215.238 51.48 215.238 52.0051C215.238 52.5302 214.825 52.9428 214.301 52.9428Z" fill="#612A7A"/>
<path d="M127.621 95.4396H86.4925C85.9679 95.4396 85.5557 95.027 85.5557 94.5019C85.5557 93.9768 85.9679 93.5642 86.4925 93.5642H127.621C128.146 93.5642 128.558 93.9768 128.558 94.5019C128.558 95.027 128.146 95.4396 127.621 95.4396Z" fill="#612A7A"/>
<path d="M136.39 144.688H86.7543C86.2296 144.688 85.8174 144.275 85.8174 143.75C85.8174 143.225 86.2296 142.812 86.7543 142.812H136.39C136.915 142.812 137.327 143.225 137.327 143.75C137.327 144.275 136.915 144.688 136.39 144.688Z" fill="#612A7A"/>
<path d="M127.621 124.677H86.4925C85.9679 124.677 85.5557 124.265 85.5557 123.739C85.5557 123.214 85.9679 122.802 86.4925 122.802H127.621C128.146 122.802 128.558 123.214 128.558 123.739C128.558 124.265 128.146 124.677 127.621 124.677Z" fill="#612A7A"/>
<path d="M147.633 113.387H87.0736C86.5489 113.387 86.1367 112.975 86.1367 112.449C86.1367 111.924 86.5489 111.512 87.0736 111.512H147.633C148.158 111.512 148.57 111.924 148.57 112.449C148.57 112.975 148.158 113.387 147.633 113.387Z" fill="#612A7A"/>
<path d="M152.111 95.4396H134.929C134.404 95.4396 133.992 95.027 133.992 94.5019C133.992 93.9768 134.404 93.5642 134.929 93.5642H152.111C152.636 93.5642 153.048 93.9768 153.048 94.5019C153.048 95.027 152.636 95.4396 152.111 95.4396Z" fill="#612A7A"/>
<path d="M108.434 104.404H91.2513C90.7267 104.404 90.3145 103.991 90.3145 103.466C90.3145 102.941 90.7267 102.529 91.2513 102.529H108.434C108.958 102.529 109.37 102.941 109.37 103.466C109.37 103.991 108.958 104.404 108.434 104.404Z" fill="#612A7A"/>
<path d="M172.366 113.387H155.184C154.659 113.387 154.247 112.975 154.247 112.449C154.247 111.924 154.659 111.512 155.184 111.512H172.366C172.891 111.512 173.303 111.924 173.303 112.449C173.303 112.975 172.891 113.387 172.366 113.387Z" fill="#612A7A"/>
<path d="M186.513 113.387H178.812C178.287 113.387 177.875 112.975 177.875 112.449C177.875 111.924 178.287 111.512 178.812 111.512H186.513C187.038 111.512 187.45 111.924 187.45 112.449C187.45 112.975 187.038 113.387 186.513 113.387Z" fill="#612A7A"/>
<path d="M94.512 134.523H86.8109C86.2862 134.523 85.874 134.111 85.874 133.585C85.874 133.06 86.2862 132.648 86.8109 132.648H94.512C95.0367 132.648 95.4489 133.06 95.4489 133.585C95.4489 134.111 95.0367 134.523 94.512 134.523Z" fill="#612A7A"/>
<path d="M99.44 155.265H87.5043C86.9796 155.265 86.5674 154.852 86.5674 154.327C86.5674 153.802 86.9796 153.39 87.5043 153.39H99.44C99.9647 153.39 100.377 153.802 100.377 154.327C100.377 154.852 99.9647 155.265 99.44 155.265Z" fill="#612A7A"/>
<path d="M119.733 155.265H107.797C107.273 155.265 106.86 154.852 106.86 154.327C106.86 153.802 107.273 153.39 107.797 153.39H119.733C120.258 153.39 120.67 153.802 120.67 154.327C120.67 154.852 120.258 155.265 119.733 155.265Z" fill="#612A7A"/>
<path d="M95.7858 165.411H87.7474C87.2228 165.411 86.8105 164.998 86.8105 164.473C86.8105 163.948 87.2228 163.536 87.7474 163.536H95.7858C96.3105 163.536 96.7227 163.948 96.7227 164.473C96.7227 164.998 96.3105 165.411 95.7858 165.411Z" fill="#612A7A"/>
<path d="M94.7741 87.7504H86.7357C86.2111 87.7504 85.7988 87.3378 85.7988 86.8127C85.7988 86.2876 86.2111 85.875 86.7357 85.875H94.7741C95.2987 85.875 95.711 86.2876 95.711 86.8127C95.711 87.3378 95.2987 87.7504 94.7741 87.7504Z" fill="#612A7A"/>
<path d="M112.256 184.615V189.848L117.259 190.56C117.727 193.111 118.72 195.493 120.126 197.556L117.09 201.606L120.781 205.301L124.829 202.263C126.89 203.688 129.251 204.701 131.799 205.188L132.511 210.215H137.739L138.451 205.207C140.999 204.738 143.379 203.744 145.44 202.338L149.487 205.376L153.179 201.681L150.143 197.631C151.567 195.568 152.579 193.205 153.066 190.654L158.088 189.941V184.709L153.085 183.996C152.616 181.446 151.623 179.064 150.218 177.001L153.254 172.95L149.562 169.256L145.515 172.294C143.454 170.868 141.093 169.856 138.545 169.368L137.833 164.342H132.605L131.893 169.349C129.344 169.818 126.965 170.812 124.904 172.219L120.856 169.181L117.165 172.875L120.201 176.926C118.777 178.989 117.765 181.352 117.278 183.903L112.256 184.615ZM135.172 174.619C142.161 174.619 147.838 180.283 147.838 187.297C147.838 194.311 142.18 199.975 135.172 199.975C128.164 199.975 122.505 194.311 122.505 187.297C122.505 180.283 128.164 174.619 135.172 174.619Z" fill="white"/>
<path d="M138.545 211.152H131.706L130.975 205.976C128.801 205.489 126.74 204.626 124.866 203.426L120.707 206.557L115.872 201.719L119.002 197.537C117.802 195.643 116.959 193.598 116.491 191.404L111.338 190.673V183.828L116.509 183.077C116.997 180.902 117.859 178.839 119.058 176.964L115.929 172.8L120.763 167.962L124.941 171.094C126.834 169.893 128.876 169.049 131.068 168.58L131.799 163.423H138.638L139.388 168.599C141.561 169.087 143.623 169.95 145.496 171.15L149.656 168.018L154.49 172.856L151.361 177.039C152.56 178.933 153.404 180.977 153.872 183.171L159.025 183.903V190.748L153.853 191.479C153.366 193.655 152.504 195.718 151.305 197.593L154.434 201.756L149.6 206.595L145.421 203.463C143.529 204.663 141.487 205.507 139.294 205.976L138.563 211.133L138.545 211.152ZM133.317 209.277H136.915L137.608 204.401L138.264 204.288C140.662 203.857 142.892 202.938 144.897 201.569L145.459 201.194L149.394 204.157L151.942 201.606L149 197.668L149.394 197.105C150.78 195.099 151.717 192.886 152.167 190.485L152.298 189.829L157.17 189.135V185.534L152.298 184.84L152.186 184.165C151.755 181.765 150.837 179.533 149.469 177.526L149.094 176.964L152.054 173.025L149.506 170.475L145.571 173.419L145.009 173.025C143.004 171.637 140.775 170.7 138.395 170.25L137.739 170.118L137.046 165.242H133.448L132.755 170.118L132.08 170.231C129.682 170.662 127.452 171.581 125.447 172.95L124.885 173.325L120.95 170.362L118.402 172.913L121.344 176.851L120.95 177.414C119.564 179.42 118.627 181.652 118.177 184.034L118.046 184.69L113.174 185.384V188.985L118.046 189.679L118.158 190.335C118.589 192.736 119.507 194.967 120.875 196.974L121.25 197.537L118.29 201.475L120.838 204.026L124.773 201.081L125.335 201.475C127.34 202.863 129.569 203.801 131.949 204.251L132.605 204.382L133.298 209.258L133.317 209.277ZM135.172 200.875C127.677 200.875 121.569 194.78 121.569 187.26C121.569 179.739 127.658 173.663 135.172 173.663C142.686 173.663 148.757 179.758 148.757 187.26C148.757 194.761 142.667 200.875 135.172 200.875ZM135.172 175.538C128.708 175.538 123.442 180.808 123.442 187.26C123.442 193.711 128.708 199 135.172 199C141.636 199 146.883 193.73 146.883 187.26C146.883 180.789 141.618 175.538 135.172 175.538Z" fill="#612A7A"/>
<path d="M75.3814 81.674L68.2799 84.1683L65.5442 91.5199L62.9772 84.3183L55.707 81.674L63.0521 78.9359L65.5442 71.8093L68.205 79.0859L75.3814 81.674Z" fill="#612A7A"/>
<path d="M62.789 125.615H7.08242C3.68814 125.615 0.936523 128.369 0.936523 131.766V137.299C0.936523 140.696 3.68814 143.45 7.08242 143.45H62.789C66.1833 143.45 68.9349 140.696 68.9349 137.299V131.766C68.9349 128.369 66.1833 125.615 62.789 125.615Z" fill="white"/>
<path d="M62.7894 144.406H7.08278C3.18538 144.406 0 141.218 0 137.317V131.785C0 127.884 3.18538 124.696 7.08278 124.696H62.7894C66.6868 124.696 69.8722 127.884 69.8722 131.785V137.317C69.8722 141.218 66.6868 144.406 62.7894 144.406ZM7.08278 126.552C4.21594 126.552 1.87375 128.897 1.87375 131.766V137.299C1.87375 140.168 4.21594 142.512 7.08278 142.512H62.7894C65.6562 142.512 67.9984 140.168 67.9984 137.299V131.766C67.9984 128.897 65.6562 126.552 62.7894 126.552H7.08278Z" fill="#612A7A"/>
<path d="M58.3862 137.58C56.8122 137.58 55.5381 136.305 55.5381 134.729C55.5381 133.154 56.8122 131.879 58.3862 131.879C59.9601 131.879 61.2343 133.154 61.2343 134.729C61.2343 136.305 59.9601 137.58 58.3862 137.58ZM58.3862 133.773C57.8428 133.773 57.4118 134.204 57.4118 134.748C57.4118 135.292 57.8428 135.723 58.3862 135.723C58.9296 135.723 59.3605 135.292 59.3605 134.748C59.3605 134.204 58.9296 133.773 58.3862 133.773Z" fill="#612A7A"/>
<path d="M49.0551 137.58C47.4812 137.58 46.207 136.305 46.207 134.729C46.207 133.154 47.4812 131.879 49.0551 131.879C50.6291 131.879 51.9032 133.154 51.9032 134.729C51.9032 136.305 50.6291 137.58 49.0551 137.58ZM49.0551 133.773C48.5305 133.773 48.0808 134.204 48.0808 134.748C48.0808 135.292 48.5117 135.723 49.0551 135.723C49.5985 135.723 50.0295 135.292 50.0295 134.748C50.0295 134.204 49.5985 133.773 49.0551 133.773Z" fill="#612A7A"/>
<path d="M10.4557 133.379C11.0456 133.379 11.5238 132.9 11.5238 132.31C11.5238 131.72 11.0456 131.241 10.4557 131.241C9.86587 131.241 9.3877 131.72 9.3877 132.31C9.3877 132.9 9.86587 133.379 10.4557 133.379Z" fill="#612A7A"/>
<path d="M14.7839 133.379C15.3737 133.379 15.8519 132.9 15.8519 132.31C15.8519 131.72 15.3737 131.241 14.7839 131.241C14.194 131.241 13.7158 131.72 13.7158 132.31C13.7158 132.9 14.194 133.379 14.7839 133.379Z" fill="#612A7A"/>
<path d="M19.112 133.379C19.7018 133.379 20.18 132.9 20.18 132.31C20.18 131.72 19.7018 131.241 19.112 131.241C18.5221 131.241 18.0439 131.72 18.0439 132.31C18.0439 132.9 18.5221 133.379 19.112 133.379Z" fill="#612A7A"/>
<path d="M10.4557 137.786C11.0456 137.786 11.5238 137.308 11.5238 136.717C11.5238 136.127 11.0456 135.648 10.4557 135.648C9.86587 135.648 9.3877 136.127 9.3877 136.717C9.3877 137.308 9.86587 137.786 10.4557 137.786Z" fill="#612A7A"/>
<path d="M14.7839 137.786C15.3737 137.786 15.8519 137.308 15.8519 136.717C15.8519 136.127 15.3737 135.648 14.7839 135.648C14.194 135.648 13.7158 136.127 13.7158 136.717C13.7158 137.308 14.194 137.786 14.7839 137.786Z" fill="#612A7A"/>
<path d="M19.112 137.786C19.7018 137.786 20.18 137.308 20.18 136.717C20.18 136.127 19.7018 135.648 19.112 135.648C18.5221 135.648 18.0439 136.127 18.0439 136.717C18.0439 137.308 18.5221 137.786 19.112 137.786Z" fill="#612A7A"/>
<path d="M59.9595 142.925H57.8047V147.651H59.9595V142.925Z" fill="#612A7A"/>
<path d="M12.0855 142.925H9.93066V147.651H12.0855V142.925Z" fill="#612A7A"/>
<path d="M62.789 148.213H7.08242C3.68814 148.213 0.936523 150.967 0.936523 154.365V159.897C0.936523 163.294 3.68814 166.049 7.08242 166.049H62.789C66.1833 166.049 68.9349 163.294 68.9349 159.897V154.365C68.9349 150.967 66.1833 148.213 62.789 148.213Z" fill="white"/>
<path d="M62.7894 166.986H7.08278C3.18538 166.986 0 163.798 0 159.897V154.365C0 150.464 3.18538 147.276 7.08278 147.276H62.7894C66.6868 147.276 69.8722 150.464 69.8722 154.365V159.897C69.8722 163.798 66.6868 166.986 62.7894 166.986ZM7.08278 149.151C4.21594 149.151 1.87375 151.495 1.87375 154.365V159.897C1.87375 162.767 4.21594 165.111 7.08278 165.111H62.7894C65.6562 165.111 67.9984 162.767 67.9984 159.897V154.365C67.9984 151.495 65.6562 149.151 62.7894 149.151H7.08278Z" fill="#612A7A"/>
<path d="M58.3862 160.179C56.8122 160.179 55.5381 158.903 55.5381 157.328C55.5381 155.753 56.8122 154.477 58.3862 154.477C59.9601 154.477 61.2343 155.753 61.2343 157.328C61.2343 158.903 59.9601 160.179 58.3862 160.179ZM58.3862 156.371C57.8428 156.371 57.4118 156.803 57.4118 157.347C57.4118 157.891 57.8428 158.322 58.3862 158.322C58.9296 158.322 59.3605 157.891 59.3605 157.347C59.3605 156.803 58.9296 156.371 58.3862 156.371Z" fill="#612A7A"/>
<path d="M49.0551 160.179C47.4812 160.179 46.207 158.903 46.207 157.328C46.207 155.753 47.4812 154.477 49.0551 154.477C50.6291 154.477 51.9032 155.753 51.9032 157.328C51.9032 158.903 50.6291 160.179 49.0551 160.179ZM49.0551 156.371C48.5305 156.371 48.0808 156.803 48.0808 157.347C48.0808 157.891 48.5117 158.322 49.0551 158.322C49.5985 158.322 50.0295 157.891 50.0295 157.347C50.0295 156.803 49.5985 156.371 49.0551 156.371Z" fill="#612A7A"/>
<path d="M10.4557 155.978C11.0456 155.978 11.5238 155.499 11.5238 154.909C11.5238 154.318 11.0456 153.84 10.4557 153.84C9.86587 153.84 9.3877 154.318 9.3877 154.909C9.3877 155.499 9.86587 155.978 10.4557 155.978Z" fill="#612A7A"/>
<path d="M14.7839 155.978C15.3737 155.978 15.8519 155.499 15.8519 154.909C15.8519 154.318 15.3737 153.84 14.7839 153.84C14.194 153.84 13.7158 154.318 13.7158 154.909C13.7158 155.499 14.194 155.978 14.7839 155.978Z" fill="#612A7A"/>
<path d="M19.112 155.978C19.7018 155.978 20.18 155.499 20.18 154.909C20.18 154.318 19.7018 153.84 19.112 153.84C18.5221 153.84 18.0439 154.318 18.0439 154.909C18.0439 155.499 18.5221 155.978 19.112 155.978Z" fill="#612A7A"/>
<path d="M10.4557 160.366C11.0456 160.366 11.5238 159.887 11.5238 159.297C11.5238 158.707 11.0456 158.228 10.4557 158.228C9.86587 158.228 9.3877 158.707 9.3877 159.297C9.3877 159.887 9.86587 160.366 10.4557 160.366Z" fill="#612A7A"/>
<path d="M14.7839 160.366C15.3737 160.366 15.8519 159.887 15.8519 159.297C15.8519 158.707 15.3737 158.228 14.7839 158.228C14.194 158.228 13.7158 158.707 13.7158 159.297C13.7158 159.887 14.194 160.366 14.7839 160.366Z" fill="#612A7A"/>
<path d="M19.112 160.366C19.7018 160.366 20.18 159.887 20.18 159.297C20.18 158.707 19.7018 158.228 19.112 158.228C18.5221 158.228 18.0439 158.707 18.0439 159.297C18.0439 159.887 18.5221 160.366 19.112 160.366Z" fill="#612A7A"/>
<path d="M59.9595 165.505H57.8047V170.231H59.9595V165.505Z" fill="#612A7A"/>
<path d="M12.0855 165.505H9.93066V170.231H12.0855V165.505Z" fill="#612A7A"/>
<path d="M62.789 170.812H7.08242C3.68814 170.812 0.936523 173.566 0.936523 176.964V182.496C0.936523 185.893 3.68814 188.647 7.08242 188.647H62.789C66.1833 188.647 68.9349 185.893 68.9349 182.496V176.964C68.9349 173.566 66.1833 170.812 62.789 170.812Z" fill="white"/>
<path d="M62.7894 189.585H7.08278C3.18538 189.585 0 186.397 0 182.496V176.964C0 173.063 3.18538 169.875 7.08278 169.875H62.7894C66.6868 169.875 69.8722 173.063 69.8722 176.964V182.496C69.8722 186.397 66.6868 189.585 62.7894 189.585ZM7.08278 171.75C4.21594 171.75 1.87375 174.094 1.87375 176.964V182.496C1.87375 185.365 4.21594 187.71 7.08278 187.71H62.7894C65.6562 187.71 67.9984 185.365 67.9984 182.496V176.964C67.9984 174.094 65.6562 171.75 62.7894 171.75H7.08278Z" fill="#612A7A"/>
<path d="M58.3862 182.777C56.8122 182.777 55.5381 181.502 55.5381 179.927C55.5381 178.351 56.8122 177.076 58.3862 177.076C59.9601 177.076 61.2343 178.351 61.2343 179.927C61.2343 181.502 59.9601 182.777 58.3862 182.777ZM58.3862 178.97C57.8428 178.97 57.4118 179.401 57.4118 179.945C57.4118 180.489 57.8428 180.921 58.3862 180.921C58.9296 180.921 59.3605 180.489 59.3605 179.945C59.3605 179.401 58.9296 178.97 58.3862 178.97Z" fill="#612A7A"/>
<path d="M49.0551 182.777C47.4812 182.777 46.207 181.502 46.207 179.927C46.207 178.351 47.4812 177.076 49.0551 177.076C50.6291 177.076 51.9032 178.351 51.9032 179.927C51.9032 181.502 50.6291 182.777 49.0551 182.777ZM49.0551 178.97C48.5305 178.97 48.0808 179.401 48.0808 179.945C48.0808 180.489 48.5117 180.921 49.0551 180.921C49.5985 180.921 50.0295 180.489 50.0295 179.945C50.0295 179.401 49.5985 178.97 49.0551 178.97Z" fill="#612A7A"/>
<path d="M10.4557 178.576C11.0456 178.576 11.5238 178.098 11.5238 177.507C11.5238 176.917 11.0456 176.438 10.4557 176.438C9.86587 176.438 9.3877 176.917 9.3877 177.507C9.3877 178.098 9.86587 178.576 10.4557 178.576Z" fill="#612A7A"/>
<path d="M14.7839 178.576C15.3737 178.576 15.8519 178.098 15.8519 177.507C15.8519 176.917 15.3737 176.438 14.7839 176.438C14.194 176.438 13.7158 176.917 13.7158 177.507C13.7158 178.098 14.194 178.576 14.7839 178.576Z" fill="#612A7A"/>
<path d="M19.112 178.576C19.7018 178.576 20.18 178.098 20.18 177.507C20.18 176.917 19.7018 176.438 19.112 176.438C18.5221 176.438 18.0439 176.917 18.0439 177.507C18.0439 178.098 18.5221 178.576 19.112 178.576Z" fill="#612A7A"/>
<path d="M10.4557 182.965C11.0456 182.965 11.5238 182.486 11.5238 181.896C11.5238 181.306 11.0456 180.827 10.4557 180.827C9.86587 180.827 9.3877 181.306 9.3877 181.896C9.3877 182.486 9.86587 182.965 10.4557 182.965Z" fill="#612A7A"/>
<path d="M14.7839 182.965C15.3737 182.965 15.8519 182.486 15.8519 181.896C15.8519 181.306 15.3737 180.827 14.7839 180.827C14.194 180.827 13.7158 181.306 13.7158 181.896C13.7158 182.486 14.194 182.965 14.7839 182.965Z" fill="#612A7A"/>
<path d="M19.112 182.965C19.7018 182.965 20.18 182.486 20.18 181.896C20.18 181.306 19.7018 180.827 19.112 180.827C18.5221 180.827 18.0439 181.306 18.0439 181.896C18.0439 182.486 18.5221 182.965 19.112 182.965Z" fill="#612A7A"/>
<path d="M59.9595 188.103H57.8047V192.829H59.9595V188.103Z" fill="#612A7A"/>
<path d="M12.0855 188.103H9.93066V192.829H12.0855V188.103Z" fill="#612A7A"/>
<path d="M53.0831 97.0711C52.6897 97.0711 52.3149 97.1274 51.9402 97.1837C50.5723 93.6204 47.1434 91.0698 43.0961 91.0698C39.0488 91.0698 35.6198 93.6204 34.252 97.1837C33.8772 97.1086 33.5025 97.0711 33.109 97.0711C29.5488 97.0711 26.6445 99.9593 26.6445 103.541C26.6445 107.123 29.5301 110.011 33.109 110.011C34.8141 110.011 40.9975 110.086 43.0961 110.086C45.1947 110.086 51.378 110.011 53.0831 110.011C56.6433 110.011 59.5476 107.123 59.5476 103.541C59.5476 99.9593 56.662 97.0711 53.0831 97.0711Z" fill="white"/>
<path d="M43.0964 111.005C41.9909 111.005 39.7611 110.987 37.6438 110.968C35.7326 110.968 33.915 110.93 33.1093 110.93C29.0245 110.93 25.708 107.611 25.708 103.522C25.708 99.4341 29.0245 96.1146 33.1093 96.1146C33.2967 96.1146 33.4841 96.1146 33.6714 96.1333C35.3766 92.4575 39.0116 90.1133 43.0964 90.1133C47.1812 90.1133 50.8163 92.4575 52.5214 96.1333C52.7088 96.1333 52.8961 96.1146 53.0835 96.1146C57.1683 96.1146 60.4848 99.4341 60.4848 103.522C60.4848 107.611 57.1683 110.93 53.0835 110.93C52.2778 110.93 50.4602 110.93 48.549 110.968C46.4317 110.987 44.2019 111.005 43.0964 111.005ZM33.1093 97.99C30.0551 97.99 27.5818 100.466 27.5818 103.522C27.5818 106.579 30.0551 109.055 33.1093 109.055C33.915 109.055 35.7513 109.055 37.6625 109.092C39.7799 109.111 41.9909 109.13 43.0964 109.13C44.2019 109.13 46.4129 109.111 48.5303 109.092C50.4415 109.092 52.2778 109.055 53.0835 109.055C56.1377 109.055 58.6111 106.579 58.6111 103.522C58.6111 100.466 56.1377 97.99 53.0835 97.99C52.7462 97.99 52.4277 98.0275 52.1091 98.0838L51.3409 98.215L51.0598 97.4836C49.7857 94.1267 46.6565 91.9699 43.0964 91.9699C39.5363 91.9699 36.4071 94.1267 35.133 97.4836L34.8519 98.215L34.0837 98.0838C33.7651 98.0275 33.4466 97.99 33.1093 97.99Z" fill="#612A7A"/>
<path d="M112.143 58.2125H116.94V67.4396C115.704 68.3773 114.28 69.0899 112.649 69.5775C111.019 70.0839 109.389 70.3277 107.74 70.3277C105.379 70.3277 103.262 69.8213 101.369 68.8086C99.4957 67.7959 98.0154 66.4081 96.9474 64.6264C95.8793 62.8448 95.3359 60.8194 95.3359 58.5689C95.3359 56.3184 95.8793 54.2929 96.9474 52.5113C98.0154 50.7297 99.5144 49.3231 101.407 48.3291C103.299 47.3352 105.454 46.8101 107.834 46.8101C109.82 46.8101 111.638 47.1476 113.249 47.8228C114.879 48.4979 116.228 49.4731 117.334 50.7484L113.961 53.8616C112.331 52.155 110.382 51.2923 108.096 51.2923C106.653 51.2923 105.361 51.5924 104.236 52.1925C103.112 52.7926 102.231 53.6553 101.613 54.7618C100.995 55.8683 100.676 57.1248 100.676 58.5689C100.676 60.0129 100.995 61.232 101.613 62.3384C102.231 63.4449 103.112 64.3076 104.218 64.9265C105.323 65.5454 106.597 65.8455 108.04 65.8455C109.558 65.8455 110.926 65.5266 112.125 64.8702V58.2125H112.143Z" fill="#8DC63F"/>
<path d="M121.719 49.2107C121.138 48.6668 120.838 47.9917 120.838 47.204C120.838 46.4163 121.138 45.7224 121.719 45.1973C122.299 44.6534 123.068 44.3909 123.986 44.3909C124.904 44.3909 125.672 44.6534 126.253 45.1785C126.834 45.7037 127.134 46.3413 127.134 47.129C127.134 47.9729 126.834 48.6668 126.253 49.2294C125.672 49.7733 124.904 50.0546 123.986 50.0546C123.068 50.0546 122.299 49.792 121.719 49.2482V49.2107ZM121.456 52.4551H126.515V69.9339H121.456V52.4551Z" fill="#8DC63F"/>
<path d="M142.48 69.09C141.974 69.4651 141.374 69.7277 140.643 69.9152C139.913 70.1027 139.163 70.1965 138.358 70.1965C136.278 70.1965 134.666 69.6714 133.542 68.6024C132.418 67.5334 131.837 65.9768 131.837 63.9326V56.7498H129.139V52.849H131.837V48.5918H136.896V52.849H141.243V56.7498H136.896V63.8576C136.896 64.589 137.083 65.1704 137.458 65.5642C137.833 65.9581 138.376 66.1644 139.07 66.1644C139.875 66.1644 140.55 65.9393 141.112 65.508L142.48 69.09Z" fill="#8DC63F"/>
<path d="M178.728 163.146C179.767 161.712 179.163 159.5 177.379 158.204C175.595 156.909 173.306 157.021 172.267 158.454C171.228 159.888 171.832 162.101 173.616 163.396C175.4 164.692 177.689 164.58 178.728 163.146Z" fill="#612A7A"/>
<path d="M178.063 163.404C177.876 163.404 177.669 163.348 177.52 163.217C177.107 162.917 177.014 162.335 177.313 161.904L187.563 147.763L188.294 148.926C191.123 153.408 191.91 156.222 190.748 157.778C189.661 159.26 187.544 158.735 187.3 158.678C186.795 158.547 186.514 158.041 186.645 157.534C186.776 157.028 187.282 156.728 187.788 156.878C188.144 156.972 188.987 157.047 189.249 156.69C189.399 156.503 189.905 155.359 187.432 151.139L178.831 163.01C178.644 163.254 178.363 163.404 178.082 163.404H178.063Z" fill="#612A7A"/>
<path d="M190.33 168.672L66.5086 210.766C54.0839 214.989 47.4327 228.494 51.6528 240.93C55.8728 253.366 69.366 260.023 81.7908 255.799L205.613 213.706C218.037 209.482 224.688 195.977 220.468 183.541C216.248 171.106 202.755 164.449 190.33 168.672Z" fill="white"/>
<path d="M74.1448 258C63.8579 258 54.2269 251.511 50.7417 241.234C46.3571 228.331 53.29 214.266 66.1814 209.877L189.999 167.793C202.89 163.404 216.943 170.343 221.328 183.246C225.712 196.149 218.78 210.215 205.888 214.603L82.0708 256.687C79.4475 257.569 76.7681 258 74.1448 258ZM197.925 168.356C195.489 168.356 193.034 168.749 190.598 169.575L66.781 211.659C61.0098 213.628 56.3442 217.716 53.646 223.192C50.9478 228.669 50.5543 234.858 52.503 240.634C56.5503 252.561 69.5354 258.975 81.4525 254.924L205.27 212.84C217.187 208.789 223.595 195.793 219.548 183.865C216.325 174.357 207.425 168.374 197.925 168.374V168.356Z" fill="#612A7A"/>
<path d="M94.0067 237.127L89.3223 223.567L86.493 237.033L84.132 237.839L73.7889 229.212L78.3422 242.49L73.4329 244.178L65.6943 221.561L70.0227 220.079L83.2889 231.238L86.8115 214.322L91.1024 212.84L98.9159 235.439L94.0067 237.127Z" fill="#8DC63F"/>
<path d="M111.732 213.478C113.606 214.266 114.992 215.953 115.873 218.541L119.264 228.462L114.561 230.075L113.812 227.919C113.418 229.85 111.938 231.275 109.352 232.157C108.022 232.607 106.785 232.776 105.642 232.663C104.499 232.551 103.544 232.176 102.757 231.557C101.97 230.938 101.408 230.113 101.052 229.1C100.508 227.487 100.677 226.006 101.576 224.655C102.476 223.305 104.199 222.199 106.729 221.336L110.739 219.967C110.364 218.879 109.746 218.148 108.865 217.773C108.003 217.397 106.898 217.454 105.549 217.904C104.63 218.223 103.768 218.673 102.963 219.273C102.176 219.873 101.539 220.529 101.089 221.223L98.0723 218.316C98.7843 217.322 99.7586 216.422 100.939 215.597C102.138 214.772 103.431 214.134 104.837 213.647C107.535 212.728 109.802 212.653 111.694 213.44L111.732 213.478ZM111.545 226.943C112.069 226.324 112.35 225.574 112.369 224.693L111.751 222.911L108.303 224.093C106.242 224.805 105.436 225.837 105.905 227.187C106.129 227.825 106.56 228.256 107.197 228.462C107.835 228.669 108.584 228.612 109.465 228.312C110.327 228.012 111.02 227.562 111.545 226.925V226.943Z" fill="#8DC63F"/>
<path d="M125.336 226.062C123.837 226.174 122.581 226.099 121.588 225.855L122.019 221.655C122.956 221.88 124.043 221.973 125.242 221.898C126.441 221.842 127.584 221.617 128.633 221.261C130.769 220.529 131.65 219.629 131.294 218.579C131.125 218.091 130.713 217.829 130.057 217.81C129.402 217.81 128.446 217.922 127.191 218.185C125.692 218.448 124.436 218.616 123.424 218.654C122.413 218.691 121.438 218.466 120.52 217.997C119.602 217.51 118.909 216.628 118.459 215.316C118.084 214.209 118.065 213.121 118.403 212.071C118.74 211.002 119.452 210.027 120.501 209.127C121.551 208.245 122.918 207.514 124.567 206.933C125.785 206.52 127.059 206.22 128.371 206.07C129.683 205.92 130.807 205.939 131.763 206.145L131.313 210.308C129.495 209.971 127.678 210.102 125.86 210.74C124.792 211.115 124.024 211.527 123.593 212.015C123.162 212.503 123.031 212.99 123.181 213.459C123.368 214.003 123.78 214.265 124.436 214.284C125.092 214.303 126.085 214.19 127.415 213.947C128.914 213.703 130.17 213.553 131.163 213.515C132.156 213.478 133.112 213.703 134.03 214.172C134.948 214.659 135.622 215.541 136.053 216.797C136.428 217.885 136.428 218.935 136.053 220.004C135.679 221.073 134.985 222.03 133.899 222.93C132.812 223.83 131.425 224.561 129.739 225.143C128.296 225.63 126.835 225.949 125.336 226.062Z" fill="#8DC63F"/>
<path d="M151.886 216.328C151.512 216.872 151.006 217.341 150.35 217.772C149.694 218.204 148.963 218.56 148.158 218.823C146.097 219.535 144.317 219.554 142.818 218.879C141.319 218.204 140.232 216.854 139.538 214.809L137.103 207.664L134.423 208.583L133.093 204.701L135.772 203.782L134.329 199.543L139.37 197.818L140.813 202.057L145.141 200.575L146.471 204.457L142.143 205.939L144.56 213.009C144.804 213.74 145.197 214.247 145.703 214.509C146.209 214.772 146.809 214.791 147.502 214.566C148.289 214.284 148.907 213.853 149.319 213.215L151.886 216.31V216.328Z" fill="#8DC63F"/>
<path d="M168.882 203.313L155.747 207.814C156.346 208.808 157.208 209.465 158.295 209.783C159.382 210.102 160.6 210.046 161.911 209.596C162.811 209.277 163.579 208.883 164.179 208.377C164.797 207.87 165.284 207.214 165.696 206.426L169.369 208.414C168.376 210.852 166.315 212.596 163.167 213.684C161.199 214.359 159.344 214.566 157.583 214.322C155.822 214.078 154.285 213.403 153.011 212.334C151.737 211.265 150.8 209.858 150.2 208.133C149.619 206.426 149.488 204.757 149.826 203.107C150.163 201.457 150.912 200.012 152.055 198.775C153.198 197.518 154.641 196.599 156.384 195.999C158.089 195.418 159.756 195.249 161.387 195.512C163.017 195.774 164.46 196.449 165.715 197.556C166.97 198.662 167.907 200.106 168.526 201.925C168.544 201.982 168.676 202.451 168.9 203.313H168.882ZM155.185 201.757C154.641 202.676 154.454 203.707 154.679 204.889L163.242 201.963C162.698 200.931 161.911 200.2 160.918 199.825C159.925 199.431 158.857 199.431 157.733 199.825C156.59 200.219 155.747 200.875 155.185 201.775V201.757Z" fill="#8DC63F"/>
<path d="M176.265 189.923C177.145 189.135 178.251 188.516 179.581 188.066L181.174 192.717C180.593 192.867 180.218 192.98 180.012 193.036C178.569 193.524 177.576 194.33 177.033 195.418C176.489 196.505 176.489 197.856 177.033 199.469L179.843 207.683L174.803 209.408L168.863 192.023L173.679 190.373L174.466 192.661C174.784 191.611 175.384 190.692 176.246 189.923H176.265Z" fill="#8DC63F"/>
<path d="M200.511 181.165L198.975 202.3C198.862 204.57 198.356 206.333 197.476 207.552C196.576 208.771 195.302 209.671 193.653 210.233C192.754 210.552 191.817 210.702 190.824 210.74C189.849 210.759 188.987 210.627 188.257 210.308L188.875 206.089C189.381 206.295 189.924 206.426 190.486 206.445C191.049 206.464 191.592 206.389 192.079 206.22C192.772 205.976 193.278 205.62 193.578 205.151C193.897 204.663 194.084 203.988 194.178 203.088V202.901L180.668 187.972L185.858 186.191L194.777 196.318L195.639 182.834L200.474 181.165H200.511Z" fill="#8DC63F"/>
<path d="M202.29 74.8664L188.181 79.8175L182.766 94.4082L177.669 80.1176L163.241 74.8664L177.819 69.4465L182.766 55.3059L188.031 69.7653L202.29 74.8664Z" fill="#612A7A"/>
<path d="M164.553 255.318L164.497 253.987L164.628 252.655C165.34 252.73 165.883 253.33 165.846 254.043C165.808 254.756 165.246 255.318 164.534 255.318H164.553ZM180.648 255.074L180.442 253.762L180.349 252.43C181.061 252.355 181.735 252.88 181.81 253.612C181.885 254.343 181.361 254.999 180.63 255.074H180.648ZM148.776 252.843C148.645 252.843 148.514 252.843 148.401 252.786C147.708 252.58 147.296 251.867 147.464 251.173C147.652 250.48 148.308 250.03 149.02 250.198C149.057 250.198 149.132 250.217 149.169 250.236C149.863 250.442 150.275 251.192 150.05 251.886C149.882 252.468 149.357 252.824 148.776 252.824V252.843ZM196.519 251.211L195.938 250.011L195.526 248.754C196.201 248.529 196.95 248.867 197.212 249.523C197.475 250.18 197.175 250.93 196.538 251.211H196.519ZM133.449 248.36C133.261 248.36 133.093 248.323 132.905 248.248C132.25 247.967 131.931 247.198 132.175 246.541C132.437 245.885 133.13 245.529 133.805 245.754C133.842 245.754 133.936 245.791 133.973 245.81C134.648 246.11 134.948 246.898 134.648 247.573C134.423 248.06 133.936 248.36 133.43 248.36H133.449ZM209.935 243.709C209.523 243.709 209.13 243.522 208.867 243.166C208.436 242.584 208.549 241.778 209.129 241.328C209.129 241.328 209.186 241.29 209.204 241.271C209.804 240.84 210.628 240.99 211.059 241.59C211.49 242.19 211.341 243.015 210.741 243.447C210.497 243.616 210.216 243.691 209.954 243.691L209.935 243.709ZM118.609 242.434C118.421 242.434 118.253 242.397 118.065 242.322C117.391 242.022 117.072 241.234 117.372 240.559C117.672 239.884 118.421 239.583 119.096 239.865H119.152C119.827 240.184 120.126 240.971 119.827 241.646C119.602 242.134 119.115 242.434 118.609 242.434ZM104.237 235.42C104.031 235.42 103.843 235.383 103.656 235.289L104.199 234.07L104.855 232.907C105.492 233.245 105.736 234.051 105.417 234.689C105.174 235.139 104.724 235.401 104.237 235.401V235.42ZM222.564 232.176L221.477 231.425L220.466 230.563C220.934 230.019 221.759 229.925 222.321 230.375C222.883 230.825 222.995 231.632 222.564 232.194V232.176ZM90.3337 227.562C90.1276 227.562 89.9028 227.506 89.6966 227.393L90.2962 226.212L91.0083 225.087C91.6266 225.462 91.8327 226.268 91.4767 226.906C91.2331 227.337 90.7834 227.562 90.3337 227.562ZM76.824 219.048C76.5429 219.048 76.2619 218.954 76.037 218.785C75.4749 218.354 75.3062 217.547 75.7185 216.947C76.112 216.366 76.8989 216.178 77.4985 216.553C77.536 216.572 77.611 216.628 77.6297 216.647C78.2106 217.097 78.3417 217.923 77.892 218.504C77.6297 218.86 77.2362 219.029 76.824 219.029V219.048ZM231.54 218.691L230.322 218.148L229.16 217.491C229.497 216.854 230.303 216.61 230.94 216.929C231.577 217.266 231.839 218.035 231.521 218.691H231.54ZM63.8202 209.727C63.5578 209.727 63.2768 209.652 63.0332 209.464L63.7827 208.377L64.6446 207.364C65.188 207.833 65.2817 208.658 64.832 209.221C64.5697 209.558 64.1762 209.727 63.7827 209.727H63.8202ZM236.692 204.795C236.542 204.795 236.374 204.776 236.224 204.701C235.568 204.438 235.212 203.744 235.437 203.069C235.437 203.032 235.474 202.938 235.493 202.9C235.793 202.225 236.58 201.925 237.254 202.225C237.929 202.525 238.229 203.313 237.929 203.988C237.704 204.495 237.217 204.795 236.692 204.795ZM52.3528 198.643C51.9781 198.643 51.622 198.493 51.3597 198.193L53.3272 196.412L52.3153 197.274L53.3459 196.43C53.8331 196.974 53.7769 197.818 53.2147 198.306C52.9711 198.531 52.6526 198.643 52.3341 198.643H52.3528ZM242.37 188.31L241.058 188.104L239.765 187.785C239.915 187.072 240.608 186.603 241.321 186.734C242.033 186.884 242.501 187.578 242.37 188.291V188.31ZM43.2276 185.553C42.7405 185.553 42.272 185.29 42.0472 184.822C41.7286 184.184 41.9722 183.359 42.6093 183.021C43.2464 182.684 44.0334 182.89 44.3706 183.527C44.3706 183.527 44.4081 183.603 44.4268 183.621C44.7454 184.278 44.4831 185.084 43.8272 185.403C43.6399 185.497 43.4338 185.553 43.2276 185.553ZM243.775 173.719C243.775 173.719 243.681 173.719 243.625 173.719C242.894 173.644 242.37 172.95 242.445 172.219C242.445 172.163 242.464 172.069 242.482 172.012C242.632 171.3 243.363 170.85 244.056 171C244.768 171.15 245.218 171.862 245.068 172.575C244.993 173.25 244.431 173.719 243.775 173.719ZM37.3441 170.681C36.7819 170.681 36.2573 170.325 36.0887 169.743L37.3441 169.312L38.637 169.031C38.7869 169.724 38.3746 170.437 37.6813 170.625C37.5689 170.662 37.4565 170.662 37.3253 170.662L37.3441 170.681ZM245.105 157.759C244.375 157.759 243.775 157.122 243.775 156.39C243.775 156.334 243.775 156.24 243.775 156.184C243.85 155.453 244.525 154.928 245.237 155.003C245.967 155.078 246.492 155.734 246.417 156.465C246.417 157.197 245.818 157.741 245.087 157.741L245.105 157.759ZM35.3392 154.871C34.6084 154.871 34.0088 154.271 34.0088 153.54C34.0088 152.808 34.6084 152.189 35.3392 152.189C36.0699 152.189 36.6695 152.752 36.6695 153.483V153.54C36.6695 154.271 36.0699 154.871 35.3392 154.871ZM245.274 141.725C244.543 141.725 243.944 141.125 243.944 140.393C243.869 139.662 244.393 139.043 245.124 138.968C245.836 138.893 246.511 139.455 246.586 140.187C246.586 140.243 246.586 140.337 246.586 140.393C246.586 141.125 245.986 141.725 245.255 141.725H245.274ZM37.1192 139.005C37.1192 139.005 36.9506 139.005 36.8569 138.987C36.1449 138.837 35.6764 138.143 35.8076 137.43L37.1192 137.636L38.4121 137.955C38.2809 138.593 37.7376 139.024 37.1192 139.024V139.005ZM244.412 125.727C243.738 125.727 243.157 125.24 243.101 124.565C243.101 124.527 243.101 124.415 243.101 124.377C243.101 123.646 243.7 123.046 244.431 123.046C245.162 123.046 245.761 123.646 245.761 124.377C245.761 125.109 245.199 125.69 244.506 125.727C244.487 125.727 244.45 125.727 244.431 125.727H244.412ZM42.4407 123.946C42.2346 123.946 42.0284 123.89 41.8223 123.796C41.1665 123.458 40.9229 122.652 41.2789 121.995L43.6399 123.214L42.4781 122.577L43.6211 123.252C43.3775 123.702 42.9278 123.965 42.4407 123.965V123.946ZM242.632 109.861C241.958 109.861 241.377 109.355 241.321 108.661C241.171 107.949 241.62 107.292 242.332 107.123C243.026 106.973 243.756 107.461 243.925 108.192C243.925 108.249 243.944 108.342 243.963 108.399C244.037 109.13 243.494 109.786 242.782 109.861C242.745 109.861 242.688 109.861 242.651 109.861H242.632ZM238.66 93.0203L239.971 92.7577L238.66 92.9828C238.51 92.2701 238.96 91.5575 239.672 91.4074C240.384 91.2574 241.096 91.7075 241.246 92.4201L238.66 93.0203ZM235.118 77.4356C234.969 76.7417 235.381 76.0291 236.074 75.8415C236.767 75.654 237.479 76.0478 237.685 76.723L236.43 77.1543L235.137 77.4356H235.118ZM231.989 63.07C231.446 63.07 230.94 62.7324 230.753 62.1886C230.753 62.1886 230.734 62.1135 230.715 62.0948C230.509 61.3821 230.902 60.6507 231.596 60.4444C232.308 60.2381 233.039 60.632 233.245 61.3259C233.451 62.0198 233.076 62.7887 232.383 62.995C232.252 63.0325 232.102 63.0512 231.971 63.0512L231.989 63.07ZM71.4088 62.151C70.7343 62.151 70.1534 61.6447 70.0972 60.9508C69.9473 60.2381 70.397 59.5817 71.109 59.4129C71.8211 59.2629 72.5331 59.7505 72.7017 60.4819C72.7017 60.5382 72.7392 60.632 72.7392 60.6882C72.8142 61.4196 72.2708 62.076 71.5587 62.151C71.5213 62.151 71.4651 62.151 71.4276 62.151H71.4088ZM226.668 47.973C226.162 47.973 225.693 47.6916 225.487 47.204C225.487 47.1665 225.431 47.0728 225.412 47.0353C225.188 46.3414 225.562 45.5912 226.256 45.3474C226.949 45.1036 227.698 45.4974 227.942 46.1913C228.167 46.8665 227.83 47.6166 227.174 47.8792C227.005 47.9354 226.836 47.973 226.687 47.973H226.668ZM71.5775 46.2663C71.5775 46.2663 71.4088 46.2663 71.3152 46.2476C70.6031 46.0975 70.1347 45.4036 70.2659 44.691L71.5775 44.8973L72.8704 45.2161C72.7392 45.8537 72.1958 46.2851 71.5775 46.2851V46.2663ZM219.847 32.2383L218.723 32.9322C218.348 32.332 218.498 31.5256 219.079 31.113C219.66 30.7004 220.447 30.813 220.878 31.3943L219.847 32.2383ZM77.9482 31.7132C77.6859 31.7132 77.4423 31.6381 77.2175 31.4881C76.6366 31.0943 76.4492 30.3066 76.824 29.7065L77.9857 30.3629L79.035 31.1693C78.7727 31.5256 78.3605 31.7132 77.9482 31.7132ZM209.242 21.6422C208.942 21.6422 208.642 21.5484 208.399 21.3234L208.343 21.2859C207.799 20.7983 207.743 19.9543 208.211 19.4105C208.699 18.8666 209.542 18.7916 210.085 19.2792C210.628 19.7668 210.703 20.6107 210.235 21.1734C209.973 21.4734 209.598 21.6422 209.223 21.6422H209.242ZM89.0783 20.3294C88.6848 20.3294 88.3101 20.1606 88.0478 19.8418C87.5981 19.2792 87.6543 18.4728 88.1976 18.0039L89.097 18.9791L89.884 20.0481C89.6404 20.2357 89.3594 20.3294 89.0596 20.3294H89.0783ZM195.976 12.8841C195.788 12.8841 195.582 12.8465 195.395 12.7715C195.339 12.7528 195.245 12.6965 195.189 12.659C194.57 12.2652 194.383 11.4587 194.777 10.8211C195.17 10.2022 195.976 10.0147 196.613 10.4085C197.287 10.7086 197.531 11.4587 197.231 12.1339C197.006 12.6215 196.519 12.9028 195.995 12.9028L195.976 12.8841ZM102.813 12.1902C102.307 12.1902 101.839 11.9088 101.614 11.44C101.295 10.7836 101.557 10.0147 102.213 9.67711L102.85 10.8399L103.375 12.0589C103.188 12.1339 103 12.1714 102.813 12.1714V12.1902ZM181.061 7.05154C180.93 7.05154 180.78 7.03278 180.648 6.97652L181.061 5.72L180.63 6.97652C179.918 6.82649 179.506 6.15134 179.637 5.41993C179.768 4.68852 180.536 4.25718 181.248 4.38846C181.304 4.38846 181.398 4.42596 181.454 4.44472C182.147 4.66977 182.522 5.41993 182.297 6.13259C182.11 6.69521 181.585 7.05154 181.042 7.05154H181.061ZM117.822 6.78898C117.203 6.78898 116.641 6.35764 116.529 5.72C116.379 5.00734 116.847 4.29469 117.578 4.16341C118.271 3.93836 118.965 4.31344 119.208 5.0261C119.452 5.73875 119.002 6.48891 118.309 6.71396C118.253 6.71396 118.159 6.77023 118.103 6.77023C118.009 6.77023 117.934 6.78898 117.84 6.78898H117.822ZM165.452 3.75082C165.452 3.75082 165.359 3.75082 165.321 3.75082C165.265 3.75082 165.171 3.73206 165.115 3.71331C164.403 3.56328 163.953 2.85062 164.103 2.13797C164.272 1.42531 164.984 0.975213 165.677 1.12525C166.408 1.20026 166.895 1.8379 166.82 2.56931C166.745 3.26321 166.127 3.75082 165.452 3.75082ZM133.393 3.69456C132.793 3.69456 132.287 3.26321 132.137 2.64433C131.987 1.93167 132.474 1.21902 133.205 1.05023C133.261 1.05023 133.355 1.03147 133.411 1.01272C134.105 0.91895 134.798 1.48157 134.873 2.19423C134.948 2.92564 134.404 3.58203 133.692 3.65705C133.599 3.6758 133.505 3.69456 133.411 3.69456H133.393ZM149.507 2.66308H149.451C148.72 2.66308 148.12 2.06295 148.12 1.33154C148.12 0.600131 148.72 0 149.451 0C150.181 0 150.8 0.600131 150.8 1.33154C150.8 2.06295 150.238 2.66308 149.507 2.66308Z" fill="#612A7A"/>
<path d="M87.1297 209.577C96.2985 209.577 103.731 202.138 103.731 192.961C103.731 183.784 96.2985 176.345 87.1297 176.345C77.961 176.345 70.5283 183.784 70.5283 192.961C70.5283 202.138 77.961 209.577 87.1297 209.577Z" fill="#8DC63F"/>
<path d="M81.5669 189.77V188.51L84.8069 185.45C85.0629 185.218 85.2509 185.01 85.3709 184.826C85.4909 184.642 85.5709 184.474 85.6109 184.322C85.6589 184.17 85.6829 184.03 85.6829 183.902C85.6829 183.566 85.5669 183.31 85.3349 183.134C85.1109 182.95 84.7789 182.858 84.3389 182.858C83.9869 182.858 83.6589 182.926 83.3549 183.062C83.0589 183.198 82.8069 183.41 82.5989 183.698L81.1829 182.786C81.5029 182.306 81.9509 181.926 82.5269 181.646C83.1029 181.366 83.7669 181.226 84.5189 181.226C85.1429 181.226 85.6869 181.33 86.1509 181.538C86.6229 181.738 86.9869 182.022 87.2429 182.39C87.5069 182.758 87.6389 183.198 87.6389 183.71C87.6389 183.982 87.6029 184.254 87.5309 184.526C87.4669 184.79 87.3309 185.07 87.1229 185.366C86.9229 185.662 86.6269 185.994 86.2349 186.362L83.5469 188.894L83.1749 188.186H87.9149V189.77H81.5669Z" fill="#612A7A"/>
</g>
<defs>
<clipPath id="clip0_369_41758">
<rect width="328" height="258" fill="white"/>
</clipPath>
</defs>
</svg>
