<svg width="295" height="258" viewBox="0 0 295 258" fill="none" xmlns="http://www.w3.org/2000/svg">
<g clip-path="url(#clip0_369_44347)">
<path d="M183.918 243.145H183.862C183.134 243.145 182.537 242.548 182.537 241.82C182.537 241.092 183.134 240.495 183.862 240.495C184.59 240.495 185.206 241.092 185.206 241.82C185.206 242.548 184.646 243.145 183.918 243.145ZM199.766 242.66C199.038 242.66 198.44 242.063 198.44 241.335C198.44 240.607 199.038 240.01 199.766 240.01C200.494 240.01 201.072 240.57 201.11 241.26C201.147 241.97 200.643 242.567 199.952 242.641C199.915 242.641 199.803 242.641 199.766 242.641V242.66ZM168.183 241.13C168.183 241.13 167.996 241.13 167.903 241.092C167.865 241.092 167.791 241.074 167.753 241.055C167.063 240.85 166.652 240.103 166.876 239.413C167.081 238.722 167.809 238.33 168.518 238.536C169.209 238.741 169.62 239.45 169.452 240.141C169.302 240.738 168.78 241.13 168.201 241.13H168.183ZM215.501 240.402C214.885 240.402 214.325 239.973 214.213 239.338C214.064 238.629 214.531 237.92 215.259 237.789C215.968 237.659 216.696 238.107 216.845 238.816C216.995 239.525 216.565 240.215 215.856 240.365H215.781C215.688 240.365 215.613 240.383 215.52 240.383L215.501 240.402ZM230.695 235.792C230.135 235.792 229.632 235.438 229.445 234.878C229.221 234.188 229.594 233.441 230.285 233.198C230.957 232.975 231.703 233.31 231.965 233.964C232.226 234.617 231.946 235.363 231.293 235.643C231.255 235.643 231.162 235.699 231.125 235.718C230.994 235.774 230.845 235.792 230.714 235.792H230.695ZM153.306 235.643C153.119 235.643 152.914 235.606 152.727 235.531C152.671 235.513 152.578 235.457 152.522 235.419C151.906 235.027 151.719 234.225 152.111 233.59C152.503 232.975 153.306 232.788 153.94 233.18C154.612 233.478 154.855 234.225 154.556 234.897C154.332 235.382 153.847 235.662 153.324 235.662L153.306 235.643ZM244.583 228.141C244.172 228.141 243.762 227.954 243.5 227.581C243.071 226.984 243.22 226.163 243.799 225.734C244.396 225.323 245.236 225.435 245.666 226.014C246.095 226.592 245.983 227.395 245.404 227.843C245.404 227.843 245.348 227.88 245.33 227.899C245.106 228.066 244.826 228.141 244.564 228.141H244.583ZM139.623 226.126L138.821 227.171C138.242 226.741 138.093 225.939 138.503 225.361C138.895 224.782 139.679 224.595 140.277 224.969L139.623 226.126ZM255.913 217.037C255.652 217.037 255.372 216.963 255.148 216.795C254.551 216.365 254.42 215.544 254.85 214.966L255.951 215.694L256.996 216.515C256.735 216.869 256.324 217.056 255.913 217.056V217.037ZM126.445 216.925C125.941 216.421 125.904 215.6 126.389 215.078C126.874 214.555 127.677 214.499 128.2 214.947L127.378 215.992L126.445 216.925ZM115.469 205.243L116.477 204.385L115.451 205.224C114.965 204.683 115.021 203.843 115.581 203.358C116.123 202.873 116.963 202.929 117.448 203.489L115.488 205.262L115.469 205.243ZM263.343 203.022C263.212 203.022 263.063 203.004 262.932 202.948C262.241 202.724 261.868 201.977 262.092 201.268C262.316 200.578 263.081 200.186 263.772 200.41C264.463 200.634 264.855 201.361 264.612 202.052V202.108C264.407 202.668 263.903 203.022 263.343 203.022ZM106.901 191.639L105.782 192.329C105.408 191.732 105.558 190.929 106.136 190.519C106.715 190.108 107.499 190.22 107.928 190.799L106.901 191.639ZM266.049 187.365C265.359 187.365 264.761 186.824 264.724 186.115C264.687 185.406 265.228 184.752 265.937 184.696C266.665 184.622 267.281 185.144 267.356 185.853C267.356 185.872 267.356 185.947 267.356 185.965C267.393 186.693 266.833 187.309 266.105 187.365C266.087 187.365 266.049 187.365 266.031 187.365H266.049ZM98.7071 179.415C98.2404 179.415 97.7737 179.172 97.5124 178.743C97.4751 178.687 97.4191 178.594 97.4004 178.538C97.1018 177.866 97.4004 177.082 98.0724 176.784C98.7444 176.485 99.5284 176.784 99.827 177.456C100.219 178.071 99.995 178.837 99.379 179.228C99.1737 179.359 98.9497 179.415 98.7257 179.415H98.7071ZM91.6699 165.008C91.1659 165.008 90.6993 164.728 90.4939 164.243C90.4939 164.206 90.4379 164.112 90.4193 164.075C90.1953 163.385 90.5686 162.638 91.2593 162.395C91.9499 162.153 92.6965 162.545 92.9392 163.235C93.1632 163.907 92.8272 164.654 92.1739 164.915C92.0059 164.971 91.8379 165.008 91.6886 165.008H91.6699ZM86.1447 150.06C85.6034 150.06 85.0994 149.724 84.9128 149.183C84.9128 149.183 84.8941 149.108 84.8754 149.09C84.6701 148.38 85.0621 147.653 85.7527 147.447C86.462 147.242 87.19 147.634 87.3954 148.324C87.6007 149.015 87.2274 149.78 86.5367 149.985C86.4061 150.023 86.2567 150.041 86.1261 150.041L86.1447 150.06ZM82.1315 134.645C81.5342 134.645 80.9929 134.253 80.8622 133.638V133.563C80.7129 132.854 81.1795 132.145 81.9075 132.014C82.6355 131.883 83.3261 132.331 83.4568 133.059C83.6061 133.768 83.1395 134.496 82.4302 134.645C82.3368 134.664 82.2435 134.683 82.1502 134.683L82.1315 134.645ZM78.5103 117.738L79.8356 117.607L78.5103 117.7C78.4356 116.973 78.9582 116.319 79.6862 116.245C80.4142 116.151 81.0675 116.693 81.1422 117.42L78.5103 117.756V117.738ZM276.297 106.802C275.569 106.802 274.972 106.205 274.972 105.477C274.972 104.749 275.569 104.133 276.297 104.133C277.025 104.133 277.622 104.693 277.622 105.421V105.477C277.622 106.205 277.025 106.802 276.297 106.802ZM79.4249 103.069C78.6969 103.069 78.0996 102.435 78.0996 101.707C78.0996 101.651 78.0996 101.558 78.0996 101.502C78.1743 100.774 78.8463 100.251 79.5556 100.326C80.2835 100.401 80.8062 101.054 80.7315 101.782C80.7315 102.51 80.1342 103.051 79.4062 103.051L79.4249 103.069ZM275.252 90.9579C274.636 90.9579 274.076 90.4914 273.926 89.8755C273.926 89.8195 273.908 89.7262 273.889 89.6702C273.814 88.9424 274.356 88.2893 275.065 88.2146C275.774 88.1213 276.446 88.6812 276.521 89.3903C276.67 90.0995 276.222 90.7526 275.513 90.9206C275.42 90.9392 275.345 90.9579 275.252 90.9579ZM81.2729 87.1882C81.2729 87.1882 81.1049 87.1882 81.0115 87.1695C80.3022 87.0202 79.8356 86.3484 79.9849 85.6393V85.5646C80.1342 84.8555 80.8435 84.4076 81.5528 84.5569C82.2622 84.7062 82.7102 85.4153 82.5608 86.1245C82.4302 86.7403 81.8702 87.1882 81.2542 87.1882H81.2729ZM271.854 75.3379C271.238 75.3379 270.678 74.9087 270.566 74.2742C270.342 73.5837 270.716 72.8932 271.425 72.6506C272.116 72.408 272.881 72.8559 273.105 73.5464C273.105 73.6024 273.161 73.6957 273.161 73.7517C273.31 74.4608 272.844 75.17 272.116 75.3006C272.022 75.3006 271.948 75.3193 271.854 75.3193V75.3379ZM85.6407 71.9042C85.4914 71.9042 85.3234 71.8855 85.1741 71.8108C84.5208 71.5496 84.1661 70.8591 84.3901 70.1873C84.3901 70.1499 84.4274 70.0566 84.4461 70.0193C84.7448 69.3475 85.5287 69.0489 86.2007 69.3475C86.8727 69.6461 87.1714 70.4299 86.8727 71.1017C86.6487 71.6056 86.1634 71.9042 85.6407 71.9042ZM266.311 60.4085C265.825 60.4085 265.377 60.1472 265.135 59.6806L266.292 59.0461L267.505 58.5236C267.804 59.1768 267.524 59.9606 266.871 60.2778C266.684 60.3711 266.479 60.4085 266.292 60.4085H266.311ZM93.9472 56.9933L92.7712 56.3962L91.6512 55.687C92.0246 55.0712 92.8459 54.8659 93.4619 55.2205C94.0778 55.575 94.3018 56.3588 93.9658 56.9933H93.9472ZM258.489 46.58C258.041 46.58 257.612 46.3561 257.369 45.9642C256.996 45.367 257.145 44.5459 257.724 44.154C258.303 43.7434 259.087 43.8554 259.516 44.4339C259.535 44.4712 259.591 44.5459 259.609 44.5646C260.001 45.1804 259.815 46.0015 259.199 46.3934C258.975 46.524 258.732 46.5987 258.489 46.5987V46.58ZM103.579 44.6765L102.534 43.8554L101.6 42.9223C102.104 42.4184 102.926 42.3811 103.448 42.8663C103.971 43.3515 104.027 44.154 103.579 44.6765ZM114.592 34.7857C114.163 34.7857 113.752 34.5991 113.509 34.2259C113.117 33.6474 113.211 32.8636 113.789 32.4344C113.827 32.4157 113.901 32.3597 113.92 32.341C114.536 31.9491 115.357 32.1358 115.749 32.7516C116.141 33.3674 115.955 34.1886 115.339 34.5805C115.115 34.7111 114.872 34.7857 114.611 34.7857H114.592ZM248.186 34.4498C247.887 34.4498 247.588 34.3379 247.346 34.1326L248.167 33.0875L249.1 32.1544C249.604 32.6583 249.642 33.4794 249.156 34.0019C248.895 34.2819 248.54 34.4312 248.186 34.4312V34.4498ZM128.274 26.7612C127.77 26.7612 127.285 26.4626 127.061 25.9774C126.762 25.3055 127.061 24.5217 127.733 24.2231C128.349 23.8312 129.114 24.0552 129.488 24.671C129.88 25.2869 129.618 26.1453 129.002 26.5186C128.946 26.5559 128.853 26.6119 128.797 26.6305C128.629 26.7052 128.442 26.7425 128.256 26.7425L128.274 26.7612ZM235.642 24.727C235.437 24.727 235.213 24.671 235.007 24.5591L235.605 23.3834L236.314 22.2636C236.93 22.6369 237.135 23.4393 236.781 24.0738C236.538 24.5031 236.09 24.727 235.642 24.727ZM143.095 20.8827C142.535 20.8827 141.994 20.5281 141.807 19.9682C141.583 19.2778 141.938 18.5499 142.629 18.326C142.629 18.326 142.703 18.3073 142.722 18.2887C143.431 18.0834 144.159 18.4753 144.364 19.1658C144.57 19.8749 144.178 20.6027 143.487 20.808C143.357 20.8453 143.226 20.864 143.095 20.864V20.8827ZM221.306 17.9154C221.12 17.9154 220.952 17.8781 220.765 17.8035C220.112 17.5235 219.794 16.7584 220.037 16.1052C220.298 15.4521 220.989 15.0975 221.661 15.3214C221.698 15.3214 221.792 15.3588 221.829 15.3774C222.501 15.676 222.8 16.4598 222.501 17.1316C222.277 17.6168 221.792 17.9154 221.288 17.9154H221.306ZM158.476 16.7584C157.86 16.7584 157.3 16.3292 157.169 15.7133C157.02 15.0042 157.449 14.3137 158.159 14.1644H158.233C158.961 14.0338 159.652 14.4817 159.783 15.2095C159.932 15.9186 159.465 16.6278 158.737 16.7584C158.644 16.7584 158.569 16.7771 158.476 16.7771V16.7584ZM205.888 14.1084C205.795 14.1084 205.701 14.1084 205.608 14.0711C204.88 13.9965 204.395 13.3619 204.47 12.6341C204.544 11.9063 205.216 11.3651 205.963 11.4584C206.019 11.4584 206.112 11.4771 206.168 11.4958C206.877 11.6451 207.325 12.3542 207.176 13.0634C207.045 13.6792 206.485 14.1084 205.888 14.1084ZM174.1 14.0151C173.428 14.0151 172.849 13.5112 172.793 12.8208C172.718 12.0929 173.26 11.4398 173.969 11.3651C174.678 11.1972 175.332 11.6637 175.5 12.3729C175.668 13.082 175.164 13.7912 174.436 13.9591C174.38 13.9591 174.286 13.9778 174.23 13.9965C174.193 13.9965 174.137 13.9965 174.1 13.9965V14.0151ZM190.041 12.97C189.313 12.97 188.697 12.3729 188.697 11.6451C188.697 10.9172 189.257 10.3201 189.985 10.3201H190.041C190.769 10.3201 191.366 10.9172 191.366 11.6451C191.366 12.3729 190.769 12.97 190.041 12.97Z" fill="#612A7A"/>
<path d="M7.97168 45.423V56.8814L18.966 58.449C19.9927 64.0662 22.1766 69.2729 25.2752 73.8077L18.5927 82.7094L26.7125 90.8273L35.5976 84.165C40.1148 87.3002 45.3227 89.521 50.9225 90.566L52.4905 101.595H63.9515L65.5195 90.6034C71.138 89.577 76.3458 87.3935 80.8817 84.2957L89.7855 90.9766L97.9052 82.8587L91.2414 73.9757C94.3773 69.4595 96.5986 64.2529 97.6439 58.6543L108.676 57.0867V45.6283L97.6813 44.0607C96.6546 38.4435 94.4707 33.2369 91.3721 28.702L98.0546 19.8003L89.9348 11.6824L81.0497 18.3447C76.5325 15.2095 71.3246 12.9888 65.7248 11.9437L64.1568 0.914551H52.6958L51.1278 11.9064C45.5093 12.9328 40.3015 15.1162 35.7656 18.2141L26.8618 11.5331L18.7421 19.651L25.4059 28.5341C22.27 33.0502 20.0487 38.2569 19.0034 43.8555L7.97168 45.423ZM58.3143 23.4767C73.6766 23.4767 86.1269 35.9242 86.1269 51.2829C86.1269 66.6416 73.6766 79.089 58.3143 79.089C42.9521 79.089 30.5017 66.6416 30.5017 51.2829C30.5017 35.9242 42.9521 23.4767 58.3143 23.4767Z" fill="white"/>
<path d="M64.7539 102.566H51.6689L50.0636 91.3872C44.8557 90.3234 40.0025 88.2893 35.5973 85.3407L26.6002 92.0776L17.3418 82.8214L24.1176 73.789C21.187 69.3662 19.1898 64.4954 18.1631 59.2888L7.03809 57.7025V44.6206L18.2005 43.0157C19.2644 37.8277 21.299 32.9569 24.2483 28.5527L17.5098 19.5577L26.7682 10.3014L35.8026 17.057C40.2265 14.1271 45.0984 12.1303 50.3062 11.1039L51.8929 -0.0185547H64.9779L66.5831 11.1599C71.7723 12.2236 76.6442 14.2578 81.0494 17.2063L90.0465 10.4694L99.3049 19.7257L92.5291 28.7393C95.4597 33.1622 97.457 38.0329 98.4836 43.2396L109.609 44.8259V57.9078L98.4276 59.5127C97.3636 64.7007 95.329 69.5715 92.3798 73.9756L99.1183 82.9707L89.8598 92.2269L80.8254 85.4713C76.4015 88.4013 71.5297 90.3981 66.3218 91.4245L64.7352 102.547L64.7539 102.566ZM53.2928 100.699H63.1486L64.6979 89.8569L65.3512 89.7449C70.7644 88.7558 75.8229 86.6844 80.3588 83.5865L80.9187 83.2133L89.7105 89.8009L96.673 82.84L90.1025 74.069L90.4945 73.5091C93.6304 68.9743 95.7397 63.9542 96.7477 58.5423L96.8783 57.8891L107.761 56.3402V46.4868L96.9156 44.9378L96.8037 44.2847C95.8143 38.8541 93.7424 33.8154 90.6438 29.2805L90.2705 28.7207L96.8596 19.931L89.8972 12.9701L81.1241 19.5391L80.5641 19.1472C76.0282 16.012 71.007 13.9032 65.5938 12.8954L64.9405 12.7648L63.3912 1.88495H53.5355L51.9862 12.7275L51.3142 12.8395C45.901 13.8285 40.8425 15.9 36.3066 18.9979L35.7466 19.3711L26.9549 12.7835L19.9924 19.7443L26.5629 28.5154L26.1709 29.0753C23.035 33.6101 20.9257 38.6301 19.9177 44.0421L19.7871 44.6952L8.9047 46.2442V56.0976L19.7497 57.6465L19.8617 58.2997C20.851 63.7116 22.923 68.769 26.0216 73.3038L26.3949 73.8637L19.8057 82.6534L26.7682 89.6143L35.5413 83.0453L36.1013 83.4372C40.6185 86.5724 45.6584 88.6812 51.0716 89.6889L51.7249 89.8196L53.2742 100.699H53.2928ZM58.3327 80.0221C42.4851 80.0221 29.5868 67.1268 29.5868 51.2829C29.5868 35.4389 42.4851 22.5436 58.3327 22.5436C74.1803 22.5436 87.0786 35.4389 87.0786 51.2829C87.0786 67.1268 74.1803 80.0221 58.3327 80.0221ZM58.3327 24.4285C43.5118 24.4285 31.4534 36.484 31.4534 51.3015C31.4534 66.119 43.5118 78.1746 58.3327 78.1746C73.1536 78.1746 85.212 66.119 85.212 51.3015C85.212 36.484 73.1536 24.4285 58.3327 24.4285Z" fill="#612A7A"/>
<path d="M199.318 207.184V214.462L206.281 215.451C206.934 219.015 208.315 222.319 210.275 225.193L206.038 230.847L211.19 235.998L216.827 231.78C219.702 233.758 222.987 235.177 226.552 235.848L227.56 242.847H234.84L235.829 235.886C239.395 235.233 242.699 233.852 245.573 231.892L251.229 236.128L256.381 230.978L252.162 225.342C254.141 222.468 255.56 219.183 256.231 215.619L263.231 214.611V207.333L256.269 206.344C255.615 202.78 254.234 199.477 252.274 196.603L256.511 190.948L251.36 185.797L245.722 190.015C242.848 188.037 239.563 186.619 235.997 185.947L234.989 178.948H227.71L226.72 185.909C223.155 186.563 219.851 187.944 216.977 189.903L211.321 185.667L206.169 190.817L210.387 196.453C208.409 199.327 206.99 202.612 206.318 206.176L199.318 207.184ZM231.256 193.262C241 193.262 248.896 201.156 248.896 210.898C248.896 220.639 241 228.533 231.256 228.533C221.512 228.533 213.617 220.639 213.617 210.898C213.617 201.156 221.512 193.262 231.256 193.262Z" fill="white"/>
<path d="M235.642 243.761H226.757L225.731 236.614C222.557 235.942 219.589 234.691 216.864 232.919L211.115 237.229L204.824 230.94L209.155 225.174C207.4 222.449 206.168 219.463 205.515 216.291L198.403 215.283V206.4L205.552 205.374C206.224 202.201 207.475 199.234 209.248 196.509L204.936 190.761L211.227 184.472L216.995 188.802C219.72 187.048 222.707 185.816 225.88 185.163L226.888 178.053H235.773L236.8 185.2C239.973 185.872 242.941 187.122 245.666 188.895L251.415 184.584L257.706 190.873L253.375 196.64C255.13 199.365 256.362 202.35 257.015 205.523L264.127 206.531V215.414L256.978 216.44C256.306 219.613 255.055 222.58 253.282 225.305L257.594 231.052L251.303 237.341L245.535 233.012C242.81 234.766 239.824 235.998 236.65 236.651L235.642 243.761ZM228.362 241.895H234.018L234.989 235.065L235.661 234.953C239.04 234.337 242.213 233.049 245.05 231.108L245.61 230.735L251.154 234.878L255.148 230.884L251.005 225.361L251.397 224.801C253.356 221.964 254.663 218.81 255.298 215.432L255.428 214.779L262.279 213.79V208.136L255.447 207.165L255.335 206.493C254.719 203.097 253.431 199.943 251.49 197.106L251.117 196.547L255.26 191.004L251.266 187.01L245.741 191.153L245.181 190.761C242.343 188.802 239.189 187.477 235.81 186.842L235.157 186.712L234.168 179.863H228.512L227.541 186.693L226.869 186.805C223.472 187.421 220.317 188.709 217.48 190.649L216.92 191.023L211.376 186.861L207.382 190.855L211.526 196.379L211.134 196.939C209.174 199.775 207.867 202.929 207.214 206.307L207.083 206.96L200.233 207.949V213.604L207.064 214.574L207.176 215.246C207.792 218.642 209.08 221.796 211.022 224.633L211.395 225.193L207.251 230.735L211.246 234.729L216.771 230.586L217.331 230.978C220.168 232.937 223.323 234.244 226.701 234.878L227.355 235.009L228.344 241.858L228.362 241.895ZM231.256 229.466C221.008 229.466 212.683 221.143 212.683 210.898C212.683 200.652 221.008 192.329 231.256 192.329C241.503 192.329 249.829 200.652 249.829 210.898C249.829 221.143 241.503 229.466 231.256 229.466ZM231.256 194.195C222.053 194.195 214.55 201.679 214.55 210.898C214.55 220.117 222.035 227.6 231.256 227.6C240.477 227.6 247.962 220.117 247.962 210.898C247.962 201.679 240.477 194.195 231.256 194.195Z" fill="#612A7A"/>
<path d="M295.02 103.723L34.3653 103.723V63.9169L270.716 63.9169C284.118 63.9169 295.001 74.7968 295.001 88.196V103.704L295.02 103.723Z" fill="#612A7A"/>
<path d="M233.552 33.498H48.7758C44.0439 33.498 40.208 37.3331 40.208 42.0638V206.68C40.208 211.411 44.0439 215.246 48.7758 215.246H233.552C238.284 215.246 242.12 211.411 242.12 206.68V42.0638C242.12 37.3331 238.284 33.498 233.552 33.498Z" fill="white"/>
<path d="M233.552 216.179H48.7755C43.5303 216.179 39.2744 211.924 39.2744 206.68V42.0638C39.2744 36.8198 43.5303 32.5649 48.7755 32.5649H233.552C238.797 32.5649 243.053 36.8198 243.053 42.0638V206.68C243.053 211.924 238.797 216.179 233.552 216.179ZM48.7755 34.4311C44.5756 34.4311 41.141 37.8462 41.141 42.0638V206.68C41.141 210.879 44.5569 214.313 48.7755 214.313H233.552C237.77 214.313 241.186 210.898 241.186 206.68V42.0638C241.186 37.8462 237.77 34.4311 233.552 34.4311H48.7755Z" fill="#612A7A"/>
<path d="M188.753 95.5115H210.387C224.05 95.5115 235.138 106.597 235.138 120.257V135.299H188.734C177.758 135.299 168.836 126.378 168.836 115.405C168.836 104.432 177.758 95.5115 188.734 95.5115H188.753Z" fill="#612A7A"/>
<path d="M62.1028 160.679H40.4688C26.8051 160.679 15.7174 149.594 15.7174 135.933V120.892H62.1028C73.0786 120.892 82.001 129.812 82.001 140.785C82.001 151.758 73.0786 160.679 62.1028 160.679Z" fill="#612A7A"/>
<path d="M195.342 134.888H269.502V174.694H216.64C204.88 174.694 195.342 165.157 195.342 153.4V134.907V134.888Z" fill="#612A7A"/>
<path d="M255.204 174.675V77.4095H272.844C285.07 77.4095 295.019 87.3376 295.019 99.5798V150.396C295.019 163.795 284.137 174.675 270.734 174.675H255.223H255.204Z" fill="#612A7A"/>
<path d="M39.8154 63.3943L39.8154 160.66H22.1759C9.94957 160.66 0.000511169 150.732 0.000511169 138.49L0.000511169 87.692C0.000511169 74.2928 10.8829 63.4129 24.2852 63.4129H39.7968L39.8154 63.3943Z" fill="#612A7A"/>
<path d="M187.633 115.218C190.015 115.218 191.945 113.288 191.945 110.908C191.945 108.527 190.015 106.597 187.633 106.597C185.252 106.597 183.321 108.527 183.321 110.908C183.321 113.288 185.252 115.218 187.633 115.218Z" fill="white"/>
<path d="M177.534 123.933C173.969 123.933 171.057 122.776 170.889 122.702C170.404 122.515 170.18 121.974 170.366 121.489C170.553 121.003 171.094 120.78 171.58 120.966C171.636 120.985 177.683 123.373 182.499 121.003C182.966 120.78 183.526 120.966 183.75 121.433C183.974 121.899 183.787 122.459 183.321 122.683C181.417 123.616 179.382 123.933 177.534 123.933Z" fill="white"/>
<path d="M230.061 42.8103H52.3968C49.3866 42.8103 46.9463 45.25 46.9463 48.2596V65.3538C46.9463 68.3634 49.3866 70.8031 52.3968 70.8031H230.061C233.072 70.8031 235.512 68.3634 235.512 65.3538V48.2596C235.512 45.25 233.072 42.8103 230.061 42.8103Z" fill="#D1EDF8"/>
<path d="M213.504 63.2824C213.261 63.2824 213 63.1891 212.813 62.9838C212.459 62.6105 212.496 62.0134 212.869 61.6588L223.752 51.6001C224.125 51.2455 224.723 51.2828 225.077 51.656C225.432 52.0293 225.394 52.6265 225.021 52.981L214.139 63.0398C213.952 63.2077 213.728 63.2824 213.504 63.2824Z" fill="#612A7A"/>
<path d="M224.405 63.2823C224.181 63.2823 223.957 63.2077 223.77 63.0397L212.888 52.981C212.515 52.6264 212.477 52.0479 212.832 51.656C213.187 51.2828 213.765 51.2641 214.157 51.6L225.04 61.6587C225.413 62.0133 225.45 62.5918 225.096 62.9837C224.909 63.189 224.666 63.2823 224.405 63.2823Z" fill="#612A7A"/>
<path d="M200.885 59.2141H191.478V51.3574H200.885V59.2141ZM193.344 57.3479H199.019V53.2236H193.344V57.3479Z" fill="#612A7A"/>
<path d="M197.115 63.2636H187.707V55.407H197.115V63.2636ZM189.574 61.3974H195.248V57.2732H189.574V61.3974Z" fill="#612A7A"/>
<path d="M176.545 63.2636H168.219C167.697 63.2636 167.286 62.8531 167.286 62.3306C167.286 61.808 167.697 61.3975 168.219 61.3975H176.545C177.067 61.3975 177.478 61.808 177.478 62.3306C177.478 62.8531 177.067 63.2636 176.545 63.2636Z" fill="#612A7A"/>
<path d="M110.784 98.9077H69.8122C69.2896 98.9077 68.8789 98.4971 68.8789 97.9746C68.8789 97.4521 69.2896 97.0415 69.8122 97.0415H110.784C111.307 97.0415 111.718 97.4521 111.718 97.9746C111.718 98.4971 111.307 98.9077 110.784 98.9077Z" fill="#612A7A"/>
<path d="M119.521 147.895H70.0739C69.5513 147.895 69.1406 147.485 69.1406 146.962C69.1406 146.44 69.5513 146.029 70.0739 146.029H119.521C120.043 146.029 120.454 146.44 120.454 146.962C120.454 147.485 120.043 147.895 119.521 147.895Z" fill="#612A7A"/>
<path d="M110.784 128.002H69.8122C69.2896 128.002 68.8789 127.591 68.8789 127.069C68.8789 126.546 69.2896 126.135 69.8122 126.135H110.784C111.307 126.135 111.718 126.546 111.718 127.069C111.718 127.591 111.307 128.002 110.784 128.002Z" fill="#612A7A"/>
<path d="M130.72 116.767H70.3913C69.8687 116.767 69.458 116.357 69.458 115.834C69.458 115.311 69.8687 114.901 70.3913 114.901H130.72C131.243 114.901 131.654 115.311 131.654 115.834C131.654 116.357 131.243 116.767 130.72 116.767Z" fill="#612A7A"/>
<path d="M135.2 98.9077H118.083C117.56 98.9077 117.149 98.4971 117.149 97.9746C117.149 97.4521 117.56 97.0415 118.083 97.0415H135.2C135.722 97.0415 136.133 97.4521 136.133 97.9746C136.133 98.4971 135.722 98.9077 135.2 98.9077Z" fill="#612A7A"/>
<path d="M91.6888 107.828H74.572C74.0493 107.828 73.6387 107.418 73.6387 106.895C73.6387 106.372 74.0493 105.962 74.572 105.962H91.6888C92.2115 105.962 92.6222 106.372 92.6222 106.895C92.6222 107.418 92.2115 107.828 91.6888 107.828Z" fill="#612A7A"/>
<path d="M155.359 116.767H138.242C137.719 116.767 137.309 116.357 137.309 115.834C137.309 115.311 137.719 114.901 138.242 114.901H155.359C155.881 114.901 156.292 115.311 156.292 115.834C156.292 116.357 155.881 116.767 155.359 116.767Z" fill="#612A7A"/>
<path d="M169.452 116.767H161.78C161.257 116.767 160.847 116.357 160.847 115.834C160.847 115.311 161.257 114.901 161.78 114.901H169.452C169.974 114.901 170.385 115.311 170.385 115.834C170.385 116.357 169.974 116.767 169.452 116.767Z" fill="#612A7A"/>
<path d="M77.8199 137.799H70.1482C69.6255 137.799 69.2148 137.388 69.2148 136.866C69.2148 136.343 69.6255 135.933 70.1482 135.933H77.8199C78.3426 135.933 78.7532 136.343 78.7532 136.866C78.7532 137.388 78.3426 137.799 77.8199 137.799Z" fill="#612A7A"/>
<path d="M82.7104 158.42H70.82C70.2974 158.42 69.8867 158.01 69.8867 157.487C69.8867 156.965 70.2974 156.554 70.82 156.554H82.7104C83.233 156.554 83.6437 156.965 83.6437 157.487C83.6437 158.01 83.233 158.42 82.7104 158.42Z" fill="#612A7A"/>
<path d="M102.926 158.42H91.0358C90.5132 158.42 90.1025 158.01 90.1025 157.487C90.1025 156.965 90.5132 156.554 91.0358 156.554H102.926C103.449 156.554 103.859 156.965 103.859 157.487C103.859 158.01 103.449 158.42 102.926 158.42Z" fill="#612A7A"/>
<path d="M79.071 168.535H71.0632C70.5405 168.535 70.1299 168.125 70.1299 167.602C70.1299 167.08 70.5405 166.669 71.0632 166.669H79.071C79.5936 166.669 80.0043 167.08 80.0043 167.602C80.0043 168.125 79.5936 168.535 79.071 168.535Z" fill="#612A7A"/>
<path d="M78.0622 91.2378H70.0544C69.5317 91.2378 69.1211 90.8272 69.1211 90.3047C69.1211 89.7821 69.5317 89.3716 70.0544 89.3716H78.0622C78.5848 89.3716 78.9955 89.7821 78.9955 90.3047C78.9955 90.8272 78.5848 91.2378 78.0622 91.2378Z" fill="#612A7A"/>
<path d="M231.61 217.504L222.93 204.851L228.866 200.876L207.008 187.608L211.376 212.633L218.021 208.173L226.719 220.863L231.61 217.504Z" fill="#612A7A"/>
<path d="M166.596 156.386L159.521 158.868L156.796 166.184L154.239 159.018L146.996 156.386L154.313 153.662L156.796 146.57L159.428 153.83L166.596 156.386Z" fill="#612A7A"/>
<path d="M79.4062 190.071L72.3131 192.553L69.6065 199.868L67.0306 192.702L59.7881 190.071L67.1239 187.346L69.6065 180.273L72.2384 187.514L79.4062 190.071Z" fill="#612A7A"/>
<path d="M173.49 185.351L71.0119 210.421C58.3146 213.528 50.5402 226.337 53.6472 239.031C56.7542 251.725 69.5661 259.498 82.2633 256.392L184.741 231.321C197.438 228.215 205.213 215.406 202.106 202.712C198.999 190.018 186.187 182.245 173.49 185.351Z" fill="white"/>
<path d="M76.6438 258C65.5748 258 55.4951 250.461 52.7511 239.245C51.1832 232.863 52.2098 226.256 55.6071 220.639C59.0043 215.022 64.3988 211.066 70.7826 209.517L173.26 184.435C186.438 181.207 199.785 189.306 202.995 202.481C204.563 208.864 203.536 215.47 200.139 221.087C196.742 226.704 191.347 230.661 184.964 232.21L82.4863 257.291C80.5264 257.776 78.5664 258 76.6438 258ZM179.102 185.592C177.31 185.592 175.518 185.798 173.708 186.245L71.2306 211.327C65.3321 212.764 60.3483 216.422 57.1937 221.61C54.0391 226.798 53.1058 232.9 54.5431 238.797C57.5297 250.965 69.8493 258.467 82.0383 255.462L184.516 230.381C190.414 228.944 195.398 225.286 198.553 220.098C201.707 214.91 202.64 208.808 201.203 202.91C198.665 192.553 189.35 185.574 179.121 185.574L179.102 185.592Z" fill="#612A7A"/>
<path d="M93.4616 235.456L94.5069 239.749L76.606 244.134L70.9502 221.031L88.4217 216.757L89.467 221.05L77.3154 224.017L78.5473 229.037L89.2804 226.405L90.307 230.567L79.574 233.198L80.8806 238.554L93.4616 235.475V235.456Z" fill="#8DC63F"/>
<path d="M109.478 236.072L104.251 231.575L101.563 238.013L95.9446 239.394L100.592 228.776L91.8193 221.572L97.6059 220.154L102.646 224.409L105.24 218.288L110.728 216.944L106.248 227.245L115.339 234.636L109.496 236.072H109.478Z" fill="#8DC63F"/>
<path d="M128.703 213.473C130.234 213.902 131.559 214.705 132.679 215.899C133.78 217.075 134.564 218.586 135.012 220.415C135.46 222.244 135.46 223.942 135.031 225.51C134.602 227.077 133.799 228.402 132.623 229.485C131.466 230.567 130.047 231.332 128.386 231.724C126.127 232.284 124.167 232.004 122.506 230.884L124.541 239.17L119.389 240.439L113.472 216.272L118.381 215.059L118.885 217.112C119.781 215.264 121.461 214.033 123.906 213.436C125.549 213.025 127.154 213.044 128.685 213.473H128.703ZM129.394 225.584C130.029 224.483 130.159 223.196 129.786 221.684C129.413 220.191 128.703 219.09 127.639 218.418C126.575 217.728 125.381 217.56 124.055 217.877C122.73 218.194 121.759 218.903 121.125 220.004C120.49 221.106 120.359 222.393 120.733 223.905C121.106 225.398 121.815 226.499 122.879 227.171C123.943 227.861 125.138 228.029 126.463 227.712C127.789 227.395 128.759 226.685 129.394 225.584Z" fill="#8DC63F"/>
<path d="M156.105 216.795L142.665 220.079C143.169 221.124 143.953 221.852 145.017 222.263C146.081 222.673 147.276 222.729 148.62 222.393C149.553 222.169 150.337 221.833 150.972 221.385C151.625 220.938 152.185 220.34 152.652 219.594L156.123 221.889C154.91 224.222 152.708 225.771 149.497 226.555C147.5 227.04 145.633 227.096 143.897 226.685C142.161 226.275 140.705 225.491 139.529 224.297C138.353 223.121 137.551 221.647 137.121 219.893C136.692 218.157 136.729 216.477 137.215 214.891C137.7 213.305 138.559 211.924 139.809 210.786C141.06 209.647 142.572 208.863 144.364 208.434C146.1 208.005 147.761 208.005 149.366 208.397C150.953 208.807 152.334 209.61 153.473 210.804C154.612 211.999 155.414 213.529 155.881 215.376C155.881 215.451 155.974 215.918 156.123 216.776L156.105 216.795ZM142.646 214.033C142.012 214.891 141.751 215.899 141.863 217.093L150.617 214.947C150.169 213.865 149.46 213.081 148.508 212.614C147.556 212.129 146.492 212.036 145.353 212.316C144.196 212.596 143.281 213.174 142.665 214.033H142.646Z" fill="#8DC63F"/>
<path d="M164.617 204.179C165.551 203.489 166.708 202.966 168.071 202.63L169.228 207.389C168.649 207.482 168.257 207.557 168.052 207.613C166.577 207.968 165.513 208.677 164.879 209.703C164.244 210.73 164.132 212.073 164.524 213.715L166.577 222.095L161.425 223.364L157.076 205.598L162.004 204.385L162.583 206.736C162.993 205.728 163.665 204.87 164.599 204.179H164.617Z" fill="#8DC63F"/>
<path d="M187.428 216.104C187.017 216.608 186.457 217.037 185.766 217.411C185.076 217.784 184.329 218.064 183.508 218.269C181.398 218.792 179.625 218.642 178.206 217.858C176.788 217.056 175.817 215.619 175.313 213.529L173.521 206.232L170.777 206.904L169.807 202.948L172.551 202.276L171.487 197.946L176.638 196.677L177.702 201.007L182.126 199.924L183.097 203.881L178.673 204.963L180.446 212.204C180.633 212.95 180.969 213.473 181.454 213.79C181.94 214.107 182.537 214.182 183.246 213.995C184.068 213.79 184.702 213.417 185.169 212.82L187.446 216.104H187.428Z" fill="#8DC63F"/>
<path d="M123.234 201.772L109.179 206.699L103.784 221.218L98.7069 207.016L84.334 201.772L98.8563 196.379L103.784 182.326L109.029 196.696L123.234 201.772Z" fill="#612A7A"/>
<path d="M90.5691 60.1099L84.2412 77.5774H79.3694L75.4495 66.7348L71.3803 77.5774H66.5084L60.1992 60.1099H64.9778L69.103 71.9228L73.3962 60.1099H77.6894L81.852 71.9228L86.1079 60.1099H90.5877H90.5691Z" fill="#8DC63F"/>
<path d="M120.585 60.1099L114.257 77.5774H109.385L105.465 66.7348L101.396 77.5774H96.524L90.2148 60.1099H94.9934L99.1186 71.9228L103.412 60.1099H107.705L111.868 71.9228L116.123 60.1099H120.603H120.585Z" fill="#8DC63F"/>
<path d="M150.581 60.1099L144.253 77.5774H139.381L135.461 66.7348L131.392 77.5774H126.52L120.211 60.1099H124.989L129.115 71.9228L133.408 60.1099H137.701L141.864 71.9228L146.12 60.1099H150.599H150.581Z" fill="#8DC63F"/>
<path d="M35.6155 135.821C36.2315 136.101 36.6981 136.493 37.0341 136.997C37.3701 137.501 37.5381 138.116 37.5381 138.807C37.5381 139.497 37.3701 140.095 37.0341 140.617C36.6981 141.14 36.2315 141.532 35.6155 141.793C34.9995 142.073 34.2715 142.203 33.4502 142.203H31.5462V144.797H29.3623V135.392H33.4315C34.2715 135.392 34.9808 135.522 35.5968 135.802L35.6155 135.821ZM34.8128 140.02C35.1488 139.74 35.3168 139.329 35.3168 138.807C35.3168 138.284 35.1488 137.874 34.8128 137.594C34.4768 137.314 33.9728 137.165 33.3195 137.165H31.5462V140.431H33.3195C33.9728 140.431 34.4768 140.281 34.8128 140.001V140.02Z" fill="white"/>
<path d="M46.1989 137.594L42.9323 145.283C42.5963 146.122 42.1857 146.701 41.7004 147.037C41.215 147.373 40.6177 147.541 39.9271 147.541C39.5538 147.541 39.1804 147.485 38.8071 147.373C38.4338 147.261 38.1351 147.093 37.9111 146.888L38.6764 145.395C38.8444 145.544 39.0311 145.656 39.2364 145.731C39.4418 145.805 39.6471 145.861 39.8711 145.861C40.1511 145.861 40.3937 145.787 40.5804 145.656C40.7671 145.507 40.9164 145.283 41.0657 144.965V144.891L37.9485 137.594H40.1137L42.1484 142.502L44.2016 137.594H46.2176H46.1989Z" fill="white"/>
<path d="M57.3427 145.842C57.0441 146.216 56.6708 146.514 56.2414 146.701C55.8121 146.906 55.3268 147 54.8042 147C54.0948 147 53.4789 146.85 52.9002 146.552C52.3216 146.253 51.6869 145.712 50.9589 144.965C50.1003 144.853 49.3536 144.592 48.6817 144.144C48.0097 143.696 47.487 143.137 47.1137 142.446C46.7404 141.756 46.5537 140.972 46.5537 140.132C46.5537 139.199 46.7777 138.378 47.2257 137.631C47.6737 136.885 48.2897 136.306 49.0736 135.896C49.8576 135.467 50.7349 135.261 51.7242 135.261C52.7135 135.261 53.5722 135.467 54.3562 135.896C55.1401 136.325 55.7561 136.903 56.2041 137.631C56.6521 138.359 56.8761 139.199 56.8761 140.132C56.8761 141.233 56.5774 142.185 55.9615 143.006C55.3455 143.827 54.5242 144.406 53.5162 144.723C53.7402 144.947 53.9642 145.115 54.1695 145.227C54.3748 145.32 54.5988 145.376 54.8602 145.376C55.4388 145.376 55.9615 145.152 56.3908 144.667L57.3614 145.824L57.3427 145.842ZM49.167 141.681C49.4283 142.147 49.7643 142.502 50.2123 142.745C50.6603 143.006 51.1642 143.137 51.7242 143.137C52.2842 143.137 52.7882 143.006 53.2362 142.745C53.6842 142.483 54.0388 142.129 54.3002 141.681C54.5615 141.214 54.6922 140.71 54.6922 140.113C54.6922 139.516 54.5615 139.012 54.3002 138.546C54.0388 138.079 53.6842 137.725 53.2362 137.482C52.7882 137.239 52.2842 137.09 51.7242 137.09C51.1642 137.09 50.6603 137.221 50.2123 137.482C49.7643 137.743 49.4096 138.098 49.167 138.546C48.9056 139.012 48.775 139.516 48.775 140.113C48.775 140.71 48.9056 141.214 49.167 141.681Z" fill="white"/>
<path d="M60.3295 137.183H57.3242V135.41H65.5373V137.183H62.5134V144.816H60.3295V137.183Z" fill="white"/>
<path d="M144.215 200.466C153.349 200.466 160.753 193.063 160.753 183.931C160.753 174.799 153.349 167.397 144.215 167.397C135.081 167.397 127.677 174.799 127.677 183.931C127.677 193.063 135.081 200.466 144.215 200.466Z" fill="#8DC63F"/>
<path d="M148.825 183.987C149.516 184.734 149.852 185.648 149.852 186.749C149.852 187.608 149.628 188.373 149.18 189.101C148.732 189.81 148.06 190.388 147.145 190.817C146.23 191.247 145.11 191.471 143.804 191.471C142.777 191.471 141.769 191.34 140.761 191.06C139.772 190.78 138.913 190.407 138.223 189.903L139.529 187.309C140.089 187.72 140.724 188.055 141.452 188.279C142.18 188.503 142.927 188.615 143.692 188.615C144.532 188.615 145.204 188.447 145.689 188.13C146.174 187.813 146.417 187.346 146.417 186.749C146.417 185.555 145.502 184.958 143.692 184.958H142.143V182.718L145.148 179.322H138.932V176.616H149.161V178.799L145.857 182.55C147.145 182.755 148.116 183.241 148.806 183.987H148.825Z" fill="#612A7A"/>
</g>
<defs>
<clipPath id="clip0_369_44347">
<rect width="295" height="258" fill="white"/>
</clipPath>
</defs>
</svg>
