<svg width="341" height="258" viewBox="0 0 341 258" fill="none" xmlns="http://www.w3.org/2000/svg">
<path d="M289.455 36.0637H60.9144C53.3219 36.0637 47.167 42.2186 47.167 49.8111V226.398C47.167 233.99 53.3219 240.145 60.9144 240.145H289.455C297.047 240.145 303.202 233.99 303.202 226.398V49.8111C303.202 42.2186 297.047 36.0637 289.455 36.0637Z" fill="white"/>
<path d="M289.455 241.2H60.9149C52.755 241.2 46.1133 234.558 46.1133 226.398V49.7902C46.1133 41.6303 52.755 34.9885 60.9149 34.9885H289.476C297.636 34.9885 304.278 41.6303 304.278 49.7902V226.398C304.278 234.558 297.636 241.2 289.476 241.2H289.455ZM60.9149 37.1181C53.9147 37.1181 48.2218 42.8111 48.2218 49.8113V226.398C48.2218 233.398 53.9147 239.091 60.9149 239.091H289.476C296.476 239.091 302.169 233.398 302.169 226.398V49.7902C302.169 42.79 296.476 37.097 289.476 37.097H60.9149V37.1181Z" fill="#612A7A"/>
<path d="M254.895 213.03C254.073 213.03 253.377 212.355 253.377 211.533C253.377 210.711 254.009 210.036 254.832 210.036H254.895C255.717 210.036 256.392 210.711 256.392 211.533C256.392 212.355 255.717 213.03 254.895 213.03ZM236.909 213.03C236.087 213.03 235.391 212.355 235.391 211.533C235.391 210.711 236.024 210.036 236.846 210.036H236.909C237.732 210.036 238.407 210.711 238.407 211.533C238.407 212.355 237.732 213.03 236.909 213.03ZM218.924 213.03C218.102 213.03 217.406 212.355 217.406 211.533C217.406 210.711 218.038 210.036 218.861 210.036H218.924C219.746 210.036 220.421 210.711 220.421 211.533C220.421 212.355 219.746 213.03 218.924 213.03ZM211.734 202.234C210.912 202.234 210.237 201.56 210.237 200.737C210.237 199.915 210.912 199.219 211.734 199.219C212.556 199.219 213.231 199.852 213.231 200.674V200.737C213.231 201.56 212.556 202.234 211.734 202.234ZM261.031 201.201C260.208 201.201 259.534 200.569 259.534 199.746V199.683C259.534 198.861 260.208 198.186 261.031 198.186C261.853 198.186 262.528 198.861 262.528 199.683C262.528 200.505 261.853 201.201 261.031 201.201ZM211.734 184.249C210.912 184.249 210.237 183.574 210.237 182.752C210.237 181.93 210.912 181.234 211.734 181.234C212.556 181.234 213.231 181.866 213.231 182.689V182.752C213.231 183.574 212.556 184.249 211.734 184.249ZM261.031 183.216C260.208 183.216 259.534 182.583 259.534 181.761V181.698C259.534 180.875 260.208 180.201 261.031 180.201C261.853 180.201 262.528 180.875 262.528 181.698C262.528 182.52 261.853 183.216 261.031 183.216ZM211.734 166.263C210.912 166.263 210.237 165.589 210.237 164.766C210.237 163.944 210.912 163.248 211.734 163.248C212.556 163.248 213.231 163.881 213.231 164.703V164.766C213.231 165.589 212.556 166.263 211.734 166.263ZM261.031 165.23C260.208 165.23 259.534 164.598 259.534 163.775V163.712C259.534 162.89 260.208 162.215 261.031 162.215C261.853 162.215 262.528 162.89 262.528 163.712C262.528 164.535 261.853 165.23 261.031 165.23ZM211.734 148.278C210.912 148.278 210.237 147.603 210.237 146.781C210.237 145.959 210.912 145.263 211.734 145.263C212.556 145.263 213.231 145.895 213.231 146.718V146.781C213.231 147.603 212.556 148.278 211.734 148.278ZM261.031 147.245C260.208 147.245 259.534 146.612 259.534 145.79V145.727C259.534 144.904 260.208 144.23 261.031 144.23C261.853 144.23 262.528 144.904 262.528 145.727C262.528 146.549 261.853 147.245 261.031 147.245ZM211.734 130.293C210.912 130.293 210.237 129.618 210.237 128.795C210.237 127.973 210.912 127.277 211.734 127.277C212.556 127.277 213.231 127.91 213.231 128.732V128.795C213.231 129.618 212.556 130.293 211.734 130.293ZM261.031 129.259C260.208 129.259 259.534 128.627 259.534 127.804V127.741C259.534 126.919 260.208 126.244 261.031 126.244C261.853 126.244 262.528 126.919 262.528 127.741C262.528 128.564 261.853 129.259 261.031 129.259ZM261.031 111.274C260.208 111.274 259.534 110.641 259.534 109.819V109.756C259.534 108.933 260.208 108.259 261.031 108.259C261.853 108.259 262.528 108.933 262.528 109.756C262.528 110.578 261.853 111.274 261.031 111.274ZM253.82 100.521H253.756C252.934 100.521 252.259 99.8458 252.259 99.0235C252.259 98.2012 252.934 97.5264 253.756 97.5264C254.579 97.5264 255.274 98.2012 255.274 99.0235C255.274 99.8458 254.642 100.521 253.82 100.521ZM235.834 100.521H235.771C234.949 100.521 234.274 99.8458 234.274 99.0235C234.274 98.2012 234.949 97.5264 235.771 97.5264C236.593 97.5264 237.289 98.2012 237.289 99.0235C237.289 99.8458 236.656 100.521 235.834 100.521ZM217.849 100.521H217.785C216.963 100.521 216.288 99.8458 216.288 99.0235C216.288 98.2012 216.963 97.5264 217.785 97.5264C218.608 97.5264 219.304 98.2012 219.304 99.0235C219.304 99.8458 218.671 100.521 217.849 100.521ZM199.863 100.521H199.8C198.978 100.521 198.303 99.8458 198.303 99.0235C198.303 98.2012 198.978 97.5264 199.8 97.5264C200.622 97.5264 201.318 98.2012 201.318 99.0235C201.318 99.8458 200.685 100.521 199.863 100.521ZM181.878 100.521H181.814C180.992 100.521 180.317 99.8458 180.317 99.0235C180.317 98.2012 180.992 97.5264 181.814 97.5264C182.637 97.5264 183.333 98.2012 183.333 99.0235C183.333 99.8458 182.7 100.521 181.878 100.521ZM163.892 100.521H163.829C163.007 100.521 162.332 99.8458 162.332 99.0235C162.332 98.2012 163.007 97.5264 163.829 97.5264C164.651 97.5264 165.347 98.2012 165.347 99.0235C165.347 99.8458 164.714 100.521 163.892 100.521ZM145.907 100.521H145.843C145.021 100.521 144.346 99.8458 144.346 99.0235C144.346 98.2012 145.021 97.5264 145.843 97.5264C146.666 97.5264 147.362 98.2012 147.362 99.0235C147.362 99.8458 146.729 100.521 145.907 100.521ZM127.921 100.521H127.858C127.036 100.521 126.361 99.8458 126.361 99.0235C126.361 98.2012 127.036 97.5264 127.858 97.5264C128.68 97.5264 129.376 98.2012 129.376 99.0235C129.376 99.8458 128.743 100.521 127.921 100.521ZM109.936 100.521H109.872C109.05 100.521 108.375 99.8458 108.375 99.0235C108.375 98.2012 109.05 97.5264 109.872 97.5264C110.695 97.5264 111.391 98.2012 111.391 99.0235C111.391 99.8458 110.758 100.521 109.936 100.521ZM94.8388 97.6108C94.0165 97.6108 93.3418 96.9782 93.3418 96.1559V96.0927C93.3418 95.2704 94.0165 94.5956 94.8388 94.5956C95.6611 94.5956 96.3359 95.2704 96.3359 96.0927C96.3359 96.915 95.6611 97.6108 94.8388 97.6108ZM94.8388 79.6253C94.0165 79.6253 93.3418 78.9927 93.3418 78.1704V78.1072C93.3418 77.2849 94.0165 76.6101 94.8388 76.6101C95.6611 76.6101 96.3359 77.2849 96.3359 78.1072C96.3359 78.9295 95.6611 79.6253 94.8388 79.6253ZM339.277 72.1823C338.455 72.1823 337.759 71.5076 337.759 70.6853C337.759 69.8629 338.392 69.1882 339.214 69.1882H339.277C340.099 69.1882 340.774 69.8629 340.774 70.6853C340.774 71.5076 340.099 72.1823 339.277 72.1823ZM321.292 72.1823C320.469 72.1823 319.773 71.5076 319.773 70.6853C319.773 69.8629 320.406 69.1882 321.228 69.1882H321.292C322.114 69.1882 322.789 69.8629 322.789 70.6853C322.789 71.5076 322.114 72.1823 321.292 72.1823ZM303.306 72.1823C302.484 72.1823 301.788 71.5076 301.788 70.6853C301.788 69.8629 302.421 69.1882 303.243 69.1882H303.306C304.128 69.1882 304.803 69.8629 304.803 70.6853C304.803 71.5076 304.128 72.1823 303.306 72.1823ZM285.321 72.1823C284.498 72.1823 283.802 71.5076 283.802 70.6853C283.802 69.8629 284.435 69.1882 285.257 69.1882H285.321C286.143 69.1882 286.818 69.8629 286.818 70.6853C286.818 71.5076 286.143 72.1823 285.321 72.1823ZM267.335 72.1823C266.513 72.1823 265.817 71.5076 265.817 70.6853C265.817 69.8629 266.45 69.1882 267.272 69.1882H267.335C268.157 69.1882 268.832 69.8629 268.832 70.6853C268.832 71.5076 268.157 72.1823 267.335 72.1823ZM249.35 72.1823C248.527 72.1823 247.831 71.5076 247.831 70.6853C247.831 69.8629 248.464 69.1882 249.286 69.1882H249.35C250.172 69.1882 250.847 69.8629 250.847 70.6853C250.847 71.5076 250.172 72.1823 249.35 72.1823ZM231.364 72.1823C230.542 72.1823 229.846 71.5076 229.846 70.6853C229.846 69.8629 230.479 69.1882 231.301 69.1882H231.364C232.186 69.1882 232.861 69.8629 232.861 70.6853C232.861 71.5076 232.186 72.1823 231.364 72.1823ZM213.379 72.1823C212.556 72.1823 211.861 71.5076 211.861 70.6853C211.861 69.8629 212.493 69.1882 213.315 69.1882H213.379C214.201 69.1882 214.876 69.8629 214.876 70.6853C214.876 71.5076 214.201 72.1823 213.379 72.1823ZM195.393 72.1823C194.571 72.1823 193.875 71.5076 193.875 70.6853C193.875 69.8629 194.508 69.1882 195.33 69.1882H195.393C196.215 69.1882 196.89 69.8629 196.89 70.6853C196.89 71.5076 196.215 72.1823 195.393 72.1823ZM177.408 72.1823C176.585 72.1823 175.89 71.5076 175.89 70.6853C175.89 69.8629 176.522 69.1882 177.344 69.1882H177.408C178.23 69.1882 178.905 69.8629 178.905 70.6853C178.905 71.5076 178.23 72.1823 177.408 72.1823ZM159.422 72.1823C158.6 72.1823 157.904 71.5076 157.904 70.6853C157.904 69.8629 158.537 69.1882 159.359 69.1882H159.422C160.244 69.1882 160.919 69.8629 160.919 70.6853C160.919 71.5076 160.244 72.1823 159.422 72.1823ZM141.437 72.1823C140.614 72.1823 139.919 71.5076 139.919 70.6853C139.919 69.8629 140.551 69.1882 141.373 69.1882H141.437C142.259 69.1882 142.934 69.8629 142.934 70.6853C142.934 71.5076 142.259 72.1823 141.437 72.1823ZM123.451 72.1823C122.629 72.1823 121.933 71.5076 121.933 70.6853C121.933 69.8629 122.566 69.1882 123.388 69.1882H123.451C124.273 69.1882 124.948 69.8629 124.948 70.6853C124.948 71.5076 124.273 72.1823 123.451 72.1823ZM105.466 72.1823C104.643 72.1823 103.948 71.5076 103.948 70.6853C103.948 69.8629 104.58 69.1882 105.402 69.1882H105.466C106.288 69.1882 106.963 69.8629 106.963 70.6853C106.963 71.5076 106.288 72.1823 105.466 72.1823Z" fill="#612A7A"/>
<path d="M174.963 212.144H75.6318V185.788H137.748V124.431H95.2831V154.14H1.05425C0.46387 154.14 0 153.676 0 153.085C0 152.495 0.46387 152.031 1.05425 152.031H93.1745V122.322H139.857V187.897H77.7403V210.036H172.876V127.657H211.735C212.326 127.657 212.79 128.121 212.79 128.711C212.79 129.301 212.326 129.765 211.735 129.765H174.984V212.144H174.963Z" fill="#612A7A"/>
<path d="M89.4422 154.561C89.4422 154.561 80.6498 146.739 84.0655 142.838C87.4813 138.937 90.8971 147.245 90.8971 147.245C90.8971 147.245 84.5505 128.669 91.382 130.63C98.2136 132.591 96.7587 147.245 96.7587 147.245C96.7587 147.245 107.027 135.037 107.512 140.413C107.997 145.79 102.62 154.097 98.7196 155.067C94.8189 156.037 89.4422 154.582 89.4422 154.582V154.561Z" fill="#8DC63F"/>
<path d="M256.477 145.326C256.477 145.326 247.685 137.503 251.101 133.603C254.516 129.702 257.932 138.009 257.932 138.009C257.932 138.009 251.586 119.434 258.417 121.395C265.249 123.355 263.794 138.009 263.794 138.009C263.794 138.009 274.062 125.801 274.547 131.178C275.032 136.555 269.655 144.862 265.755 145.832C261.854 146.802 256.477 145.347 256.477 145.347V145.326Z" fill="#8DC63F"/>
<path d="M213.253 214.59C218.353 214.59 222.488 210.455 222.488 205.355C222.488 200.254 218.353 196.12 213.253 196.12C208.152 196.12 204.018 200.254 204.018 205.355C204.018 210.455 208.152 214.59 213.253 214.59Z" fill="#D1EDF8"/>
<path d="M260.568 179.758C265.669 179.758 269.803 175.623 269.803 170.523C269.803 165.422 265.669 161.287 260.568 161.287C255.468 161.287 251.333 165.422 251.333 170.523C251.333 175.623 255.468 179.758 260.568 179.758Z" fill="#D1EDF8"/>
<path d="M112.193 79.9834C117.294 79.9834 121.428 75.8486 121.428 70.7482C121.428 65.6477 117.294 61.5129 112.193 61.5129C107.093 61.5129 102.958 65.6477 102.958 70.7482C102.958 75.8486 107.093 79.9834 112.193 79.9834Z" fill="#D1EDF8"/>
<path d="M260.674 111.759C265.774 111.759 269.909 107.624 269.909 102.523C269.909 97.4228 265.774 93.2881 260.674 93.2881C255.573 93.2881 251.438 97.4228 251.438 102.523C251.438 107.624 255.573 111.759 260.674 111.759Z" fill="#D1EDF8"/>
<path d="M198.051 75.7241C203.151 75.7241 207.286 71.5894 207.286 66.4889C207.286 61.3884 203.151 57.2537 198.051 57.2537C192.95 57.2537 188.815 61.3884 188.815 66.4889C188.815 71.5894 192.95 75.7241 198.051 75.7241Z" fill="#D1EDF8"/>
<path d="M209.881 149.775L203.956 148.004L204.293 147.456C204.293 147.456 206.465 143.934 207.33 141.763C208.384 139.127 207.836 134.741 207.836 134.699L208.806 134.573C208.827 134.763 209.375 139.254 208.236 142.121C207.54 143.871 206.107 146.338 205.453 147.414L210.155 148.826L209.881 149.775Z" fill="#612A7A"/>
<path d="M221.499 149.585L215.279 147.835V147.434C215.279 147.434 215.49 145.115 215.363 142.248C215.237 139.127 214.394 134.657 214.394 134.615L215.363 134.425C215.406 134.615 216.228 139 216.354 142.205C216.439 144.419 216.354 146.317 216.333 147.118L221.794 148.636L221.541 149.585H221.499Z" fill="#612A7A"/>
<path d="M232.99 132.295L232.821 132.211C232.315 131.958 220.529 125.654 219.77 117.473L220.739 117.388C221.393 124.536 231.64 130.44 233.095 131.241L236.532 130.25L236.806 131.199L232.99 132.295Z" fill="#612A7A"/>
<path d="M219.811 113.425H202.648C201.018 113.425 199.696 114.746 199.696 116.376V133.54C199.696 135.17 201.018 136.492 202.648 136.492H219.811C221.442 136.492 222.763 135.17 222.763 133.54V116.376C222.763 114.746 221.442 113.425 219.811 113.425Z" fill="#612A7A"/>
<path d="M219.495 134.741H206.465C205.052 134.741 203.893 133.582 203.893 132.169V119.139C203.893 117.726 205.052 116.566 206.465 116.566H219.495C220.908 116.566 222.068 117.726 222.068 119.139V132.169C222.068 133.582 220.908 134.741 219.495 134.741ZM206.465 117.241C205.411 117.241 204.567 118.105 204.567 119.139V132.169C204.567 133.223 205.411 134.067 206.465 134.067H219.495C220.55 134.067 221.393 133.202 221.393 132.169V119.139C221.393 118.084 220.55 117.241 219.495 117.241H206.465Z" fill="#6553A3"/>
<path d="M211.041 108.406C211.146 115.722 199.655 115.722 199.76 108.406C199.655 101.089 211.146 101.089 211.041 108.406Z" fill="white"/>
<path d="M205.411 114.247C204.251 114.247 203.091 113.951 202.122 113.382C200.371 112.349 199.402 110.599 199.444 108.406C199.402 106.234 200.371 104.484 202.122 103.451C204.103 102.291 206.739 102.291 208.721 103.451C210.471 104.484 211.441 106.234 211.399 108.406C211.42 110.578 210.471 112.349 208.721 113.361C207.73 113.93 206.57 114.225 205.432 114.225L205.411 114.247ZM205.411 103.261C204.378 103.261 203.344 103.514 202.459 104.041C200.92 104.948 200.076 106.487 200.118 108.427C200.097 110.367 200.92 111.906 202.459 112.813C204.23 113.846 206.613 113.846 208.363 112.813C209.902 111.906 210.745 110.367 210.703 108.427C210.724 106.487 209.902 104.948 208.363 104.041C207.477 103.514 206.444 103.261 205.411 103.261Z" fill="#6553A3"/>
<path d="M222.679 108.406C222.784 115.722 211.293 115.722 211.398 108.406C211.293 101.089 222.784 101.089 222.679 108.406Z" fill="white"/>
<path d="M217.048 114.247C215.889 114.247 214.729 113.951 213.759 113.382C212.009 112.349 211.039 110.599 211.081 108.406C211.039 106.234 212.009 104.484 213.759 103.451C215.741 102.291 218.377 102.291 220.359 103.451C222.109 104.484 223.079 106.234 223.037 108.406C223.058 110.578 222.109 112.349 220.359 113.361C219.368 113.93 218.208 114.225 217.07 114.225L217.048 114.247ZM217.048 103.261C216.015 103.261 214.982 103.514 214.097 104.041C212.557 104.948 211.714 106.487 211.756 108.427C211.735 110.367 212.557 111.906 214.097 112.813C215.868 113.846 218.25 113.846 220 112.813C221.54 111.906 222.383 110.367 222.341 108.427C222.362 106.487 221.54 104.948 220 104.041C219.115 103.514 218.082 103.261 217.048 103.261Z" fill="#6553A3"/>
<path d="M220.193 108.406C220.214 111.211 217.663 110.958 217.747 108.406C217.642 105.855 220.235 105.581 220.193 108.406Z" fill="#612A7A"/>
<path d="M218.823 108.406C218.823 108.659 218.359 108.849 217.789 108.87C217.747 108.575 217.747 108.237 217.789 107.942C218.359 107.942 218.823 108.153 218.823 108.406Z" fill="white"/>
<path d="M208.575 108.406C208.596 111.211 206.045 110.958 206.129 108.406C206.024 105.855 208.617 105.581 208.575 108.406Z" fill="#612A7A"/>
<path d="M207.183 108.406C207.183 108.659 206.719 108.849 206.15 108.87C206.108 108.575 206.108 108.237 206.15 107.942C206.719 107.942 207.183 108.153 207.183 108.406Z" fill="white"/>
<path d="M206.906 115.702L215.172 115.069C215.973 115.006 216.458 115.955 215.931 116.566C215.256 117.325 214.244 118.148 212.873 118.527C211.355 118.949 208.762 118.211 206.653 117.431C205.747 117.093 205.936 115.744 206.906 115.681V115.702Z" fill="#FFD441"/>
<path d="M194.826 135.226L191.938 131.705L192.317 131.389C194.953 129.28 199.676 118.801 199.718 118.696L200.603 119.096C200.414 119.518 196.133 129.027 193.287 131.832L195.564 134.594L194.805 135.205L194.826 135.226Z" fill="#612A7A"/>
<path d="M209.9 119.666H212.431V128.563H217.934V130.63H209.9V119.666Z" fill="white"/>
<path d="M232.336 12.7017C229.11 7.47262 222.975 10.045 222.279 13.0601C221.583 10.045 215.447 7.47262 212.221 12.7017C206.739 21.6206 222.279 29.1691 222.279 29.1691C222.279 29.1691 237.839 21.5996 232.336 12.7017Z" fill="#612A7A"/>
<path d="M252.852 26.5332L249.584 21.9577L246.21 26.5332H241.487L247.222 19.0058L241.677 11.605H246.527L249.689 15.9696L252.936 11.605H257.533L251.988 18.9004L257.765 26.5332H252.852Z" fill="#612A7A"/>
<path d="M279.778 16.9396C280.685 17.9306 281.128 19.1535 281.128 20.6084C281.128 21.747 280.832 22.7802 280.242 23.729C279.652 24.6778 278.745 25.4369 277.543 26.0062C276.341 26.5755 274.844 26.8706 273.094 26.8706C271.724 26.8706 270.374 26.6809 269.067 26.3224C267.76 25.964 266.621 25.458 265.693 24.7832L267.443 21.3464C268.181 21.8946 269.046 22.3374 270.016 22.6326C270.986 22.9488 271.977 23.0964 272.989 23.0964C274.127 23.0964 275.013 22.8856 275.645 22.4428C276.299 22 276.615 21.3885 276.615 20.5873C276.615 19.0059 275.414 18.2047 272.989 18.2047H270.944V15.2317L274.929 10.7195H266.663V7.11401H280.263V10.0237L275.877 15.0209C277.585 15.295 278.893 15.9275 279.799 16.9185L279.778 16.9396Z" fill="#612A7A"/>
<path d="M130.685 23.1598L49.9716 2.5387C46.5137 1.65313 43.0347 3.57186 42.2124 6.81895L37.405 25.6268C36.5827 28.8738 38.7123 32.2053 42.1702 33.0908L56.1706 36.6542C56.4236 39.2477 58.3424 41.567 61.1678 42.2839C63.9931 43.0008 66.7974 41.8833 68.2523 39.7326L122.905 53.6909C126.363 54.5764 129.842 52.6577 130.664 49.4106L135.471 30.6028C136.294 27.3557 134.164 24.0243 130.706 23.1387L130.685 23.1598Z" fill="#612A7A"/>
<path d="M60.5127 17.4243L63.1483 18.0991L60.829 27.1656L58.1934 26.4909L60.5127 17.4243ZM61.082 15.7797C60.8501 15.4213 60.7868 15.0417 60.8922 14.62C60.9977 14.1983 61.2507 13.9032 61.6091 13.6923C61.9887 13.4815 62.4104 13.4393 62.8953 13.5658C63.3803 13.6923 63.7387 13.9242 63.9706 14.2616C64.2026 14.62 64.2658 14.9785 64.1604 15.4002C64.055 15.843 63.802 16.1592 63.4224 16.3701C63.0429 16.5809 62.6212 16.6231 62.1362 16.4966C61.6513 16.3701 61.2928 16.1382 61.0609 15.7797H61.082Z" fill="white"/>
<path d="M68.4199 19.6382L70.7392 20.2286L70.2121 22.2527L67.956 21.6834L66.2059 28.5361L63.5703 27.8613L65.3204 21.0087L63.9288 20.6503L64.4559 18.6261L65.8475 18.9846L65.9529 18.584C66.227 17.5508 66.7331 16.8128 67.4921 16.3489C68.2512 15.9062 69.2 15.8218 70.3175 16.0959C70.7181 16.2014 71.0766 16.3279 71.4139 16.5176C71.7513 16.6863 72.0043 16.8972 72.2152 17.108L71.0344 18.837C70.7814 18.5418 70.4651 18.352 70.0434 18.2466C69.2422 18.0357 68.7361 18.3731 68.5042 19.2587L68.3988 19.6382H68.4199Z" fill="white"/>
<path d="M70.8032 46.5003L34.8533 55.2295C34.5581 57.8019 32.6183 60.079 29.814 60.7748C27.0097 61.4706 24.2265 60.311 22.7927 58.1603L8.34947 61.6604C5.10238 62.4405 3.09931 65.7298 3.87945 68.9769L8.45489 87.848C9.23504 91.095 12.5243 93.0981 15.7714 92.318L29.0549 89.092C30.4044 91.4113 33.1243 92.6764 35.8443 92.0228C38.5643 91.3691 40.4197 88.9655 40.5462 86.3088L78.2251 77.1579C81.4722 76.3777 83.4753 73.0885 82.6951 69.8414L78.1197 50.9703C77.3395 47.7232 74.0503 45.7202 70.8032 46.5003Z" fill="#612A7A"/>
<path d="M33.3558 78.5282C33.145 78.7812 32.8498 79.0132 32.5124 79.2029C32.154 79.3927 31.7745 79.5403 31.3528 79.6457C30.2774 79.8987 29.3708 79.8355 28.6328 79.4138C27.9159 79.0132 27.4099 78.2752 27.1568 77.1998L26.2502 73.4678L24.8375 73.8052L24.3525 71.781L25.7652 71.4436L25.2381 69.2297L27.8737 68.5972L28.4219 70.8111L30.678 70.2629L31.163 72.287L28.8858 72.8353L29.7925 76.5462C29.8768 76.9257 30.0455 77.1998 30.2985 77.3685C30.5515 77.5372 30.8467 77.5583 31.2052 77.474C31.6269 77.3685 31.9431 77.1788 32.1962 76.8836L33.3558 78.5704V78.5282Z" fill="white"/>
<path d="M41.1993 68.3865C42.0638 68.8925 42.6541 69.8202 42.9704 71.1486L44.2355 76.3566L41.5999 76.9891L40.4402 72.1818C40.2715 71.4649 39.9763 70.9588 39.5757 70.6847C39.1751 70.4106 38.6691 70.3474 38.0787 70.495C37.404 70.6636 36.9401 71.001 36.6449 71.507C36.3497 72.0131 36.3075 72.6667 36.4973 73.489L37.5937 77.9801L34.9581 78.6127L31.9219 66.0671L34.5575 65.4346L35.6328 69.8202C35.9069 69.3775 36.2654 69.019 36.7082 68.7027C37.151 68.4076 37.6781 68.1756 38.2685 68.028C39.386 67.7539 40.377 67.8804 41.2414 68.3865H41.1993Z" fill="white"/>
<path d="M54.6726 69.7992L47.7989 71.465C48.0519 71.9921 48.4526 72.3716 49.0008 72.5825C49.549 72.7933 50.1604 72.8144 50.8563 72.6457C51.3201 72.5403 51.7418 72.3505 52.0581 72.1186C52.3955 71.8867 52.6696 71.5915 52.9226 71.1909L54.6937 72.3716C54.0823 73.5524 52.9437 74.3536 51.299 74.7542C50.2659 75.0072 49.317 75.0283 48.4315 74.8175C47.5459 74.6066 46.8079 74.206 46.1965 73.5946C45.6061 72.9831 45.1844 72.224 44.9735 71.3385C44.7627 70.4529 44.7627 69.5884 45.0157 68.7661C45.2687 67.9438 45.7115 67.248 46.3441 66.6576C46.9766 66.0883 47.7568 65.6877 48.6845 65.4557C49.5701 65.2449 50.4345 65.2449 51.2358 65.4557C52.0581 65.6666 52.7539 66.0672 53.3443 66.6998C53.9347 67.3323 54.3353 68.0914 54.5672 69.0402C54.5672 69.0824 54.6094 69.3143 54.6937 69.7571L54.6726 69.7992ZM47.7989 68.3655C47.4827 68.8083 47.3351 69.3143 47.3983 69.9258L51.8683 68.8293C51.6364 68.2811 51.2779 67.8805 50.793 67.6275C50.308 67.3745 49.7598 67.3323 49.1694 67.4799C48.5791 67.6275 48.1152 67.9227 47.7778 68.3444L47.7989 68.3655Z" fill="white"/>
<path d="M63.6758 62.9468C64.5403 63.4529 65.1306 64.3806 65.4469 65.709L66.712 70.917L64.0764 71.5495L62.9167 66.7421C62.748 66.0252 62.4529 65.5192 62.0522 65.2451C61.6516 64.971 61.1456 64.9077 60.5552 65.0553C59.8805 65.224 59.4166 65.5614 59.1214 66.0674C58.8262 66.5734 58.7841 67.2271 58.9738 68.0494L60.0702 72.5405L57.4346 73.173L55.2207 64.0643L57.7509 63.4529L58.0039 64.5071C58.2569 64.0432 58.6154 63.6426 59.0793 63.3053C59.5431 62.9679 60.0913 62.736 60.7028 62.5673C61.8203 62.2932 62.8324 62.4197 63.6758 62.9257V62.9468Z" fill="white"/>
<path d="M74.5574 83.5889L29.794 100.942C29.9838 103.577 28.4867 106.15 25.8933 107.162C23.2998 108.174 20.4533 107.288 18.8087 105.201L6.03121 110.156C2.91063 111.358 1.35034 114.879 2.57327 118L9.59457 136.112C10.7964 139.232 14.3176 140.792 17.4382 139.57L85.9644 113.002C89.085 111.801 90.6453 108.279 89.4223 105.159L82.401 87.0468C81.1992 83.9263 77.678 82.366 74.5574 83.5889Z" fill="#8DC63F"/>
<path d="M34.2208 117.747L27.6212 120.298C27.9585 120.804 28.4013 121.121 28.9495 121.247C29.5188 121.395 30.1303 121.331 30.7839 121.078C31.2267 120.91 31.6062 120.678 31.9225 120.404C32.2177 120.13 32.4707 119.792 32.6605 119.392L34.5792 120.319C34.1153 121.585 33.1032 122.512 31.5219 123.124C30.5309 123.503 29.5821 123.651 28.6965 123.566C27.7898 123.482 27.0097 123.166 26.335 122.639C25.6602 122.112 25.1542 121.416 24.8168 120.551C24.4795 119.687 24.3951 118.843 24.5217 118C24.6482 117.157 25.0066 116.398 25.5759 115.744C26.1452 115.09 26.8621 114.584 27.7266 114.247C28.57 113.91 29.4134 113.804 30.2568 113.91C31.1002 114.015 31.8381 114.331 32.4918 114.858C33.1454 115.386 33.6515 116.102 34.0099 117.03C34.0099 117.072 34.0942 117.304 34.2208 117.726V117.747ZM27.1995 117.241C26.9464 117.726 26.8621 118.253 27.0097 118.843L31.311 117.178C31.0158 116.651 30.5941 116.313 30.0881 116.123C29.561 115.955 29.0338 115.976 28.4646 116.187C27.8953 116.419 27.4736 116.756 27.1995 117.241Z" fill="white"/>
<path d="M32.7021 108.701L35.2323 107.71L39.8921 119.749L37.3619 120.74L32.7021 108.701Z" fill="white"/>
<path d="M43.0142 118.38C42.2552 118.464 41.6226 118.464 41.0955 118.337L41.2431 116.187C41.728 116.292 42.2762 116.313 42.8877 116.25C43.4992 116.187 44.0685 116.06 44.5956 115.849C45.6709 115.428 46.0926 114.964 45.9029 114.437C45.8185 114.184 45.5866 114.057 45.2492 114.078C44.9119 114.078 44.4269 114.163 43.7944 114.331C43.0353 114.5 42.4028 114.605 41.8756 114.647C41.3485 114.69 40.8635 114.584 40.3786 114.373C39.8936 114.141 39.5352 113.72 39.2822 113.045C39.0713 112.497 39.0292 111.949 39.1978 111.379C39.3454 110.831 39.6828 110.325 40.2099 109.84C40.737 109.355 41.4118 108.955 42.2341 108.638C42.8455 108.406 43.4992 108.238 44.1528 108.132C44.8275 108.027 45.3968 108.027 45.8818 108.111L45.7342 110.241C44.8064 110.093 43.8787 110.22 42.972 110.557C42.4238 110.768 42.0443 111 41.8335 111.253C41.6226 111.506 41.5594 111.759 41.6648 111.991C41.7702 112.265 41.9811 112.391 42.3184 112.391C42.6558 112.391 43.1618 112.307 43.8365 112.159C44.5956 112.012 45.2281 111.906 45.7342 111.864C46.2402 111.822 46.7252 111.928 47.2101 112.138C47.6951 112.349 48.0535 112.792 48.2855 113.425C48.4963 113.973 48.5174 114.5 48.3487 115.069C48.18 115.617 47.8427 116.123 47.3156 116.608C46.7884 117.072 46.0926 117.494 45.2281 117.81C44.5113 118.084 43.7522 118.274 42.9931 118.358L43.0142 118.38Z" fill="white"/>
<path d="M57.962 108.554L51.3624 111.105C51.6997 111.611 52.1425 111.927 52.7118 112.054C53.2811 112.201 53.8926 112.138 54.5462 111.885C54.989 111.716 55.3685 111.484 55.6848 111.21C55.98 110.936 56.233 110.599 56.4228 110.198L58.3415 111.126C57.8776 112.391 56.8655 113.319 55.2842 113.93C54.2932 114.31 53.3444 114.457 52.4588 114.373C51.5732 114.289 50.772 113.973 50.0762 113.445C49.4015 112.918 48.8954 112.222 48.5581 111.358C48.2207 110.494 48.1364 109.65 48.2629 108.807C48.4105 107.963 48.7478 107.204 49.3171 106.551C49.8864 105.897 50.6033 105.391 51.4678 105.054C52.3323 104.716 53.1757 104.611 53.998 104.716C54.8203 104.822 55.5794 105.138 56.233 105.665C56.8866 106.192 57.3927 106.909 57.7511 107.837C57.7511 107.879 57.8355 108.111 57.962 108.533V108.554ZM50.9407 108.048C50.6876 108.512 50.6033 109.06 50.7509 109.65L55.0522 107.984C54.757 107.457 54.3353 107.12 53.8293 106.93C53.3022 106.761 52.7751 106.761 52.2058 106.993C51.6365 107.225 51.2148 107.563 50.9407 108.048Z" fill="white"/>
<path d="M239.44 218.238H313.638L292.153 160.57C290.993 157.45 286.586 157.344 285.3 160.423L268.727 199.999L259.998 187.601C258.375 185.282 254.854 185.598 253.652 188.149L239.44 218.238Z" fill="#612A7A"/>
<path d="M175.322 72.3089C175.322 72.3089 166.53 64.4863 169.945 60.5856C173.361 56.6849 176.777 64.9924 176.777 64.9924C176.777 64.9924 170.43 46.4165 177.262 48.3774C184.093 50.3383 182.639 64.9924 182.639 64.9924C182.639 64.9924 192.907 52.7842 193.392 58.1609C193.877 63.5375 188.5 71.845 184.599 72.8149C180.699 73.7848 175.322 72.33 175.322 72.33V72.3089Z" fill="#8DC63F"/>
<path d="M124.591 58.8566C121.302 58.8566 117.97 58.3295 114.723 57.233C98.6988 51.8353 90.0539 34.3769 95.4517 18.3523C96.8855 14.1353 99.1416 10.3611 102.178 7.13512C102.705 6.58691 103.569 6.56583 104.118 7.07187C104.666 7.59899 104.708 8.46348 104.181 9.01169C101.419 11.9425 99.3735 15.3794 98.0662 19.2168C93.1534 33.8076 101.018 49.6846 115.609 54.5974C124.823 57.6969 134.817 55.8625 142.324 49.6635C142.914 49.1786 143.778 49.2629 144.263 49.8533C144.748 50.4437 144.664 51.3082 144.074 51.7931C138.465 56.4107 131.591 58.8355 124.591 58.8355V58.8566Z" fill="#612A7A"/>
<path d="M144.452 55.2506C144.304 55.2506 144.157 55.2296 144.009 55.1874C143.292 54.9344 142.892 54.1542 143.145 53.4373L144.157 50.4433L141.289 49.4734C140.572 49.2203 140.172 48.4402 140.425 47.7233C140.678 47.0064 141.458 46.6058 142.175 46.8588L147.657 48.7143L145.759 54.3229C145.569 54.8922 145.021 55.2717 144.452 55.2717V55.2506Z" fill="#612A7A"/>
<path d="M147.299 47.3649C147.046 47.3649 146.814 47.3017 146.582 47.1541C145.929 46.7535 145.718 45.9101 146.119 45.2564C147.194 43.4853 148.079 41.5876 148.754 39.6267C153.667 25.0359 145.802 9.15893 131.211 4.24613C124.19 1.88461 116.684 2.36957 110.021 5.61665C109.346 5.95401 108.503 5.65882 108.166 4.9841C107.828 4.30938 108.123 3.46598 108.798 3.12862C116.094 -0.434739 124.359 -0.982948 132.076 1.63159C148.101 7.02935 156.745 24.4877 151.348 40.5123C150.61 42.6841 149.64 44.7715 148.459 46.7113C148.206 47.133 147.742 47.3649 147.278 47.3649H147.299Z" fill="#612A7A"/>
<path d="M110.822 8.48429C110.675 8.48429 110.527 8.4632 110.38 8.42103L104.897 6.56556L106.795 0.956949C107.048 0.24006 107.828 -0.160555 108.545 0.0924648C109.262 0.345485 109.663 1.12563 109.41 1.84252L108.398 4.83659L111.265 5.8065C111.982 6.05952 112.383 6.83966 112.13 7.55655C111.94 8.12584 111.392 8.50537 110.822 8.50537V8.48429Z" fill="#612A7A"/>
<path d="M163.714 199.796L102.928 214.85C92.3256 217.476 85.8591 228.2 88.485 238.802C91.1108 249.405 101.835 255.871 112.437 253.245L173.223 238.191C183.826 235.565 190.292 224.842 187.666 214.239C185.041 203.636 174.317 197.17 163.714 199.796Z" fill="#8DC63F"/>
<path d="M111.117 225.343L104.813 226.903L103.885 223.193L121.069 218.933L121.997 222.644L115.692 224.205L119.656 240.208L115.102 241.347L111.138 225.343H111.117Z" fill="white"/>
<path d="M139.728 228.506L128.258 231.353C128.701 232.238 129.376 232.871 130.282 233.208C131.189 233.567 132.201 233.588 133.361 233.314C134.141 233.124 134.816 232.829 135.364 232.449C135.912 232.07 136.397 231.543 136.798 230.91L139.771 232.871C138.759 234.853 136.861 236.181 134.12 236.877C132.412 237.299 130.809 237.341 129.334 237.004C127.858 236.666 126.614 235.991 125.601 234.979C124.589 233.967 123.915 232.723 123.535 231.226C123.177 229.75 123.198 228.316 123.598 226.946C123.999 225.575 124.737 224.416 125.812 223.446C126.867 222.476 128.174 221.801 129.692 221.422C131.168 221.063 132.602 221.042 133.951 221.38C135.301 221.717 136.481 222.392 137.472 223.425C138.442 224.437 139.138 225.744 139.539 227.326C139.539 227.389 139.623 227.789 139.75 228.527L139.728 228.506ZM128.237 226.187C127.71 226.925 127.478 227.789 127.562 228.801L135.026 226.946C134.647 226.018 134.035 225.365 133.213 224.964C132.391 224.563 131.505 224.479 130.514 224.711C129.523 224.964 128.764 225.449 128.216 226.187H128.237Z" fill="white"/>
<path d="M145.676 233.503C144.389 233.503 143.335 233.334 142.513 233.039L143.188 229.518C143.968 229.792 144.874 229.94 145.908 229.961C146.941 230.003 147.911 229.898 148.817 229.666C150.673 229.202 151.495 228.506 151.263 227.599C151.158 227.156 150.82 226.925 150.272 226.861C149.724 226.798 148.902 226.84 147.805 226.967C146.519 227.093 145.444 227.114 144.579 227.072C143.715 227.03 142.913 226.777 142.154 226.292C141.416 225.828 140.889 225.006 140.615 223.867C140.383 222.918 140.447 221.991 140.805 221.105C141.184 220.22 141.838 219.46 142.808 218.786C143.778 218.111 144.959 217.584 146.414 217.225C147.489 216.951 148.585 216.804 149.703 216.783C150.82 216.762 151.79 216.867 152.57 217.099L151.875 220.578C150.356 220.156 148.817 220.135 147.236 220.536C146.287 220.768 145.633 221.063 145.212 221.464C144.811 221.843 144.664 222.244 144.769 222.644C144.874 223.108 145.212 223.382 145.781 223.446C146.329 223.509 147.194 223.488 148.332 223.382C149.618 223.277 150.694 223.256 151.537 223.298C152.381 223.34 153.182 223.593 153.899 224.078C154.616 224.563 155.143 225.343 155.417 226.461C155.649 227.41 155.586 228.295 155.185 229.181C154.805 230.045 154.131 230.825 153.14 231.5C152.17 232.175 150.926 232.681 149.45 233.06C148.185 233.377 146.92 233.524 145.655 233.503H145.676Z" fill="white"/>
<path d="M168.869 227.241C168.51 227.663 168.046 228.042 167.456 228.359C166.866 228.675 166.233 228.907 165.537 229.096C163.724 229.539 162.227 229.434 161.004 228.759C159.781 228.084 158.959 226.861 158.516 225.069L156.977 218.849L154.636 219.418L153.793 216.045L156.133 215.454L155.227 211.765L159.612 210.668L160.519 214.358L164.293 213.43L165.137 216.804L161.362 217.732L162.881 223.91C163.049 224.542 163.323 225.006 163.745 225.259C164.167 225.533 164.673 225.575 165.263 225.428C165.959 225.259 166.507 224.922 166.908 224.437L168.848 227.241H168.869Z" fill="white"/>
<path d="M27.9792 213.009L21.9489 215.138L19.6084 221.38L17.4367 215.265L11.2588 213.009L17.4999 210.69L19.6084 204.638L21.8645 210.837L27.9792 213.009Z" fill="#612A7A"/>
<path d="M330.866 113.952L324.815 116.081L322.496 122.322L320.303 116.208L314.125 113.952L320.387 111.632L322.496 105.581L324.752 111.78L330.866 113.952Z" fill="#612A7A"/>
<path d="M54.1044 182.625L42.107 186.842L37.4894 199.24L33.167 187.095L20.8955 182.625L33.2935 178.029L37.4894 166.031L41.9594 178.303L54.1044 182.625Z" fill="#612A7A"/>
</svg>
