<svg width="253" height="258" viewBox="0 0 253 258" fill="none" xmlns="http://www.w3.org/2000/svg">
<path d="M204.619 23.7432H38.6962C36.3328 23.7432 34.417 25.659 34.417 28.0223V203.585C34.417 205.949 36.3328 207.864 38.6962 207.864H204.619C206.982 207.864 208.898 205.949 208.898 203.585V28.0223C208.898 25.659 206.982 23.7432 204.619 23.7432Z" fill="white"/>
<path d="M204.618 208.697H38.6957C35.8818 208.697 33.584 206.399 33.584 203.585V28.0224C33.584 25.2084 35.8818 22.9106 38.6957 22.9106H204.618C207.432 22.9106 209.73 25.2084 209.73 28.0224V203.585C209.73 206.399 207.432 208.697 204.618 208.697ZM38.6957 24.5757C36.7975 24.5757 35.249 26.1242 35.249 28.0224V203.585C35.249 205.483 36.7975 207.032 38.6957 207.032H204.618C206.516 207.032 208.065 205.483 208.065 203.585V28.0224C208.065 26.1242 206.516 24.5757 204.618 24.5757H38.6957Z" fill="#612A7A"/>
<path d="M110.244 88.7819L56.6464 88.8941C54.0991 88.8995 52.0385 90.9688 52.0438 93.516L52.1204 130.064C52.1257 132.611 54.195 134.672 56.7422 134.666L110.34 134.554C112.887 134.549 114.948 132.479 114.943 129.932L114.866 93.3844C114.861 90.8372 112.792 88.7766 110.244 88.7819Z" fill="white"/>
<path d="M56.7262 135.502C53.7291 135.502 51.2981 133.071 51.2815 130.074L51.1982 93.509C51.1982 90.5119 53.6292 88.0643 56.6263 88.0643L110.224 87.9478C113.221 87.9478 115.652 90.3787 115.652 93.3758L115.736 129.94C115.736 131.389 115.17 132.754 114.154 133.787C113.138 134.819 111.773 135.385 110.308 135.385L56.6929 135.502H56.7262ZM110.258 89.6128L56.6596 89.7294C54.5783 89.7294 52.8966 91.4277 52.8966 93.509L52.9798 130.074C52.9798 132.155 54.6782 133.837 56.7595 133.837L110.374 133.72C111.39 133.72 112.322 133.32 113.038 132.604C113.754 131.888 114.137 130.939 114.137 129.94L114.054 93.3758C114.054 91.2945 112.356 89.6128 110.291 89.6128H110.258Z" fill="#612A7A"/>
<path d="M68.2506 107.079C71.4876 107.079 74.1116 104.455 74.1116 101.218C74.1116 97.9815 71.4876 95.3574 68.2506 95.3574C65.0137 95.3574 62.3896 97.9815 62.3896 101.218C62.3896 104.455 65.0137 107.079 68.2506 107.079Z" fill="#8DC63F"/>
<path d="M56.5781 121.149V129.457L110.309 129.341C110.309 129.341 108.128 118.684 99.9195 117.535C91.7108 116.387 88.2141 121.082 88.2141 121.082L77.641 109.393L56.5781 121.149Z" fill="#8DC63F"/>
<path d="M87.6016 152.634L57.7972 152.696C55.158 152.702 53.023 154.846 53.0286 157.485L53.0686 176.616C53.0742 179.256 55.2181 181.391 57.8573 181.385L87.6617 181.323C90.3009 181.317 92.4359 179.173 92.4304 176.534L92.3903 157.403C92.3848 154.763 90.2408 152.628 87.6016 152.634Z" fill="white"/>
<path d="M57.876 182.223C54.779 182.223 52.2648 179.709 52.2481 176.612L52.2148 157.497C52.2148 155.998 52.7976 154.583 53.8466 153.517C54.9122 152.452 56.3109 151.869 57.8094 151.869L87.5972 151.802C90.6942 151.802 93.2085 154.317 93.2085 157.414L93.2418 176.528C93.2418 178.027 92.659 179.442 91.61 180.508C90.5444 181.574 89.1457 182.156 87.6472 182.156L57.8594 182.223H57.876ZM87.6305 153.468L57.8427 153.534C56.7937 153.534 55.7947 153.95 55.0454 154.7C54.2962 155.449 53.8965 156.448 53.8965 157.497L53.9298 176.612C53.9298 178.793 55.7115 180.558 57.8927 180.558L87.6805 180.491C88.7295 180.491 89.7285 180.075 90.4778 179.326C91.227 178.577 91.6267 177.577 91.6267 176.528L91.5934 157.414C91.5934 156.365 91.1771 155.366 90.4278 154.616C89.6785 153.867 88.6962 153.468 87.6472 153.468H87.6305Z" fill="#612A7A"/>
<path d="M63.1885 164.09C65.2116 164.09 66.8516 162.45 66.8516 160.427C66.8516 158.404 65.2116 156.764 63.1885 156.764C61.1654 156.764 59.5254 158.404 59.5254 160.427C59.5254 162.45 61.1654 164.09 63.1885 164.09Z" fill="#8DC63F"/>
<path d="M55.0801 172.399V177.611L88.7475 177.544C88.7475 177.544 87.3822 170.867 82.2371 170.152C77.0921 169.436 74.8943 172.366 74.8943 172.366L68.2674 165.04L55.0635 172.416L55.0801 172.399Z" fill="#8DC63F"/>
<path d="M139.234 152.642L109.43 152.705C106.791 152.71 104.656 154.854 104.661 157.494L104.701 176.625C104.707 179.264 106.851 181.399 109.49 181.394L139.295 181.331C141.934 181.326 144.069 179.182 144.063 176.542L144.023 157.411C144.018 154.772 141.874 152.637 139.234 152.642Z" fill="white"/>
<path d="M109.492 182.223C107.994 182.223 106.595 181.64 105.529 180.591C104.464 179.525 103.881 178.127 103.881 176.628L103.848 157.513C103.848 156.015 104.43 154.599 105.479 153.534C106.545 152.468 107.944 151.885 109.442 151.885L139.23 151.819C142.327 151.819 144.841 154.333 144.858 157.43L144.891 176.545C144.891 178.043 144.308 179.459 143.259 180.524C142.194 181.59 140.795 182.173 139.297 182.173L109.509 182.239L109.492 182.223ZM139.247 153.467L109.459 153.534C108.41 153.534 107.411 153.95 106.662 154.699C105.912 155.449 105.513 156.448 105.513 157.497L105.546 176.611C105.546 177.66 105.962 178.659 106.712 179.409C107.461 180.158 108.443 180.558 109.492 180.558L139.28 180.491C140.329 180.491 141.328 180.075 142.077 179.325C142.827 178.576 143.226 177.577 143.226 176.528L143.193 157.413C143.193 155.232 141.411 153.467 139.247 153.467Z" fill="#612A7A"/>
<path d="M114.821 164.091C116.844 164.091 118.484 162.451 118.484 160.428C118.484 158.404 116.844 156.764 114.821 156.764C112.798 156.764 111.158 158.404 111.158 160.428C111.158 162.451 112.798 164.091 114.821 164.091Z" fill="#8DC63F"/>
<path d="M107.51 172.931V178.143L141.177 178.076C141.177 178.076 139.812 171.399 134.667 170.683C129.522 169.968 127.324 172.898 127.324 172.898L120.697 165.572L107.493 172.948L107.51 172.931Z" fill="#8DC63F"/>
<path d="M190.851 152.651L161.046 152.713C158.407 152.719 156.272 154.863 156.278 157.502L156.318 176.633C156.323 179.272 158.467 181.407 161.106 181.402L190.911 181.339C193.55 181.334 195.685 179.19 195.679 176.551L195.639 157.419C195.634 154.78 193.49 152.645 190.851 152.651Z" fill="white"/>
<path d="M161.126 182.222C158.029 182.222 155.515 179.708 155.498 176.611L155.465 157.496C155.465 154.399 157.979 151.869 161.076 151.869L190.864 151.802C193.961 151.802 196.475 154.316 196.475 157.413L196.525 176.528C196.525 179.625 194.011 182.156 190.914 182.156L161.126 182.222ZM190.881 153.467L161.093 153.534C158.911 153.534 157.147 155.315 157.147 157.496L157.18 176.611C157.18 178.792 158.961 180.557 161.143 180.557L190.93 180.491C191.979 180.491 192.978 180.075 193.728 179.325C194.477 178.576 194.877 177.577 194.877 176.528L194.827 157.413C194.827 156.364 194.41 155.365 193.661 154.616C192.912 153.867 191.93 153.467 190.881 153.467Z" fill="#612A7A"/>
<path d="M166.439 164.09C168.462 164.09 170.102 162.45 170.102 160.427C170.102 158.404 168.462 156.764 166.439 156.764C164.415 156.764 162.775 158.404 162.775 160.427C162.775 162.45 164.415 164.09 166.439 164.09Z" fill="#8DC63F"/>
<path d="M159.127 172.932V178.143L192.794 178.077C192.794 178.077 191.429 171.4 186.284 170.684C181.139 169.968 178.941 172.898 178.941 172.898L172.314 165.572L159.11 172.948L159.127 172.932Z" fill="#8DC63F"/>
<path d="M74.745 63.6045H50.8848V71.9964H74.745V63.6045Z" fill="#612A7A"/>
<path d="M112.759 63.6045H88.8984V71.9964H112.759V63.6045Z" fill="#612A7A"/>
<path d="M150.771 63.6045H126.911V71.9964H150.771V63.6045Z" fill="#612A7A"/>
<path d="M188.785 63.6045H164.925V71.9964H188.785V63.6045Z" fill="#612A7A"/>
<path d="M173.232 89.6128H134.336C133.87 89.6128 133.504 89.2465 133.504 88.7803C133.504 88.3141 133.87 87.9478 134.336 87.9478H173.232C173.698 87.9478 174.065 88.3141 174.065 88.7803C174.065 89.2465 173.698 89.6128 173.232 89.6128Z" fill="#612A7A"/>
<path d="M79.7382 192.913H53.0474C52.5812 192.913 52.2148 192.546 52.2148 192.08C52.2148 191.614 52.5812 191.248 53.0474 191.248H79.7382C80.2044 191.248 80.5707 191.614 80.5707 192.08C80.5707 192.546 80.2044 192.913 79.7382 192.913Z" fill="#612A7A"/>
<path d="M131.355 192.913H104.665C104.198 192.913 103.832 192.546 103.832 192.08C103.832 191.614 104.198 191.248 104.665 191.248H131.355C131.822 191.248 132.188 191.614 132.188 192.08C132.188 192.546 131.822 192.913 131.355 192.913Z" fill="#612A7A"/>
<path d="M182.988 192.913H156.297C155.831 192.913 155.465 192.546 155.465 192.08C155.465 191.614 155.831 191.248 156.297 191.248H182.988C183.454 191.248 183.821 191.614 183.821 192.08C183.821 192.546 183.454 192.913 182.988 192.913Z" fill="#612A7A"/>
<path d="M180.193 101.401H132.339C131.873 101.401 131.507 101.035 131.507 100.569C131.507 100.103 131.873 99.7363 132.339 99.7363H180.193C180.659 99.7363 181.026 100.103 181.026 100.569C181.026 101.035 180.659 101.401 180.193 101.401Z" fill="#612A7A"/>
<path d="M190.464 112.84H132.57C132.104 112.84 131.737 112.473 131.737 112.007C131.737 111.541 132.104 111.175 132.57 111.175H190.464C190.93 111.175 191.296 111.541 191.296 112.007C191.296 112.473 190.93 112.84 190.464 112.84Z" fill="#612A7A"/>
<path d="M190.464 124.279H132.57C132.104 124.279 131.737 123.913 131.737 123.446C131.737 122.98 132.104 122.614 132.57 122.614H190.464C190.93 122.614 191.296 122.98 191.296 123.446C191.296 123.913 190.93 124.279 190.464 124.279Z" fill="#612A7A"/>
<path d="M160.061 135.718H131.855C131.389 135.718 131.022 135.351 131.022 134.885C131.022 134.419 131.389 134.053 131.855 134.053H160.061C160.527 134.053 160.894 134.419 160.894 134.885C160.894 135.351 160.527 135.718 160.061 135.718Z" fill="#612A7A"/>
<path d="M198.459 30.0872H43.7754C41.5776 30.0872 39.7959 31.8688 39.7959 34.0666V46.5712C39.7959 48.769 41.5776 50.5506 43.7754 50.5506H198.459C200.657 50.5506 202.438 48.769 202.438 46.5712V34.0666C202.438 31.8688 200.657 30.0872 198.459 30.0872Z" fill="#612A7A"/>
<path d="M50.5835 43.1077C52.1468 43.1077 53.4141 41.8404 53.4141 40.2771C53.4141 38.7138 52.1468 37.4465 50.5835 37.4465C49.0202 37.4465 47.7529 38.7138 47.7529 40.2771C47.7529 41.8404 49.0202 43.1077 50.5835 43.1077Z" fill="white"/>
<path d="M59.6245 43.1077C61.1878 43.1077 62.4551 41.8404 62.4551 40.2771C62.4551 38.7138 61.1878 37.4465 59.6245 37.4465C58.0612 37.4465 56.7939 38.7138 56.7939 40.2771C56.7939 41.8404 58.0612 43.1077 59.6245 43.1077Z" fill="white"/>
<path d="M68.6656 43.1077C70.2288 43.1077 71.4961 41.8404 71.4961 40.2771C71.4961 38.7138 70.2288 37.4465 68.6656 37.4465C67.1023 37.4465 65.835 38.7138 65.835 40.2771C65.835 41.8404 67.1023 43.1077 68.6656 43.1077Z" fill="white"/>
<path d="M188.355 256.319L150.791 236.871C146.961 234.889 145.513 230.061 147.561 226.098L190.619 142.912C192.667 138.949 197.446 137.351 201.275 139.332L238.839 158.78C242.669 160.761 244.117 165.59 242.069 169.553L199.011 252.739C196.963 256.702 192.184 258.3 188.355 256.319Z" fill="white"/>
<path d="M191.833 258.001C190.518 258.001 189.203 257.701 187.97 257.068L150.407 237.62C146.178 235.422 144.563 230.094 146.827 225.732L189.885 142.546C192.15 138.183 197.428 136.419 201.657 138.6L239.221 158.048C241.285 159.113 242.784 160.945 243.45 163.193C244.116 165.44 243.883 167.838 242.801 169.936L199.742 253.122C198.144 256.219 195.014 258.001 191.833 258.001ZM188.736 255.586C192.15 257.351 196.429 255.903 198.277 252.356L241.335 169.17C242.235 167.438 242.418 165.49 241.868 163.659C241.319 161.844 240.12 160.379 238.472 159.513L200.908 140.065C197.478 138.3 193.215 139.749 191.384 143.295L148.326 226.481C146.494 230.028 147.776 234.357 151.189 236.122L188.753 255.57L188.736 255.586Z" fill="#612A7A"/>
<path d="M186.293 175.103L178.203 190.677C177.088 192.823 177.924 195.467 180.071 196.582L204.333 209.185C206.479 210.3 209.123 209.464 210.237 207.318L218.327 191.744C219.442 189.598 218.606 186.954 216.46 185.839L192.198 173.236C190.052 172.121 187.408 172.957 186.293 175.103Z" fill="white"/>
<path d="M206.335 210.513C205.52 210.513 204.704 210.33 203.938 209.93L179.695 197.342C177.147 196.01 176.148 192.863 177.463 190.299L185.539 174.748C186.188 173.515 187.271 172.6 188.603 172.183C189.935 171.767 191.35 171.884 192.582 172.533L216.825 185.121C219.373 186.453 220.372 189.6 219.056 192.164L210.981 207.716C210.049 209.497 208.234 210.529 206.335 210.529V210.513ZM204.704 208.448C206.452 209.347 208.6 208.665 209.499 206.933L217.575 191.381C218.474 189.65 217.791 187.485 216.059 186.586L191.816 173.998C190.967 173.565 190.018 173.482 189.102 173.765C188.203 174.048 187.454 174.664 187.021 175.513L178.945 191.065C178.046 192.797 178.729 194.961 180.461 195.86L204.704 208.448Z" fill="#612A7A"/>
<path d="M193.298 185.17C195.156 185.17 196.661 183.665 196.661 181.807C196.661 179.949 195.156 178.444 193.298 178.444C191.44 178.444 189.935 179.949 189.935 181.807C189.935 183.665 191.44 185.17 193.298 185.17Z" fill="#8DC63F"/>
<path d="M182.041 188.867L179.843 193.113L207.233 207.333C207.233 207.333 208.948 201.322 205.085 198.558C201.222 195.794 198.175 197.243 198.175 197.243L195.911 188.484L182.057 188.867H182.041Z" fill="#8DC63F"/>
<path d="M198.236 161.057L191.684 157.635L190.481 159.937L197.034 163.36L198.236 161.057Z" fill="#612A7A"/>
<path d="M208.682 166.505L202.129 163.082L200.926 165.384L207.479 168.807L208.682 166.505Z" fill="#612A7A"/>
<path d="M219.127 171.951L212.574 168.528L211.372 170.83L217.924 174.253L219.127 171.951Z" fill="#612A7A"/>
<path d="M229.55 177.413L222.997 173.99L221.794 176.292L228.347 179.715L229.55 177.413Z" fill="#612A7A"/>
<path d="M198.108 218.888C197.975 218.888 197.842 218.855 197.725 218.788L175.946 207.416C175.53 207.199 175.38 206.7 175.597 206.3C175.813 205.884 176.313 205.734 176.712 205.95L198.491 217.323C198.907 217.539 199.057 218.039 198.841 218.438C198.691 218.721 198.408 218.888 198.108 218.888Z" fill="#612A7A"/>
<path d="M198.576 230.96C198.443 230.96 198.31 230.927 198.193 230.86L165.758 213.926C165.342 213.71 165.192 213.21 165.408 212.811C165.625 212.411 166.124 212.245 166.524 212.461L198.959 229.395C199.375 229.611 199.525 230.111 199.309 230.51C199.159 230.793 198.876 230.96 198.576 230.96Z" fill="#612A7A"/>
<path d="M195.161 237.52C195.028 237.52 194.895 237.487 194.778 237.42L162.343 220.487C161.927 220.27 161.777 219.771 161.993 219.371C162.21 218.972 162.709 218.805 163.109 219.021L195.544 235.955C195.96 236.172 196.11 236.671 195.894 237.071C195.744 237.354 195.461 237.52 195.161 237.52Z" fill="#612A7A"/>
<path d="M191.733 244.064C191.6 244.064 191.467 244.031 191.35 243.964L158.915 227.031C158.499 226.814 158.349 226.315 158.565 225.915C158.782 225.515 159.281 225.349 159.681 225.565L192.116 242.499C192.533 242.715 192.682 243.215 192.466 243.615C192.316 243.898 192.033 244.064 191.733 244.064Z" fill="#612A7A"/>
<path d="M216.06 159.846C217.559 159.846 218.774 158.63 218.774 157.132C218.774 155.633 217.559 154.417 216.06 154.417C214.561 154.417 213.346 155.633 213.346 157.132C213.346 158.63 214.561 159.846 216.06 159.846Z" fill="#612A7A"/>
<path d="M216.12 78.447L163.568 94.7748C156.174 97.0722 152.042 104.929 154.339 112.323L154.344 112.339C156.642 119.733 164.498 123.865 171.893 121.567L224.445 105.24C231.839 102.942 235.971 95.0857 233.673 87.6915L233.668 87.6756C231.371 80.2814 223.514 76.1496 216.12 78.447Z" fill="#8DC63F"/>
<path d="M168.351 114.272C166.852 113.489 165.753 112.024 165.104 109.91L162.59 101.801L165.937 100.768L168.418 108.744C169.217 111.342 170.699 112.291 172.863 111.625C173.912 111.292 174.612 110.742 174.978 109.943C175.344 109.144 175.311 108.078 174.895 106.729L172.414 98.7538L175.727 97.7214L178.241 105.83C178.907 107.962 178.841 109.776 178.042 111.275C177.242 112.773 175.81 113.856 173.746 114.489C171.681 115.138 169.883 115.055 168.384 114.272H168.351Z" fill="white"/>
<path d="M192.428 108.395L187.366 104.448L185.501 110.543L181.655 111.741L184.719 102.717L177.409 97.1888L181.222 96.0067L186.018 99.6698L187.832 93.9587L191.462 92.8264L188.582 101.385L196.308 107.196L192.445 108.395H192.428Z" fill="white"/>
<path d="M205.067 102.867C203.568 102.084 202.469 100.619 201.82 98.5044L199.306 90.3956L202.652 89.3466L205.133 97.3222C205.933 99.9197 207.414 100.885 209.579 100.203C210.628 99.8697 211.327 99.3203 211.677 98.521C212.027 97.7218 212.01 96.6562 211.594 95.3075L209.113 87.3319L212.426 86.2996L214.941 94.4084C215.607 96.5396 215.54 98.3545 214.741 99.8531C213.941 101.352 212.51 102.434 210.445 103.067C208.38 103.716 206.582 103.633 205.083 102.85L205.067 102.867Z" fill="white"/>
<path d="M215.722 85.2838L219.068 84.2515L223.564 98.7374L220.217 99.7697L215.722 85.2838Z" fill="white"/>
<path d="M121.033 228.429L115.555 230.343L113.457 236.005L111.475 230.46L105.881 228.429L111.542 226.331L113.457 220.853L115.505 226.447L121.033 228.429Z" fill="#612A7A"/>
<path d="M61.3737 7.57598L55.8956 9.49079L53.7977 15.152L51.8163 9.60734L46.2217 7.57598L51.8829 5.47802L53.7977 0L55.8457 5.59457L61.3737 7.57598Z" fill="#612A7A"/>
<path d="M252.989 129.342L242.133 133.154L237.97 144.377L234.04 133.388L222.935 129.342L234.157 125.179L237.97 114.323L242.016 125.429L252.989 129.342Z" fill="#612A7A"/>
<path d="M124.246 250.99H124.196C123.547 250.99 123.014 250.457 123.014 249.807C123.014 249.158 123.547 248.625 124.196 248.625C124.846 248.625 125.395 249.158 125.395 249.807C125.395 250.457 124.896 250.99 124.246 250.99ZM110.06 250.34C110.06 250.34 109.977 250.34 109.943 250.34C109.943 250.34 109.894 250.34 109.877 250.34C109.228 250.274 108.761 249.691 108.828 249.042C108.894 248.392 109.494 247.943 110.127 247.993C110.776 248.059 111.259 248.642 111.192 249.291C111.126 249.891 110.643 250.357 110.043 250.357L110.06 250.34ZM138.383 250.324C137.783 250.324 137.284 249.874 137.217 249.275C137.15 248.625 137.617 248.042 138.266 247.976L138.449 249.141L138.532 250.324C138.532 250.324 138.449 250.324 138.399 250.324H138.383ZM152.452 248.392C151.853 248.392 151.353 247.943 151.287 247.343C151.22 246.694 151.686 246.111 152.336 246.044C152.952 245.978 153.551 246.411 153.651 247.027C153.751 247.66 153.351 248.242 152.735 248.359C152.702 248.359 152.619 248.376 152.585 248.376C152.536 248.376 152.502 248.376 152.452 248.376V248.392ZM95.7572 248.242L96.007 247.093L95.7239 248.242C95.0912 248.109 94.6749 247.493 94.7915 246.86C94.9247 246.228 95.5408 245.811 96.1735 245.928L95.7406 248.242H95.7572ZM166.355 245.328C165.823 245.328 165.34 244.979 165.207 244.446C165.04 243.83 165.39 243.197 165.989 243.014L166.372 244.13L166.622 245.279C166.539 245.295 166.439 245.312 166.355 245.312V245.328ZM81.8707 244.679L82.237 243.564L81.854 244.679C81.238 244.479 80.8883 243.83 81.0714 243.197C81.2713 242.581 81.9206 242.231 82.5367 242.415L81.8707 244.679ZM179.926 241.249C179.426 241.249 178.977 240.933 178.81 240.433C178.61 239.817 178.943 239.151 179.559 238.935C180.175 238.735 180.875 239.051 181.075 239.667C181.274 240.283 180.975 240.949 180.342 241.149H180.292C180.175 241.199 180.042 241.232 179.926 241.232V241.249ZM68.9166 239.801C68.7667 239.801 68.6002 239.767 68.4503 239.701H68.4004C67.801 239.418 67.5346 238.718 67.801 238.119C68.0674 237.519 68.7667 237.253 69.3661 237.519C69.9655 237.786 70.2486 238.485 69.9822 239.085C69.7824 239.534 69.3661 239.801 68.9166 239.801ZM193.213 236.221C192.713 236.221 192.264 235.904 192.097 235.405C191.897 234.789 192.23 234.123 192.846 233.906C193.446 233.706 194.112 234.006 194.345 234.589C194.578 235.172 194.328 235.838 193.746 236.087C193.712 236.087 193.629 236.137 193.596 236.154C193.479 236.204 193.346 236.221 193.229 236.221H193.213ZM56.1956 233.507C55.9791 233.507 55.7626 233.44 55.5628 233.323C54.9634 233.057 54.7469 232.391 55.0134 231.792C55.2798 231.192 56.029 230.959 56.6285 231.225C56.6784 231.242 56.7617 231.292 56.8116 231.325C57.3611 231.675 57.5276 232.391 57.1779 232.957C56.9615 233.307 56.5619 233.507 56.1789 233.507H56.1956ZM206.1 230.393C205.717 230.393 205.334 230.177 205.118 229.81C204.768 229.261 205.001 228.495 205.551 228.162C205.601 228.128 205.684 228.079 205.734 228.062C206.333 227.796 207.033 228.062 207.299 228.661C207.566 229.261 207.299 229.96 206.7 230.226C206.517 230.343 206.317 230.393 206.117 230.393H206.1ZM44.1406 224.815L43.4246 225.747C42.9084 225.365 42.7752 224.649 43.1415 224.132C43.4912 223.616 44.1905 223.45 44.7233 223.783L44.1406 224.815ZM218.705 223.633C218.288 223.633 217.889 223.416 217.672 223.017C217.356 222.451 217.556 221.735 218.139 221.418C218.688 221.102 219.421 221.285 219.754 221.835C220.087 222.384 219.92 223.083 219.387 223.416C219.371 223.416 219.304 223.466 219.288 223.466C219.104 223.566 218.905 223.616 218.721 223.616L218.705 223.633ZM32.9348 217.256C32.6683 217.256 32.4019 217.172 32.1855 216.973L32.1355 216.939C31.6527 216.506 31.6027 215.757 32.019 215.274C32.4519 214.791 33.2012 214.725 33.684 215.158C34.1669 215.591 34.2335 216.34 33.8172 216.839C33.5841 217.106 33.2511 217.256 32.9181 217.256H32.9348ZM230.726 216.007C230.36 216.007 230.01 215.84 229.777 215.541C229.394 215.025 229.494 214.275 230.01 213.892C230.527 213.509 231.293 213.593 231.676 214.109C232.058 214.625 231.975 215.358 231.459 215.741L231.426 215.774C231.209 215.924 230.96 216.007 230.726 216.007ZM23.1442 206.982C22.8279 206.982 22.5115 206.849 22.2784 206.583C22.2784 206.566 22.2118 206.516 22.1952 206.483C21.8122 205.967 21.9121 205.217 22.4283 204.834C22.9444 204.451 23.6937 204.551 24.0767 205.068C24.4596 205.584 24.3764 206.316 23.8769 206.716C23.6604 206.899 23.394 206.982 23.1276 206.982H23.1442ZM15.0354 195.327C14.6525 195.327 14.2862 195.144 14.0697 194.794C14.0697 194.778 14.0197 194.711 14.0197 194.694C13.7034 194.128 13.9032 193.412 14.486 193.096C15.0521 192.779 15.7681 192.979 16.0844 193.562C16.4008 194.128 16.2176 194.844 15.6682 195.177C15.4683 195.294 15.2685 195.344 15.0521 195.344L15.0354 195.327ZM8.79148 182.573C8.34192 182.573 7.92565 182.323 7.7425 181.89C7.7425 181.857 7.69255 181.773 7.6759 181.74C7.47609 181.124 7.8091 180.458 8.42517 180.242C9.04124 180.025 9.70726 180.375 9.92372 180.991C10.1235 181.59 9.82382 182.256 9.24105 182.489C9.09119 182.539 8.94134 182.573 8.80813 182.573H8.79148ZM3.31346 168.153C3.18025 167.537 3.54656 166.905 4.16263 166.738C4.7787 166.572 5.41142 166.921 5.59458 167.521L4.47899 167.904L3.33011 168.153H3.31346ZM0.782575 154.05L1.96476 153.934L0.782575 154.017C0.715973 153.368 1.18219 152.785 1.83156 152.718C2.46428 152.652 3.0637 153.118 3.1303 153.767L0.782575 154.067V154.05ZM1.18219 140.913C0.532817 140.913 0 140.414 0 139.764V139.714C0 139.065 0.532817 138.532 1.18219 138.532C1.83156 138.532 2.36438 139.065 2.36438 139.714C2.36438 140.364 1.83156 140.913 1.18219 140.913ZM2.01471 126.744C2.01471 126.744 1.93146 126.744 1.89816 126.744C1.24879 126.677 0.782575 126.128 0.849177 125.478C0.849177 125.478 0.849177 125.428 0.849177 125.412C0.915779 124.762 1.53185 124.313 2.14792 124.363C2.79729 124.429 3.2635 125.012 3.1969 125.661C3.1303 126.261 2.61413 126.727 2.01471 126.727V126.744ZM232.741 114.672C232.525 114.672 232.308 114.605 232.108 114.489C231.559 114.139 231.392 113.423 231.742 112.857C232.009 112.258 232.675 112.041 233.274 112.308C233.873 112.574 234.106 113.323 233.84 113.923C233.823 113.973 233.773 114.056 233.74 114.106C233.524 114.455 233.124 114.655 232.741 114.655V114.672ZM5.54463 111.791L4.37909 111.608L3.2302 111.325C3.36341 110.692 3.97948 110.276 4.6122 110.393C5.24492 110.526 5.66118 111.142 5.54463 111.775V111.791ZM237.62 101.368C237.503 101.368 237.387 101.368 237.287 101.318C236.671 101.135 236.304 100.469 236.504 99.853C236.687 99.2536 237.32 98.854 237.936 99.0205C238.552 99.187 238.935 99.7697 238.802 100.402C238.802 100.436 238.785 100.502 238.769 100.536C238.619 101.052 238.153 101.368 237.636 101.368H237.62ZM9.2244 98.188L8.07551 97.8882L6.95992 97.5053C7.15973 96.8892 7.8091 96.5395 8.44182 96.7227C9.05789 96.9225 9.40755 97.5552 9.2244 98.188ZM239.168 87.2652C238.519 87.2652 237.986 86.7324 237.986 86.083C237.986 85.4337 238.519 84.8842 239.168 84.8842C239.818 84.8842 240.35 85.3837 240.35 86.0331V86.083C240.35 86.7324 239.818 87.2652 239.168 87.2652ZM13.0873 85.75C12.9375 85.75 12.771 85.7167 12.6211 85.6501C12.0217 85.3837 11.7553 84.7177 12.005 84.1183V84.0683C12.2881 83.4689 12.9874 83.2025 13.5868 83.4689C14.1863 83.7353 14.4527 84.4346 14.1863 85.034C13.9864 85.4836 13.5369 85.75 13.0873 85.75ZM237.22 73.2288C236.671 73.2288 236.171 72.8459 236.071 72.2798C235.871 71.6637 236.204 71.0476 236.837 70.8312C237.453 70.6314 238.136 71.0143 238.336 71.6304C238.336 71.6803 238.386 71.7636 238.386 71.8135C238.519 72.4463 238.103 73.079 237.453 73.1955C237.37 73.1955 237.303 73.2122 237.22 73.2122V73.2288ZM19.3313 73.0124C19.1148 73.0124 18.8984 72.9458 18.6985 72.8292C18.1491 72.4796 17.9826 71.7636 18.3322 71.1975C18.5986 70.5981 19.2647 70.3816 19.8641 70.648C20.4635 70.9144 20.6966 71.6637 20.4302 72.2631C20.4136 72.3131 20.3636 72.3963 20.3303 72.4463C20.1138 72.7959 19.7142 72.9957 19.3313 72.9957V73.0124ZM26.7741 60.8908C26.541 60.8908 26.3245 60.8242 26.1247 60.691C25.6085 60.3413 25.442 59.642 25.775 59.1092C25.7917 59.0759 25.8416 59.0093 25.8583 58.9926C26.2412 58.4765 26.9905 58.3599 27.5067 58.7595C28.0228 59.1592 28.1394 59.8918 27.7398 60.4079C27.5067 60.7243 27.1404 60.8908 26.7741 60.8908ZM231.942 60.0749C231.492 60.0749 231.059 59.8085 230.86 59.3756C230.51 58.8261 230.71 58.1435 231.259 57.7938C231.809 57.4441 232.558 57.6606 232.908 58.2267C232.941 58.2767 232.991 58.3599 233.008 58.4099C233.274 59.0093 233.008 59.7086 232.408 59.975C232.258 60.0416 232.092 60.0749 231.925 60.0749H231.942ZM35.3824 49.5851C35.116 49.5851 34.8329 49.5019 34.6165 49.3021C34.1336 48.8691 34.0503 48.1532 34.4833 47.6537L34.5166 47.6037C34.9495 47.1208 35.6987 47.0542 36.1816 47.4871C36.6645 47.9201 36.7144 48.6693 36.2982 49.1522C36.0651 49.4186 35.7154 49.5685 35.3824 49.5685V49.5851ZM223.916 48.4362C223.583 48.4362 223.267 48.303 223.034 48.0366L224.782 46.4548L223.883 47.2207L224.799 46.4715C225.232 46.9543 225.182 47.7036 224.682 48.1365C224.466 48.3363 224.183 48.4362 223.9 48.4362H223.916ZM45.0896 39.2118C44.7733 39.2118 44.4569 39.0953 44.2238 38.8455C43.7909 38.3793 43.7909 37.68 44.2238 37.2304C44.2405 37.2138 44.3071 37.1638 44.3237 37.1305C44.8232 36.7143 45.5559 36.7642 45.9888 37.2637C46.405 37.7632 46.3551 38.4959 45.8556 38.9288C45.6225 39.1286 45.3394 39.2118 45.0563 39.2118H45.0896ZM213.843 38.4626C213.56 38.4626 213.293 38.3627 213.06 38.1629C212.577 37.7299 212.511 36.9807 212.927 36.4812C213.36 35.9983 214.076 35.915 214.575 36.348L214.625 36.3813C215.108 36.8142 215.158 37.5634 214.742 38.0463C214.509 38.3127 214.176 38.4459 213.859 38.4459L213.843 38.4626ZM202.354 30.1207C202.171 30.1207 201.971 30.0707 201.788 29.9708L202.321 28.9218L202.953 27.9228C203.503 28.2558 203.686 28.9718 203.37 29.5379C203.153 29.9209 202.754 30.1207 202.354 30.1207ZM56.6451 29.6378L55.8459 28.772L55.1466 27.8229C55.6461 27.4399 56.3954 27.5232 56.795 28.0061C57.1946 28.5056 57.1446 29.2215 56.6618 29.6378H56.6451ZM189.949 23.244C189.733 23.244 189.516 23.1774 189.317 23.0609C188.717 22.7944 188.501 22.1284 188.767 21.529C189.034 20.9296 189.783 20.6965 190.382 20.9629C190.432 20.9795 190.515 21.0295 190.565 21.0628C191.115 21.4124 191.281 22.1284 190.932 22.6945C190.715 23.0442 190.316 23.244 189.933 23.244H189.949ZM67.6012 21.9453C67.2016 21.9453 66.8019 21.7455 66.5855 21.3791C66.2691 20.8297 66.419 20.1304 66.9518 19.7973C66.9684 19.7973 67.035 19.7474 67.0517 19.7474C67.6178 19.431 68.3338 19.6308 68.6501 20.2136C68.9665 20.7797 68.7667 21.4957 68.1839 21.8121C68.0008 21.912 67.801 21.9619 67.6012 21.9619V21.9453ZM176.912 17.6161C176.745 17.6161 176.596 17.5828 176.429 17.5162C175.846 17.2665 175.563 16.5838 175.78 16.001C176.013 15.4183 176.646 15.1019 177.228 15.3017C177.262 15.3017 177.345 15.335 177.378 15.3517C177.978 15.6181 178.244 16.3174 177.978 16.9168C177.778 17.3497 177.345 17.6161 176.895 17.6161H176.912ZM80.2223 15.4516C79.7727 15.4516 79.3231 15.2018 79.1233 14.7522C78.8569 14.1528 79.1067 13.4702 79.7061 13.2037H79.7561C80.3555 12.9207 81.0548 13.2037 81.3212 13.7865C81.5876 14.3859 81.3212 15.0853 80.7218 15.3517C80.5553 15.4183 80.3888 15.4516 80.2389 15.4516H80.2223ZM163.475 13.0705C163.475 13.0705 163.308 13.0705 163.242 13.0539C163.192 13.0539 163.109 13.0206 163.059 13.0039C162.443 12.8041 162.11 12.1381 162.309 11.5054C162.509 10.8893 163.175 10.5397 163.808 10.7561L163.442 11.8717L163.825 10.7561C164.457 10.8893 164.824 11.4887 164.707 12.1381C164.591 12.7042 164.074 13.0705 163.508 13.0705H163.475ZM93.4428 10.6562C92.9599 10.6562 92.527 10.3399 92.3605 9.84035C92.1607 9.22428 92.5437 8.54161 93.1597 8.3418C93.2097 8.3418 93.2929 8.29185 93.3429 8.29185C93.9923 8.17529 94.6083 8.57491 94.7249 9.22428C94.8581 9.857 94.4418 10.4897 93.7924 10.6063C93.6759 10.6396 93.5427 10.6729 93.4261 10.6729L93.4428 10.6562ZM149.738 9.42408C149.738 9.42408 149.588 9.42408 149.505 9.40743L149.938 7.09301L149.688 8.2419L149.971 7.09301C150.604 7.22622 151.02 7.84228 150.904 8.475C150.787 9.04112 150.304 9.42408 149.755 9.42408H149.738ZM107.379 7.59253C106.78 7.59253 106.264 7.14296 106.214 6.52689C106.147 5.87752 106.63 5.29476 107.263 5.22815C107.895 5.0783 108.478 5.49456 108.628 6.12728C108.778 6.76 108.328 7.39272 107.679 7.54258C107.629 7.54258 107.546 7.55923 107.496 7.57588C107.463 7.57588 107.413 7.57588 107.379 7.57588V7.59253ZM135.752 7.05971C135.752 7.05971 135.669 7.05971 135.619 7.05971C134.969 6.99311 134.486 6.41034 134.553 5.76097C134.62 5.1116 135.186 4.62874 135.818 4.71199C135.818 4.71199 135.868 4.71199 135.885 4.71199C136.534 4.77859 137.001 5.36136 136.934 6.01073C136.867 6.61015 136.351 7.05971 135.768 7.05971H135.752ZM121.516 6.41034C120.866 6.41034 120.333 5.87752 120.333 5.22815C120.333 4.57879 120.866 4.04597 121.516 4.04597C122.182 3.96272 122.714 4.44558 122.781 5.09495C122.848 5.74432 122.348 6.32709 121.699 6.39369C121.649 6.39369 121.566 6.39369 121.516 6.39369V6.41034Z" fill="#612A7A"/>
</svg>
