<svg width="432" height="232" viewBox="0 0 432 232" fill="none" xmlns="http://www.w3.org/2000/svg">
<path d="M387.058 141.874C387.058 141.874 30.1399 112.26 36.9397 177.844C43.7394 243.428 589.311 207.458 387.058 141.874Z" fill="#FFD441"/>
<path d="M278.774 203.263C278.067 203.263 277.429 202.772 277.272 202.055C277.095 201.231 277.615 200.406 278.45 200.229L298.626 195.84C291.488 190.313 274.081 175.674 276.192 166.043C278.823 154.084 321.934 158.944 330.554 160.044C331.399 160.152 331.988 160.918 331.88 161.762C331.772 162.606 331.006 163.205 330.162 163.087C309.887 160.505 280.679 159.926 279.186 166.7C278.352 170.48 282.24 176.764 290.114 184.393C296.388 190.47 303.054 195.33 303.123 195.379L305.901 197.392L279.098 203.214C278.99 203.233 278.882 203.253 278.774 203.253V203.263Z" fill="#612A7A"/>
<path d="M327.728 204.284C326.914 204.284 326.236 203.646 326.197 202.821C326.158 201.977 326.815 201.26 327.66 201.221L342.996 200.524C338.98 198.845 333.619 196.498 328.308 193.838C313.512 186.396 306.482 180.279 306.816 175.124C307.817 159.523 354.866 159.7 360.216 159.769C361.061 159.779 361.748 160.476 361.728 161.32C361.719 162.165 361.031 162.832 360.197 162.832H360.177C341.022 162.567 310.498 165.738 309.879 175.311C309.771 177 311.48 181.919 329.663 191.069C340.011 196.272 350.585 200.249 350.693 200.288L357.732 202.919L327.797 204.284C327.797 204.284 327.748 204.284 327.728 204.284Z" fill="#612A7A"/>
<path d="M243.912 172.375C243.323 172.375 242.763 172.032 242.508 171.462C242.165 170.687 242.508 169.783 243.284 169.43L264.707 159.906C265.885 158.286 272.64 148.076 291.549 103.757C291.883 102.981 292.786 102.608 293.562 102.952C294.338 103.286 294.701 104.189 294.367 104.965C273.337 154.261 267.102 161.85 266.847 162.155L266.621 162.42L244.521 172.238C244.315 172.326 244.108 172.365 243.902 172.365L243.912 172.375Z" fill="#612A7A"/>
<path d="M405.222 186.945C405.065 186.945 404.898 186.916 404.731 186.867L383.082 179.651L386.116 177.952C386.342 177.824 408.462 165.238 411.653 144.423C413.606 131.67 408.138 118.366 395.394 104.896C394.815 104.277 394.834 103.305 395.453 102.726C396.071 102.147 397.043 102.176 397.623 102.785C411.054 116.992 416.797 131.169 414.686 144.914C411.947 162.783 396.847 174.604 390.455 178.875L405.713 183.961C406.518 184.226 406.95 185.1 406.685 185.905C406.469 186.553 405.87 186.955 405.232 186.955L405.222 186.945Z" fill="#612A7A"/>
<path d="M291.704 77.8349L291.02 156.229C290.955 163.668 296.933 169.752 304.372 169.817L382.766 170.501C390.206 170.566 396.289 164.588 396.354 157.148L397.038 78.7542C397.103 71.315 391.125 65.2317 383.686 65.1668L305.291 64.4826C297.852 64.4177 291.769 70.3957 291.704 77.8349Z" fill="#612A7A"/>
<path d="M381.51 162.449H381.402L321.953 161.929C318.812 161.899 315.876 160.653 313.677 158.414C311.477 156.176 310.28 153.22 310.309 150.079L310.829 90.6302C310.859 87.4884 312.106 84.5528 314.344 82.3536C316.583 80.1544 319.528 78.9664 322.68 78.986L382.128 79.5064C385.27 79.5358 388.206 80.7827 390.405 83.0212C392.604 85.2597 393.802 88.215 393.772 91.3567L393.252 150.805C393.223 153.947 391.976 156.882 389.737 159.082C387.528 161.252 384.602 162.449 381.51 162.449ZM381.431 159.376C383.709 159.396 385.938 158.512 387.587 156.892C389.236 155.272 390.159 153.093 390.179 150.776L390.699 91.3273C390.719 89.0102 389.835 86.8208 388.215 85.1714C386.595 83.5219 384.416 82.5991 382.099 82.5794L322.65 82.0591C320.353 82.0787 318.144 82.9231 316.494 84.543C314.845 86.163 313.922 88.3426 313.903 90.6597L313.382 150.108C313.363 152.425 314.246 154.615 315.866 156.264C317.486 157.913 319.666 158.836 321.983 158.856L381.431 159.376Z" fill="#6553A3"/>
<path d="M343.868 41.9523C344.064 75.3631 291.587 74.9017 292.372 41.5006C292.176 8.08979 344.653 8.55126 343.868 41.9523Z" fill="white"/>
<path d="M318.165 68.3236C312.794 68.3236 307.434 66.9687 302.878 64.2491C294.886 59.4873 290.606 51.3973 290.841 41.4614C290.782 31.5746 295.2 23.5533 303.281 18.9388C312.323 13.7647 324.419 13.8628 333.373 19.2038C341.365 23.9656 345.636 32.0459 345.41 41.9719C345.459 51.898 341.041 59.8997 332.971 64.524C328.523 67.0669 323.349 68.3334 318.165 68.3334V68.3236ZM318.077 18.1828C313.433 18.1828 308.779 19.3217 304.793 21.5995C297.714 25.6445 293.846 32.7135 293.905 41.4908C293.698 50.3075 297.439 57.4452 304.439 61.6179C312.47 66.3993 323.319 66.4974 331.439 61.8535C338.518 57.8084 342.386 50.7394 342.327 41.9621V41.913C342.533 33.1357 338.793 26.0078 331.792 21.8351C327.708 19.4002 322.887 18.1828 318.077 18.1828Z" fill="#6553A3"/>
<path d="M397.004 42.4137C397.201 75.8246 344.723 75.3631 345.509 41.9621C345.312 8.55121 397.79 9.01268 397.004 42.4137Z" fill="white"/>
<path d="M371.302 68.7949C365.931 68.7949 360.57 67.44 356.015 64.7204C348.023 59.9586 343.742 51.8685 343.978 41.9326C343.919 32.0458 348.337 24.0245 356.417 19.41C365.46 14.2359 377.556 14.3341 386.51 19.6751C394.502 24.4369 398.773 32.5171 398.547 42.4432C398.596 52.3692 394.178 60.371 386.107 64.9953C381.66 67.5381 376.486 68.8047 371.302 68.8047V68.7949ZM371.213 18.654C366.569 18.654 361.925 19.7929 357.929 22.0707C350.851 26.1158 346.982 33.1847 347.041 41.9621C346.835 50.7787 350.576 57.9164 357.576 62.0891C365.607 66.8705 376.456 66.9687 384.576 62.3248C391.654 58.2797 395.523 51.2107 395.464 42.4334V42.3843C395.67 33.6069 391.929 26.479 384.929 22.3063C380.845 19.8715 376.024 18.654 371.213 18.654Z" fill="#6553A3"/>
<path d="M371.781 33.5284C371.781 46.3606 360.088 45.045 360.598 33.4302C360.264 21.8253 372.026 20.6668 371.781 33.5284Z" fill="#613182"/>
<path d="M365.45 33.4695C365.44 34.5985 363.309 35.5018 360.708 35.5116C360.541 34.1567 360.56 32.6349 360.747 31.2997C363.349 31.3586 365.46 32.3404 365.45 33.4597V33.4695Z" fill="white"/>
<path d="M318.668 33.0669C318.668 45.8991 306.974 44.5835 307.485 32.9688C307.151 21.3638 318.913 20.2053 318.668 33.0669Z" fill="#613182"/>
<path d="M312.344 33.008C312.334 34.1371 310.204 35.0403 307.602 35.0502C307.435 33.6953 307.455 32.1735 307.641 30.8382C310.243 30.8971 312.354 31.8789 312.344 32.9982V33.008Z" fill="white"/>
<path d="M372.881 75.9424C376.131 78.4067 360.383 91.8968 349.652 91.9655C338.528 92.044 321.022 80.2722 323.29 76.8555C326.53 71.9955 336.869 80.1445 349.426 79.8795C361.983 79.6144 369.082 73.0559 372.871 75.9326L372.881 75.9424Z" fill="#FFD441"/>
<path d="M383.219 105.485L369.985 145.297L360.068 145.248L351.419 118.209L342.229 145.17L332.372 145.12L319.461 105.181L329.034 105.23L337.899 133.299L347.433 105.318L355.974 105.357L364.958 133.663L374.383 105.446L383.21 105.485H383.219Z" fill="white"/>
<path d="M237.455 124.041C247.914 124.041 256.394 115.562 256.394 105.102C256.394 94.6423 247.914 86.163 237.455 86.163C226.995 86.163 218.516 94.6423 218.516 105.102C218.516 115.562 226.995 124.041 237.455 124.041Z" fill="#D1EDF8"/>
<path d="M237.455 125.573C226.164 125.573 216.984 116.393 216.984 105.102C216.984 93.8113 226.164 84.6314 237.455 84.6314C248.746 84.6314 257.926 93.8113 257.926 105.102C257.926 116.393 248.746 125.573 237.455 125.573ZM237.455 87.6946C227.863 87.6946 220.057 95.5 220.057 105.092C220.057 114.684 227.863 122.49 237.455 122.49C247.047 122.49 254.853 114.684 254.853 105.092C254.853 95.5 247.047 87.6946 237.455 87.6946Z" fill="#612A7A"/>
<path d="M246.822 107.537H240.411V113.801H235.659V107.537H229.277V103.04H235.659V96.7764H240.411V103.04H246.822V107.537Z" fill="#612A7A"/>
<path d="M237.455 39.3999C247.914 39.3999 256.394 30.9206 256.394 20.4609C256.394 10.0011 247.914 1.52185 237.455 1.52185C226.995 1.52185 218.516 10.0011 218.516 20.4609C218.516 30.9206 226.995 39.3999 237.455 39.3999Z" fill="#D1EDF8"/>
<path d="M237.455 40.9413C226.164 40.9413 216.984 31.7614 216.984 20.4707C216.984 9.17989 226.164 0 237.455 0C248.746 0 257.926 9.17989 257.926 20.4707C257.926 31.7614 248.746 40.9413 237.455 40.9413ZM237.455 3.06323C227.863 3.06323 220.057 10.8686 220.057 20.4608C220.057 30.0531 227.863 37.8584 237.455 37.8584C247.047 37.8584 254.853 30.0531 254.853 20.4608C254.853 10.8686 247.047 3.06323 237.455 3.06323Z" fill="#612A7A"/>
<path d="M229.27 13.8336H246.814V18.3303H229.27V13.8336ZM229.27 22.9742H246.814V27.4709H229.27V22.9742Z" fill="#612A7A"/>
<path d="M156.007 231.991C155.683 231.991 155.349 231.883 155.065 231.667L134.005 215.398L134.496 214.299C134.574 214.122 142.173 196.911 146.366 186.906C146.788 185.905 146.719 184.982 146.16 184.03C141.849 176.637 113.642 171.786 103.137 170.549C102.293 170.451 101.694 169.685 101.792 168.841C101.89 167.997 102.666 167.408 103.5 167.496C103.598 167.506 113.328 168.674 123.627 171.011C137.775 174.231 146.248 178.09 148.81 182.478C149.851 184.265 149.989 186.209 149.193 188.094C145.61 196.646 139.532 210.46 137.785 214.436L156.94 229.242C157.607 229.762 157.735 230.724 157.215 231.402C156.91 231.794 156.459 232.001 155.997 232.001L156.007 231.991Z" fill="#8DC63F"/>
<path d="M179.236 108.028C179.088 108.028 178.941 108.028 178.794 108.018C172.51 107.714 167.729 101.332 164.185 88.5196C163.959 87.7047 164.44 86.8603 165.255 86.6345C166.07 86.4185 166.914 86.8898 167.14 87.7047C170.193 98.7598 174.278 104.729 178.931 104.955C191.714 105.583 209.387 67.1849 215.091 52.34L215.376 51.6135L232.803 46.9401C233.628 46.7143 234.462 47.2052 234.688 48.0299C234.904 48.8448 234.423 49.6891 233.598 49.915L217.673 54.1858C216.476 57.2098 211.645 69.0798 205.322 80.7437C195.494 98.8678 186.717 108.048 179.226 108.048L179.236 108.028Z" fill="#8DC63F"/>
<path d="M71.8396 81.6914L70.5397 160.078C70.4164 167.516 76.3465 173.646 83.7849 173.77L162.171 175.069C169.61 175.193 175.74 169.263 175.863 161.824L177.163 83.4379C177.286 75.9994 171.356 69.8694 163.918 69.746L85.5314 68.4462C78.093 68.3229 71.9629 74.2529 71.8396 81.6914Z" fill="#8DC63F"/>
<path d="M161.074 166.995C161.005 166.995 160.946 166.995 160.877 166.995L101.439 166.013C98.297 165.964 95.3712 164.688 93.1916 162.44C91.012 160.182 89.8338 157.216 89.8927 154.075L90.8745 94.6264C90.9236 91.4846 92.2 88.5588 94.4483 86.3792C96.7065 84.1996 99.6912 83.0116 102.813 83.0803L162.252 84.0621C168.732 84.1701 173.906 89.5308 173.808 96.0009L172.826 155.439C172.718 161.851 167.465 166.995 161.083 166.995H161.074ZM160.926 163.922C165.757 164.011 169.664 160.172 169.743 155.39L170.725 95.9518C170.803 91.1704 166.974 87.2137 162.193 87.1352L102.754 86.1534C100.427 86.1043 98.2479 86.9781 96.5788 88.5883C94.9098 90.1984 93.977 92.3584 93.9378 94.6755L92.956 154.124C92.9167 156.441 93.7807 158.63 95.3908 160.299C97.001 161.968 99.161 162.901 101.478 162.94L160.917 163.922H160.926Z" fill="#6553A3"/>
<path d="M124.283 46.2037C124.214 79.6146 71.7463 78.7408 72.7968 45.3496C72.8655 11.9387 125.333 12.8125 124.283 46.2037Z" fill="white"/>
<path d="M98.6206 72.3786C93.1715 72.3786 87.7225 70.9747 83.1178 68.1863C75.1554 63.3559 70.9533 55.2363 71.2576 45.3004C71.2773 35.4137 75.7543 27.4316 83.8738 22.876C92.9654 17.7706 105.051 17.967 113.966 23.3767C121.919 28.1974 126.131 36.3169 125.826 46.2331C125.797 56.1592 121.32 64.1315 113.21 68.687C108.822 71.1514 103.726 72.3786 98.6304 72.3786H98.6206ZM98.4537 22.2378C93.8784 22.2378 89.313 23.3374 85.376 25.5563C78.2677 29.5523 74.3503 36.582 74.3307 45.3594C74.0558 54.176 77.7376 61.3431 84.7084 65.5649C92.7003 70.415 103.549 70.5917 111.698 66.0165C118.806 62.0206 122.724 54.9909 122.744 46.2135V46.1644C123.018 37.3871 119.337 30.2297 112.366 26.0079C108.232 23.5043 103.343 22.2476 98.4537 22.2476V22.2378Z" fill="#6553A3"/>
<path d="M177.408 47.0873C177.339 80.4982 124.871 79.6244 125.922 46.2332C125.991 12.8223 178.458 13.6961 177.408 47.0873Z" fill="white"/>
<path d="M151.753 73.2623C146.304 73.2623 140.855 71.8584 136.251 69.07C128.298 64.2396 124.086 56.12 124.39 46.1842C124.41 36.2974 128.887 28.3153 137.007 23.7597C146.088 18.6543 158.184 18.8507 167.099 24.2604C175.052 29.0811 179.264 37.2006 178.959 47.1169C178.93 57.0429 174.453 65.0152 166.343 69.5708C161.954 72.0351 156.859 73.2623 151.763 73.2623H151.753ZM151.586 23.1215C147.011 23.1215 142.446 24.2211 138.499 26.44C131.391 30.436 127.473 37.4657 127.454 46.2431C127.179 55.0597 130.861 62.2268 137.831 66.4486C145.823 71.2987 156.672 71.4755 164.821 66.9003C171.929 62.9043 175.847 55.8746 175.866 47.0972V47.0482C176.141 38.2708 172.46 31.1134 165.489 26.8917C161.355 24.3881 156.466 23.1313 151.577 23.1313L151.586 23.1215Z" fill="#6553A3"/>
<path d="M169.87 37.4558C170.184 50.288 158.451 49.2375 158.687 37.6227C158.078 26.0276 169.811 24.5941 169.87 37.4558Z" fill="#613182"/>
<path d="M163.548 37.554C163.568 38.6732 161.457 39.6452 158.855 39.714C158.659 38.3689 158.639 36.8373 158.796 35.502C161.398 35.502 163.528 36.4249 163.548 37.554Z" fill="white"/>
<path d="M116.764 38.2412C117.078 51.0734 105.346 50.0229 105.581 38.4081C104.973 26.813 116.705 25.3795 116.764 38.2412Z" fill="#613182"/>
<path d="M110.435 38.3394C110.454 39.4586 108.344 40.4306 105.742 40.4994C105.545 39.1543 105.526 37.6227 105.683 36.2874C108.285 36.2874 110.415 37.2103 110.435 38.3394Z" fill="white"/>
<path d="M150.705 79.2414C154.986 85.7606 144.186 95.2449 125.021 93.3893C116.862 92.594 110.382 85.1224 109.999 79.6734C109.617 74.2244 116.587 82.0101 124.648 83.5221C133.582 85.201 147.701 74.676 150.705 79.2414Z" fill="#613182"/>
<path d="M53.1607 148.891C53.0429 148.891 52.9349 148.891 52.8269 148.881C49.2139 148.606 44.7957 143.933 42.5867 110.149L29.0181 105.829C28.213 105.573 27.7614 104.709 28.0167 103.904C28.272 103.099 29.1359 102.648 29.941 102.903L45.5026 107.851L45.5714 108.902C47.7608 143.668 52.1789 145.749 53.0429 145.808C53.0724 145.808 53.092 145.808 53.1215 145.808C56.872 145.808 65.2173 125.73 72.2863 92.9475C72.463 92.1227 73.2779 91.5926 74.1125 91.7693C74.9372 91.946 75.4674 92.7609 75.2906 93.5955C75.2612 93.7329 72.2765 107.498 68.2314 120.998C60.9366 145.297 56.3516 148.881 53.1509 148.881L53.1607 148.891Z" fill="#8DC63F"/>
<path d="M106.68 133.83C104.697 132.72 103.155 131.208 102.046 129.284C100.936 127.36 100.396 125.2 100.436 122.794C100.475 120.389 101.084 118.249 102.262 116.363C103.44 114.478 105.03 113.016 107.043 111.975C109.056 110.934 111.314 110.433 113.808 110.473C115.909 110.512 117.804 110.905 119.492 111.68C121.181 112.446 122.585 113.536 123.714 114.94L120.052 118.209C118.442 116.285 116.429 115.303 114.004 115.264C112.502 115.234 111.157 115.549 109.969 116.187C108.781 116.825 107.848 117.728 107.171 118.897C106.493 120.065 106.14 121.4 106.12 122.902C106.101 124.404 106.405 125.75 107.043 126.938C107.681 128.126 108.585 129.058 109.753 129.736C110.921 130.413 112.257 130.767 113.759 130.786C116.184 130.825 118.236 129.903 119.905 128.008L123.449 131.395C122.271 132.789 120.818 133.83 119.1 134.547C117.382 135.253 115.467 135.597 113.366 135.558C110.892 135.519 108.673 134.939 106.69 133.84L106.68 133.83Z" fill="#612A7A"/>
<path d="M138.805 134.664C138.265 135.047 137.608 135.332 136.832 135.519C136.056 135.705 135.241 135.784 134.387 135.774C132.168 135.735 130.46 135.145 129.272 133.987C128.074 132.838 127.495 131.159 127.534 128.97L127.662 121.312L124.785 121.263L124.854 117.11L127.731 117.159L127.809 112.623L133.209 112.711L133.131 117.247L137.774 117.326L137.706 121.479L133.062 121.4L132.934 128.99C132.924 129.775 133.111 130.384 133.513 130.816C133.906 131.248 134.476 131.473 135.222 131.483C136.076 131.493 136.812 131.277 137.421 130.825L138.815 134.664H138.805Z" fill="#612A7A"/>
<path d="M149.918 117.522C151.018 117.08 152.294 116.864 153.728 116.894L153.649 121.881C153.05 121.822 152.648 121.793 152.441 121.793C150.89 121.763 149.673 122.186 148.779 123.03C147.886 123.884 147.424 125.17 147.395 126.908L147.248 135.705L141.848 135.617L142.162 116.982L147.326 117.07L147.287 119.525C147.945 118.631 148.828 117.974 149.938 117.522H149.918Z" fill="#612A7A"/>
<path d="M157.055 110.149L162.455 110.237L162.033 135.941L156.633 135.852L157.055 110.149Z" fill="#612A7A"/>
<path d="M192.883 206.297L193.767 203.774C196.153 197.009 201.602 178.041 198.264 171.669C197.763 170.716 197.125 170.157 196.261 169.921C185.48 166.985 134.053 172.827 133.533 172.886C132.699 173.004 131.933 172.376 131.835 171.531C131.736 170.687 132.345 169.931 133.189 169.833C135.33 169.587 185.736 163.863 197.076 166.956C198.774 167.417 200.1 168.527 200.993 170.235C202.986 174.035 202.849 181.055 200.571 191.089C199.54 195.654 198.303 199.768 197.508 202.272L222.819 197.421C223.643 197.255 224.458 197.804 224.615 198.639C224.772 199.473 224.232 200.279 223.398 200.436L192.893 206.277L192.883 206.297Z" fill="#8DC63F"/>
<path d="M7.83481 131.297H22.0219C26.3517 131.297 29.8567 127.792 29.8567 123.462V90.6891H0V123.462C0 127.792 3.50505 131.297 7.83481 131.297Z" fill="#613182"/>
<path d="M24.7292 123.531C23.8554 123.531 23.1093 122.853 23.0503 121.96C22.9914 121.037 23.6885 120.232 24.6114 120.173C33.9484 119.554 37.3356 109.373 37.3356 102.677C37.3356 101.381 36.8251 101.037 36.6287 100.91C34.7535 99.6726 29.6579 101.194 27.4783 102.127C26.6241 102.49 25.6325 102.098 25.2692 101.244C24.906 100.389 25.2987 99.3977 26.1529 99.0344C27.007 98.6712 34.5964 95.5392 38.4745 98.1017C39.4858 98.7694 40.6934 100.105 40.6934 102.677C40.6934 110.63 36.4716 122.755 24.8274 123.531C24.7881 123.531 24.7489 123.531 24.7096 123.531H24.7292Z" fill="#613182"/>
<path d="M228.858 188.379H243.045C247.375 188.379 250.88 184.874 250.88 180.544V147.771H221.023V180.544C221.023 184.874 224.528 188.379 228.858 188.379Z" fill="#613182"/>
<path d="M245.745 180.613C244.871 180.613 244.125 179.935 244.066 179.042C244.007 178.119 244.704 177.314 245.627 177.255C254.964 176.637 258.351 166.455 258.351 159.759C258.351 158.463 257.841 158.12 257.644 157.992C255.936 156.863 251.263 158.022 248.494 159.209C247.64 159.573 246.648 159.18 246.285 158.326C245.922 157.472 246.314 156.48 247.168 156.117C248.023 155.754 255.612 152.622 259.49 155.184C260.501 155.852 261.709 157.187 261.709 159.759C261.709 167.712 257.487 179.837 245.843 180.613C245.804 180.613 245.765 180.613 245.725 180.613H245.745Z" fill="#613182"/>
</svg>
