<svg width="1920" height="333" viewBox="0 0 1920 333" fill="none" xmlns="http://www.w3.org/2000/svg">
<g clip-path="url(#clip0_2612_19045)">
<path d="M299.091 46C161.292 46 -9 211.264 -9 211.264V332.508H724.346C724.346 332.508 436.889 46 299.091 46Z" fill="#B9E5FF"/>
</g>
<g clip-path="url(#clip1_2612_19045)">
<path d="M811.909 149C949.708 149 1120 314.264 1120 314.264V435.508H386.654C386.654 435.508 674.111 149 811.909 149Z" fill="#B9E5FF"/>
</g>
<g clip-path="url(#clip2_2612_19045)">
<path d="M1832.91 52C1970.71 52 2141 217.264 2141 217.264V338.508H1407.65C1407.65 338.508 1695.11 52 1832.91 52Z" fill="#B9E5FF"/>
</g>
<g clip-path="url(#clip3_2612_19045)">
<path d="M1316.91 161C1454.71 161 1625 326.264 1625 326.264V447.508H891.654C891.654 447.508 1179.11 161 1316.91 161Z" fill="#B9E5FF"/>
</g>
<path d="M1018.25 297.876H971.59V334.819H1018.25V297.876Z" fill="#523326"/>
<path d="M991.703 146.124L1130.88 312.439H852.529L991.703 146.124Z" fill="#779429"/>
<path d="M991.709 146.124L1130.88 312.439H991.709V146.124Z" fill="#5D7815"/>
<path d="M992.275 80.8237L1111.21 222.65H873.336L992.275 80.8237Z" fill="#B3DE3F"/>
<path d="M992.275 80.8237L1111.21 222.65H992.275V80.8237Z" fill="#95BA32"/>
<path d="M992.279 6L1089.5 147.826H895.055L992.279 6Z" fill="#779429"/>
<path d="M992.275 6L1089.5 147.826H992.275V6Z" fill="#5D7815"/>
<path d="M840.599 180.198H821.76V195.158H840.599V180.198Z" fill="#523326"/>
<path d="M829.879 118.745L886.068 186.095H773.691L829.879 118.745Z" fill="#779429"/>
<path d="M829.883 118.745L886.071 186.095H829.883V118.745Z" fill="#5D7815"/>
<path d="M830.111 92.3005L878.13 149.734H782.092L830.111 92.3005Z" fill="#B3DE3F"/>
<path d="M830.111 92.3005L878.13 149.734H830.111V92.3005Z" fill="#95BA32"/>
<path d="M830.113 62L869.365 119.434H790.861L830.113 62Z" fill="#779429"/>
<path d="M830.111 62L869.363 119.434H830.111V62Z" fill="#5D7815"/>
<g clip-path="url(#clip4_2612_19045)">
<path d="M1828.23 66.3305V2.08246" stroke="#FFB921" stroke-width="4.35293" stroke-linecap="round"/>
<path d="M1643.4 330.211L1621.05 292.5C1711.07 225.051 1787.62 157.295 1828.03 61.3329C1864.78 153.923 1928.56 216.011 2032.57 292.5L2009.3 330.211H1643.4Z" fill="#FFCC00"/>
<path d="M1648.91 300.779C1650.24 315.531 1650.18 321.927 1648.91 330.825H2007.46C2005.02 319.092 2005.6 312.514 2007.46 300.779C1908.15 224.697 1863.1 175.803 1827.11 62.5609C1793.13 183.663 1730.36 237.929 1648.91 300.779Z" fill="#FFE26C"/>
<path d="M1827.73 159.442C1802.19 245.808 1768.02 294.34 1711.07 330.212H1949.59C1902.44 316.721 1857.18 248.898 1827.73 159.442Z" fill="#FFB921"/>
<path d="M1827.9 159.678C1815.96 247.117 1804.19 287.019 1768.02 331.223H1885.95C1851.41 291.941 1841.38 248.123 1827.9 159.678Z" fill="#242323"/>
<path d="M1613.08 267.986L1629.69 330.044" stroke="#FFB921" stroke-width="4.35293" stroke-linecap="round"/>
</g>
<path d="M1665.36 149.758H1654.06V158.714H1665.36V149.758Z" fill="#523326"/>
<path d="M1658.93 112.97L1692.64 153.288H1625.21L1658.93 112.97Z" fill="#779429"/>
<path d="M1658.93 112.97L1692.64 153.288H1658.93V112.97Z" fill="#5D7815"/>
<path d="M1659.07 97.1391L1687.88 131.521H1630.26L1659.07 97.1391Z" fill="#B3DE3F"/>
<path d="M1659.07 97.1391L1687.88 131.521H1659.07V97.1391Z" fill="#95BA32"/>
<path d="M1659.07 79L1682.62 113.382H1635.52L1659.07 79Z" fill="#779429"/>
<path d="M1659.07 79L1682.62 113.382H1659.07V79Z" fill="#5D7815"/>
<path d="M152.36 149.758H141.057V158.714H152.36V149.758Z" fill="#523326"/>
<path d="M145.928 112.97L179.641 153.288H112.215L145.928 112.97Z" fill="#779429"/>
<path d="M145.93 112.97L179.642 153.288H145.93V112.97Z" fill="#5D7815"/>
<path d="M146.067 97.1391L174.879 131.521H117.256L146.067 97.1391Z" fill="#B3DE3F"/>
<path d="M146.066 97.1391L174.878 131.521H146.066V97.1391Z" fill="#95BA32"/>
<path d="M146.067 79L169.618 113.382H122.516L146.067 79Z" fill="#779429"/>
<path d="M146.066 79L169.618 113.382H146.066V79Z" fill="#5D7815"/>
<path d="M1521.14 264.636C1519.63 260.478 1517 258.588 1517 258.588C1538.43 255.942 1531.66 289.205 1538.43 289.205C1541.86 290.645 1525.27 212.852 1547.07 220.411C1545.19 226.081 1542.94 254.81 1550.83 254.808C1558.73 254.807 1555.72 208.316 1560.98 200C1574.89 218.522 1568.5 268.416 1574.89 270.306C1581.28 272.196 1588.8 247.249 1592.56 247.627C1596.32 248.005 1588.8 269.55 1592.56 271.062C1596.32 272.574 1598.2 264.636 1601.96 265.392C1605.72 266.148 1605.72 289.205 1605.72 289.205C1605.72 289.205 1604.56 305.432 1594.81 313.775C1585.06 322.118 1542.2 323.341 1532.04 316.421C1521.88 309.501 1518.13 306.593 1518.13 293.363C1518.13 280.134 1522.64 268.794 1521.14 264.636Z" fill="#F15A2D"/>
<path d="M1539.26 310.091C1537.29 302.526 1536.99 298.344 1544.15 291.57C1544.61 283.95 1546.45 284.529 1551.29 290.436V271.536C1550.16 259.82 1556.55 260.198 1561.81 270.402L1570.08 287.412C1575.22 276.818 1577.7 276.591 1581.74 287.412C1583.64 296.653 1583.6 300.636 1583.24 307.445C1580.09 314.693 1577.35 317.411 1571.59 321.053H1551.29C1545.44 318.275 1542.94 315.711 1539.26 310.091Z" fill="#E63417"/>
<path d="M1530.91 320.203C1530.91 320.203 1549.7 303.571 1552.71 300.926C1555.72 298.28 1567.37 291.853 1572.26 293.745C1575.25 296.372 1567.07 303.379 1560.36 309.133L1560.23 309.241L1538.05 327.763C1529.03 334.566 1520.76 329.653 1530.91 320.203Z" fill="#2A1017"/>
<path d="M1555.72 303.948C1545.32 318.344 1534.29 328.138 1527.9 323.603C1530.53 319.824 1542.39 309.885 1552.34 301.302L1555.72 303.948Z" fill="#67201E"/>
<path d="M1588.68 319.788C1588.68 319.788 1569.89 303.156 1566.88 300.511C1563.87 297.865 1552.22 291.437 1547.33 293.329C1544.35 295.957 1552.52 302.964 1559.24 308.718L1559.36 308.825L1581.54 327.348C1590.56 334.151 1598.83 329.237 1588.68 319.788Z" fill="#2A1017"/>
<path d="M1563.87 303.534C1574.27 317.93 1585.3 327.725 1591.69 323.19C1589.06 319.41 1577.2 309.471 1567.26 300.888L1563.87 303.534Z" fill="#67201E"/>
<path d="M1573.39 277.109C1566.57 274.882 1558.48 200.41 1560.98 200.377C1573.39 212.473 1569.63 266.903 1574.52 269.927C1579.4 272.951 1589.93 246.492 1592.94 247.626C1594.81 251.028 1590.68 270.305 1591.81 271.061C1594.63 272.951 1598.57 263.879 1602.71 265.769C1606.84 267.659 1604.96 293.74 1604.96 293.74C1604.96 293.74 1602.71 272.951 1600.08 271.061C1597.45 269.171 1591.81 277.487 1589.18 275.219C1586.54 272.951 1592.94 257.952 1590.68 257.075C1588.42 256.199 1580.21 279.336 1573.39 277.109Z" fill="#E63417"/>
<defs>
<clipPath id="clip0_2612_19045">
<rect width="725" height="287" fill="white" transform="translate(0 46)"/>
</clipPath>
<clipPath id="clip1_2612_19045">
<rect width="725" height="287" fill="white" transform="matrix(-1 0 0 1 1111 149)"/>
</clipPath>
<clipPath id="clip2_2612_19045">
<rect width="725" height="287" fill="white" transform="matrix(-1 0 0 1 2132 52)"/>
</clipPath>
<clipPath id="clip3_2612_19045">
<rect width="725" height="287" fill="white" transform="matrix(-1 0 0 1 1616 161)"/>
</clipPath>
<clipPath id="clip4_2612_19045">
<rect width="431" height="333" fill="white" transform="translate(1611)"/>
</clipPath>
</defs>
</svg>
